<svg xmlns="http://www.w3.org/2000/svg" viewBox="0 0 843.01 144.25"><defs><style>.cls-1{fill:#7e7e7d;}.cls-1,.cls-4{fill-rule:evenodd;}.cls-1,.cls-2,.cls-3{opacity:0.1;}.cls-2,.cls-3{fill:none;stroke:#7e7e7d;stroke-miterlimit:22.93;stroke-width:1.42px;}.cls-2{stroke-dasharray:7.09 4.25;}.cls-4{fill:#f1f2f1;}</style></defs><g id="Шар_2" data-name="Шар 2"><g id="eligibility_criteria" data-name="eligibility criteria"><path class="cls-1" d="M811,119.21a35.36,35.36,0,0,0,7.18.75v-1.42a33.24,33.24,0,0,1-6.89-.72l-.29,1.39Zm32-11.88v2.09A34.59,34.59,0,0,1,840.2,112l-.91-1.09a33.36,33.36,0,0,0,3.72-3.61ZM818.91,120a34.47,34.47,0,0,0,7.16-.89l-.32-1.38a32.54,32.54,0,0,1-6.88.85l0,1.42Zm11.32-2.14a33.86,33.86,0,0,0,6.46-3.22l-.76-1.2a32,32,0,0,1-6.2,3.09l.5,1.33Zm11.9-57a35.44,35.44,0,0,0-5.69-4.45l-.76,1.21a33.11,33.11,0,0,1,5.46,4.26l1-1Zm-9.51-6.51A35.18,35.18,0,0,0,825.77,52l-.3,1.38A37.54,37.54,0,0,1,832,55.55l.59-1.29Zm-11.13-3a35.55,35.55,0,0,0-7.22.07l.16,1.41a34.15,34.15,0,0,1,6.93-.07l.13-1.41ZM810,52.11a33.46,33.46,0,0,0-6.8,2.45l.63,1.27a32.65,32.65,0,0,1,6.51-2.35L810,52.11ZM799.43,56.7a34.5,34.5,0,0,0-5.6,4.55l1,1a33.17,33.17,0,0,1,5.38-4.37l-.78-1.18ZM791,64.51a35.69,35.69,0,0,0-3.79,6.15l1.28.61a32.66,32.66,0,0,1,3.64-5.89L791,64.51Zm-5.41,10.17A33.46,33.46,0,0,0,784,81.74l1.41.15a33.29,33.29,0,0,1,1.47-6.76l-1.34-.45ZM783.8,86.07a34.62,34.62,0,0,0,.87,7.17l1.38-.32a33.09,33.09,0,0,1-.83-6.87l-1.42,0Zm2.1,11.33a34.81,34.81,0,0,0,3.19,6.48l1.2-.76a32.86,32.86,0,0,1-3.06-6.21l-1.33.49Zm5.73,10a34.23,34.23,0,0,0,5.15,5.06l.88-1.1a33.87,33.87,0,0,1-4.94-4.86l-1.09.9Zm8.7,7.55a34.21,34.21,0,0,0,6.53,3.09l.47-1.34a32.87,32.87,0,0,1-6.26-3Z"/><circle class="cls-2" cx="171.53" cy="34.64" r="29.4"/><circle class="cls-3" cx="100.95" cy="64.34" r="63.63" transform="translate(-15.93 90.23) rotate(-45)"/><path class="cls-1" d="M26.93,66.84A37.88,37.88,0,0,0,.07,78L0,78v-2a39.41,39.41,0,1,1,0,57.54v-2l.07.07A38,38,0,1,0,26.93,66.84Z"/><path class="cls-4" d="M146.24,22.14a2.5,2.5,0,1,0-2.5-2.5A2.5,2.5,0,0,0,146.24,22.14Z"/><path class="cls-4" d="M789.22,105.6a2.87,2.87,0,1,0-2.87-2.87A2.87,2.87,0,0,0,789.22,105.6Z"/></g></g></svg>