<svg xmlns="http://www.w3.org/2000/svg" viewBox="0 0 34.58 32.59"><defs><style>.cls-1{isolation:isolate;}.cls-2{fill:#fff;}.cls-2,.cls-3,.cls-4{fill-rule:evenodd;}.cls-3{fill:#ef7e56;}.cls-4{fill:#d8d9d9;mix-blend-mode:multiply;}</style></defs><g class="cls-1"><g id="Шар_2" data-name="Шар 2"><g id="what_will_the_challenge_fund" data-name="what will the challenge fund"><path class="cls-2" d="M19.34,32.59A15.24,15.24,0,1,0,4.1,17.35,15.26,15.26,0,0,0,19.34,32.59Z"/><path class="cls-3" d="M24.36,23.11a4.64,4.64,0,0,0-.43.37l-.23.23-.24.3c-.31.32-.61.37-.9.17a3.77,3.77,0,0,1-.5-.43l-.13-.14-.2-.13-.47-.4-.4-.46-.4-.4-.56-.64a.64.64,0,0,0-.93-.06,8.46,8.46,0,0,0-1.14,1,4.72,4.72,0,0,0-.5.63l-.23.3-.33.33a1.31,1.31,0,0,1-.87.47.78.78,0,0,1-.57-.24,2.81,2.81,0,0,1-.39-.46,2.12,2.12,0,0,0-.2-.34.63.63,0,0,0-.3-.16.64.64,0,0,1-.34-.2c-.11-.11-.24-.27-.4-.47a4.24,4.24,0,0,0-.4-.46l-.26-.2-.24-.24a.65.65,0,0,1-.16-.9,2.57,2.57,0,0,1,.4-.46l.3-.37.36-.43L14,19l.26-.2a3.69,3.69,0,0,0,.4-.33,4,4,0,0,0,.3-.36l.37-.37q.3-.37,0-.63L15,16.72l-.39-.47c-.38-.42-.65-.71-.8-.86l-1.1-1.1a.74.74,0,0,1-.24-.83,2,2,0,0,1,.5-.7l.44-.44.23-.16,1.1-1.1.26-.34c.47-.46,1-.42,1.54.14l.4.4.13.2,1.83,1.83c.29.29.56.31.8.07a13.08,13.08,0,0,1,1.07-.94l.43-.36,1.1-1.1a.75.75,0,0,1,.8-.27,2,2,0,0,1,.7.5l.46.47.17.23,1.1,1.1.33.27c.47.46.43,1-.13,1.53l-.4.4-.2.13-.17.17a7,7,0,0,0-.83.83l-.83.83a.36.36,0,0,0,0,.57l.26.27.24.16a2.51,2.51,0,0,1,.4.6,2.6,2.6,0,0,0,.36.5,1.87,1.87,0,0,0,.57.37l.3.16a2,2,0,0,1,.33.27,1.46,1.46,0,0,1,.47.87.74.74,0,0,1-.24.56,1.42,1.42,0,0,1-.3.24l-.2.13-.3.23a1.39,1.39,0,0,0-.23.37,1,1,0,0,1-.17.23l-.43.43ZM13.84,21.38a.83.83,0,0,0,.13-.46c0-.23,0-.36-.07-.4s-.16-.1-.23,0a.82.82,0,0,0-.13.47.5.5,0,0,0,.06.4l.1.1a.19.19,0,0,0,.14-.07Zm8.79.8a.64.64,0,0,0,.1-.56,1,1,0,0,0-.27-.54.21.21,0,0,0-.33,0,.3.3,0,0,0-.07.2l.07.2,0,.24,0,.1V22a.3.3,0,0,0,.06.2C22.4,22.28,22.52,22.29,22.63,22.18Z"/><path class="cls-4" d="M31.12,14.27c0,.1,0,1.7-.86,1.18-.58-.36,1-1.58.86-1.18ZM16.23,30c-.1,0-1.5-.81-1.45.18,0,.68,1.85-.07,1.45-.18Zm13.32-8.17c-.1,0-1.49-.81-1.45.18,0,.68,1.85-.07,1.45-.18Zm-6,6.62c-.1,0-1.49-.82-1.45.17,0,.68,1.85-.07,1.45-.17Zm.67-2.12c0,.09,0,1.7.86,1.18.58-.37-1-1.58-.86-1.18Zm-4.33,2.85c0,.09,0,1.7-.86,1.17-.58-.36,1-1.58.86-1.17Zm5.79-4.72c-.1,0-1.49-.82-1.45.17,0,.68,1.85-.07,1.45-.17Zm2.38.06c-.06-.09-.54-1.61-1.18-.86-.45.52,1.41,1.21,1.18.86ZM11.49,6.72c0,.09,0,1.69-.86,1.17-.58-.36,1-1.58.86-1.17Zm2.35,0c-.06-.08-.54-1.61-1.18-.85-.44.52,1.41,1.2,1.18.85Zm-4-1.86c0,.1,0,1.7-.86,1.18-.58-.36,1-1.58.86-1.18ZM12,4.51c.41.1-1.41.86-1.44.18,0-1,1.35-.2,1.44-.18Zm2-.46C14,4,13.53,2.44,12.89,3.19c-.44.52,1.41,1.21,1.18.86ZM9,6.63c-.1,0-1.49-.81-1.45.17,0,.69,1.85-.07,1.45-.17Zm2.79,20.89c0,.1,0,1.7-.86,1.18-.58-.36,1-1.58.86-1.18ZM9.72,28c-.1,0-1.5-.81-1.45.18,0,.68,1.85-.07,1.45-.18Zm.2-19.25c-.1,0-1.5-.81-1.45.18,0,.68,1.85-.07,1.45-.18ZM3.21,24.24c0-.08-.54-1.61-1.18-.85-.44.52,1.41,1.2,1.18.85Zm1.85.14c0,.09,0,1.7-.86,1.17-.58-.36,1-1.58.86-1.17ZM9.18,13.71c-.1,0-1.49-.81-1.45.18,0,.68,1.85-.08,1.45-.18Zm-2,11.56c0-.09-.54-1.61-1.18-.86-.44.52,1.41,1.21,1.18.86Zm-.66,1.42c-.1,0-1.49-.82-1.45.17,0,.69,1.85-.07,1.45-.17ZM4.65,22.06c0,.1,0,1.7-.86,1.18-.58-.36,1-1.58.86-1.18Zm2.09.73c0-.08-.54-1.61-1.18-.85-.44.52,1.41,1.2,1.18.85Zm7.14,3.47c-.1,0-1.5-.82-1.45.17,0,.68,1.85-.07,1.45-.17ZM11.71,14.09c0,.09,0,1.7-.86,1.18-.58-.37,1-1.58.86-1.18ZM10.59,3.34c-.1,0-1.49-.81-1.45.18,0,.68,1.86-.07,1.45-.18Zm2.29,7.23c-.05-.08-.54-1.61-1.18-.85-.44.52,1.41,1.2,1.18.85ZM17.67.08c0,.1,0,1.7-.86,1.18-.59-.36,1-1.58.86-1.18ZM11.32,11.89c0,.09,0,1.69-.86,1.17-.58-.36,1-1.58.86-1.17Zm16.54,8.72c.4.1-1.42.86-1.45.17-.05-1,1.35-.2,1.45-.17Zm2.37-8.51c-.06-.09-.55-1.61-1.19-.86-.44.53,1.41,1.21,1.19.86Zm-6.7,4.83c0,.09,0,1.7-.86,1.17-.58-.36,1-1.58.86-1.17ZM25,12.22c-.1,0-1.49-.82-1.45.17,0,.69,1.85-.07,1.45-.17Zm1.64-.36c0,.1,0,1.7-.86,1.18-.58-.36,1-1.58.86-1.18Zm-2.85,2.08c-.1,0-1.49-.81-1.45.18,0,.68,1.85-.08,1.45-.18Zm1.83,2.58c-.05-.09-.54-1.61-1.18-.86-.44.52,1.41,1.21,1.18.86Zm1.05,1.92c.11-.4-1.44.81-.86,1.18.84.52.84-1.09.86-1.18Zm.9-1.55c-.1,0-1.49-.82-1.45.17,0,.68,1.85-.07,1.45-.17Zm.75-.67c.22.35-1.63-.33-1.18-.86.63-.75,1.12.77,1.18.86ZM2.63,12.05c0,.09,0,1.69-.86,1.17-.58-.36,1-1.58.86-1.17Zm25.1,2.31c-.1,0-1.49-.81-1.45.17,0,.69,1.85-.07,1.45-.17Zm.93-1.58c.23.35-1.62-.34-1.18-.86.64-.75,1.13.77,1.18.86ZM29.37,14c.11-.4-1.44.82-.86,1.18.84.52.83-1.08.86-1.18ZM2.3,16.7c-.1,0-1.49-.81-1.45.18,0,.68,1.86-.07,1.45-.18ZM3,15.46c-.05-.08-.54-1.61-1.18-.85-.44.52,1.41,1.2,1.18.85Zm1.85.14c0,.09,0,1.7-.86,1.18-.58-.37,1-1.58.86-1.18ZM2.5,19.43c-.09,0-1.49-.82-1.45.17,0,.68,1.86-.07,1.45-.17Zm.84-.8c.22.35-1.63-.33-1.19-.86.64-.75,1.13.77,1.19.86ZM6,18.09c-.09,0-1.49-.81-1.45.18,0,.68,1.86-.07,1.45-.18Zm1.63-1.38c0-.08-.54-1.61-1.18-.85-.44.52,1.41,1.2,1.18.85Zm0,1c0,.1,0,1.7-.86,1.18-.58-.36,1-1.58.86-1.18Zm1.11-7.33c.41.1-1.41.86-1.44.17,0-1,1.35-.2,1.44-.17ZM6.62,8.23c0-.09-.54-1.61-1.18-.86-.44.52,1.41,1.21,1.18.86ZM6,9.18c0,.1,0,1.7-.86,1.18C4.6,10,6.15,8.78,6,9.18ZM5,20.9c-.1,0-1.49-.81-1.45.18,0,.68,1.85-.08,1.45-.18Zm-.51-8.69c0-.08-.54-1.61-1.18-.85-.44.52,1.41,1.2,1.18.85Zm-.1,1.08c0,.09,0,1.69-.86,1.17-.58-.36,1-1.58.86-1.17ZM6.52,14c0-.08-.54-1.61-1.18-.85-.44.52,1.41,1.2,1.18.85Zm.64-2.33c-.1,0-1.49-.82-1.45.17,0,.68,1.85-.07,1.45-.17ZM7.93,20c0,.1,0,1.7-.86,1.18-.58-.36,1-1.58.86-1.18Zm8.12-7.45c0,.1,0,1.7-.86,1.18-.58-.36,1-1.58.86-1.18Zm2.29.15c-.06-.08-.55-1.61-1.18-.85-.45.52,1.41,1.2,1.18.85ZM9.27,22.79c-.09,0-1.49-.82-1.44.17,0,.69,1.85-.07,1.44-.17Zm1.94-.93c.22.35-1.63-.33-1.19-.86.64-.75,1.13.78,1.19.86Zm1.84.14c0,.09,0,1.69-.86,1.17-.58-.36,1-1.58.86-1.17ZM9.51,25.73c-.1,0-1.49-.82-1.45.17,0,.69,1.86-.07,1.45-.17Zm2-.7c-.06-.09-.54-1.61-1.18-.86-.45.52,1.41,1.21,1.18.86Zm2.62-.54c-.09,0-1.49-.81-1.44.18,0,.68,1.85-.08,1.44-.18Zm1.63-1.38c-.05-.08-.54-1.61-1.18-.85-.44.52,1.41,1.2,1.18.85Zm0,1c0,.09,0,1.7-.87,1.17-.58-.36,1-1.58.87-1.17Zm-4.9-7.84c-.1,0-1.49-.82-1.45.17,0,.69,1.85-.07,1.45-.17Zm3.27-2.13c0-.08-.54-1.61-1.18-.86-.44.53,1.41,1.21,1.18.86Zm.06,1.41c0,.09,0,1.7-.86,1.17-.58-.36,1-1.58.86-1.17Zm-3.73,3.5c-.1,0-1.49-.81-1.45.18,0,.68,1.85-.08,1.45-.18Zm2.23-.47c.22.35-1.63-.33-1.19-.86.64-.75,1.13.77,1.19.86Zm-.11,1.07c.11-.4-1.44.82-.86,1.18.84.52.84-1.08.86-1.18Zm4.47,1.38c.4.11-1.42.86-1.45.18,0-1,1.35-.2,1.45-.18Zm-2.38-.65c-.05-.08-.54-1.61-1.18-.85-.44.52,1.41,1.2,1.18.85Zm2.82,4c0,.09,0,1.69-.87,1.17-.58-.36,1-1.58.87-1.17Zm-2.18-6.38c-.1,0-1.49-.81-1.45.18,0,.68,1.86-.07,1.45-.18ZM16,16.39c0-.08-.54-1.61-1.18-.85-.44.52,1.41,1.2,1.18.85ZM17,17.72c0,.09,0,1.7-.86,1.18-.58-.37,1-1.58.86-1.18Zm2,2c-.1,0-1.49-.82-1.45.17,0,.68,1.85-.07,1.45-.17Zm10.16-.6c.23.35-1.62-.33-1.18-.86.64-.75,1.13.77,1.18.86Zm-9-1.52c0,.09,0,1.7-.86,1.17-.58-.36,1-1.58.86-1.17Zm-1.8,5.46c-.1,0-1.5-.82-1.45.17,0,.69,1.85-.07,1.45-.17Zm1.23-.58c.22.35-1.63-.33-1.19-.85.64-.76,1.13.77,1.19.85Zm-.66,3.26c.11-.4-1.44.81-.86,1.18.84.52.83-1.09.86-1.18Zm2.61-1.36c-.1,0-1.49-.81-1.45.18,0,.68,1.85-.07,1.45-.18Zm2.51-.84c.23.35-1.62-.33-1.18-.85.64-.76,1.13.77,1.18.85Zm-7.92,2.87c.11-.4-1.44.82-.86,1.18.84.52.84-1.08.86-1.18Zm5.6-4.55c-.1,0-1.49-.82-1.45.17,0,.68,1.86-.07,1.45-.17Zm.77-1.26c-.05-.08-.54-1.61-1.18-.85-.44.52,1.41,1.2,1.18.85Zm4.16,4.65c0,.09,0,1.69-.86,1.17-.58-.36,1-1.58.86-1.17ZM18,14.17c-.1,0-1.5-.81-1.45.18,0,.68,1.85-.07,1.45-.18Zm2.39-1.31c-.05-.08-.54-1.61-1.18-.85-.44.52,1.41,1.2,1.18.85Zm.89.32c0,.09,0,1.69-.86,1.17-.58-.36,1-1.58.86-1.17ZM19,16.87c-.09,0-1.49-.81-1.44.18,0,.68,1.85-.07,1.44-.18Zm.75-.66c.23.35-1.62-.34-1.18-.86.64-.75,1.13.77,1.18.86Zm3.11,9c0,.1,0,1.7-.86,1.18-.58-.36,1-1.58.86-1.18Zm-.67-7c-.1,0-1.49-.81-1.45.18,0,.68,1.85-.08,1.45-.18ZM7.92,3.73c-.06-.08-.55-1.61-1.19-.85-.44.52,1.41,1.2,1.19.85Zm6.24,24.1c0,.1,0,1.7-.86,1.18-.58-.36,1-1.58.86-1.18Zm8-11.77c-.09,0-1.49-.81-1.44.18,0,.68,1.85-.08,1.44-.18ZM24.75,21c-.06-.08-.55-1.61-1.18-.85-.45.52,1.4,1.2,1.18.85ZM10.88.9c0,.1,0,1.7-.86,1.18C9.44,1.72,11,.5,10.88.9Zm3.93,7.67c-.09,0-1.49-.81-1.45.18,0,.68,1.86-.08,1.45-.18Zm1.93-.93c.23.35-1.62-.33-1.18-.85.64-.76,1.13.77,1.18.85Zm1.85.14c0,.1,0,1.7-.86,1.18-.58-.36,1-1.58.86-1.18Zm-3.54,3.73c-.1,0-1.49-.81-1.45.18,0,.68,1.85-.07,1.45-.18Zm2-.7c.23.35-1.63-.33-1.18-.85.63-.76,1.12.77,1.18.85Zm2.62-.53c.41.1-1.41.85-1.44.17-.05-1,1.35-.2,1.44-.17ZM21.34,8.9c-.05-.09-.54-1.61-1.18-.86-.44.52,1.41,1.21,1.18.86Zm0,1c0,.1,0,1.7-.86,1.18-.58-.36,1-1.58.86-1.18ZM16.46,2.08c-.1,0-1.49-.81-1.45.18,0,.68,1.85-.07,1.45-.18ZM2.59,10.23c0-.08-.54-1.61-1.18-.85-.44.52,1.41,1.2,1.18.85Zm17.2-8.87c0,.1,0,1.7-.86,1.18-.58-.36,1-1.58.86-1.18ZM16.06,4.87c-.1,0-1.5-.82-1.45.17,0,.68,1.85-.07,1.45-.17Zm2.22-.48c.23.35-1.62-.33-1.18-.85.64-.76,1.13.77,1.18.85Zm-.1,1.08c.11-.41-1.44.81-.86,1.17.84.53.83-1.08.86-1.17Zm4.47,1.38c.4.1-1.42.86-1.45.17,0-1,1.35-.2,1.45-.17ZM20.27,6.2c-.05-.09-.54-1.61-1.18-.86-.44.52,1.41,1.21,1.18.86Zm2.82,4c0,.1,0,1.7-.87,1.18-.58-.36,1-1.58.87-1.18ZM20.91,3.86c-.1,0-1.49-.82-1.45.17,0,.69,1.85-.07,1.45-.17Zm.58-1.69c0-.08-.54-1.61-1.18-.85-.44.52,1.41,1.2,1.18.85ZM22.55,3.5c0,.1,0,1.7-.86,1.18-.58-.36,1-1.58.86-1.18Zm2,2c-.1,0-1.49-.81-1.45.18,0,.68,1.85-.08,1.45-.18Zm.75-.67c.23.35-1.62-.33-1.18-.85.64-.76,1.13.77,1.18.85Zm.89.31c0,.1,0,1.7-.86,1.18-.58-.36,1-1.58.86-1.18ZM24.78,7.77c-.09,0-1.49-.81-1.44.18,0,.68,1.85-.08,1.44-.18ZM25,10.4c-.06-.09-.54-1.61-1.18-.86-.44.52,1.41,1.21,1.18.86ZM1,13.57c0,.1,0,1.7-.86,1.18-.58-.36,1-1.58.86-1.18Zm26.1-3.38c-.1,0-1.49-.81-1.45.17,0,.69,1.85-.07,1.45-.17Zm.75-.67c.23.35-1.62-.33-1.18-.85.64-.76,1.12.77,1.18.85Zm1.38-.29c0,.1,0,1.7-.86,1.18-.58-.36,1-1.58.86-1.18ZM28.13,6.89c-.1,0-1.49-.81-1.45.18,0,.68,1.85-.07,1.45-.18Zm2.29,10.77c-.05-.08-.54-1.61-1.18-.85-.44.52,1.41,1.2,1.18.85Zm0,1.91c0,.09,0,1.7-.86,1.17-.58-.36,1-1.58.86-1.17ZM4.2,7c-.1,0-1.49-.81-1.45.18,0,.68,1.85-.07,1.45-.18ZM14.3,1.44c-.06-.08-.55-1.61-1.18-.85-.45.52,1.41,1.2,1.18.85Zm-9.7,7c.11-.4-1.44.82-.86,1.18.84.52.83-1.08.86-1.18Zm20-5.78c-.09,0-1.49-.81-1.44.17,0,.69,1.85-.07,1.44-.17ZM21,27.22c-.05-.08-.54-1.61-1.18-.85-.44.52,1.41,1.2,1.18.85Zm4.77-6.11c0,.1,0,1.7-.87,1.18-.58-.36,1-1.58.87-1.18ZM7.37,4.57C7.54,4.19,8,6.11,7.31,6c-1-.11,0-1.37.06-1.46Zm-1.78.91c0-.08-.54-1.61-1.18-.85-.44.52,1.41,1.2,1.18.85ZM16.4,28.05c-.11-.4,1.44.82.86,1.18-.84.52-.84-1.08-.86-1.18ZM12.34,29.8c-.1,0-1.49-.81-1.45.18,0,.68,1.85-.08,1.45-.18ZM12.29,3.13c.22.35-1.63-.33-1.19-.85C11.74,1.52,12.23,3.05,12.29,3.13Z"/></g></g></g></svg>