<svg xmlns="http://www.w3.org/2000/svg" viewBox="0 0 843.56 116.23"><defs><style>.cls-1,.cls-12,.cls-13,.cls-2,.cls-3,.cls-4,.cls-5,.cls-6,.cls-7,.cls-8,.cls-9{fill:none;}.cls-1,.cls-10,.cls-11,.cls-12,.cls-13,.cls-14,.cls-2,.cls-3,.cls-4,.cls-5,.cls-6,.cls-7,.cls-8,.cls-9{stroke:#d8d9d9;}.cls-1,.cls-2,.cls-3,.cls-4{stroke-linecap:round;}.cls-1,.cls-12,.cls-2,.cls-3,.cls-4,.cls-9{stroke-linejoin:round;}.cls-1,.cls-14,.cls-4,.cls-6,.cls-8,.cls-9{stroke-width:1.42px;}.cls-1,.cls-10,.cls-12,.cls-13,.cls-3,.cls-5,.cls-6,.cls-9{fill-rule:evenodd;}.cls-10,.cls-11,.cls-2,.cls-3,.cls-5,.cls-7{stroke-width:0.57px;}.cls-10,.cls-11,.cls-13,.cls-14,.cls-5,.cls-6,.cls-7,.cls-8{stroke-miterlimit:22.93;}.cls-10,.cls-11,.cls-14{fill:#fff;}.cls-12,.cls-13{stroke-width:0.85px;}</style></defs><g id="Шар_2" data-name="Шар 2"><g id="buildings"><path class="cls-1" d="M794.61,22.18l1.17,1.22.65,1.1v2.1h.6v.82l-.83.47v8.75h1.87v1.81l-1.33,2.3v8.72h-.85V52h.52V67.24h2v1.65l-.83,1.45v13h.84l1.17,6,1.25.72.07,25.46-12.47-.11m0-19.34v-6l1.25-.72,1.16-6h.85v-13l-.84-1.45V67.24h2V52h.52V49.47h-.85V40.75l-1.32-2.3V36.64H793V27.89l-.83-.47V26.6h.6V24.5l.66-1.1,1.17-1.22"/><rect class="cls-2" x="791.65" y="70.41" width="5.9" height="12.71"/><polyline class="cls-3" points="790.66 96.59 790.66 91.83 798.66 91.83 798.66 115.42"/><line class="cls-2" x1="799.56" y1="89.34" x2="788.99" y2="89.34"/><rect class="cls-2" x="793.7" y="72.18" width="1.42" height="17.16"/><line class="cls-2" x1="795.12" y1="74.66" x2="793.7" y2="74.66"/><line class="cls-2" x1="795.12" y1="78.02" x2="793.7" y2="78.02"/><line class="cls-2" x1="795.12" y1="81.63" x2="793.7" y2="81.63"/><line class="cls-2" x1="795.12" y1="84.43" x2="793.7" y2="84.43"/><line class="cls-2" x1="798.47" y1="68.94" x2="790.52" y2="68.94"/><rect class="cls-2" x="792.77" y="52.36" width="3.43" height="15"/><rect class="cls-2" x="792.77" y="40.17" width="3.43" height="8.89"/><rect class="cls-2" x="792.77" y="28.06" width="3.43" height="8.92"/><line class="cls-2" x1="797.72" y1="38.57" x2="791.38" y2="38.57"/><line class="cls-2" x1="796.73" y1="26.99" x2="792.41" y2="26.99"/><line class="cls-2" x1="795.95" y1="25.75" x2="793.05" y2="25.75"/><line class="cls-2" x1="794.61" y1="22.18" x2="794.61" y2="19.2"/><rect class="cls-2" x="793.76" y="93.43" width="1.31" height="3.22"/><path class="cls-1" d="M739.58,59.14l6.3,4Q754.19,68,754,75.57c.77.2,1.17.56,1.2,1.06s-.5.78-1.13.71v3l.87.5v5.91h.55l.51-1.68A4.65,4.65,0,0,1,759.62,83a4.39,4.39,0,0,1,3.86,4h1.63v2.69m11.65,3.93H778a3.25,3.25,0,0,1,3.29-3.29,3.55,3.55,0,0,1,3,3.47V98.3q4.05-4.47,8.71,0h2.37v4.18H794v12.93"/><path class="cls-1" d="M739.58,59.14l-6.3,4Q725,68,725.21,75.57c-.77.2-1.18.56-1.21,1.06a.91.91,0,0,0,1.13.71v3l-.86.5v5.91h-.55l-.52-1.68A4.65,4.65,0,0,0,719.54,83a4.4,4.4,0,0,0-3.86,4h-1.63v2.69M702.4,93.59h-1.2a3.26,3.26,0,0,0-3.3-3.29,3.53,3.53,0,0,0-3,3.47V98.3q-4.05-4.47-8.71,0h-2.38v4.18h1.42v12.93"/><line class="cls-2" x1="763.48" y1="86.97" x2="715.84" y2="86.97"/><line class="cls-2" x1="784.31" y1="93.77" x2="694.86" y2="93.77"/><line class="cls-2" x1="747" y1="95.71" x2="731.99" y2="95.71"/><rect class="cls-2" x="732.49" y="93.77" width="14.52" height="21.65"/><line class="cls-2" x1="754.03" y1="80.35" x2="724.91" y2="80.35"/><line class="cls-2" x1="754.03" y1="77.34" x2="725.13" y2="77.34"/><line class="cls-2" x1="753.96" y1="75.57" x2="725.13" y2="75.57"/><rect class="cls-2" x="744.1" y="82.19" width="1.13" height="4.78"/><rect class="cls-2" x="733.87" y="82.19" width="1.13" height="4.78"/><path class="cls-3" d="M753.17,87c-.26-2.47-1.55-3.94-3.86-4s-3.52,1.58-3.58,4"/><path class="cls-3" d="M743.53,87a3.75,3.75,0,0,0-4.1-3.75c-2.38,0-3.72,1.58-3.79,4"/><path class="cls-3" d="M733.3,86.76C733,84.29,731.75,83,729.44,83s-3.51,1.58-3.58,4"/><path class="cls-3" d="M743.25,75.57q0-3.94-3.47-16,8.33,11.08,8,16"/><path class="cls-3" d="M739.86,59.31q11.63,9,11.61,16.26"/><path class="cls-3" d="M743.43,93.59c-.28-2.47-1.64-3.72-4.1-3.75s-3.73,1.57-3.8,4"/><rect class="cls-2" x="744.1" y="88.49" width="1.03" height="1.56"/><rect class="cls-2" x="733.92" y="88.49" width="1.03" height="1.56"/><rect class="cls-2" x="724.15" y="88.49" width="1.03" height="1.56"/><rect class="cls-2" x="754.05" y="88.49" width="1.03" height="1.56"/><line class="cls-2" x1="765.11" y1="89.66" x2="765.11" y2="93.77"/><line class="cls-2" x1="714.05" y1="89.66" x2="714.05" y2="93.77"/><path class="cls-3" d="M753.17,93.77c-.26-2.47-1.55-3.94-3.86-4s-3.52,1.58-3.58,4"/><path class="cls-3" d="M763,93.77c-.25-2.47-1.54-3.94-3.85-4s-3.52,1.58-3.58,4"/><path class="cls-3" d="M733.26,93.77c-.26-2.47-1.54-3.94-3.85-4s-3.52,1.58-3.58,4"/><path class="cls-3" d="M723.7,93.77c-.26-2.47-1.54-3.94-3.86-4s-3.51,1.58-3.57,4"/><rect class="cls-2" x="729.33" y="102.97" width="6.62" height="12.44"/><rect class="cls-2" x="743.32" y="102.97" width="6.62" height="12.44"/><rect class="cls-2" x="742.26" y="101.34" width="8.75" height="1.63"/><rect class="cls-2" x="728.27" y="101.34" width="8.75" height="1.63"/><rect class="cls-2" x="756.58" y="102.97" width="2.52" height="12.44"/><rect class="cls-2" x="755.82" y="101.34" width="4.04" height="1.63" rx="0.81"/><rect class="cls-2" x="765.24" y="102.97" width="2.52" height="12.44"/><rect class="cls-2" x="764.48" y="101.34" width="4.04" height="1.63" rx="0.81"/><rect class="cls-2" x="773.95" y="102.97" width="2.52" height="12.44"/><rect class="cls-2" x="773.19" y="101.34" width="4.04" height="1.63" rx="0.81"/><rect class="cls-2" x="783.09" y="102.97" width="2.52" height="12.44"/><rect class="cls-2" x="782.33" y="101.34" width="4.04" height="1.63" rx="0.81"/><path class="cls-3" d="M765.41,101.34c-.22-2.11-1.32-3.37-3.3-3.4s-3,1.35-3.07,3.4"/><path class="cls-3" d="M756.64,101.34c-.23-2.11-1.33-3.37-3.31-3.4s-3,1.36-3.07,3.4"/><path class="cls-3" d="M774.3,101.34c-.22-2.11-1.32-3.37-3.3-3.4s-3,1.36-3.07,3.4"/><path class="cls-3" d="M783.14,101.34c-.22-2.11-1.32-3.37-3.3-3.4s-3,1.36-3.07,3.4"/><path class="cls-3" d="M792,101.2c-.22-2.12-1.32-3.37-3.3-3.4s-3,1.35-3.07,3.4"/><rect class="cls-2" x="791.8" y="102.97" width="2.52" height="12.44"/><rect class="cls-2" x="791.04" y="101.34" width="4.04" height="1.63" rx="0.81"/><rect class="cls-2" x="770.45" y="107.11" width="1.1" height="5.13"/><rect class="cls-2" x="761.68" y="107.11" width="1.1" height="5.13"/><rect class="cls-2" x="752.9" y="107.11" width="1.1" height="5.13"/><rect class="cls-2" x="779.41" y="107.11" width="1.1" height="5.13"/><rect class="cls-2" x="788.24" y="107.11" width="1.1" height="5.13"/><rect class="cls-2" x="777.96" y="114.53" width="4" height="0.89"/><rect class="cls-2" x="768.99" y="114.53" width="4" height="0.89"/><rect class="cls-2" x="760.23" y="114.53" width="4" height="0.89"/><rect class="cls-2" x="751.45" y="114.53" width="4" height="0.89"/><rect class="cls-2" x="786.79" y="114.53" width="4" height="0.89"/><line class="cls-4" x1="788.41" y1="115.41" x2="690.91" y2="115.41"/><path class="cls-3" d="M784.31,98.3c-2.4-3.09-7-3.11-8.91.14"/><path class="cls-3" d="M775.4,98.44c-2.39-3.09-6.95-3.12-8.9.13"/><path class="cls-3" d="M766.5,98.57c-2.39-3.09-7-3.11-8.9.14"/><path class="cls-3" d="M757.75,98.47c-2.39-3.09-7-3.11-8.9.14H747"/><path class="cls-3" d="M743.43,101.34a3.59,3.59,0,0,0-3.9-3.4,3.3,3.3,0,0,0-3.61,3.4"/><path class="cls-3" d="M747.78,80.35v-1.8a.54.54,0,0,0-.55-.54h0a.54.54,0,0,0-.54.54v1.8"/><path class="cls-3" d="M751.75,80.35v-1.8a.55.55,0,0,0-.55-.54h0a.55.55,0,0,0-.55.54v1.8"/><path class="cls-3" d="M744,80.35v-1.8a.54.54,0,0,0-.54-.54h0a.54.54,0,0,0-.55.54v1.8"/><path class="cls-3" d="M740.1,80.35v-1.8a.55.55,0,0,0-.55-.54h0a.55.55,0,0,0-.55.54v1.8"/><path class="cls-3" d="M736.35,80.35v-1.8a.55.55,0,0,0-.55-.54h0a.54.54,0,0,0-.55.54v1.8"/><path class="cls-3" d="M732.66,80.35v-1.8a.54.54,0,0,0-.55-.54h0a.54.54,0,0,0-.54.54v1.8"/><path class="cls-3" d="M728.7,80.35v-1.8a.55.55,0,0,0-.55-.54h0a.55.55,0,0,0-.55.54v1.8"/><rect class="cls-2" x="720.19" y="102.97" width="2.52" height="12.44"/><rect class="cls-2" x="719.44" y="101.34" width="4.04" height="1.63" rx="0.81"/><rect class="cls-2" x="711.53" y="102.97" width="2.52" height="12.44"/><rect class="cls-2" x="710.78" y="101.34" width="4.04" height="1.63" rx="0.81"/><rect class="cls-2" x="702.82" y="102.97" width="2.52" height="12.44"/><rect class="cls-2" x="702.06" y="101.34" width="4.04" height="1.63" rx="0.81"/><rect class="cls-2" x="693.69" y="102.97" width="2.52" height="12.44"/><rect class="cls-2" x="692.93" y="101.34" width="4.04" height="1.63" rx="0.81"/><path class="cls-3" d="M713.88,101.34c.22-2.11,1.33-3.37,3.31-3.4s3,1.35,3.06,3.4"/><path class="cls-3" d="M722.66,101.34c.22-2.11,1.32-3.37,3.31-3.4s3,1.36,3.06,3.4"/><path class="cls-3" d="M705,101.34c.22-2.11,1.32-3.37,3.31-3.4s3,1.36,3.06,3.4"/><path class="cls-3" d="M696.15,101.34c.22-2.11,1.33-3.37,3.31-3.4s3,1.36,3.06,3.4"/><path class="cls-3" d="M687.32,101.2c.22-2.12,1.32-3.37,3.31-3.4s3,1.35,3.06,3.4"/><rect class="cls-2" x="684.98" y="102.97" width="2.52" height="12.44"/><rect class="cls-2" x="684.22" y="101.34" width="4.04" height="1.63" rx="0.81"/><rect class="cls-2" x="707.75" y="107.11" width="1.1" height="5.13"/><rect class="cls-2" x="716.52" y="107.11" width="1.1" height="5.13"/><rect class="cls-2" x="725.3" y="107.11" width="1.1" height="5.13"/><rect class="cls-2" x="698.79" y="107.11" width="1.1" height="5.13"/><rect class="cls-2" x="689.96" y="107.11" width="1.1" height="5.13"/><rect class="cls-2" x="697.34" y="114.53" width="4" height="0.89"/><rect class="cls-2" x="706.3" y="114.53" width="4" height="0.89"/><rect class="cls-2" x="715.07" y="114.53" width="4" height="0.89"/><rect class="cls-2" x="723.84" y="114.53" width="4" height="0.89"/><rect class="cls-2" x="688.5" y="114.53" width="4" height="0.89"/><path class="cls-3" d="M695,98.3c2.39-3.09,7-3.11,8.9.14"/><path class="cls-3" d="M703.89,98.44c2.39-3.09,7-3.12,8.9.13"/><path class="cls-3" d="M712.79,98.57c2.39-3.09,7-3.11,8.9.14"/><path class="cls-3" d="M721.54,98.47c2.39-3.09,7-3.11,8.91.14h1.84"/><path class="cls-3" d="M735.81,75.57q0-3.94,3.47-16-8.31,11.08-8,16"/><path class="cls-3" d="M739.21,59.31q-11.64,9-11.61,16.26"/><path class="cls-3" d="M739.33,52.56a2.22,2.22,0,1,0,2.52,2.2v-.14a1.74,1.74,0,0,1-3.38-.55A1.76,1.76,0,0,1,739.33,52.56Z"/><line class="cls-2" x1="739.64" y1="56.97" x2="739.58" y2="59.14"/><path class="cls-1" d="M771.07,22.18l1.17,1.22.66,1.1v2.1h.59v.82l-.83.47v8.75h1.87v1.81l-1.32,2.3v8.72h-.85V52h.52V67.24h2v1.65L774,70.34v13h.85l1.16,6,1.25.72v3.53m-12.4-3.53,1.25-.72,1.16-6h.85v-13l-.83-1.45V67.24h2V52h.53V49.47h-.85V40.75l-1.33-2.3V36.64h1.87V27.89l-.83-.47V26.6h.6V24.5l.65-1.1,1.17-1.22"/><rect class="cls-2" x="768.11" y="70.41" width="5.9" height="12.71"/><rect class="cls-2" x="767.12" y="91.82" width="8" height="1.94"/><line class="cls-2" x1="776.02" y1="89.34" x2="765.46" y2="89.34"/><rect class="cls-2" x="770.17" y="72.18" width="1.42" height="17.16"/><line class="cls-2" x1="771.58" y1="74.66" x2="770.17" y2="74.66"/><line class="cls-2" x1="771.58" y1="78.02" x2="770.17" y2="78.02"/><line class="cls-2" x1="771.58" y1="81.63" x2="770.17" y2="81.63"/><line class="cls-2" x1="771.58" y1="84.43" x2="770.17" y2="84.43"/><line class="cls-2" x1="774.93" y1="68.94" x2="766.98" y2="68.94"/><rect class="cls-2" x="769.23" y="52.36" width="3.43" height="15"/><rect class="cls-2" x="769.23" y="40.17" width="3.43" height="8.89"/><rect class="cls-2" x="769.23" y="28.06" width="3.43" height="8.92"/><line class="cls-2" x1="774.19" y1="38.57" x2="767.85" y2="38.57"/><line class="cls-2" x1="773.2" y1="26.99" x2="768.88" y2="26.99"/><line class="cls-2" x1="772.42" y1="25.75" x2="769.51" y2="25.75"/><line class="cls-2" x1="771.07" y1="22.18" x2="771.07" y2="19.2"/><path class="cls-1" d="M771.07,22.18l1.17,1.22.66,1.1v2.1h.59v.82l-.83.47v8.75h1.87v1.81l-1.32,2.3v8.72h-.85V52h.52V67.24h2v1.65L774,70.34v13h.85l1.16,6,1.25.72v3.53m-12.4-3.53,1.25-.72,1.16-6h.85v-13l-.83-1.45V67.24h2V52h.53V49.47h-.85V40.75l-1.33-2.3V36.64h1.87V27.89l-.83-.47V26.6h.6V24.5l.65-1.1,1.17-1.22"/><rect class="cls-2" x="768.11" y="70.41" width="5.9" height="12.71"/><rect class="cls-2" x="767.12" y="91.82" width="8" height="1.94"/><line class="cls-2" x1="776.02" y1="89.34" x2="765.46" y2="89.34"/><rect class="cls-2" x="770.17" y="72.18" width="1.42" height="17.16"/><line class="cls-2" x1="771.58" y1="74.66" x2="770.17" y2="74.66"/><line class="cls-2" x1="771.58" y1="78.02" x2="770.17" y2="78.02"/><line class="cls-2" x1="771.58" y1="81.63" x2="770.17" y2="81.63"/><line class="cls-2" x1="771.58" y1="84.43" x2="770.17" y2="84.43"/><line class="cls-2" x1="774.93" y1="68.94" x2="766.98" y2="68.94"/><rect class="cls-2" x="769.23" y="52.36" width="3.43" height="15"/><rect class="cls-2" x="769.23" y="40.17" width="3.43" height="8.89"/><rect class="cls-2" x="769.23" y="28.06" width="3.43" height="8.92"/><line class="cls-2" x1="774.19" y1="38.57" x2="767.85" y2="38.57"/><line class="cls-2" x1="773.2" y1="26.99" x2="768.88" y2="26.99"/><line class="cls-2" x1="772.42" y1="25.75" x2="769.51" y2="25.75"/><line class="cls-2" x1="771.07" y1="22.18" x2="771.07" y2="19.2"/><path class="cls-1" d="M708.09,22.18l-1.15,1.22-.65,1.1v2.1h-.59v.82l.82.47v8.75h-1.84v1.81l1.31,2.3v8.72h.84V52h-.52V67.24h-1.94v1.65l.82,1.45v13h-.84l-1.14,6-1.24.72v3.53m12.25-3.53L713,89.34l-1.15-6H711v-13l.82-1.45V67.24h-1.94V52h-.52V49.47h.84V40.75l1.31-2.3V36.64h-1.84V27.89l.82-.47V26.6h-.59V24.5l-.65-1.1-1.16-1.22"/><rect class="cls-2" x="705.19" y="70.41" width="5.82" height="12.71"/><rect class="cls-2" x="704.09" y="91.82" width="7.9" height="1.94"/><line class="cls-2" x1="703.21" y1="89.34" x2="713.64" y2="89.34"/><rect class="cls-2" x="707.59" y="72.18" width="1.4" height="17.16"/><line class="cls-2" x1="707.59" y1="74.66" x2="708.99" y2="74.66"/><line class="cls-2" x1="707.59" y1="78.02" x2="708.99" y2="78.02"/><line class="cls-2" x1="707.59" y1="81.63" x2="708.99" y2="81.63"/><line class="cls-2" x1="707.59" y1="84.43" x2="708.99" y2="84.43"/><line class="cls-2" x1="704.28" y1="68.94" x2="712.13" y2="68.94"/><rect class="cls-2" x="706.52" y="52.36" width="3.39" height="15"/><rect class="cls-2" x="706.52" y="40.17" width="3.39" height="8.89"/><rect class="cls-2" x="706.52" y="28.06" width="3.39" height="8.92"/><line class="cls-2" x1="705.02" y1="38.57" x2="711.28" y2="38.57"/><line class="cls-2" x1="706" y1="26.99" x2="710.26" y2="26.99"/><line class="cls-2" x1="706.77" y1="25.75" x2="709.63" y2="25.75"/><line class="cls-2" x1="708.09" y1="22.18" x2="708.09" y2="19.2"/><path class="cls-1" d="M684.71,22.18l-1.17,1.22-.65,1.1v2.1h-.6v.82l.83.47v8.75h-1.87v1.81l1.33,2.3v8.72h.85V52h-.53V67.24h-2v1.65l.83,1.45v13h-.85l-1.16,6-1.25.72-.07,25.46,12.47-.11m0-19.34v-6l-1.25-.72-1.16-6h-.85v-13l.84-1.45V67.24h-2V52H686V49.47h.85V40.75l1.32-2.3V36.64H686.3V27.89l.83-.47V26.6h-.59V24.5l-.66-1.1-1.17-1.22"/><rect class="cls-2" x="681.77" y="70.41" width="5.9" height="12.71"/><polyline class="cls-3" points="688.66 96.59 688.66 91.83 680.66 91.83 680.66 115.42"/><line class="cls-2" x1="679.76" y1="89.34" x2="690.32" y2="89.34"/><rect class="cls-2" x="684.2" y="72.18" width="1.42" height="17.16"/><line class="cls-2" x1="684.2" y1="74.66" x2="685.62" y2="74.66"/><line class="cls-2" x1="684.2" y1="78.02" x2="685.62" y2="78.02"/><line class="cls-2" x1="684.2" y1="81.63" x2="685.62" y2="81.63"/><line class="cls-2" x1="684.2" y1="84.43" x2="685.62" y2="84.43"/><line class="cls-2" x1="680.85" y1="68.94" x2="688.8" y2="68.94"/><rect class="cls-2" x="683.12" y="52.36" width="3.43" height="15"/><rect class="cls-2" x="683.12" y="40.17" width="3.43" height="8.89"/><rect class="cls-2" x="683.12" y="28.06" width="3.43" height="8.92"/><line class="cls-2" x1="681.6" y1="38.57" x2="687.93" y2="38.57"/><line class="cls-2" x1="682.59" y1="26.99" x2="686.91" y2="26.99"/><line class="cls-2" x1="683.37" y1="25.75" x2="686.27" y2="25.75"/><line class="cls-2" x1="684.71" y1="22.18" x2="684.71" y2="19.2"/><rect class="cls-2" x="684.25" y="93.43" width="1.31" height="3.22"/><polygon class="cls-5" points="503.67 82.96 499.23 75.62 494.79 83 503.67 82.96"/><polygon class="cls-6" points="523.23 115.34 475.24 115.48 499.23 75.62 523.23 115.34"/><line class="cls-7" x1="481.41" y1="105.99" x2="486.7" y2="115.15"/><line class="cls-7" x1="485.41" y1="97.92" x2="495.66" y2="115.68"/><line class="cls-7" x1="490.35" y1="90.37" x2="505.03" y2="115.8"/><line class="cls-7" x1="494.89" y1="82.83" x2="513.83" y2="115.63"/><line class="cls-7" x1="517.24" y1="105.6" x2="511.72" y2="115.16"/><line class="cls-7" x1="512.92" y1="97.94" x2="502.67" y2="115.7"/><line class="cls-7" x1="507.98" y1="90.39" x2="493.3" y2="115.82"/><line class="cls-7" x1="503.44" y1="82.86" x2="484.5" y2="115.65"/><line class="cls-7" x1="495.07" y1="82.96" x2="503.78" y2="82.96"/><line class="cls-7" x1="490.55" y1="90.58" x2="507.64" y2="90.58"/><line class="cls-7" x1="485.89" y1="98.38" x2="512.71" y2="98.38"/><polygon class="cls-5" points="511.94 110.58 512.7 109.3 513.47 110.58 512.7 111.86 511.94 110.58"/><polygon class="cls-5" points="515.35 110.58 516.11 109.3 516.87 110.58 516.11 111.86 515.35 110.58"/><polygon class="cls-5" points="498.47 110.58 499.23 109.3 500 110.58 499.23 111.86 498.47 110.58"/><polygon class="cls-5" points="503.11 110.58 503.87 109.3 504.63 110.58 503.87 111.86 503.11 110.58"/><polygon class="cls-5" points="493.86 110.58 494.62 109.3 495.39 110.58 494.62 111.86 493.86 110.58"/><polygon class="cls-5" points="481.56 110.58 482.32 109.3 483.08 110.58 482.32 111.86 481.56 110.58"/><polygon class="cls-5" points="484.96 110.58 485.73 109.3 486.49 110.58 485.73 111.86 484.96 110.58"/><line class="cls-7" x1="481.41" y1="105.99" x2="517.61" y2="105.99"/><path class="cls-5" d="M827.66,3.43q13.35,3,12.27,16.71l-3.55,7.06,2-11.93L832.93,27.4l1.13-11.87-4.65,11.81.6-12-4,12.21-3.78-12.21.59,12-4.64-11.81,1.13,11.87-5.44-12.13,2,11.93-3.55-7.06Q811.57,6.7,824.74,3.43L826.2.71Z"/><path class="cls-5" d="M815.82,27.2a251.9,251.9,0,0,1,5,37.15q.21,9-.19,26.86l-1.17,24.31"/><path class="cls-5" d="M819.24,27.07c1.81,12.25,2.4,22.53,3.45,37.28.13,6-.13,14.53-.4,26.43-.78,16.21-1,24.74-1,24.74"/><path class="cls-5" d="M822.74,27c1.81,12.26.94,22.4,2,37.15.13,6-.13,14.53-.4,26.43-.78,16.21-1,24.74-1,24.74"/><path class="cls-5" d="M836.38,27.2q-3.42,15-5,37.15-.2,9,.2,26.86,1.17,24.32,1.16,24.31"/><path class="cls-5" d="M833,27.07c-1.81,12.25-2.41,22.53-3.45,37.28-.14,6,.13,14.53.4,26.43.77,16.21,1,24.74,1,24.74"/><path class="cls-5" d="M829.46,27c-1.81,12.26-1,22.4-2,37.15-.14,6,.13,14.53.4,26.43.77,16.21,1,24.74,1,24.74"/><line class="cls-7" x1="825.77" y1="30.48" x2="825.77" y2="87.26"/><polygon class="cls-3" points="823.37 115.33 828.83 115.33 826.23 89.38 823.37 115.33"/><path class="cls-5" d="M822.55,4h7.66m9.92,15.19h-2.28m-24.39-7.44h25.77m-26.36,2.58h27m.21,2.22h-27.6m24,2.64h-2.76m-1.14,0h-2.72m-1.22,0h-5.14m-1.17,0h-2.71m-1.19,0h-2.77m-1.18,0h-2.26M815,9.27h22.3M817.1,6.71h18.42"/><path class="cls-5" d="M837,9.09v9.39M826.2.71V27.54M823.64,3.59V19.84M820.76,4.75V21.86m-3-15.42v17.3M815.42,9.06v9.72M828.64,3.63V19.87m2.91-15.09V21.9m3-15.43V23.78"/><polyline class="cls-1" points="839.93 20.14 836.38 27.2 838.37 15.27 832.93 27.4 834.06 15.53 829.41 27.34 830.01 15.33 825.97 27.54 822.19 15.33 822.78 27.34 818.14 15.53 819.27 27.4 813.83 15.27 815.82 27.2 812.27 20.14"/><path class="cls-1" d="M826.2.71l1.46,2.72q12.54,2,12.47,16.71s.9-1.68,2.72-5q-8.18,31.67-9.69,50-.69,19.65,1.73,50.41H817.51q2.41-30.75,1.72-50.41-1.51-18.34-9.68-50l2.72,5Q812.2,5.4,824.74,3.43Z"/><polygon class="cls-6" points="341.35 72.02 336.57 72.02 323.13 100.14 324.69 102.53 317.33 115.28 337.14 115.28 360.59 115.28 353.23 102.53 354.79 100.14 341.35 72.02"/><polyline class="cls-5" points="319.66 115.28 327.08 102.62 325.52 100.14 337.62 75.32"/><polyline class="cls-5" points="358.57 115.28 351.14 102.62 352.71 100.14 340.61 75.32"/><polyline class="cls-1" points="337.62 114.8 337.62 75.32 330.61 115.28"/><polyline class="cls-1" points="340.37 114.8 340.37 75.32 347.38 115.28"/><rect class="cls-7" x="337.62" y="100.16" width="2.75" height="2.1"/><rect class="cls-8" x="93.84" y="78.37" width="16.49" height="36.71"/><polyline class="cls-1" points="93.84 115.08 74.66 115.08 74.97 114.14 74.97 106.68 73.86 105.58 74.91 104.97 74.91 67.89 73.9 66.65 74.89 65.3 74.89 46.63 73.64 45.13 73.64 41.34 101.13 41.34 130.37 41.34 130.37 45.13 129.13 46.63 129.13 65.3 130.12 66.65 129.11 67.89 129.11 104.97 130.15 105.58 129.05 106.68 129.05 114.14 129.36 115.08 110.18 115.08"/><line class="cls-7" x1="74.91" y1="67.89" x2="129.11" y2="67.89"/><line class="cls-7" x1="76.24" y1="48.26" x2="128.25" y2="48.26"/><rect class="cls-7" x="93.35" y="50.91" width="17.63" height="14"/><line class="cls-7" x1="94.44" y1="45.46" x2="110.1" y2="45.46"/><line class="cls-7" x1="94.38" y1="43.23" x2="109.94" y2="43.23"/><rect class="cls-7" x="86.97" y="41.34" width="4.41" height="1.99"/><rect class="cls-7" x="85.67" y="43.44" width="7" height="1.71"/><rect class="cls-7" x="86.29" y="45.15" width="5.76" height="0.7"/><rect class="cls-7" x="86.97" y="45.85" width="4.41" height="19.24"/><rect class="cls-7" x="73.9" y="66.65" width="19.99" height="1.24"/><rect class="cls-7" x="75.53" y="65.09" width="16.49" height="1.56"/><rect class="cls-7" x="88.55" y="50.05" width="1.35" height="12.96"/><rect class="cls-7" x="82.69" y="50.05" width="2.9" height="12.81"/><rect class="cls-7" x="76.86" y="41.34" width="4.41" height="1.99"/><rect class="cls-7" x="75.56" y="43.44" width="7" height="1.71"/><rect class="cls-7" x="76.18" y="45.15" width="5.76" height="0.7"/><rect class="cls-7" x="76.86" y="45.85" width="4.41" height="19.24"/><rect class="cls-7" x="78.44" y="50.05" width="1.35" height="12.96"/><rect class="cls-7" x="92.42" y="67.89" width="1.94" height="1.06"/><rect class="cls-7" x="92.9" y="68.95" width="0.97" height="1.06"/><rect class="cls-7" x="95.24" y="67.89" width="1.94" height="1.06"/><rect class="cls-7" x="95.73" y="68.95" width="0.97" height="1.06"/><rect class="cls-7" x="98.3" y="67.89" width="1.94" height="1.06"/><rect class="cls-7" x="98.79" y="68.95" width="0.97" height="1.06"/><rect class="cls-7" x="101.36" y="67.89" width="1.94" height="1.06"/><rect class="cls-7" x="101.85" y="68.95" width="0.97" height="1.06"/><rect class="cls-7" x="104.27" y="67.89" width="1.94" height="1.06"/><rect class="cls-7" x="104.75" y="68.95" width="0.97" height="1.06"/><rect class="cls-7" x="107.09" y="67.89" width="1.94" height="1.06"/><rect class="cls-7" x="107.58" y="68.95" width="0.97" height="1.06"/><rect class="cls-7" x="110.15" y="67.89" width="1.94" height="1.06"/><rect class="cls-7" x="110.64" y="68.95" width="0.97" height="1.06"/><rect class="cls-7" x="78.07" y="67.89" width="1.94" height="1.06"/><rect class="cls-7" x="78.56" y="68.95" width="0.97" height="1.06"/><rect class="cls-7" x="80.98" y="67.89" width="1.94" height="1.06"/><rect class="cls-7" x="81.46" y="68.95" width="0.97" height="1.06"/><rect class="cls-7" x="83.8" y="67.89" width="1.94" height="1.06"/><rect class="cls-7" x="84.29" y="68.95" width="0.97" height="1.06"/><rect class="cls-7" x="86.86" y="67.89" width="1.94" height="1.06"/><rect class="cls-7" x="87.35" y="68.95" width="0.97" height="1.06"/><circle class="cls-7" cx="102.16" cy="57.91" r="6.61" transform="translate(43.85 159.84) rotate(-89.77)"/><path class="cls-5" d="M102.16,63.89a6,6,0,1,0-6-6A6,6,0,0,0,102.16,63.89Z"/><path class="cls-5" d="M102.16,58.55a.65.65,0,1,0-.64-.64A.65.65,0,0,0,102.16,58.55Z"/><polyline class="cls-5" points="102.16 52.74 102.16 57.91 106.7 56.43"/><rect class="cls-7" x="93.97" y="73.49" width="16.07" height="2.07"/><rect class="cls-7" x="82.79" y="83.65" width="2.9" height="20.53"/><rect class="cls-7" x="82.79" y="108.02" width="2.9" height="4.56"/><rect class="cls-7" x="76.78" y="113.99" width="4.2" height="1.09"/><rect class="cls-7" x="81.13" y="106.57" width="5.97" height="8.51"/><rect class="cls-7" x="86.42" y="105.84" width="5.81" height="0.73"/><rect class="cls-7" x="87.1" y="106.57" width="4.46" height="6.9"/><rect class="cls-7" x="87.1" y="113.47" width="4.72" height="1.61"/><rect class="cls-7" x="88.45" y="108.02" width="1.76" height="4.56"/><rect class="cls-7" x="86.84" y="104.94" width="4.98" height="0.91"/><rect class="cls-7" x="87.57" y="80.57" width="3.52" height="24.37"/><rect class="cls-7" x="86.84" y="78.93" width="4.98" height="0.73"/><rect class="cls-7" x="87.19" y="79.66" width="4.26" height="0.91"/><rect class="cls-7" x="76.39" y="73.49" width="15.09" height="2.07"/><rect class="cls-7" x="76.96" y="67.89" width="14.21" height="5.6"/><rect class="cls-7" x="86.97" y="75.72" width="4.17" height="2.2"/><rect class="cls-7" x="87.35" y="77.92" width="3.4" height="1.01"/><path class="cls-3" d="M84.05,81.94q2.57-.06,1.35-5.06c-.3,4.64-3.1,3.86-3.09.06C81.54,80.29,82.12,82,84.05,81.94Z"/><rect class="cls-7" x="82.47" y="104.19" width="3.55" height="1.02"/><rect class="cls-7" x="82.72" y="105.2" width="3.04" height="1.27"/><rect class="cls-7" x="76" y="105.69" width="5.8" height="0.73"/><rect class="cls-7" x="76.67" y="106.42" width="4.46" height="6.9"/><rect class="cls-7" x="76.41" y="113.31" width="4.72" height="1.61"/><rect class="cls-7" x="78.02" y="107.87" width="1.76" height="4.56"/><rect class="cls-7" x="76.41" y="104.78" width="4.98" height="0.91"/><rect class="cls-7" x="77.14" y="80.41" width="3.52" height="24.37"/><rect class="cls-7" x="76.41" y="78.78" width="4.98" height="0.73"/><rect class="cls-7" x="76.77" y="79.5" width="4.27" height="0.91"/><rect class="cls-7" x="77.09" y="75.56" width="4.17" height="2.2"/><rect class="cls-7" x="77.48" y="77.77" width="3.4" height="1.01"/><rect class="cls-7" x="113.23" y="41.34" width="4.41" height="1.99"/><rect class="cls-7" x="111.93" y="43.44" width="7" height="1.71"/><rect class="cls-7" x="112.55" y="45.15" width="5.76" height="0.7"/><rect class="cls-7" x="113.23" y="45.85" width="4.41" height="19.24"/><rect class="cls-7" x="110.71" y="66.65" width="19.99" height="1.24"/><rect class="cls-7" x="112.58" y="65.09" width="16.49" height="1.56"/><rect class="cls-7" x="114.71" y="50.05" width="1.35" height="12.96"/><rect class="cls-7" x="119.01" y="50.05" width="2.9" height="12.81"/><rect class="cls-7" x="123.34" y="41.34" width="4.41" height="1.99"/><rect class="cls-7" x="122.04" y="43.44" width="7" height="1.71"/><rect class="cls-7" x="122.67" y="45.15" width="5.76" height="0.7"/><rect class="cls-7" x="123.34" y="45.85" width="4.41" height="19.24"/><rect class="cls-7" x="124.82" y="50.05" width="1.35" height="12.96"/><rect class="cls-7" x="124.59" y="67.89" width="1.94" height="1.06"/><rect class="cls-7" x="125.07" y="68.95" width="0.97" height="1.06"/><rect class="cls-7" x="121.68" y="67.89" width="1.94" height="1.06"/><rect class="cls-7" x="122.17" y="68.95" width="0.97" height="1.06"/><rect class="cls-7" x="118.86" y="67.89" width="1.94" height="1.06"/><rect class="cls-7" x="119.34" y="68.95" width="0.97" height="1.06"/><rect class="cls-7" x="115.8" y="67.89" width="1.94" height="1.06"/><rect class="cls-7" x="116.28" y="68.95" width="0.97" height="1.06"/><rect class="cls-7" x="118.91" y="83.65" width="2.9" height="20.53"/><rect class="cls-7" x="118.91" y="108.02" width="2.9" height="4.56"/><rect class="cls-7" x="123.63" y="113.99" width="4.2" height="1.09"/><rect class="cls-7" x="117.51" y="106.57" width="5.97" height="8.51"/><rect class="cls-7" x="112.38" y="105.84" width="5.81" height="0.73"/><rect class="cls-7" x="113.05" y="106.57" width="4.46" height="6.9"/><rect class="cls-7" x="112.79" y="113.47" width="4.72" height="1.61"/><rect class="cls-7" x="114.4" y="108.02" width="1.76" height="4.56"/><rect class="cls-7" x="112.79" y="104.94" width="4.98" height="0.91"/><rect class="cls-7" x="113.52" y="80.57" width="3.52" height="24.37"/><rect class="cls-7" x="112.79" y="78.93" width="4.98" height="0.73"/><rect class="cls-7" x="113.15" y="79.66" width="4.26" height="0.91"/><rect class="cls-7" x="113.13" y="73.49" width="15.09" height="2.07"/><rect class="cls-7" x="113.44" y="67.89" width="14.21" height="5.6"/><rect class="cls-7" x="113.46" y="75.72" width="4.17" height="2.2"/><rect class="cls-7" x="113.85" y="77.92" width="3.4" height="1.01"/><path class="cls-3" d="M120.56,81.94q-2.57-.06-1.35-5.06c.3,4.64,3.09,3.86,3.08.06C123.07,80.29,122.49,82,120.56,81.94Z"/><rect class="cls-7" x="118.58" y="104.19" width="3.55" height="1.02"/><rect class="cls-7" x="118.84" y="105.2" width="3.04" height="1.27"/><rect class="cls-7" x="122.8" y="105.69" width="5.8" height="0.73"/><rect class="cls-7" x="123.48" y="106.42" width="4.46" height="6.9"/><rect class="cls-7" x="123.48" y="113.31" width="4.72" height="1.61"/><rect class="cls-7" x="124.82" y="107.87" width="1.76" height="4.56"/><rect class="cls-7" x="123.22" y="104.78" width="4.98" height="0.91"/><rect class="cls-7" x="123.94" y="80.41" width="3.52" height="24.37"/><rect class="cls-7" x="123.22" y="78.78" width="4.98" height="0.73"/><rect class="cls-7" x="123.57" y="79.5" width="4.26" height="0.91"/><rect class="cls-7" x="123.34" y="75.56" width="4.17" height="2.2"/><rect class="cls-7" x="123.73" y="77.77" width="3.4" height="1.01"/><polyline class="cls-5" points="190.82 105.21 194.83 60.81 208.38 60.81 212.57 105.3"/><line class="cls-7" x1="149.27" y1="105.47" x2="253.49" y2="105.47"/><polyline class="cls-5" points="192.63 105.21 195.97 64.27 207.27 64.27 210.76 105.3"/><line class="cls-7" x1="195.45" y1="70.69" x2="207.87" y2="70.69"/><line class="cls-7" x1="196.17" y1="78.28" x2="206.87" y2="78.28"/><line class="cls-7" x1="193.07" y1="99.76" x2="210.42" y2="99.76"/><polygon class="cls-5" points="210.95 70.93 216.18 70.93 215.84 76.9 211.45 76.9 210.95 70.93"/><polygon class="cls-5" points="212.21 70.93 214.92 70.93 214.75 75.47 212.47 75.47 212.21 70.93"/><path class="cls-5" d="M209.39,70.93h8.78m3.69,0h8.7m3.65,0H242"/><polyline class="cls-5" points="224.83 105.47 221.63 68.25 218.34 68.25 215.2 105.47"/><polyline class="cls-5" points="223.71 105.47 220.81 69.68 219.1 69.68 216.41 105.47"/><line class="cls-7" x1="216.84" y1="99.82" x2="223.29" y2="99.82"/><polygon class="cls-5" points="217.39 105.47 222.62 105.47 222.28 101.11 217.89 101.11 217.39 105.47"/><polygon class="cls-5" points="218.65 105.47 221.36 105.47 221.19 102.55 218.91 102.55 218.65 105.47"/><line class="cls-7" x1="211.17" y1="78.26" x2="216.43" y2="78.26"/><line class="cls-7" x1="210.48" y1="83.05" x2="217.09" y2="83.05"/><line class="cls-7" x1="212.04" y1="99.76" x2="215.69" y2="99.76"/><circle class="cls-7" cx="201.53" cy="67.43" r="1.38"/><polygon class="cls-5" points="223.39 70.93 228.63 70.93 228.29 76.9 223.9 76.9 223.39 70.93"/><polygon class="cls-5" points="224.65 70.93 227.37 70.93 227.19 75.47 224.91 75.47 224.65 70.93"/><polyline class="cls-5" points="237.27 105.47 234.08 68.25 230.79 68.25 227.64 105.47"/><polyline class="cls-5" points="236.15 105.47 233.25 69.68 231.55 69.68 228.85 105.47"/><line class="cls-7" x1="229.28" y1="99.82" x2="235.73" y2="99.82"/><polygon class="cls-5" points="229.83 105.47 235.07 105.47 234.73 101.11 230.34 101.11 229.83 105.47"/><polygon class="cls-5" points="231.09 105.47 233.81 105.47 233.63 102.55 231.35 102.55 231.09 105.47"/><line class="cls-7" x1="223.61" y1="78.26" x2="228.87" y2="78.26"/><line class="cls-7" x1="222.92" y1="83.05" x2="229.53" y2="83.05"/><line class="cls-7" x1="224.48" y1="99.76" x2="228.13" y2="99.76"/><polygon class="cls-5" points="236.47 70.93 241.7 70.93 241.36 76.9 236.97 76.9 236.47 70.93"/><polygon class="cls-5" points="237.72 70.93 240.44 70.93 240.27 75.47 237.99 75.47 237.72 70.93"/><polyline class="cls-5" points="250.35 105.47 247.15 68.25 243.86 68.25 240.72 105.47"/><polyline class="cls-5" points="249.22 105.47 246.33 69.68 244.62 69.68 241.93 105.47"/><line class="cls-7" x1="242.35" y1="99.82" x2="248.81" y2="99.82"/><polygon class="cls-5" points="242.91 105.47 248.14 105.47 247.8 101.11 243.41 101.11 242.91 105.47"/><polygon class="cls-5" points="244.16 105.47 246.88 105.47 246.71 102.55 244.43 102.55 244.16 105.47"/><line class="cls-7" x1="236.69" y1="78.26" x2="241.95" y2="78.26"/><line class="cls-7" x1="235.99" y1="83.05" x2="242.61" y2="83.05"/><line class="cls-7" x1="237.56" y1="99.76" x2="241.21" y2="99.76"/><polygon class="cls-5" points="249 70.93 254.23 70.93 253.9 76.9 249.5 76.9 249 70.93"/><polygon class="cls-5" points="250.26 70.93 252.97 70.93 252.8 75.47 250.52 75.47 250.26 70.93"/><line class="cls-7" x1="249.22" y1="78.26" x2="254.48" y2="78.26"/><line class="cls-7" x1="248.53" y1="83.05" x2="255.14" y2="83.05"/><line class="cls-7" x1="250.09" y1="99.76" x2="253.74" y2="99.76"/><path class="cls-1" d="M201.22,50.7l9.28-3v1.78l5-1.56-.31,2.85-5.93,1.52L211,56.58q19.11,3.86,30.67,14.35l1.94,0,.22-2.64h3.29l.22,2.36h8.7l.41-2.49h1.07l-4.06,37.35.16,9.61H201.32"/><line class="cls-7" x1="253.55" y1="104.94" x2="253.55" y2="115.28"/><polyline class="cls-5" points="210.5 49.45 210.5 50.52 204.23 52.1 205.77 56.43"/><line class="cls-7" x1="201.22" y1="50.7" x2="203.32" y2="56.32"/><line class="cls-7" x1="206.52" y1="51.53" x2="207.87" y2="56.36"/><line class="cls-7" x1="210.94" y1="56.36" x2="201.55" y2="56.36"/><path class="cls-5" d="M205.67,56.14q17.43,7.57,23.87,14.79"/><rect class="cls-7" x="212.91" y="105.47" width="2.26" height="9.6"/><rect class="cls-7" x="224.83" y="105.47" width="2.58" height="9.6"/><rect class="cls-7" x="237.78" y="105.47" width="2.58" height="9.6"/><rect class="cls-7" x="251.07" y="105.47" width="2.58" height="9.6"/><path class="cls-5" d="M199.08,96.2h5.11v3.55h1.49V96.18a7,7,0,0,0-2.17-12.38v8.9h-3.77V83.8a7,7,0,0,0-2.15,12.4v3.56h1.49Z"/><polygon class="cls-5" points="192.85 113.76 191.38 114.68 211.31 114.68 209.72 113.76 192.85 113.76"/><rect class="cls-7" x="205.46" y="108.37" width="4.26" height="5.39"/><rect class="cls-7" x="201.2" y="108.37" width="4.26" height="5.39"/><rect class="cls-7" x="197.03" y="108.37" width="4.26" height="5.39"/><rect class="cls-7" x="192.76" y="108.37" width="4.26" height="5.39"/><polygon class="cls-5" points="192.15 70.93 186.91 70.93 187.25 76.9 191.64 76.9 192.15 70.93"/><polygon class="cls-5" points="190.89 70.93 188.17 70.93 188.35 75.47 190.63 75.47 190.89 70.93"/><path class="cls-5" d="M193.71,70.93h-8.79m-3.69,0h-8.7m-3.64,0h-7.74"/><polyline class="cls-5" points="178.26 105.47 181.46 68.25 184.75 68.25 187.89 105.47"/><polyline class="cls-5" points="179.39 105.47 182.28 69.68 183.99 69.68 186.68 105.47"/><line class="cls-7" x1="186.26" y1="99.82" x2="179.81" y2="99.82"/><polygon class="cls-5" points="185.71 105.47 180.47 105.47 180.81 101.11 185.2 101.11 185.71 105.47"/><polygon class="cls-5" points="184.45 105.47 181.73 105.47 181.91 102.55 184.19 102.55 184.45 105.47"/><line class="cls-7" x1="191.93" y1="78.26" x2="186.67" y2="78.26"/><line class="cls-7" x1="192.62" y1="83.05" x2="186.01" y2="83.05"/><line class="cls-7" x1="191.05" y1="99.76" x2="187.4" y2="99.76"/><polygon class="cls-5" points="179.7 70.93 174.47 70.93 174.81 76.9 179.2 76.9 179.7 70.93"/><polygon class="cls-5" points="178.44 70.93 175.73 70.93 175.9 75.47 178.18 75.47 178.44 70.93"/><polyline class="cls-5" points="165.82 105.47 169.02 68.25 172.31 68.25 175.45 105.47"/><polyline class="cls-5" points="166.94 105.47 169.84 69.68 171.55 69.68 174.24 105.47"/><line class="cls-7" x1="173.81" y1="99.82" x2="167.36" y2="99.82"/><polygon class="cls-5" points="173.26 105.47 168.03 105.47 168.36 101.11 172.76 101.11 173.26 105.47"/><polygon class="cls-5" points="172 105.47 169.29 105.47 169.46 102.55 171.74 102.55 172 105.47"/><line class="cls-7" x1="179.48" y1="78.26" x2="174.22" y2="78.26"/><line class="cls-7" x1="180.17" y1="83.05" x2="173.56" y2="83.05"/><line class="cls-7" x1="178.61" y1="99.76" x2="174.96" y2="99.76"/><polygon class="cls-5" points="166.63 70.93 161.39 70.93 161.73 76.9 166.12 76.9 166.63 70.93"/><polygon class="cls-5" points="165.37 70.93 162.65 70.93 162.83 75.47 165.11 75.47 165.37 70.93"/><polyline class="cls-5" points="152.75 105.47 155.94 68.25 159.23 68.25 162.38 105.47"/><polyline class="cls-5" points="153.87 105.47 156.76 69.68 158.47 69.68 161.16 105.47"/><line class="cls-7" x1="160.74" y1="99.82" x2="154.29" y2="99.82"/><polygon class="cls-5" points="160.19 105.47 154.95 105.47 155.29 101.11 159.68 101.11 160.19 105.47"/><polygon class="cls-5" points="158.93 105.47 156.21 105.47 156.39 102.55 158.67 102.55 158.93 105.47"/><line class="cls-7" x1="166.41" y1="78.26" x2="161.15" y2="78.26"/><line class="cls-7" x1="167.1" y1="83.05" x2="160.49" y2="83.05"/><line class="cls-7" x1="165.53" y1="99.76" x2="161.88" y2="99.76"/><polygon class="cls-5" points="154.1 70.93 148.86 70.93 149.2 76.9 153.59 76.9 154.1 70.93"/><polygon class="cls-5" points="152.84 70.93 150.12 70.93 150.29 75.47 152.57 75.47 152.84 70.93"/><line class="cls-7" x1="153.88" y1="78.26" x2="148.62" y2="78.26"/><line class="cls-7" x1="154.57" y1="83.05" x2="147.96" y2="83.05"/><line class="cls-7" x1="153" y1="99.76" x2="149.35" y2="99.76"/><path class="cls-1" d="M201.87,50.7l-9.27-3v1.78l-5-1.56.31,2.85,5.93,1.52-1.74,4.32Q173,60.44,161.39,70.93l-1.94,0-.22-2.64h-3.29l-.21,2.36H147l-.4-2.49h-1.07l4,37.35-.15,9.61h52.32"/><polyline class="cls-5" points="192.6 49.45 192.6 50.52 198.86 52.1 197.32 56.43"/><line class="cls-7" x1="201.87" y1="50.7" x2="199.77" y2="56.32"/><line class="cls-7" x1="196.58" y1="51.53" x2="195.23" y2="56.36"/><line class="cls-7" x1="192.15" y1="56.36" x2="201.55" y2="56.36"/><path class="cls-5" d="M197.42,56.14Q180,63.72,173.55,70.93"/><rect class="cls-7" x="188.26" y="105.47" width="2.26" height="9.6"/><rect class="cls-7" x="175.69" y="105.47" width="2.58" height="9.6"/><rect class="cls-7" x="162.74" y="105.47" width="2.58" height="9.6"/><rect class="cls-7" x="149.45" y="105.47" width="2.58" height="9.6"/><polygon class="cls-5" points="198.91 70.93 204.14 70.93 203.81 76.9 199.41 76.9 198.91 70.93"/><polygon class="cls-5" points="200.17 70.93 202.88 70.93 202.71 75.47 200.43 75.47 200.17 70.93"/><line class="cls-7" x1="149.54" y1="104.94" x2="149.54" y2="115.28"/><rect class="cls-7" x="572.57" y="67.58" width="54.5" height="47.7"/><rect class="cls-7" x="575.77" y="70.12" width="48.08" height="45.16"/><rect class="cls-7" x="579.76" y="74.08" width="40.12" height="41.2"/><rect class="cls-7" x="583.31" y="77.43" width="33.01" height="37.85"/><polygon class="cls-5" points="571.89 67.58 627.74 67.58 628.63 65.17 571.2 65.17 571.89 67.58"/><polygon class="cls-5" points="571.78 65.17 627.85 65.17 628.75 62.77 571.08 62.77 571.78 65.17"/><path class="cls-5" d="M579.69,71a1.08,1.08,0,1,1-1.07,1.07A1.07,1.07,0,0,1,579.69,71Zm40.5,0a1.08,1.08,0,1,1-1.08,1.07A1.07,1.07,0,0,1,620.19,71Zm-5,0a1.08,1.08,0,1,1-1.08,1.07A1.07,1.07,0,0,1,615.18,71ZM610,71a1.08,1.08,0,1,1-1.07,1.07A1.07,1.07,0,0,1,610,71Zm-4.93,0A1.08,1.08,0,1,1,604,72.11,1.07,1.07,0,0,1,605.07,71Zm-5,0A1.08,1.08,0,1,1,599,72.11,1.07,1.07,0,0,1,600.06,71Zm-5.17,0a1.08,1.08,0,1,1-1.08,1.07A1.07,1.07,0,0,1,594.89,71Zm-5,0a1.08,1.08,0,1,1-1.08,1.07A1.07,1.07,0,0,1,589.88,71Zm-5.17,0a1.08,1.08,0,1,1-1.08,1.07A1.07,1.07,0,0,1,584.71,71Z"/><path class="cls-5" d="M620.87,110.92a1.07,1.07,0,1,1,1.07,1.08,1.07,1.07,0,0,1-1.07-1.08Zm0-33.56a1.07,1.07,0,1,1,1.07,1.08,1.07,1.07,0,0,1-1.07-1.08Zm0,5.62a1.07,1.07,0,1,1,1.07,1.07A1.07,1.07,0,0,1,620.87,83Zm0,5.65a1.07,1.07,0,1,1,1.07,1.07,1.07,1.07,0,0,1-1.07-1.07Zm0,5.53a1.07,1.07,0,1,1,1.07,1.08,1.07,1.07,0,0,1-1.07-1.08Zm0,5.62a1.07,1.07,0,1,1,1.07,1.07,1.07,1.07,0,0,1-1.07-1.07Zm0,5.41a1.07,1.07,0,1,1,1.07,1.07A1.07,1.07,0,0,1,620.87,105.19Z"/><path class="cls-5" d="M577.07,77.36a1.08,1.08,0,1,1,1.07,1.08,1.07,1.07,0,0,1-1.07-1.08Zm0,33.56a1.08,1.08,0,1,1,1.07,1.08,1.07,1.07,0,0,1-1.07-1.08Zm0-5.73a1.08,1.08,0,1,1,1.07,1.07,1.07,1.07,0,0,1-1.07-1.07Zm0-5.41a1.08,1.08,0,1,1,1.07,1.07,1.07,1.07,0,0,1-1.07-1.07Zm0-5.62a1.08,1.08,0,1,1,1.07,1.08,1.07,1.07,0,0,1-1.07-1.08Zm0-5.53a1.08,1.08,0,1,1,1.07,1.07,1.07,1.07,0,0,1-1.07-1.07Zm0-5.65a1.08,1.08,0,1,1,1.07,1.07A1.07,1.07,0,0,1,577.07,83Z"/><rect class="cls-7" x="627.06" y="77.4" width="40.22" height="37.88"/><rect class="cls-7" x="630.25" y="79.47" width="33.86" height="35.81"/><rect class="cls-7" x="635.1" y="84.4" width="24.15" height="30.87"/><rect class="cls-7" x="639.16" y="87.98" width="16.04" height="27.29"/><rect class="cls-7" x="644.09" y="101.83" width="6.17" height="13.45"/><circle class="cls-7" cx="642.24" cy="90.05" r="1.31"/><path class="cls-5" d="M652.25,91.37a1.32,1.32,0,1,0-1.31-1.32A1.32,1.32,0,0,0,652.25,91.37Z"/><path class="cls-5" d="M639.16,98.92a4.88,4.88,0,0,1,3.51-4.78c2-.86,4.17-1.9,4.51-3.11m8,7.89a5,5,0,0,0-3.5-4.78c-2-.86-4.18-1.9-4.51-3.11"/><path class="cls-5" d="M645.84,104.22h.63v8.52h-.63v-8.52Zm2,0h.63v8.52h-.63Z"/><polygon class="cls-5" points="641.09 82.04 643.17 80.21 645.25 82.04 643.17 83.87 641.09 82.04"/><polygon class="cls-5" points="645.25 82.04 647.33 80.21 649.41 82.04 647.33 83.87 645.25 82.04"/><polygon class="cls-5" points="649.41 82.04 651.5 80.21 653.58 82.04 651.5 83.87 649.41 82.04"/><polygon class="cls-5" points="636.56 82.04 638.64 80.21 640.72 82.04 638.64 83.87 636.56 82.04"/><polygon class="cls-5" points="653.91 82.04 655.99 80.21 658.08 82.04 655.99 83.87 653.91 82.04"/><polygon class="cls-5" points="659.38 82.11 661.47 80.28 663.55 82.11 661.47 83.94 659.38 82.11"/><polygon class="cls-5" points="659.38 86.48 661.47 84.65 663.55 86.48 661.47 88.32 659.38 86.48"/><polygon class="cls-5" points="659.38 90.63 661.47 88.8 663.55 90.63 661.47 92.46 659.38 90.63"/><polygon class="cls-5" points="659.38 95.24 661.47 93.41 663.55 95.24 661.47 97.07 659.38 95.24"/><polygon class="cls-5" points="659.38 99.67 661.47 97.84 663.55 99.67 661.47 101.5 659.38 99.67"/><polygon class="cls-5" points="659.38 104.05 661.47 102.21 663.55 104.05 661.47 105.88 659.38 104.05"/><polygon class="cls-5" points="659.38 108.48 661.47 106.65 663.55 108.48 661.47 110.31 659.38 108.48"/><polygon class="cls-5" points="659.38 112.74 661.47 110.91 663.55 112.74 661.47 114.57 659.38 112.74"/><path class="cls-5" d="M630.82,82.11l2.08-1.83L635,82.11l-2.09,1.83-2.08-1.83Zm0,30.63,2.08-1.83,2.09,1.83-2.09,1.83-2.08-1.83Zm0-4.26,2.08-1.83,2.09,1.83-2.09,1.83-2.08-1.83Zm0-4.43,2.08-1.84,2.09,1.84-2.09,1.83-2.08-1.83Zm0-4.38,2.08-1.83L635,99.67l-2.09,1.83-2.08-1.83Zm0-4.43,2.08-1.84L635,95.24l-2.09,1.83-2.08-1.83Zm0-4.61,2.08-1.83L635,90.63l-2.09,1.83-2.08-1.83Zm0-4.15,2.08-1.83L635,86.48l-2.09,1.84Z"/><line class="cls-7" x1="630.82" y1="86.48" x2="630.25" y2="86.48"/><line class="cls-7" x1="630.82" y1="82.11" x2="630.25" y2="82.11"/><line class="cls-7" x1="630.82" y1="90.63" x2="630.25" y2="90.63"/><line class="cls-7" x1="630.82" y1="95.24" x2="630.25" y2="95.24"/><line class="cls-7" x1="630.82" y1="99.67" x2="630.25" y2="99.67"/><line class="cls-7" x1="630.82" y1="104.05" x2="630.25" y2="104.05"/><line class="cls-7" x1="630.82" y1="108.48" x2="630.25" y2="108.48"/><line class="cls-7" x1="630.86" y1="112.76" x2="630.29" y2="112.76"/><line class="cls-7" x1="632.9" y1="114.48" x2="632.9" y2="115.28"/><line class="cls-7" x1="632.9" y1="79.47" x2="632.9" y2="80.28"/><line class="cls-7" x1="638.64" y1="79.41" x2="638.64" y2="80.21"/><line class="cls-7" x1="643.17" y1="79.41" x2="643.17" y2="80.21"/><line class="cls-7" x1="647.33" y1="79.41" x2="647.33" y2="80.21"/><line class="cls-7" x1="651.5" y1="79.41" x2="651.5" y2="80.21"/><line class="cls-7" x1="655.99" y1="79.41" x2="655.99" y2="80.21"/><line class="cls-7" x1="661.47" y1="79.47" x2="661.47" y2="80.28"/><line class="cls-7" x1="655.99" y1="83.87" x2="655.99" y2="84.4"/><line class="cls-7" x1="651.5" y1="83.87" x2="651.5" y2="84.4"/><line class="cls-7" x1="647.33" y1="83.87" x2="647.33" y2="84.4"/><line class="cls-7" x1="643.17" y1="83.87" x2="643.17" y2="84.4"/><line class="cls-7" x1="638.64" y1="83.87" x2="638.64" y2="84.4"/><line class="cls-7" x1="664.03" y1="82.11" x2="663.45" y2="82.11"/><line class="cls-7" x1="664.05" y1="86.55" x2="663.48" y2="86.55"/><line class="cls-7" x1="664.12" y1="90.63" x2="663.55" y2="90.63"/><line class="cls-7" x1="664.12" y1="95.24" x2="663.55" y2="95.24"/><line class="cls-7" x1="664.12" y1="99.67" x2="663.55" y2="99.67"/><line class="cls-7" x1="664.12" y1="104.05" x2="663.55" y2="104.05"/><line class="cls-7" x1="664.12" y1="108.48" x2="663.55" y2="108.48"/><line class="cls-7" x1="664.12" y1="112.74" x2="663.55" y2="112.74"/><line class="cls-7" x1="661.47" y1="114.57" x2="661.47" y2="115.28"/><polygon class="cls-5" points="627.06 77.4 667.92 77.4 668.81 75.68 627.06 75.68 627.06 77.4"/><polygon class="cls-5" points="627.06 75.68 668.33 75.68 669.23 73.96 627.06 73.96 627.06 75.68"/><rect class="cls-7" x="532.34" y="77.4" width="40.22" height="37.88"/><rect class="cls-7" x="535.53" y="79.47" width="33.86" height="35.81"/><rect class="cls-7" x="540.38" y="84.4" width="24.15" height="30.87"/><rect class="cls-7" x="544.44" y="87.98" width="16.04" height="27.29"/><rect class="cls-7" x="549.37" y="101.83" width="6.17" height="13.45"/><path class="cls-5" d="M557.4,91.37a1.32,1.32,0,1,0-1.32-1.32A1.32,1.32,0,0,0,557.4,91.37Z"/><circle class="cls-7" cx="547.38" cy="90.05" r="1.31"/><path class="cls-5" d="M560.48,98.92A4.89,4.89,0,0,0,557,94.14c-2-.86-4.18-1.9-4.51-3.11m-8,7.89A5,5,0,0,1,548,94.14c2-.86,4.17-1.9,4.51-3.11"/><path class="cls-5" d="M553.8,104.22h-.64v8.52h.64v-8.52Zm-2,0h-.63v8.52h.63Z"/><polygon class="cls-5" points="558.55 82.04 556.47 80.21 554.38 82.04 556.47 83.87 558.55 82.04"/><polygon class="cls-5" points="554.38 82.04 552.3 80.21 550.22 82.04 552.3 83.87 554.38 82.04"/><polygon class="cls-5" points="550.22 82.04 548.14 80.21 546.05 82.04 548.14 83.87 550.22 82.04"/><polygon class="cls-5" points="563.07 82.04 560.99 80.21 558.91 82.04 560.99 83.87 563.07 82.04"/><polygon class="cls-5" points="545.72 82.04 543.64 80.21 541.56 82.04 543.64 83.87 545.72 82.04"/><polygon class="cls-5" points="540.25 82.11 538.16 80.28 536.08 82.11 538.16 83.94 540.25 82.11"/><polygon class="cls-5" points="540.25 86.48 538.16 84.65 536.08 86.48 538.16 88.32 540.25 86.48"/><polygon class="cls-5" points="540.25 90.63 538.16 88.8 536.08 90.63 538.16 92.46 540.25 90.63"/><polygon class="cls-5" points="540.25 95.24 538.16 93.41 536.08 95.24 538.16 97.07 540.25 95.24"/><polygon class="cls-5" points="540.25 99.67 538.16 97.84 536.08 99.67 538.16 101.5 540.25 99.67"/><polygon class="cls-5" points="540.25 104.05 538.16 102.21 536.08 104.05 538.16 105.88 540.25 104.05"/><polygon class="cls-5" points="540.25 108.48 538.16 106.65 536.08 108.48 538.16 110.31 540.25 108.48"/><polygon class="cls-5" points="540.25 112.74 538.16 110.91 536.08 112.74 538.16 114.57 540.25 112.74"/><path class="cls-5" d="M568.81,82.11l-2.08-1.83-2.08,1.83,2.08,1.83,2.08-1.83Zm0,30.63-2.08-1.83-2.08,1.83,2.08,1.83,2.08-1.83Zm0-4.26-2.08-1.83-2.08,1.83,2.08,1.83,2.08-1.83Zm0-4.43-2.08-1.84-2.08,1.84,2.08,1.83,2.08-1.83Zm0-4.38-2.08-1.83-2.08,1.83,2.08,1.83,2.08-1.83Zm0-4.43-2.08-1.84-2.08,1.84,2.08,1.83,2.08-1.83Zm0-4.61-2.08-1.83-2.08,1.83,2.08,1.83,2.08-1.83Zm0-4.15-2.08-1.83-2.08,1.83,2.08,1.84Z"/><line class="cls-7" x1="568.81" y1="86.48" x2="569.39" y2="86.48"/><line class="cls-7" x1="568.81" y1="82.11" x2="569.39" y2="82.11"/><line class="cls-7" x1="568.81" y1="90.63" x2="569.39" y2="90.63"/><line class="cls-7" x1="568.81" y1="95.24" x2="569.39" y2="95.24"/><line class="cls-7" x1="568.81" y1="99.67" x2="569.39" y2="99.67"/><line class="cls-7" x1="568.81" y1="104.05" x2="569.39" y2="104.05"/><line class="cls-7" x1="568.81" y1="108.48" x2="569.39" y2="108.48"/><line class="cls-7" x1="568.77" y1="112.76" x2="569.35" y2="112.76"/><line class="cls-7" x1="566.73" y1="114.48" x2="566.73" y2="115.28"/><line class="cls-7" x1="566.73" y1="79.47" x2="566.73" y2="80.28"/><line class="cls-7" x1="560.99" y1="79.41" x2="560.99" y2="80.21"/><line class="cls-7" x1="556.47" y1="79.41" x2="556.47" y2="80.21"/><line class="cls-7" x1="552.3" y1="79.41" x2="552.3" y2="80.21"/><line class="cls-7" x1="548.14" y1="79.41" x2="548.14" y2="80.21"/><line class="cls-7" x1="543.64" y1="79.41" x2="543.64" y2="80.21"/><line class="cls-7" x1="538.16" y1="79.47" x2="538.16" y2="80.28"/><line class="cls-7" x1="543.64" y1="83.87" x2="543.64" y2="84.4"/><line class="cls-7" x1="548.14" y1="83.87" x2="548.14" y2="84.4"/><line class="cls-7" x1="552.3" y1="83.87" x2="552.3" y2="84.4"/><line class="cls-7" x1="556.47" y1="83.87" x2="556.47" y2="84.4"/><line class="cls-7" x1="560.99" y1="83.87" x2="560.99" y2="84.4"/><line class="cls-7" x1="535.61" y1="82.11" x2="536.18" y2="82.11"/><line class="cls-7" x1="535.58" y1="86.55" x2="536.15" y2="86.55"/><line class="cls-7" x1="535.51" y1="90.63" x2="536.08" y2="90.63"/><line class="cls-7" x1="535.51" y1="95.24" x2="536.08" y2="95.24"/><line class="cls-7" x1="535.51" y1="99.67" x2="536.08" y2="99.67"/><line class="cls-7" x1="535.51" y1="104.05" x2="536.08" y2="104.05"/><line class="cls-7" x1="535.51" y1="108.48" x2="536.08" y2="108.48"/><line class="cls-7" x1="535.51" y1="112.74" x2="536.08" y2="112.74"/><line class="cls-7" x1="538.16" y1="114.57" x2="538.16" y2="115.28"/><polygon class="cls-5" points="572.57 77.4 531.71 77.4 530.82 75.68 572.57 75.68 572.57 77.4"/><polygon class="cls-5" points="572.57 75.68 531.3 75.68 530.4 73.96 572.57 73.96 572.57 75.68"/><polyline class="cls-9" points="532.35 115.28 532.35 77.4 531.71 77.4 530.82 75.68 531.3 75.68 530.4 73.96 572.57 73.96 572.57 67.58 571.89 67.58 571.2 65.17 571.78 65.17 571.08 62.77 628.75 62.77 627.85 65.17 628.63 65.17 627.74 67.58 627.06 67.58 627.06 73.96 669.23 73.96 668.33 75.68 668.81 75.68 667.92 77.4 667.29 77.4 667.29 115.28"/><polygon class="cls-10" points="0.71 115.28 57.43 115.28 57.43 112.73 53.72 112.73 53.72 111.02 49.94 111.02 48.82 90.32 46.92 90.32 43.31 22.63 14.72 22.63 11.64 90.32 9.46 90.32 8.34 111.02 4.28 111.02 4.28 112.73 0.71 112.73 0.71 115.28"/><line class="cls-7" x1="13.8" y1="44.19" x2="44.56" y2="44.19"/><line class="cls-7" x1="13.5" y1="49.96" x2="44.86" y2="49.96"/><line class="cls-7" x1="13" y1="58.43" x2="45.32" y2="58.43"/><line class="cls-7" x1="12.87" y1="61.31" x2="45.46" y2="61.31"/><line class="cls-7" x1="12.57" y1="69.8" x2="45.92" y2="69.8"/><line class="cls-7" x1="12.33" y1="72.92" x2="46.07" y2="72.92"/><line class="cls-7" x1="12.19" y1="81.26" x2="46.25" y2="81.26"/><line class="cls-7" x1="8.34" y1="111.02" x2="49.94" y2="111.02"/><line class="cls-7" x1="13.65" y1="46.05" x2="44.42" y2="46.05"/><rect class="cls-11" x="8.88" y="89.03" width="10.07" height="1.29"/><rect class="cls-11" x="18.95" y="89.03" width="19.79" height="1.29"/><rect class="cls-11" x="38.74" y="89.03" width="10.31" height="1.29"/><line class="cls-7" x1="4.28" y1="112.73" x2="53.72" y2="112.73"/><line class="cls-7" x1="20.2" y1="90.32" x2="18.82" y2="111.02"/><line class="cls-7" x1="38.13" y1="90.32" x2="39.21" y2="111.02"/><rect class="cls-11" x="22.68" y="93.76" width="12.85" height="17.26"/><rect class="cls-11" x="24.93" y="95.84" width="8.33" height="15.18"/><path class="cls-10" d="M32.05,111h-5.9v-10.1a3,3,0,0,1,3-3h0a3,3,0,0,1,2.95,3Z"/><path class="cls-10" d="M31,111H27.19v-10.1A1.92,1.92,0,0,1,29.1,99h0A1.92,1.92,0,0,1,31,100.92Z"/><polygon class="cls-10" points="9.87 93.76 19.03 93.76 18.12 111.02 8.96 111.02 9.87 93.76"/><polygon class="cls-10" points="11.37 95.84 17.31 95.84 16.51 111.02 10.57 111.02 11.37 95.84"/><path class="cls-10" d="M15.65,111H11.44l.53-10.1c.09-1.63,1.1-3,2.26-3h0c1.16,0,2,1.32,1.95,3Z"/><path class="cls-10" d="M14.9,111H12.18l.53-10.1c.06-1,.72-1.91,1.46-1.91h0c.75,0,1.32.86,1.27,1.91Z"/><polygon class="cls-10" points="48.31 93.76 39.15 93.76 40.06 111.02 49.22 111.02 48.31 93.76"/><polygon class="cls-10" points="46.81 95.84 40.87 95.84 41.67 111.02 47.61 111.02 46.81 95.84"/><path class="cls-10" d="M42.54,111h4.21l-.53-10.1c-.09-1.63-1.11-3-2.26-3h0c-1.16,0-2,1.32-2,3Z"/><path class="cls-10" d="M43.28,111H46l-.54-10.1c0-1-.71-1.91-1.46-1.91h0c-.75,0-1.32.86-1.26,1.91Z"/><rect class="cls-11" x="16.51" y="29.97" width="4.17" height="4.23"/><rect class="cls-11" x="16.51" y="34.2" width="4.17" height="4.23"/><rect class="cls-11" x="20.68" y="29.97" width="4.17" height="4.23"/><rect class="cls-11" x="20.68" y="34.2" width="4.17" height="4.23"/><rect class="cls-11" x="24.85" y="29.97" width="4.17" height="4.23"/><rect class="cls-11" x="24.85" y="34.2" width="4.17" height="4.23"/><rect class="cls-11" x="29.01" y="29.97" width="4.17" height="4.23"/><rect class="cls-11" x="29.01" y="34.2" width="4.17" height="4.23"/><rect class="cls-11" x="33.18" y="29.97" width="4.17" height="4.23"/><rect class="cls-11" x="33.18" y="34.2" width="4.17" height="4.23"/><rect class="cls-11" x="37.35" y="29.97" width="4.17" height="4.23"/><rect class="cls-11" x="37.35" y="34.2" width="4.17" height="4.23"/><line class="cls-7" x1="14.5" y1="27.47" x2="43.47" y2="27.47"/><rect class="cls-11" x="15.24" y="28.53" width="2.89" height="2.93"/><rect class="cls-11" x="15.83" y="29.13" width="1.7" height="1.73"/><rect class="cls-11" x="19.23" y="28.51" width="2.89" height="2.93"/><rect class="cls-11" x="19.83" y="29.11" width="1.7" height="1.73"/><rect class="cls-11" x="23.4" y="28.51" width="2.89" height="2.93"/><rect class="cls-11" x="24" y="29.11" width="1.7" height="1.73"/><rect class="cls-11" x="27.57" y="28.51" width="2.89" height="2.93"/><rect class="cls-11" x="28.16" y="29.11" width="1.7" height="1.73"/><rect class="cls-11" x="31.74" y="28.51" width="2.89" height="2.93"/><rect class="cls-11" x="32.33" y="29.11" width="1.7" height="1.73"/><rect class="cls-11" x="35.9" y="28.51" width="2.89" height="2.93"/><rect class="cls-11" x="36.5" y="29.11" width="1.7" height="1.73"/><rect class="cls-11" x="40.07" y="28.51" width="2.89" height="2.93"/><rect class="cls-11" x="40.67" y="29.11" width="1.7" height="1.73"/><rect class="cls-11" x="19.23" y="32.74" width="2.89" height="2.93"/><rect class="cls-11" x="19.83" y="33.34" width="1.7" height="1.73"/><rect class="cls-11" x="15.07" y="32.74" width="2.89" height="2.93"/><rect class="cls-11" x="15.66" y="33.34" width="1.7" height="1.73"/><rect class="cls-11" x="23.4" y="32.74" width="2.89" height="2.93"/><rect class="cls-11" x="24" y="33.34" width="1.7" height="1.73"/><rect class="cls-11" x="27.57" y="32.74" width="2.89" height="2.93"/><rect class="cls-11" x="28.16" y="33.34" width="1.7" height="1.73"/><rect class="cls-11" x="31.74" y="32.74" width="2.89" height="2.93"/><rect class="cls-11" x="32.33" y="33.34" width="1.7" height="1.73"/><rect class="cls-11" x="35.9" y="32.74" width="2.89" height="2.93"/><rect class="cls-11" x="36.5" y="33.34" width="1.7" height="1.73"/><rect class="cls-11" x="40.07" y="32.74" width="2.89" height="2.93"/><rect class="cls-11" x="40.67" y="33.34" width="1.7" height="1.73"/><line class="cls-7" x1="13.85" y1="40.71" x2="44.35" y2="40.71"/><rect class="cls-11" x="19.23" y="36.96" width="2.89" height="2.93"/><rect class="cls-11" x="19.83" y="37.57" width="1.7" height="1.73"/><rect class="cls-11" x="14.93" y="36.96" width="2.89" height="2.93"/><rect class="cls-11" x="15.52" y="37.57" width="1.7" height="1.73"/><rect class="cls-11" x="23.4" y="36.96" width="2.89" height="2.93"/><rect class="cls-11" x="24" y="37.57" width="1.7" height="1.73"/><rect class="cls-11" x="27.57" y="36.96" width="2.89" height="2.93"/><rect class="cls-11" x="28.16" y="37.57" width="1.7" height="1.73"/><rect class="cls-11" x="31.74" y="36.96" width="2.89" height="2.93"/><rect class="cls-11" x="32.33" y="37.57" width="1.7" height="1.73"/><rect class="cls-11" x="35.9" y="36.96" width="2.89" height="2.93"/><rect class="cls-11" x="36.5" y="37.57" width="1.7" height="1.73"/><rect class="cls-11" x="40.07" y="36.96" width="2.89" height="2.93"/><rect class="cls-11" x="40.67" y="37.57" width="1.7" height="1.73"/><polyline class="cls-6" points="57.43 115.28 57.43 112.73 53.72 112.73 53.72 111.02 49.94 111.02 48.85 90.78 49.05 90.32 49.05 89.03 46.85 89.03 43.31 22.63 14.72 22.63 11.7 89.03 8.88 89.03 8.88 90.32 9.46 90.32 8.34 111.02 4.28 111.02 4.28 112.73 0.71 112.73 0.71 115.28"/><polyline class="cls-12" points="306.97 114.6 306.87 100.37 305.76 100.28 305.45 96.3 304.14 96.2 303.9 91.81 301.8 91.66 301.8 89.92 298.88 89.68 298.88 88.6 278.82 85.98 277.91 86.92 275.09 86.89 274.79 87.62 272.34 87.76 272.31 89.53 270.77 89.73 270.73 92.18 270.73 115.28"/><path class="cls-12" d="M280.61,86.22l-1.91-.12L280,84.57l.3-1,0-2.42.56-1,.24-1.48-.68.08-.56.82-1.36,0-.13-.48,1-.3.18-.55-.11-.63-.26-.21-.05-.82-.44-.22-.44.26-.08.73-.41.75h-2.32l-1.27-.93-.86.15L273.17,79l-.14.34.14.65.12,1,1.2.08.08,1.66-.59.58-.69-.44-.54-1.23-.8-.77.08-2.11.25-1.38-.18-1,.67-.85,3.23.13.47-.71,0-2.77.53-.89.1-1-.05-2,.28-.65.27-.87,0-.52-.31-.4-.81.6-.64.16v1.38L275.24,69l-.64-.22-.05-.57.31-.43-.19-.25-.42.62,0,.57-.29.06-.8-.7-.06-.6.42-1.22.15-1.46.6-1.25-.11-1.09.17-1.4,1.21-1,.61.1,1.06-.49,1.35.42,1.12-.24.39.86,1.56.24.61.88,1,.39,1.07,1.59,0,.36-1.79,0-.3,1,.16.34.47.17.16.74,1.43.15.39-.37V65l.39-1,0-1.17.83-1.09.16-1-.36-.76-.14-.77-.47-.78.21-1,.45-.45.49-.28.08-2-.39-.68.21-.76.91-.18,1,.84.1.85-.2.89-.71-.5-.47-.54-.12,2,.86.62.36.75L288,59l.07.6.28.58.91.28.4.81.85.08.6.74,1.23-.07.67.5-.24,1.35.27.65.93.57.86.26L295,66l.36.45-1.68.07-.57-.36-.55-.15-.23.43-.21.37-1.35.13-.84-.19-.51-.28-.76.29.1.65.71.15.2.19,1.15.22,2.26.5,1.71.34,2.45.1h1.43l1.14-.19,1.87.46-.65.11-2.08.1-2.36.71-1.77-.19-1.9-.56-2.36-.76-.89-.21-.41.8,1.12,1,1,.5,1.73.17,1.61.5.55.31,1.12.12,1.37.15,1,.49.41,1.2L299,75.13l-.33,1.78-1.24,2.55L296.14,82,295.36,84l-.57,0,.5,4.13L293.9,88l.05-1.31-.37-1.31-.26-1-.69-.07-.48.86-.29.21v.27l.75.2.2.55-.62,1.38-1-.13-.32-.7-.12-1.85,1.57-2.22-1.42-1-1.14-1.12-.7-1.07-.48-1.29-.57.12-1.32.33L285,78.65l-1.89-.57-.47.73-.18.89L281.88,81l-.13,1.2-.52,1.63-.14,1.5-.58.33.1.59ZM292.75,81l-.17-1.6.5.55.25,1.29-.58-.24Zm3.76-7.8-.67.12,0,2.57-.19.62,0,.73.75-.55.6-.93.41-1-.3-1-.53-.53Zm-13.25-5.5.15-.71,1,.08.09.63-.3.61-.42.06-.23-.51Z"/><polyline class="cls-12" points="294.45 114.81 294.37 102.47 293.44 102.39 293.17 98.93 292.07 98.86 291.86 95.05 290.1 94.91 290.1 93.41 287.63 93.19 287.63 92.26 270.73 89.99"/><rect class="cls-11" x="375.13" y="113.04" width="87.29" height="1.67"/><rect class="cls-11" x="377.84" y="111.45" width="81.87" height="1.6"/><rect class="cls-11" x="380.07" y="110.13" width="77.42" height="1.32"/><path class="cls-5" d="M414.4,86.84q-28.77-.45-31.07,23.29"/><path class="cls-5" d="M389,110.13Q392.29,89.4,414.05,88"/><path class="cls-5" d="M399.46,110.13q.19-18.54,14.52-21-18.06,1.88-21.47,21"/><path class="cls-5" d="M423.22,86.84q28.77-.45,31.07,23.29"/><path class="cls-5" d="M448.66,110.13Q445.35,89.4,423.57,88"/><path class="cls-5" d="M438.17,110.13q-.21-18.54-14.53-21,18.06,1.88,21.48,21"/><path class="cls-13" d="M414.19,110.13q.21-12.63,3.61-20.78a79.41,79.41,0,0,0-2.22,20.78"/><path class="cls-13" d="M423.32,110.13q-.21-12.63-3.61-20.78a79.41,79.41,0,0,1,2.22,20.78"/><path class="cls-6" d="M414.15,86.84q-28.53-.34-30.82,23.29m40-23.29q28.67-.41,31,23.29m-36.39,0H380.07v1.32h-2.23V113h-2.71v1.67h87.29V113h-2.71v-1.59h-2.22v-1.32H417.9"/><rect class="cls-14" x="412.77" y="86.35" width="11.93" height="3.15" rx="1.58"/><rect class="cls-11" x="415.43" y="86.35" width="6.63" height="3.15" rx="1.58"/></g></g></svg>