<svg xmlns="http://www.w3.org/2000/svg" viewBox="0 0 81.71 28.1"><defs><style>.cls-1{fill:#c9d300;}.cls-1,.cls-2{fill-rule:evenodd;}.cls-2,.cls-3{fill:#fff;}</style></defs><g id="Шар_2" data-name="Шар 2"><g id="open_contracting" data-name="open contracting"><path class="cls-1" d="M15.58,4.09A4,4,0,0,1,11.4,8.17,4,4,0,0,1,7.23,4.09,4,4,0,0,1,11.4,0a4,4,0,0,1,4.18,4.09Zm-6.11,0A1.83,1.83,0,0,0,11.4,6a1.84,1.84,0,0,0,1.94-1.95,1.85,1.85,0,0,0-1.94-2A1.84,1.84,0,0,0,9.47,4.09Z"/><path class="cls-2" d="M22.73,2.93c0,1.58-.94,2.77-3.18,2.77h-.93V8H16.5V.17h3.05c2.24,0,3.18,1.18,3.18,2.76Zm-2.19,0c0-.59-.43-.88-1.05-.88h-.87V3.82h.87C20.11,3.82,20.54,3.53,20.54,2.93Z"/><polygon class="cls-2" points="28.7 6.05 28.7 8 23.54 8 23.54 0.17 28.53 0.17 28.53 2.12 25.66 2.12 25.66 3.04 28.18 3.04 28.18 4.89 25.66 4.89 25.66 6.05 28.7 6.05"/><polygon class="cls-2" points="37.28 8 35.63 8 31.93 3.79 31.91 3.79 31.91 8 29.78 8 29.78 0.17 31.44 0.17 35.13 4.38 35.16 4.38 35.16 0.17 37.28 0.17 37.28 8"/><path class="cls-2" d="M0,14.06A4,4,0,0,1,4.31,10a5,5,0,0,1,2.9.87L6.09,12.66a2.83,2.83,0,0,0-1.71-.59,2,2,0,1,0,0,4,2.83,2.83,0,0,0,1.71-.59l1.12,1.82a5,5,0,0,1-2.9.86C1.88,18.14,0,16.66,0,14.06Z"/><path class="cls-1" d="M15.58,14.06a4,4,0,0,1-4.17,4.08,4,4,0,0,1-4.18-4.08A4,4,0,0,1,11.41,10a4,4,0,0,1,4.17,4.09Zm-6.11,0a1.85,1.85,0,0,0,1.94,2,1.84,1.84,0,0,0,1.93-2,1.84,1.84,0,0,0-1.93-2A1.85,1.85,0,0,0,9.47,14.06Z"/><polygon class="cls-2" points="24 17.98 22.34 17.98 18.65 13.77 18.63 13.77 18.63 17.98 16.5 17.98 16.5 10.14 18.16 10.14 21.85 14.35 21.87 14.35 21.87 10.14 24 10.14 24 17.98"/><polygon class="cls-2" points="30.85 12.09 28.89 12.09 28.89 17.98 26.77 17.98 26.77 12.09 24.81 12.09 24.81 10.14 30.85 10.14 30.85 12.09"/><path class="cls-2" d="M35.8,18l-2-2.91V18H31.66V10.14H35c2.07,0,3,1.22,3,2.58a2.35,2.35,0,0,1-1.68,2.35L38.45,18Zm-2-6V13.7h.93c.65,0,1-.27,1-.85s-.39-.83-1-.83Z"/><path class="cls-2" d="M44.44,16.51H41.77L41.29,18H38.94l3-7.84h2.27l3,7.84H44.92l-.48-1.47Zm-.53-1.68-.8-2.45-.8,2.45Z"/><path class="cls-2" d="M47.13,14.06A4,4,0,0,1,51.44,10a5,5,0,0,1,2.9.87l-1.12,1.82a2.83,2.83,0,0,0-1.71-.59,2,2,0,1,0,0,4,2.83,2.83,0,0,0,1.71-.59l1.12,1.82a5,5,0,0,1-2.9.86C49,18.14,47.13,16.66,47.13,14.06Z"/><polygon class="cls-2" points="60.92 12.09 58.97 12.09 58.97 17.98 56.84 17.98 56.84 12.09 54.88 12.09 54.88 10.14 60.92 10.14 60.92 12.09"/><rect class="cls-3" x="61.73" y="10.14" width="2.13" height="7.83"/><polygon class="cls-2" points="72.72 17.98 71.07 17.98 67.37 13.77 67.35 13.77 67.35 17.98 65.22 17.98 65.22 10.14 66.88 10.14 70.57 14.35 70.6 14.35 70.6 10.14 72.72 10.14 72.72 17.98"/><path class="cls-2" d="M81.71,14.18a3.61,3.61,0,0,1-3.82,4,4,4,0,0,1-4.25-4.09C73.64,11.72,75.21,10,78,10a5.08,5.08,0,0,1,3.13,1l-1.3,1.75a2.92,2.92,0,0,0-1.9-.72,1.92,1.92,0,0,0-2.06,2.05,1.93,1.93,0,0,0,2.11,2c1,0,1.49-.45,1.58-1H77.64V13.33h4C81.7,13.63,81.71,14,81.71,14.18Z"/><path class="cls-2" d="M7.57,22.86c0,1.58-.94,2.77-3.18,2.77H3.46v2.3H1.33V20.1H4.39c2.24,0,3.18,1.19,3.18,2.76Zm-2.2,0c0-.59-.42-.88-1-.88H3.46v1.77h.87C5,23.75,5.37,23.46,5.37,22.86Z"/><polygon class="cls-2" points="11.37 22.34 9.55 27.93 7.2 27.93 10.23 20.1 12.5 20.1 15.54 27.93 13.19 27.93 11.37 22.34"/><path class="cls-2" d="M20.2,27.93l-2-2.91v2.91H16.06V20.1h3.35c2.07,0,2.95,1.22,2.95,2.57A2.34,2.34,0,0,1,20.69,25l2.17,2.91Zm-2-5.95v1.68h.93c.65,0,1-.27,1-.85s-.39-.83-1-.83Z"/><polygon class="cls-2" points="28.81 22.05 26.85 22.05 26.85 27.93 24.73 27.93 24.73 22.05 22.77 22.05 22.77 20.1 28.81 20.1 28.81 22.05"/><polygon class="cls-2" points="37.12 27.93 35.46 27.93 31.77 23.73 31.75 23.73 31.75 27.93 29.62 27.93 29.62 20.1 31.28 20.1 34.97 24.31 34.99 24.31 34.99 20.1 37.12 20.1 37.12 27.93"/><polygon class="cls-2" points="43.65 25.99 43.65 27.93 38.48 27.93 38.48 20.1 43.48 20.1 43.48 22.05 40.61 22.05 40.61 22.98 43.13 22.98 43.13 24.82 40.61 24.82 40.61 25.99 43.65 25.99"/><path class="cls-2" d="M48.87,27.93l-2-2.91v2.91H44.73V20.1h3.35c2.07,0,3,1.22,3,2.57A2.34,2.34,0,0,1,49.35,25l2.18,2.91Zm-2-5.95v1.68h.93c.65,0,1-.27,1-.85s-.39-.83-1-.83Z"/><path class="cls-2" d="M57.88,20.59,57,22.48a3.77,3.77,0,0,0-1.92-.62c-.33,0-.48.09-.48.29s.09.26.41.42l1.62.83a2.29,2.29,0,0,1,1.45,2.22c0,1.61-1.07,2.48-3.08,2.48a6.67,6.67,0,0,1-3.31-.88l1-2a4.23,4.23,0,0,0,2.46,1c.41,0,.66-.09.66-.34s-.14-.29-.38-.42l-1.72-.86a2.39,2.39,0,0,1-1.39-2.22c0-1.39,1-2.37,3-2.37A5.88,5.88,0,0,1,57.88,20.59Z"/><polygon class="cls-2" points="65.95 20.1 65.95 27.93 63.83 27.93 63.83 24.89 61.15 24.89 61.15 27.93 59.03 27.93 59.03 20.1 61.15 20.1 61.15 22.94 63.83 22.94 63.83 20.1 65.95 20.1"/><rect class="cls-3" x="67.32" y="20.1" width="2.13" height="7.83"/><path class="cls-2" d="M77.05,22.86c0,1.58-.94,2.77-3.18,2.77h-.93v2.3H70.81V20.1h3.06c2.24,0,3.18,1.19,3.18,2.76Zm-2.2,0c0-.59-.42-.88-1-.88h-.87v1.77h.87C74.43,23.75,74.85,23.46,74.85,22.86Z"/></g></g></svg>