<svg xmlns="http://www.w3.org/2000/svg" viewBox="0 0 119.75 119.15"><defs><style>.cls-1{isolation:isolate;}.cls-2{fill:#d0cfcf;mix-blend-mode:multiply;}.cls-2,.cls-3,.cls-4,.cls-5,.cls-6{fill-rule:evenodd;}.cls-3{fill:#ef8055;stroke-linecap:round;stroke-linejoin:round;stroke-width:2px;}.cls-3,.cls-4,.cls-5,.cls-6{stroke:#464545;}.cls-4,.cls-5,.cls-6{fill:none;stroke-miterlimit:22.93;}.cls-4{stroke-width:1.98px;}.cls-5{stroke-width:1.7px;}.cls-6{stroke-width:1.42px;}</style></defs><g class="cls-1"><g id="Шар_2" data-name="Шар 2"><g id="objectives"><path class="cls-2" d="M62.75,28.78c0,.19,0,3.42-1.74,2.37-1.17-.73,2-3.19,1.74-2.37Zm-30,31.78c-.2-.05-3-1.64-2.92.35.06,1.38,3.73-.14,2.92-.35ZM59.58,44.09c-.19-.05-3-1.65-2.92.35.06,1.38,3.74-.15,2.92-.35ZM47.46,57.42c-.19-.05-3-1.64-2.92.35.06,1.38,3.74-.15,2.92-.35Zm1.35-4.27c0,.19,0,3.42,1.74,2.37,1.17-.73-2-3.18-1.74-2.37Zm-8.72,5.74c-.05.2,0,3.43-1.74,2.37-1.17-.72,2-3.18,1.74-2.37Zm11.67-9.52c-.2,0-3-1.64-2.92.36.06,1.37,3.73-.15,2.92-.36Zm4.8.13c-.11-.17-1.1-3.25-2.39-1.73-.89,1,2.84,2.43,2.39,1.73Zm-33.39-36c-.06.2-.05,3.43-1.74,2.37-1.17-.72,1.95-3.18,1.74-2.37Zm4.73,0c-.11-.17-1.09-3.25-2.38-1.73-.89,1.06,2.84,2.43,2.38,1.73ZM19.78,9.76c-.06.2-.05,3.43-1.74,2.38-1.17-.73,2-3.19,1.74-2.38Zm4.51-.66c.81.2-2.86,1.72-2.92.35-.09-2,2.72-.4,2.92-.35Zm4.09-.94C28.27,8,27.28,4.91,26,6.44c-.89,1,2.85,2.43,2.39,1.72ZM18.22,13.37c-.19,0-3-1.64-2.92.35.06,1.38,3.74-.15,2.92-.35ZM23.86,55.5c-.05.19,0,3.42-1.74,2.37-1.17-.73,2-3.19,1.74-2.37Zm-4.27,1c-.19,0-3-1.64-2.92.36.06,1.37,3.74-.15,2.92-.36ZM20,17.67c-.19-.05-3-1.64-2.92.35.06,1.38,3.74-.14,2.92-.35ZM6.48,48.88c-.11-.17-1.1-3.25-2.39-1.72-.89,1.05,2.85,2.42,2.39,1.72Zm3.73.27c-.06.2-.05,3.43-1.74,2.38-1.17-.73,2-3.19,1.74-2.38Zm8.3-21.5c-.2,0-3-1.64-2.92.35.06,1.38,3.73-.14,2.92-.35Zm-4,23.29c-.11-.16-1.1-3.24-2.39-1.72-.89,1.05,2.84,2.43,2.39,1.72Zm-1.35,2.87c-.19-.05-3-1.64-2.92.36.06,1.37,3.74-.15,2.92-.36ZM9.38,44.49c-.06.19-.05,3.43-1.74,2.37-1.17-.72,2-3.18,1.74-2.37ZM13.59,46c-.1-.17-1.09-3.25-2.38-1.72-.89,1,2.84,2.43,2.38,1.72Zm14.39,7c-.2,0-3-1.64-2.92.35.06,1.38,3.73-.14,2.92-.35ZM23.62,28.41c-.06.19-.05,3.42-1.74,2.37-1.17-.73,1.95-3.19,1.74-2.37ZM21.36,6.74c-.2,0-3-1.64-2.92.36.06,1.37,3.73-.15,2.92-.36ZM26,21.31c-.11-.17-1.09-3.24-2.38-1.72C22.7,20.64,26.43,22,26,21.31ZM35.62.16c0,.2,0,3.43-1.74,2.38-1.17-.73,2-3.19,1.74-2.38ZM22.83,24c-.06.2,0,3.43-1.74,2.38C19.92,25.61,23,23.15,22.83,24ZM56.17,41.55c.81.21-2.86,1.73-2.92.35-.09-2,2.72-.4,2.92-.35ZM61,24.39c-.11-.17-1.1-3.24-2.39-1.72-.89,1,2.84,2.43,2.39,1.72Zm-13.5,9.74c-.05.2,0,3.43-1.74,2.38-1.17-.73,2-3.19,1.74-2.38Zm2.89-9.49c-.19-.05-3-1.64-2.92.35.06,1.38,3.74-.15,2.92-.35Zm3.31-.72c0,.19,0,3.42-1.74,2.37-1.17-.73,2-3.18,1.74-2.37ZM47.9,28.11c-.19-.05-3-1.64-2.92.35.06,1.38,3.74-.14,2.92-.35Zm3.7,5.19c-.11-.17-1.1-3.24-2.39-1.72-.89,1.05,2.85,2.43,2.39,1.72Zm2.13,3.88c.21-.81-2.91,1.64-1.74,2.37,1.69,1.05,1.68-2.18,1.74-2.37Zm1.79-3.13c-.19,0-3-1.64-2.92.35.07,1.38,3.74-.14,2.92-.35ZM57,32.7c.46.71-3.28-.67-2.39-1.72,1.29-1.52,2.28,1.55,2.39,1.72ZM5.31,24.29c-.06.19,0,3.42-1.74,2.37-1.17-.73,1.95-3.18,1.74-2.37ZM55.91,29c-.19-.05-3-1.64-2.92.36.06,1.37,3.74-.15,2.92-.36Zm1.89-3.19c.45.71-3.28-.67-2.39-1.72,1.29-1.52,2.28,1.56,2.39,1.72Zm1.42,2.48c.22-.82-2.91,1.64-1.74,2.37,1.7,1.05,1.69-2.18,1.74-2.37ZM4.64,33.68c-.2,0-3-1.64-2.92.35.06,1.38,3.73-.14,2.92-.35ZM6,31.18c-.1-.17-1.09-3.25-2.38-1.73C2.76,30.51,6.49,31.88,6,31.18Zm3.73.27c0,.2,0,3.43-1.73,2.37-1.18-.72,2-3.18,1.73-2.37ZM5.05,39.17c-.2-.05-3-1.64-2.92.35.06,1.38,3.73-.14,2.92-.35Zm1.68-1.61c.46.71-3.28-.67-2.39-1.72,1.29-1.52,2.28,1.55,2.39,1.72ZM12,36.49c-.19-.05-3-1.65-2.92.35.06,1.37,3.74-.15,2.92-.35Zm3.29-2.79c-.11-.17-1.1-3.25-2.39-1.72C12,33,15.76,34.41,15.31,33.7Zm0,2.07c-.05.19,0,3.42-1.74,2.37-1.17-.73,2-3.18,1.74-2.37ZM17.57,21c.82.21-2.86,1.73-2.92.35-.09-2,2.73-.4,2.92-.35Zm-4.22-4.4c-.11-.17-1.1-3.25-2.39-1.73-.89,1.06,2.85,2.43,2.39,1.73Zm-1.17,1.92c-.06.19,0,3.43-1.74,2.37-1.17-.72,2-3.18,1.74-2.37Zm-2,23.63c-.2,0-3-1.64-2.92.36.06,1.37,3.73-.15,2.92-.36Zm-1-17.52C9,24.45,8.05,21.37,6.76,22.9,5.87,24,9.6,25.33,9.14,24.62Zm-.21,2.17c0,.19,0,3.42-1.74,2.37C6,28.43,9.15,26,8.93,26.79Zm4.22,1.47c-.11-.17-1.1-3.25-2.38-1.72-.89,1.05,2.84,2.42,2.38,1.72Zm1.28-4.72c-.19,0-3-1.64-2.92.36.06,1.37,3.74-.15,2.92-.36ZM16,40.39c-.05.2,0,3.43-1.74,2.38-1.17-.73,2-3.19,1.74-2.38Zm16.37-15c0,.2,0,3.43-1.73,2.38-1.17-.73,1.95-3.19,1.73-2.38Zm4.62.3c-.11-.17-1.1-3.24-2.39-1.72C33.7,25,37.44,26.38,37,25.67ZM18.7,46c-.2-.05-3-1.64-2.92.35.06,1.38,3.73-.15,2.92-.35Zm3.89-1.87c.46.7-3.27-.67-2.38-1.73,1.29-1.52,2.27,1.56,2.38,1.73Zm3.73.27c-.05.19,0,3.43-1.74,2.37-1.17-.72,2-3.18,1.74-2.37Zm-7.14,7.53c-.2-.05-3-1.64-2.92.35.06,1.38,3.73-.14,2.92-.35Zm4.11-1.42c-.11-.17-1.1-3.25-2.39-1.72-.89,1,2.84,2.43,2.39,1.72Zm5.29-1.08c-.19,0-3-1.64-2.92.36.06,1.37,3.73-.15,2.92-.36Zm3.28-2.78c-.1-.17-1.09-3.25-2.38-1.72-.89,1,2.84,2.43,2.38,1.72Zm0,2.07c-.05.19,0,3.42-1.74,2.37-1.17-.73,2-3.18,1.74-2.37ZM22,32.86c-.2,0-3-1.64-2.92.36.06,1.37,3.73-.15,2.92-.36Zm6.6-4.29c-.11-.17-1.1-3.25-2.38-1.72-.89,1,2.84,2.42,2.38,1.72Zm.11,2.84c-.05.19,0,3.43-1.73,2.37-1.17-.72,1.95-3.18,1.73-2.37Zm-7.52,7.06c-.2,0-3-1.64-2.92.36.06,1.37,3.73-.15,2.92-.36Zm4.49-.95c.46.7-3.27-.67-2.38-1.72,1.28-1.53,2.27,1.55,2.38,1.72Zm-.21,2.17c.22-.82-2.91,1.64-1.74,2.37,1.7,1,1.69-2.18,1.74-2.37Zm9,2.78c.82.21-2.86,1.73-2.92.35-.09-2,2.73-.4,2.92-.35Zm-4.79-1.31c-.11-.17-1.1-3.25-2.39-1.72-.89,1.05,2.85,2.42,2.39,1.72Zm5.67,8.13c-.05.2,0,3.43-1.74,2.37-1.17-.72,2-3.18,1.74-2.37ZM31,36.44c-.19,0-3-1.64-2.92.36.06,1.37,3.74-.15,2.92-.36Zm1.18-3.39c-.11-.17-1.1-3.25-2.39-1.73-.89,1.06,2.85,2.43,2.39,1.73Zm2.13,2.68c0,.19,0,3.42-1.74,2.37-1.17-.73,2-3.19,1.74-2.37Zm4,4.07c-.19-.06-3-1.65-2.92.35.06,1.37,3.74-.15,2.92-.35Zm20.49-1.21c.46.7-3.28-.67-2.39-1.72,1.29-1.53,2.28,1.55,2.39,1.72ZM40.67,35.52c-.06.2-.05,3.43-1.74,2.37-1.17-.72,2-3.18,1.74-2.37ZM37,46.53c-.19,0-3-1.64-2.92.36.06,1.37,3.74-.15,2.92-.36Zm2.48-1.16c.46.71-3.27-.67-2.38-1.72,1.29-1.52,2.28,1.55,2.38,1.72Zm-1.32,6.57c.22-.81-2.91,1.64-1.74,2.37,1.7,1,1.69-2.18,1.74-2.37Zm5.26-2.73c-.19-.05-3-1.64-2.92.35.06,1.38,3.74-.14,2.92-.35Zm5.06-1.7c.46.71-3.27-.67-2.38-1.72,1.29-1.52,2.27,1.55,2.38,1.72Zm-16,5.78c.22-.81-2.91,1.65-1.74,2.38,1.7,1,1.69-2.18,1.74-2.38Zm11.29-9.18c-.2,0-3-1.64-2.92.35.06,1.38,3.73-.14,2.92-.35Zm1.56-2.53c-.11-.17-1.1-3.24-2.39-1.72-.89,1,2.84,2.43,2.39,1.72Zm8.38,9.36c-.06.2-.05,3.43-1.74,2.38-1.17-.73,2-3.19,1.74-2.38ZM36.32,28.58c-.19,0-3-1.64-2.92.35.06,1.38,3.74-.14,2.92-.35Zm4.83-2.64c-.11-.17-1.09-3.25-2.38-1.73-.89,1.06,2.84,2.43,2.38,1.73Zm1.8.63c-.05.19,0,3.42-1.74,2.37-1.17-.73,2-3.19,1.74-2.37ZM38.4,34c-.19,0-3-1.64-2.92.36.06,1.37,3.74-.15,2.92-.36Zm1.51-1.34c.46.7-3.27-.67-2.38-1.73,1.29-1.52,2.27,1.56,2.38,1.73Zm6.26,18.15c-.05.2,0,3.43-1.73,2.38-1.17-.73,2-3.19,1.73-2.38ZM44.82,36.7c-.19-.05-3-1.64-2.92.35.06,1.38,3.73-.14,2.92-.35ZM16,7.53c-.11-.17-1.09-3.25-2.38-1.73-.89,1,2.84,2.43,2.38,1.73ZM28.55,56.12c-.05.2,0,3.43-1.74,2.38-1.17-.73,2-3.19,1.74-2.38Zm16-23.73c-.2,0-3-1.64-2.92.35.06,1.38,3.73-.15,2.92-.35Zm5.31,10c-.11-.17-1.1-3.24-2.38-1.72-.89,1.05,2.84,2.43,2.38,1.72Zm-28-40.53c-.05.2,0,3.43-1.74,2.38C19,3.46,22.16,1,21.94,1.81Zm7.93,15.47c-.2-.05-3-1.64-2.92.36.06,1.37,3.73-.15,2.92-.36Zm3.89-1.87c.46.71-3.27-.67-2.38-1.72,1.29-1.52,2.27,1.55,2.38,1.72Zm3.73.28c-.05.19,0,3.42-1.74,2.37-1.17-.73,2-3.19,1.74-2.37Zm-7.14,7.53c-.2,0-3-1.65-2.92.35.06,1.37,3.73-.15,2.92-.35Zm4.11-1.42c.45.7-3.28-.67-2.39-1.73,1.29-1.52,2.28,1.56,2.39,1.73Zm5.29-1.08c.81.21-2.86,1.73-2.92.35-.09-2,2.72-.4,2.92-.35ZM43,17.94c-.11-.17-1.09-3.25-2.38-1.73-.89,1.06,2.84,2.43,2.38,1.73Zm0,2.06c-.05.2,0,3.43-1.74,2.38-1.17-.73,2-3.19,1.74-2.38ZM33.18,4.2c-.19,0-3-1.64-2.91.35.05,1.38,3.73-.14,2.91-.35Zm-28,16.43c-.11-.16-1.09-3.24-2.38-1.72C2,20,5.68,21.34,5.22,20.63ZM39.9,2.75c0,.19,0,3.42-1.73,2.37C37,4.39,40.12,1.93,39.9,2.75ZM32.38,9.81c-.2-.05-3-1.64-2.92.35.06,1.38,3.73-.14,2.92-.35Zm4.49-1c.46.7-3.28-.67-2.38-1.73,1.28-1.52,2.27,1.56,2.38,1.73ZM36.66,11c.22-.81-2.91,1.65-1.74,2.38,1.7,1,1.69-2.18,1.74-2.38Zm9,2.79c.81.21-2.86,1.73-2.92.35-.09-2,2.72-.4,2.92-.35Zm-4.79-1.32c-.11-.16-1.1-3.24-2.39-1.72-.89,1.05,2.85,2.43,2.39,1.72Zm5.67,8.14c0,.19,0,3.42-1.74,2.37-1.17-.73,2-3.18,1.74-2.37ZM42.16,7.78c-.19,0-3-1.64-2.92.35C39.3,9.51,43,8,42.16,7.78Zm1.18-3.4c-.11-.16-1.1-3.24-2.39-1.72-.89,1,2.85,2.43,2.39,1.72Zm2.13,2.68c0,.2,0,3.43-1.74,2.38-1.17-.73,2-3.19,1.74-2.38Zm4,4.07c-.2-.05-3-1.64-2.92.35.06,1.38,3.73-.14,2.92-.35ZM51,9.78c.46.71-3.27-.67-2.38-1.72C49.86,6.54,50.84,9.62,51,9.78Zm1.8.63c0,.2,0,3.43-1.74,2.38-1.17-.73,2-3.19,1.74-2.38ZM50,15.67c-.19-.05-3-1.64-2.92.35.06,1.38,3.74-.14,2.92-.35ZM50.39,21c-.11-.16-1.1-3.24-2.39-1.72-.89,1.05,2.84,2.43,2.39,1.72ZM2,27.37C2,27.57,2,30.8.26,29.75-.91,29,2.22,26.56,2,27.37Zm52.62-6.83c-.19,0-3-1.64-2.92.36.06,1.37,3.74-.15,2.92-.36Zm1.51-1.34c.46.7-3.27-.67-2.38-1.73C55,16,56,19,56.13,19.2Zm2.79-.58c-.05.19,0,3.42-1.73,2.37-1.18-.73,2-3.19,1.73-2.37Zm-2.2-4.72c-.2-.05-3-1.64-2.92.35.06,1.38,3.73-.14,2.92-.35Zm4.63,21.71c-.11-.16-1.1-3.24-2.39-1.72-.89,1,2.84,2.43,2.39,1.72Zm0,3.85c0,.19,0,3.42-1.74,2.37-1.17-.73,2-3.19,1.74-2.37ZM8.47,14.12c-.2,0-3-1.64-2.92.36.06,1.37,3.73-.15,2.92-.36ZM28.83,2.91c-.11-.17-1.1-3.25-2.38-1.73-.89,1.06,2.84,2.43,2.38,1.73ZM9.27,17c.22-.82-2.91,1.64-1.74,2.37,1.7,1.05,1.69-2.18,1.74-2.37ZM49.57,5.36c-.2-.05-3-1.64-2.92.35.06,1.38,3.73-.14,2.92-.35ZM42.4,54.89c-.11-.17-1.09-3.24-2.38-1.72-.89,1,2.84,2.43,2.38,1.72ZM52,42.57c0,.2,0,3.43-1.73,2.38-1.17-.73,1.95-3.19,1.73-2.38ZM14.86,9.22c.34-.77,1.26,3.1-.11,2.94-2-.23,0-2.76.11-2.94Zm-3.58,1.83c-.11-.17-1.1-3.25-2.38-1.72-.89,1.05,2.84,2.43,2.38,1.72ZM33.06,56.56c-.22-.81,2.91,1.65,1.74,2.38-1.7,1.05-1.69-2.18-1.74-2.38Zm-8.19,3.53c-.19-.05-3-1.64-2.92.35.06,1.38,3.74-.14,2.92-.35Zm-.1-53.78c.46.71-3.27-.67-2.38-1.72C23.68,3.07,24.66,6.14,24.77,6.31Z"/><polygon class="cls-3" points="85.99 75.56 72.49 83.66 72.49 67.46 85.99 75.56"/><path class="cls-4" d="M68,42.18a18.35,18.35,0,0,1-3-3.13l-3-3.22c-.8,0-7.74,3.54-9,4.3-.15,2.46,1.51,6.42,1.53,9-1.54,1.55-4.85,4.43-5.72,6.29l-9.23-1.08-3.9,9.14c.59.84,5.59,4.45,7.09,5.9-.08,1.3-.37,2.71-.44,4.12s.1,3.33,0,4.72c-1.34.24-6.54,3.88-7.65,4.72a86.55,86.55,0,0,0,2.78,9.44c1.45.4,7.31,0,9.24,0,.88,1,2.26,3.6,5.15,6.87-.43,2.15-2.57,7.11-2.61,9.06l8.24,5.24c1-.47,6.54-5.78,6.92-5.87,1,.13,2.85.85,4,1.13,1.5.38,2.93.58,4.46.85,1.32,2.09,2.91,7.22,3.74,8.38l9.84-1.22c.38-1,1-8.19,1.5-8.78,1.17-.72,2.81-1.16,4.09-1.81a36,36,0,0,1,3.85-2.06c.92,0,6.47,3.54,8.05,3.79a89.74,89.74,0,0,0,6.67-7.34c-.6-1.1-4.32-6.71-4.29-7.45,0-.33,1.62-3.23,1.92-4a43.76,43.76,0,0,1,1.6-4.28l8.54-2.06.52-9.94-8.18-2.86c-.46-1.6-.67-3.16-1.16-4.72-1.6-5.16-2.46-2.89,1.15-7.68a32.09,32.09,0,0,0,2.5-3.42,36.27,36.27,0,0,0-2.9-4c-1-1.3-1.95-2.7-3-3.9-2.1.19-7.43,3.41-8.58,2.74l-3.41-2.51c-.94-.58-2.92-1.55-3.84-2.22l-.48-8.79-9.86-2.27c-1,2.3-2.59,4.86-3.8,7.1-.5.93-.66.73-1.88.75-3.15.07-4.48.63-7.28,1ZM74.46,52c-6,.69-11.88,3.36-15.62,7.85C44.4,77.24,58.48,101,78.76,99A23.55,23.55,0,0,0,100,73.34C99,61.44,87.91,50.51,74.46,52Z"/><path class="cls-5" d="M32,10.17l-5.35.38c-1.11-1-2.47-3-3.53-3.72L17.85,9.32l.85,5.18-3.62,3.69-5.31-.65A30.83,30.83,0,0,0,7.37,23a37.14,37.14,0,0,0,4,3.34l-.44,5.11A22.27,22.27,0,0,1,6.37,34.3c.07.55,1.14,5.29,1.71,5.71.87.47,4,.1,5.23.17l3,4.21-1.71,5.08a27.86,27.86,0,0,0,5,3.3,48.28,48.28,0,0,1,4.13-3.35,33.63,33.63,0,0,0,4.94,1.26l1.94,5.11,5.91-.58,1-5.33c.93-.29,4.51-2,4.71-2,.71,0,3.54,1.93,4.72,2.29a39.57,39.57,0,0,0,4.06-4c-.17-1.16-2.27-3.72-2.38-4.58l2.18-4.93c1.84-.39,3.2-.66,5.06-1l.54-5.95c-6.22-2.1-4.56-1.37-5.46-4.59-1.22-4.36-.9-1.49,2.31-6.44a27.35,27.35,0,0,0-3.36-4.75c-1.65.15-3.32,1.33-4.91,1.47-.69-.43-1.46-1.12-2.17-1.62s-1.61-.92-2.25-1.46l-.16-5L34.65,5.7c-.88,1.55-1.77,3.07-2.63,4.47ZM27.24,41.84c9.34,3.38,19.2-5.82,15.33-15.68a12,12,0,0,0-21.22-2.43A12.17,12.17,0,0,0,27.24,41.84Z"/><path class="cls-6" d="M14.7,55.68a20.34,20.34,0,0,0-3.09,1.82l.77,3.27a27.33,27.33,0,0,0-2,2.54c-3.5-.11-3.38-1-4.44,3.31L8.6,68.55c.13,5.27.16,2.55-2.45,5.34L7.4,77.25,11,77a8.13,8.13,0,0,0,2,2.32l-.76,3.48c1,.41,2.45,1.33,3.26,1.57a13.08,13.08,0,0,0,2.33-2.32c3.21.49,3.34-.09,4.74,3.38a22.26,22.26,0,0,0,3.65-.67l.31-3.29c.2-.15,2.53-1.57,2.58-1.58.68-.2,2.38.8,3.23,1l2.33-2.84c-.4-.68-.89-1.25-1.35-1.91-.74-1-.47-.81,0-2.15s.09-1.61,1.26-2a9.94,9.94,0,0,0,2.34-.85l-.06-3.56a28.36,28.36,0,0,1-3.17-1,8.71,8.71,0,0,0-1.25-2.8c.4-1,1.27-2,1.7-3a25.18,25.18,0,0,0-2.42-2.67,11.66,11.66,0,0,0-2.06.93c-1.1.51-1.29,0-2.17-.45s-1.51-.42-1.73-1.36a13.38,13.38,0,0,0-.46-2.62l-3.61-.54C20.22,58,20.34,57,18.55,57.39c-2,.46-.88.82-3.85-1.71Zm6,6.64c-10.09,1.1-8.57,15.76,1.34,15a7.51,7.51,0,0,0-1.34-15Z"/></g></g></g></svg>