<svg xmlns="http://www.w3.org/2000/svg" viewBox="0 0 29.06 28.47"><defs><style>.cls-1{isolation:isolate;}.cls-2{fill:#c9d300;}.cls-2,.cls-3,.cls-4{fill-rule:evenodd;}.cls-3{fill:#c2c2c1;mix-blend-mode:multiply;}.cls-4{fill:none;stroke:#fff;stroke-miterlimit:10;stroke-width:2.83px;}</style></defs><g class="cls-1"><g id="Шар_2" data-name="Шар 2"><g id="eligibility_criteria" data-name="eligibility criteria"><path class="cls-2" d="M16.81,26.14A9.61,9.61,0,1,0,7.2,16.53,9.63,9.63,0,0,0,16.81,26.14Z"/><path class="cls-3" d="M29.05,13.32c0,.09,0,1.59-.8,1.1-.54-.33.91-1.47.8-1.1ZM15.15,28c-.09,0-1.39-.76-1.35.16,0,.64,1.73-.06,1.35-.16Zm12.44-7.63c-.09,0-1.4-.76-1.36.17,0,.63,1.73-.07,1.36-.17ZM22,26.58c-.09,0-1.4-.76-1.36.17,0,.64,1.73-.07,1.36-.17Zm.62-2c0,.09,0,1.58.8,1.1.55-.34-.9-1.48-.8-1.1Zm-4,2.66c0,.09,0,1.58-.8,1.1-.55-.34.9-1.48.8-1.1ZM24,22.86c-.1,0-1.4-.76-1.36.16,0,.64,1.73-.06,1.36-.16Zm2.22.06c-.06-.08-.51-1.51-1.11-.8-.41.49,1.32,1.12,1.11.8ZM10.73,6.27c0,.09,0,1.59-.81,1.1-.54-.34.91-1.48.81-1.1Zm2.19,0c-.05-.08-.51-1.51-1.1-.8-.42.49,1.31,1.12,1.1.8ZM9.16,4.52c0,.09,0,1.59-.81,1.1-.54-.34.91-1.48.81-1.1Zm2.08-.31c.38.1-1.32.8-1.35.16,0-.92,1.26-.18,1.35-.16Zm1.9-.43c-.05-.08-.51-1.51-1.1-.8-.42.49,1.31,1.12,1.1.8ZM8.44,6.19c-.09,0-1.39-.76-1.35.16,0,.64,1.73-.06,1.35-.16ZM11.05,25.7c0,.08,0,1.58-.81,1.09-.54-.33.91-1.47.81-1.09Zm-2,.45c-.09,0-1.39-.76-1.35.17,0,.63,1.73-.07,1.35-.17Zm.19-18c-.09,0-1.4-.76-1.36.16,0,.64,1.73-.06,1.36-.16ZM3,22.63c0-.08-.51-1.5-1.1-.8-.42.49,1.31,1.13,1.1.8Zm1.73.13c0,.09,0,1.58-.81,1.1-.54-.34.91-1.48.81-1.1Zm3.84-10c-.09,0-1.39-.76-1.35.16,0,.64,1.73-.06,1.35-.16ZM6.71,23.59c0-.08-.51-1.51-1.11-.8-.41.49,1.32,1.12,1.11.8Zm-.63,1.33c-.08,0-1.39-.76-1.35.16,0,.64,1.73-.07,1.35-.16ZM4.34,20.6c0,.09,0,1.59-.8,1.1-.55-.34.9-1.48.8-1.1Zm2,.68c0-.08-.5-1.5-1.1-.8-.41.49,1.32,1.13,1.1.8ZM13,24.51c-.09,0-1.39-.76-1.35.16,0,.64,1.73-.06,1.35-.16Zm-2-11.36c0,.09,0,1.59-.8,1.1-.54-.34.91-1.47.8-1.1Zm-1-10c-.09,0-1.39-.76-1.35.17,0,.63,1.73-.07,1.35-.17ZM12,9.87c0-.08-.51-1.5-1.11-.8-.41.49,1.32,1.12,1.11.8ZM16.49.08c0,.08,0,1.58-.8,1.09-.54-.33.9-1.47.8-1.09Zm-5.92,11c0,.09,0,1.58-.81,1.09-.54-.33.91-1.47.81-1.09ZM26,19.24c.37.1-1.33.8-1.36.16,0-.92,1.27-.18,1.36-.16Zm2.21-7.95c0-.07-.51-1.5-1.11-.79-.41.48,1.32,1.12,1.11.79ZM22,15.8c0,.09,0,1.59-.8,1.1-.55-.33.9-1.47.8-1.1Zm1.34-4.39c-.09,0-1.39-.76-1.35.16,0,.64,1.73-.07,1.35-.16Zm1.53-.34c0,.09,0,1.59-.8,1.1-.54-.33.9-1.47.8-1.1ZM22.18,13c-.09,0-1.39-.76-1.35.16,0,.64,1.73-.07,1.35-.16Zm1.71,2.4c-.05-.08-.51-1.5-1.1-.8-.42.49,1.31,1.13,1.1.8Zm1,1.79c.1-.37-1.35.77-.81,1.1.79.49.78-1,.81-1.1Zm.83-1.44c-.09,0-1.39-.76-1.35.16,0,.64,1.73-.07,1.35-.16Zm.7-.63c.21.33-1.52-.31-1.11-.8.6-.7,1.06.72,1.11.8ZM2.46,11.25c0,.08,0,1.58-.81,1.09-.54-.33.91-1.47.81-1.09Zm23.43,2.16c-.09,0-1.4-.76-1.35.16,0,.64,1.72-.07,1.35-.16Zm.87-1.48c.21.33-1.52-.31-1.1-.8.59-.7,1.05.72,1.1.8Zm.66,1.14c.1-.37-1.35.77-.81,1.1.79.49.79-1,.81-1.1ZM2.15,15.59c-.09,0-1.4-.76-1.35.17,0,.64,1.73-.07,1.35-.17Zm.64-1.16c0-.07-.5-1.5-1.1-.79-.41.48,1.32,1.12,1.1.79Zm1.73.13c0,.09,0,1.59-.8,1.1-.55-.34.9-1.47.8-1.1ZM2.34,18.14c-.09,0-1.4-.76-1.36.16,0,.64,1.73-.07,1.36-.16Zm.78-.75c.21.33-1.52-.31-1.11-.8.6-.7,1.05.72,1.11.8Zm2.45-.5c-.09,0-1.4-.76-1.36.17,0,.63,1.73-.07,1.36-.17ZM7.09,15.6c0-.07-.51-1.5-1.11-.79-.41.48,1.32,1.12,1.11.79Zm0,1c0,.09,0,1.59-.81,1.1-.54-.34.91-1.48.81-1.1Zm1-6.84c.38.09-1.32.8-1.35.16C6.74,9,8,9.69,8.13,9.72Zm-2-2c0-.08-.51-1.5-1.1-.8-.42.49,1.31,1.13,1.1.8Zm-.54.89c0,.09,0,1.59-.81,1.1-.54-.34.91-1.48.81-1.1ZM4.7,19.51c-.09,0-1.39-.76-1.35.17,0,.63,1.73-.07,1.35-.17ZM4.23,11.4c-.05-.08-.5-1.5-1.1-.8-.41.49,1.31,1.13,1.1.8Zm-.1,1c0,.09,0,1.59-.8,1.1-.54-.33.91-1.47.8-1.1Zm2,.68c0-.07-.51-1.5-1.11-.79-.41.48,1.32,1.12,1.11.79Zm.59-2.18c-.09,0-1.39-.76-1.35.16,0,.64,1.73-.06,1.35-.16Zm.72,7.8c0,.09,0,1.59-.8,1.1-.54-.33.9-1.47.8-1.1ZM15,11.75c0,.09,0,1.58-.81,1.1-.54-.34.91-1.48.81-1.1Zm2.13.14c-.05-.08-.51-1.51-1.1-.8-.42.49,1.31,1.12,1.1.8ZM8.66,21.27c-.09,0-1.4-.76-1.35.17,0,.63,1.72-.07,1.35-.17Zm1.8-.86c.21.32-1.52-.31-1.1-.8.59-.71,1.05.72,1.1.8Zm1.73.12c0,.09,0,1.59-.81,1.1-.54-.33.91-1.47.81-1.1ZM8.88,24c-.09,0-1.39-.76-1.35.16,0,.64,1.73-.06,1.35-.16Zm1.9-.66c0-.07-.51-1.5-1.1-.79-.41.48,1.31,1.12,1.1.79Zm2.45-.49c-.09,0-1.39-.76-1.35.16,0,.64,1.73-.07,1.35-.16Zm1.52-1.29c-.05-.08-.5-1.51-1.1-.8-.41.49,1.32,1.12,1.1.8Zm0,1c0,.09,0,1.59-.8,1.1-.54-.33.91-1.47.8-1.1Zm-4.57-7.31c-.09,0-1.39-.76-1.35.16,0,.64,1.73-.07,1.35-.16Zm3.06-2c-.05-.08-.51-1.51-1.1-.8-.42.49,1.31,1.12,1.1.8Zm.05,1.31c0,.09,0,1.59-.8,1.1-.54-.34.91-1.47.8-1.1ZM9.82,17.81c-.09,0-1.39-.76-1.35.17,0,.63,1.73-.07,1.35-.17Zm2.08-.44c.21.33-1.52-.31-1.1-.8.59-.7,1,.72,1.1.8Zm-.1,1c.1-.38-1.34.76-.8,1.09.78.49.78-1,.8-1.09ZM16,19.66c.38.1-1.32.81-1.35.17,0-.92,1.26-.19,1.35-.17Zm-2.21-.6c-.06-.08-.51-1.51-1.11-.8-.41.49,1.32,1.12,1.11.8Zm2.62,3.76c0,.09,0,1.59-.8,1.1-.55-.34.9-1.47.8-1.1Zm-2-5.95c-.09,0-1.39-.76-1.35.17,0,.63,1.73-.07,1.35-.17Zm.54-1.57c-.05-.08-.5-1.5-1.1-.8-.41.49,1.32,1.13,1.1.8Zm1,1.24c0,.09,0,1.59-.8,1.1-.54-.34.9-1.47.8-1.1Zm1.84,1.89c-.09,0-1.39-.76-1.35.16,0,.64,1.73-.07,1.35-.16Zm9.49-.56c.21.32-1.52-.31-1.11-.8.6-.71,1.06.72,1.11.8Zm-8.38-1.42c0,.09,0,1.58-.81,1.1-.54-.34.91-1.48.81-1.1Zm-1.68,5.1c-.09,0-1.4-.76-1.36.16,0,.64,1.73-.07,1.36-.16ZM18.3,21c.21.32-1.52-.31-1.11-.8.6-.71,1,.72,1.11.8Zm-.62,3c.1-.38-1.35.76-.8,1.1.78.48.78-1,.8-1.1Zm2.44-1.27c-.09,0-1.39-.76-1.35.17,0,.63,1.73-.07,1.35-.17ZM22.46,22c.21.33-1.51-.31-1.1-.8.59-.7,1.05.72,1.1.8Zm-7.39,2.68c.1-.38-1.35.76-.8,1.09.78.49.78-1,.8-1.09Zm5.23-4.26c-.09,0-1.4-.76-1.35.17,0,.63,1.72-.07,1.35-.17ZM21,19.25c-.05-.08-.51-1.5-1.11-.79-.41.48,1.32,1.12,1.11.79Zm3.88,4.34c0,.09,0,1.58-.81,1.1-.54-.34.91-1.48.81-1.1ZM16.82,13.23c-.09,0-1.39-.76-1.35.17,0,.63,1.73-.07,1.35-.17ZM19.05,12c-.05-.08-.5-1.5-1.1-.8-.41.49,1.32,1.13,1.1.8Zm.84.29c0,.09,0,1.59-.81,1.1-.54-.34.91-1.48.81-1.1Zm-2.11,3.45c-.09,0-1.39-.76-1.35.17,0,.63,1.73-.07,1.35-.17Zm.7-.62c.21.33-1.52-.31-1.1-.8.59-.7,1.05.72,1.1.8Zm2.9,8.41c0,.09,0,1.58-.81,1.1-.54-.34.91-1.48.81-1.1ZM20.75,17c-.09,0-1.39-.76-1.35.16,0,.64,1.73-.06,1.35-.16ZM7.39,3.48c0-.07-.51-1.5-1.1-.79-.42.48,1.31,1.12,1.1.79ZM13.22,26c0,.08,0,1.58-.81,1.09-.54-.33.91-1.47.81-1.09Zm7.43-11c-.1,0-1.4-.76-1.36.16,0,.64,1.73-.07,1.36-.16Zm2.45,4.6c-.05-.07-.5-1.5-1.1-.79-.41.48,1.32,1.12,1.1.79ZM10.16.84c0,.09,0,1.59-.81,1.1-.54-.34.91-1.48.81-1.1ZM13.83,8c-.09,0-1.39-.76-1.35.17,0,.63,1.73-.07,1.35-.17Zm1.8-.86c.21.32-1.51-.31-1.1-.8.59-.71,1.05.72,1.1.8Zm1.73.12c0,.09,0,1.59-.81,1.1-.54-.33.91-1.47.81-1.1Zm-3.31,3.49c-.09,0-1.39-.76-1.35.16,0,.64,1.73-.07,1.35-.16Zm1.9-.66c.22.33-1.51-.31-1.1-.8.6-.7,1.05.72,1.1.8Zm2.45-.5c.38.1-1.32.8-1.35.17,0-.93,1.26-.19,1.35-.17ZM19.92,8.3c-.05-.07-.5-1.5-1.1-.79-.41.48,1.32,1.12,1.1.79Zm0,1c0,.09,0,1.59-.81,1.1-.54-.34.91-1.47.81-1.1ZM15.36,1.94c-.08,0-1.39-.76-1.35.17,0,.63,1.73-.07,1.35-.17ZM2.42,9.55c0-.07-.51-1.5-1.11-.79-.41.48,1.32,1.12,1.11.79ZM18.48,1.27c0,.09,0,1.59-.81,1.1-.54-.34.91-1.47.81-1.1ZM15,4.54c-.09,0-1.39-.76-1.35.17,0,.63,1.73-.07,1.35-.17Zm2.08-.44c.21.33-1.52-.31-1.1-.8.59-.7,1,.72,1.1.8Zm-.1,1c.1-.37-1.34.77-.8,1.1.78.49.78-1,.8-1.1Zm4.17,1.29c.38.1-1.32.8-1.35.17,0-.93,1.26-.19,1.35-.17Zm-2.21-.61c-.05-.07-.51-1.5-1.11-.79-.41.48,1.32,1.12,1.11.79Zm2.62,3.77c0,.09,0,1.59-.8,1.1-.54-.34.9-1.48.8-1.1Zm-2-6c-.09,0-1.39-.76-1.35.17,0,.63,1.73-.07,1.35-.17ZM20.07,2C20,2,19.56.53,19,1.23c-.41.49,1.32,1.13,1.11.8Zm1,1.24c0,.09,0,1.59-.8,1.1-.54-.34.9-1.48.8-1.1Zm1.84,1.88c-.09,0-1.39-.76-1.35.17,0,.63,1.73-.07,1.35-.17Zm.7-.62c.21.33-1.51-.31-1.1-.8.59-.7,1.05.72,1.1.8Zm.83.29c0,.09,0,1.59-.8,1.1-.54-.34.9-1.47.8-1.1ZM23.14,7.25c-.09,0-1.39-.75-1.35.17,0,.64,1.73-.07,1.35-.17Zm.19,2.46c0-.08-.51-1.51-1.1-.8-.42.49,1.31,1.12,1.1.8Zm-22.4,3c0,.09,0,1.59-.81,1.1-.54-.33.91-1.47.81-1.1ZM25.29,9.51c-.09,0-1.39-.76-1.35.17,0,.63,1.73-.07,1.35-.17Zm.7-.62c.21.33-1.52-.31-1.1-.8.59-.7,1.05.72,1.1.8Zm1.29-.27c0,.09,0,1.59-.8,1.1-.54-.34.9-1.48.8-1.1Zm-1-2.18c-.09,0-1.39-.76-1.35.16,0,.64,1.73-.07,1.35-.16Zm2.14,10c0-.08-.5-1.5-1.1-.8-.41.49,1.32,1.13,1.1.8Zm0,1.78c0,.09,0,1.58-.8,1.1-.54-.34.9-1.48.8-1.1ZM3.92,6.54c-.09,0-1.39-.76-1.35.16,0,.64,1.73-.06,1.35-.16Zm9.43-5.19c0-.08-.51-1.51-1.11-.8-.41.49,1.32,1.12,1.11.8ZM4.29,7.88c.1-.38-1.34.76-.8,1.1.78.49.78-1,.8-1.1ZM23,2.48c-.09,0-1.39-.76-1.35.17,0,.63,1.73-.07,1.35-.17ZM19.63,25.42c-.05-.08-.5-1.51-1.1-.8-.41.48,1.32,1.12,1.1.8Zm4.45-5.71c0,.09,0,1.59-.8,1.1-.54-.34.9-1.47.8-1.1ZM6.88,4.27c.16-.36.58,1.43,0,1.36-.92-.11,0-1.28,0-1.36Zm-1.66.85c0-.08-.5-1.51-1.1-.8-.41.49,1.31,1.12,1.1.8ZM15.31,26.19c-.1-.38,1.34.76.8,1.1-.78.49-.78-1-.8-1.1Zm-3.79,1.63c-.09,0-1.4-.76-1.36.16,0,.64,1.73-.06,1.36-.16Zm0-24.9c.21.33-1.52-.31-1.1-.79C11,1.42,11.42,2.85,11.47,2.92Z"/><polyline class="cls-4" points="12.01 15.57 16.15 19.71 25.81 10.05"/></g></g></g></svg>