<?xml version="1.0" standalone="no"?>
<!DOCTYPE svg PUBLIC "-//W3C//DTD SVG 20010904//EN"
 "http://www.w3.org/TR/2001/REC-SVG-20010904/DTD/svg10.dtd">
<svg version="1.0" xmlns="http://www.w3.org/2000/svg"
 width="810.000000pt" height="810.000000pt" viewBox="0 0 810.000000 810.000000"
 preserveAspectRatio="xMidYMid meet">
<metadata>
Created by potrace 1.11, written by Peter Selinger 2001-2013
</metadata>
<g transform="translate(0.000000,810.000000) scale(0.100000,-0.100000)"
fill="#000000" stroke="none">
<path d="M3768 8005 c-2 -2 -39 -6 -83 -10 -44 -3 -93 -7 -110 -9 -16 -2 -55
-6 -85 -10 -30 -3 -71 -9 -90 -11 -48 -8 -89 -14 -130 -20 -32 -5 -147 -27
-210 -41 -14 -3 -36 -7 -50 -10 -14 -3 -34 -8 -45 -11 -11 -4 -24 -8 -30 -9
-17 -3 -99 -25 -130 -35 -16 -5 -66 -20 -110 -33 -152 -47 -325 -113 -460
-176 -44 -20 -102 -48 -130 -61 -27 -12 -53 -28 -57 -33 -4 -6 -8 -7 -8 -2 0
5 -6 4 -12 -1 -7 -6 -44 -27 -83 -48 -106 -57 -110 -60 -115 -65 -3 -3 -48
-32 -100 -65 -52 -33 -99 -63 -105 -67 -5 -5 -59 -45 -120 -90 -60 -45 -112
-84 -115 -87 -3 -4 -21 -19 -40 -35 -113 -93 -291 -265 -392 -381 -24 -27 -51
-57 -60 -67 -10 -10 -18 -20 -18 -23 0 -3 -8 -13 -17 -23 -59 -62 -212 -278
-301 -425 -57 -93 -224 -414 -228 -437 -1 -8 -23 -63 -34 -85 -13 -26 -101
-265 -105 -285 -2 -8 -11 -42 -21 -75 -10 -33 -19 -63 -20 -67 -1 -5 -2 -9 -4
-10 -1 -2 -3 -10 -5 -18 -2 -13 -25 -108 -52 -220 -8 -33 -10 -47 -18 -95 -3
-22 -8 -47 -10 -55 -5 -18 -20 -112 -30 -200 -2 -19 -7 -53 -9 -75 -21 -163
-29 -678 -13 -840 3 -38 9 -95 12 -125 6 -70 20 -172 30 -230 1 -8 6 -35 10
-60 4 -25 9 -54 12 -65 2 -11 6 -32 7 -46 2 -14 5 -30 8 -35 3 -5 9 -29 14
-54 4 -25 8 -47 9 -50 1 -3 5 -18 9 -35 5 -16 19 -70 33 -120 14 -49 26 -94
28 -100 1 -5 5 -17 8 -25 3 -8 17 -51 32 -95 14 -44 30 -89 35 -100 5 -11 25
-60 45 -110 80 -198 216 -458 324 -618 25 -38 51 -76 56 -85 6 -9 31 -44 57
-79 27 -34 48 -65 48 -68 0 -3 8 -13 17 -23 10 -11 47 -54 83 -98 36 -43 74
-88 85 -100 149 -157 248 -253 345 -334 36 -30 67 -58 70 -61 10 -11 207 -157
250 -185 25 -16 54 -37 64 -46 11 -10 23 -18 28 -18 4 0 38 -20 75 -43 89 -57
361 -204 393 -212 3 -1 28 -12 55 -24 151 -69 539 -208 605 -216 14 -2 38 -8
53 -14 15 -6 42 -13 60 -16 18 -3 59 -12 92 -20 33 -8 71 -16 85 -19 14 -2 63
-11 110 -19 47 -9 103 -18 125 -21 22 -2 60 -7 85 -11 169 -23 287 -29 575
-29 299 -1 482 10 655 39 14 2 43 7 65 10 23 3 50 7 62 9 53 11 119 20 126 18
4 -1 7 3 7 9 0 5 4 8 8 5 4 -2 37 2 72 10 36 8 76 18 90 21 14 3 66 16 115 30
50 14 95 26 100 28 6 1 17 5 25 8 8 3 33 11 55 17 78 23 370 134 373 142 2 4
10 8 18 8 8 0 29 8 47 17 18 9 34 18 37 18 17 3 260 131 325 171 22 13 47 27
55 31 8 4 17 9 20 13 3 3 28 19 55 35 28 15 52 31 55 34 3 3 38 28 79 55 40
27 78 55 85 61 6 6 27 22 46 35 19 13 40 29 46 35 6 5 28 24 48 40 163 132
321 286 486 475 53 60 230 298 230 309 0 5 4 11 8 13 19 7 260 422 267 458 0
3 13 30 27 60 101 214 227 585 263 775 2 11 6 31 9 45 10 42 28 144 31 170 2
14 4 25 5 25 3 0 9 36 15 90 3 28 8 62 11 77 3 15 7 53 9 85 2 32 5 58 5 58
13 0 19 615 7 765 -12 153 -30 298 -57 450 -18 98 -28 146 -34 168 -3 9 -7 28
-10 42 -3 14 -9 40 -15 58 -5 18 -10 35 -10 37 -1 3 -1 6 -2 8 0 1 -2 10 -4
20 -6 32 -67 227 -92 295 -13 37 -31 87 -40 112 -8 25 -19 49 -24 54 -5 6 -9
18 -9 28 0 10 -4 18 -8 18 -5 0 -9 6 -9 14 0 17 -132 289 -186 381 -50 86
-178 286 -193 302 -6 6 -25 34 -43 62 -18 28 -37 51 -42 51 -5 0 -9 5 -9 10 0
6 -8 19 -17 29 -10 11 -22 26 -28 33 -75 99 -363 396 -474 488 -29 25 -59 50
-65 56 -11 11 -207 158 -242 182 -11 7 -55 36 -99 64 -44 28 -96 61 -116 74
-19 13 -38 24 -43 24 -4 0 -31 16 -61 35 -30 19 -55 32 -55 29 0 -4 -6 -1 -14
5 -35 29 -344 169 -486 220 -19 7 -44 17 -55 21 -19 8 -150 51 -170 56 -5 2
-35 10 -65 19 -30 9 -62 17 -70 20 -8 2 -27 8 -42 14 -16 6 -28 9 -28 6 0 -2
-15 1 -32 6 -121 36 -481 94 -713 116 -58 5 -652 12 -657 8z m497 -2069 c33
-2 60 -5 60 -6 0 -1 14 -3 30 -5 83 -8 186 -31 360 -79 6 -2 23 -8 38 -14 16
-7 31 -12 33 -12 12 0 182 -76 206 -92 14 -10 29 -18 32 -18 9 0 133 -78 186
-117 111 -82 221 -185 300 -283 25 -30 47 -57 50 -60 3 -3 10 -12 15 -21 6 -9
27 -42 49 -74 49 -73 106 -182 140 -265 15 -36 31 -74 36 -85 29 -66 79 -253
94 -355 2 -14 7 -38 10 -55 19 -104 27 -476 12 -595 -14 -118 -18 -146 -22
-165 -2 -11 -6 -31 -8 -45 -9 -55 -59 -236 -68 -247 -6 -7 -8 -13 -5 -13 5 0
-8 -39 -33 -95 -4 -11 -20 -47 -35 -80 -14 -33 -26 -62 -25 -64 1 -2 -2 -7 -7
-10 -5 -3 -22 -32 -38 -63 -15 -32 -32 -58 -37 -58 -4 0 -8 -4 -8 -10 0 -11
-33 -60 -81 -122 -19 -23 -38 -49 -44 -56 -18 -24 -160 -167 -190 -192 -133
-112 -291 -210 -449 -276 -60 -25 -114 -47 -120 -48 -6 -2 -42 -12 -81 -24
-281 -88 -652 -111 -965 -61 -36 6 -76 12 -90 14 -79 13 -296 82 -390 124 -19
8 -37 16 -40 16 -5 1 -17 7 -110 58 -69 38 -204 128 -208 139 -2 4 -7 8 -12 8
-17 0 -194 168 -255 241 -58 71 -125 166 -125 179 0 4 -3 10 -7 12 -15 6 -101
169 -140 264 -22 51 -65 178 -68 199 -2 11 -4 20 -5 20 -2 0 -12 40 -35 140
-10 48 -27 165 -32 225 -13 154 -6 479 13 580 2 14 7 43 10 65 3 22 8 47 10
55 3 8 8 26 10 40 12 63 38 153 71 245 38 104 120 278 135 283 4 2 8 8 8 14 0
10 61 106 94 149 12 14 35 43 51 65 36 46 187 196 241 240 71 57 205 142 282
181 42 21 79 41 80 46 2 4 9 7 17 7 7 0 30 8 51 17 22 9 41 17 44 18 3 0 41
13 85 28 146 49 297 79 453 91 30 3 55 6 57 8 5 5 294 0 370 -6z"/>
</g>
</svg>
