<svg xmlns="http://www.w3.org/2000/svg" viewBox="0 0 872.61 291.07"><defs><style>.cls-1,.cls-11,.cls-12,.cls-16,.cls-17,.cls-18,.cls-19,.cls-2,.cls-20,.cls-21,.cls-22,.cls-23,.cls-24,.cls-25,.cls-26,.cls-3,.cls-4,.cls-5,.cls-6,.cls-7,.cls-8,.cls-9{fill:none;}.cls-1,.cls-2,.cls-24,.cls-25,.cls-26,.cls-3,.cls-4{stroke:#ef8055;}.cls-1,.cls-16,.cls-17,.cls-18,.cls-19,.cls-2,.cls-3,.cls-4,.cls-8,.cls-9{stroke-linecap:round;stroke-linejoin:round;}.cls-1,.cls-10,.cls-16,.cls-19,.cls-22,.cls-24,.cls-4,.cls-6,.cls-9{stroke-width:1.42px;}.cls-1,.cls-10,.cls-12,.cls-14,.cls-15,.cls-16,.cls-18,.cls-22,.cls-23,.cls-24,.cls-26,.cls-3,.cls-5,.cls-6,.cls-8,.cls-9{fill-rule:evenodd;}.cls-11,.cls-12,.cls-17,.cls-18,.cls-2,.cls-20,.cls-21,.cls-23,.cls-25,.cls-26,.cls-3,.cls-5,.cls-7,.cls-8{stroke-width:0.57px;}.cls-5,.cls-6,.cls-7,.cls-8,.cls-9{stroke:#526db3;}.cls-10,.cls-11,.cls-12,.cls-15,.cls-20,.cls-21,.cls-22,.cls-23,.cls-24,.cls-25,.cls-26,.cls-5,.cls-6,.cls-7{stroke-miterlimit:22.93;}.cls-10{fill:#29262f;}.cls-10,.cls-11,.cls-12{stroke:#27b2a3;}.cls-13{fill:#00aecb;}.cls-14,.cls-15{fill:#fcc400;}.cls-15{stroke:#00aecb;stroke-width:0.07px;}.cls-16,.cls-17,.cls-18,.cls-19,.cls-20{stroke:#c9d300;}.cls-21,.cls-22,.cls-23{stroke:#ffed42;}</style></defs><g id="Шар_2" data-name="Шар 2"><g id="buildings_KZ" data-name="buildings KZ"><path class="cls-1" d="M286.3,137.23l1.91,2,1.08,1.8v3.45h1v1.34l-1.36.78V161H292v3l-2.17,3.76V182h-1.4v4.13h.86v25h3.23v2.71l-1.37,2.38V237.5h1.39l1.91,9.91,2.05,1.18.11,41.77-20.45-.17m0-31.74v-9.86l2.05-1.18,1.9-9.91h1.4V216.24l-1.38-2.38v-2.71h3.23v-25h.86V182h-1.4V167.7l-2.17-3.76v-3h3.06V146.61l-1.36-.78v-1.34h1V141l1.08-1.8,1.92-2"/><rect class="cls-2" x="281.44" y="216.35" width="9.67" height="20.85"/><polyline class="cls-3" points="279.82 259.31 279.82 251.49 292.94 251.49 292.94 290.19"/><line class="cls-2" x1="294.42" y1="247.41" x2="277.09" y2="247.41"/><rect class="cls-2" x="284.81" y="219.26" width="2.32" height="28.15"/><line class="cls-2" x1="287.14" y1="223.32" x2="284.81" y2="223.32"/><line class="cls-2" x1="287.14" y1="228.84" x2="284.81" y2="228.84"/><line class="cls-2" x1="287.14" y1="234.77" x2="284.81" y2="234.77"/><line class="cls-2" x1="287.14" y1="239.36" x2="284.81" y2="239.36"/><line class="cls-2" x1="292.63" y1="213.94" x2="279.59" y2="213.94"/><rect class="cls-2" x="283.27" y="186.75" width="5.63" height="24.61"/><rect class="cls-2" x="283.27" y="166.74" width="5.63" height="14.58"/><rect class="cls-2" x="283.27" y="146.88" width="5.63" height="14.64"/><line class="cls-2" x1="291.41" y1="164.13" x2="281.01" y2="164.13"/><line class="cls-2" x1="289.78" y1="145.13" x2="282.69" y2="145.13"/><line class="cls-2" x1="288.5" y1="143.1" x2="283.74" y2="143.1"/><line class="cls-2" x1="286.3" y1="137.23" x2="286.3" y2="132.36"/><rect class="cls-2" x="284.9" y="254.13" width="2.15" height="5.29"/><path class="cls-1" d="M196,197.87l10.34,6.5q13.62,8.08,13.24,20.45c1.27.34,1.92.92,2,1.74a1.48,1.48,0,0,1-1.86,1.16v4.94l1.42.82v9.7h.9l.84-2.76a7.68,7.68,0,0,1,6-3.49q5.4.93,6.33,6.59h2.67v4.42M257,254.39h2q.36-4.9,5.4-5.41a5.82,5.82,0,0,1,5,5.7v7.43q6.64-7.32,14.29,0h3.89V269h-2.33v21.22"/><path class="cls-1" d="M196,197.87l-10.34,6.5q-13.62,8.08-13.25,20.45c-1.26.34-1.92.92-2,1.74a1.48,1.48,0,0,0,1.86,1.16v4.94l-1.42.82v9.7H170l-.84-2.76a7.64,7.64,0,0,0-6-3.49c-3.6.62-5.72,2.81-6.33,6.59h-2.68v4.42M135,254.39h-2q-.37-4.9-5.4-5.41c-3.11.71-4.78,2.6-5,5.7v7.43q-6.64-7.32-14.29,0h-3.89V269h2.32v21.22"/><line class="cls-2" x1="235.24" y1="243.52" x2="157.09" y2="243.52"/><line class="cls-2" x1="269.4" y1="254.68" x2="122.66" y2="254.68"/><line class="cls-2" x1="208.2" y1="257.87" x2="183.57" y2="257.87"/><rect class="cls-2" x="184.39" y="254.68" width="23.82" height="35.51"/><line class="cls-2" x1="219.73" y1="232.66" x2="171.96" y2="232.66"/><line class="cls-2" x1="219.73" y1="227.72" x2="172.33" y2="227.72"/><line class="cls-2" x1="219.61" y1="224.82" x2="172.33" y2="224.82"/><rect class="cls-2" x="203.44" y="235.68" width="1.86" height="7.85"/><rect class="cls-2" x="186.65" y="235.68" width="1.86" height="7.85"/><path class="cls-3" d="M218.31,243.52c-.43-4.05-2.54-6.45-6.33-6.5s-5.76,2.58-5.87,6.5"/><path class="cls-3" d="M202.51,243.52q-.67-6.08-6.72-6.15c-3.92,0-6.12,2.59-6.23,6.51"/><path class="cls-3" d="M185.72,243.17q-.63-6.07-6.33-6.15c-3.69,0-5.76,2.58-5.87,6.5"/><path class="cls-3" d="M202.05,224.82q-.06-6.47-5.7-26.2,13.65,18.18,13.13,26.2"/><path class="cls-3" d="M196.48,198.15q19.08,14.79,19,26.67"/><path class="cls-3" d="M202.34,254.38q-.69-6.07-6.73-6.16c-3.91,0-6.11,2.59-6.23,6.51"/><rect class="cls-2" x="203.44" y="246.02" width="1.68" height="2.56"/><rect class="cls-2" x="186.74" y="246.02" width="1.68" height="2.56"/><rect class="cls-2" x="170.71" y="246.02" width="1.68" height="2.56"/><rect class="cls-2" x="219.76" y="246.02" width="1.68" height="2.56"/><line class="cls-2" x1="237.91" y1="247.94" x2="237.91" y2="254.68"/><line class="cls-2" x1="154.14" y1="247.94" x2="154.14" y2="254.68"/><path class="cls-3" d="M218.31,254.68c-.42-4.06-2.53-6.46-6.33-6.51s-5.76,2.59-5.87,6.51"/><path class="cls-3" d="M234.52,254.68c-.43-4.06-2.54-6.46-6.33-6.51s-5.76,2.59-5.87,6.51"/><path class="cls-3" d="M185.67,254.68c-.43-4.06-2.54-6.46-6.34-6.51s-5.76,2.59-5.86,6.51"/><path class="cls-3" d="M170,254.68c-.42-4.06-2.54-6.46-6.33-6.51s-5.76,2.59-5.87,6.51"/><rect class="cls-2" x="179.22" y="269.77" width="10.86" height="20.41"/><rect class="cls-2" x="202.16" y="269.77" width="10.86" height="20.41"/><rect class="cls-2" x="200.42" y="267.1" width="14.35" height="2.67"/><rect class="cls-2" x="177.47" y="267.1" width="14.35" height="2.67"/><rect class="cls-2" x="223.91" y="269.77" width="4.13" height="20.41"/><path class="cls-3" d="M228,269.77H224a1.34,1.34,0,0,1-1.33-1.33h0A1.34,1.34,0,0,1,224,267.1H228a1.34,1.34,0,0,1,1.34,1.34h0A1.34,1.34,0,0,1,228,269.77Z"/><rect class="cls-2" x="238.12" y="269.77" width="4.13" height="20.41"/><path class="cls-3" d="M242.16,269.77h-3.95a1.34,1.34,0,0,1-1.33-1.33h0a1.34,1.34,0,0,1,1.33-1.34h3.95a1.34,1.34,0,0,1,1.34,1.34h0A1.34,1.34,0,0,1,242.16,269.77Z"/><rect class="cls-2" x="252.41" y="269.77" width="4.13" height="20.41"/><path class="cls-3" d="M256.45,269.77H252.5a1.34,1.34,0,0,1-1.33-1.33h0a1.34,1.34,0,0,1,1.33-1.34h3.95a1.34,1.34,0,0,1,1.34,1.34h0A1.34,1.34,0,0,1,256.45,269.77Z"/><rect class="cls-2" x="267.4" y="269.77" width="4.13" height="20.41"/><path class="cls-3" d="M271.44,269.77h-3.95a1.34,1.34,0,0,1-1.34-1.33h0a1.34,1.34,0,0,1,1.34-1.34h3.95a1.34,1.34,0,0,1,1.33,1.34h0A1.34,1.34,0,0,1,271.44,269.77Z"/><path class="cls-3" d="M238.4,267.1c-.36-3.47-2.17-5.53-5.42-5.58s-4.94,2.22-5,5.58"/><path class="cls-3" d="M224,267.1c-.36-3.47-2.17-5.53-5.42-5.58s-4.94,2.22-5,5.58"/><path class="cls-3" d="M253,267.1c-.36-3.47-2.17-5.53-5.42-5.58s-4.94,2.22-5,5.58"/><path class="cls-3" d="M267.49,267.1c-.37-3.47-2.17-5.53-5.43-5.58s-4.93,2.22-5,5.58"/><path class="cls-3" d="M282,266.87c-.37-3.47-2.18-5.53-5.43-5.58s-4.93,2.22-5,5.58"/><rect class="cls-2" x="281.69" y="269.77" width="4.13" height="20.41"/><path class="cls-3" d="M285.73,269.77h-4a1.34,1.34,0,0,1-1.34-1.33h0a1.34,1.34,0,0,1,1.34-1.34h4a1.34,1.34,0,0,1,1.33,1.34h0A1.34,1.34,0,0,1,285.73,269.77Z"/><rect class="cls-2" x="246.66" y="276.57" width="1.8" height="8.42"/><rect class="cls-2" x="232.28" y="276.57" width="1.8" height="8.42"/><rect class="cls-2" x="217.88" y="276.57" width="1.8" height="8.42"/><rect class="cls-2" x="261.36" y="276.57" width="1.8" height="8.42"/><rect class="cls-2" x="275.85" y="276.57" width="1.8" height="8.42"/><rect class="cls-2" x="258.98" y="288.73" width="6.56" height="1.45"/><rect class="cls-2" x="244.28" y="288.73" width="6.56" height="1.45"/><rect class="cls-2" x="229.9" y="288.73" width="6.56" height="1.45"/><rect class="cls-2" x="215.5" y="288.73" width="6.56" height="1.45"/><rect class="cls-2" x="273.47" y="288.73" width="6.56" height="1.45"/><line class="cls-4" x1="276.13" y1="290.19" x2="116.18" y2="290.19"/><path class="cls-3" d="M269.4,262.11c-3.93-5.07-11.41-5.11-14.61.23"/><path class="cls-3" d="M254.79,262.34c-3.92-5.07-11.4-5.11-14.6.22"/><path class="cls-3" d="M240.19,262.56c-3.92-5.07-11.4-5.11-14.6.22"/><path class="cls-3" d="M225.83,262.39c-3.92-5.07-11.4-5.11-14.6.23h-3"/><path class="cls-3" d="M202.34,267.1c-.43-3.47-2.56-5.53-6.39-5.58s-5.82,2.22-5.93,5.58"/><path class="cls-3" d="M209.48,232.66v-2.94a.9.9,0,0,0-.9-.9h0a.9.9,0,0,0-.9.9v2.94"/><path class="cls-3" d="M216,232.66v-2.94a.9.9,0,0,0-.9-.9h0a.9.9,0,0,0-.9.9v2.94"/><path class="cls-3" d="M203.27,232.66v-2.94a.9.9,0,0,0-.9-.9h0a.9.9,0,0,0-.9.9v2.94"/><path class="cls-3" d="M196.88,232.66v-2.94a.9.9,0,0,0-.9-.9h0a.9.9,0,0,0-.9.9v2.94"/><path class="cls-3" d="M190.72,232.66v-2.94a.9.9,0,0,0-.9-.9h0a.9.9,0,0,0-.9.9v2.94"/><path class="cls-3" d="M184.68,232.66v-2.94a.9.9,0,0,0-.9-.9h0a.9.9,0,0,0-.9.9v2.94"/><path class="cls-3" d="M178.17,232.66v-2.94a.9.9,0,0,0-.9-.9h0a.9.9,0,0,0-.9.9v2.94"/><rect class="cls-2" x="164.22" y="269.77" width="4.13" height="20.41"/><path class="cls-3" d="M164.32,269.77h4a1.34,1.34,0,0,0,1.33-1.33h0a1.34,1.34,0,0,0-1.33-1.34h-4a1.34,1.34,0,0,0-1.34,1.34h0A1.34,1.34,0,0,0,164.32,269.77Z"/><rect class="cls-2" x="150.02" y="269.77" width="4.13" height="20.41"/><path class="cls-3" d="M150.11,269.77h3.95a1.34,1.34,0,0,0,1.34-1.33h0a1.35,1.35,0,0,0-1.34-1.34h-3.95a1.34,1.34,0,0,0-1.34,1.34h0A1.34,1.34,0,0,0,150.11,269.77Z"/><rect class="cls-2" x="135.73" y="269.77" width="4.13" height="20.41"/><path class="cls-3" d="M135.82,269.77h4a1.34,1.34,0,0,0,1.34-1.33h0a1.35,1.35,0,0,0-1.34-1.34h-4a1.34,1.34,0,0,0-1.34,1.34h0A1.34,1.34,0,0,0,135.82,269.77Z"/><rect class="cls-2" x="120.74" y="269.77" width="4.13" height="20.41"/><path class="cls-3" d="M120.83,269.77h4a1.34,1.34,0,0,0,1.34-1.33h0a1.34,1.34,0,0,0-1.34-1.34h-4a1.34,1.34,0,0,0-1.33,1.34h0A1.34,1.34,0,0,0,120.83,269.77Z"/><path class="cls-3" d="M153.87,267.1c.36-3.47,2.17-5.53,5.42-5.58s4.94,2.22,5,5.58"/><path class="cls-3" d="M168.27,267.1c.36-3.47,2.17-5.53,5.42-5.58s4.94,2.22,5,5.58"/><path class="cls-3" d="M139.28,267.1c.37-3.47,2.17-5.53,5.42-5.58s4.94,2.22,5,5.58"/><path class="cls-3" d="M124.78,267.1c.37-3.47,2.18-5.53,5.43-5.58s4.93,2.22,5,5.58"/><path class="cls-3" d="M110.29,266.87c.37-3.47,2.18-5.53,5.43-5.58s4.93,2.22,5,5.58"/><rect class="cls-2" x="106.45" y="269.77" width="4.13" height="20.41"/><path class="cls-3" d="M106.54,269.77h3.95a1.34,1.34,0,0,0,1.34-1.33h0a1.34,1.34,0,0,0-1.34-1.34h-3.95a1.34,1.34,0,0,0-1.33,1.34h0A1.34,1.34,0,0,0,106.54,269.77Z"/><rect class="cls-2" x="143.81" y="276.57" width="1.8" height="8.42"/><rect class="cls-2" x="158.19" y="276.57" width="1.8" height="8.42"/><rect class="cls-2" x="172.59" y="276.57" width="1.8" height="8.42"/><rect class="cls-2" x="129.11" y="276.57" width="1.8" height="8.42"/><rect class="cls-2" x="114.62" y="276.57" width="1.8" height="8.42"/><rect class="cls-2" x="126.73" y="288.73" width="6.56" height="1.45"/><rect class="cls-2" x="141.43" y="288.73" width="6.56" height="1.45"/><rect class="cls-2" x="155.81" y="288.73" width="6.56" height="1.45"/><rect class="cls-2" x="170.21" y="288.73" width="6.56" height="1.45"/><rect class="cls-2" x="112.24" y="288.73" width="6.56" height="1.45"/><path class="cls-3" d="M122.88,262.11c3.92-5.07,11.4-5.11,14.6.23"/><path class="cls-3" d="M137.48,262.34c3.92-5.07,11.4-5.11,14.6.22"/><path class="cls-3" d="M152.08,262.56c3.92-5.07,11.41-5.11,14.61.22"/><path class="cls-3" d="M166.44,262.39c3.92-5.07,11.4-5.11,14.6.23h3"/><path class="cls-3" d="M189.85,224.82q0-6.47,5.69-26.2-13.65,18.18-13.13,26.2"/><path class="cls-3" d="M195.41,198.15q-19.07,14.79-19,26.67"/><path class="cls-3" d="M195.62,187.08a3.63,3.63,0,1,0,4.13,3.6v-.23a2.85,2.85,0,1,1-4.13-3.37Z"/><line class="cls-2" x1="196.12" y1="194.31" x2="196.03" y2="197.87"/><path class="cls-1" d="M247.69,137.23l1.91,2,1.08,1.8v3.45h1v1.34l-1.36.78V161h3.06v3l-2.17,3.76V182h-1.4v4.13h.86v25h3.23v2.71l-1.37,2.38V237.5h1.39l1.9,9.91,2.05,1.18v5.8m-20.33-5.8,2-1.18,1.9-9.91h1.4V216.24l-1.38-2.38v-2.71h3.23v-25h.86V182h-1.4V167.7L242,163.94v-3h3.06V146.61l-1.36-.78v-1.34h1V141l1.08-1.8,1.92-2"/><rect class="cls-2" x="242.83" y="216.35" width="9.67" height="20.85"/><rect class="cls-2" x="241.21" y="251.49" width="13.12" height="3.19"/><line class="cls-2" x1="255.8" y1="247.41" x2="238.48" y2="247.41"/><rect class="cls-2" x="246.2" y="219.26" width="2.32" height="28.15"/><line class="cls-2" x1="248.53" y1="223.32" x2="246.2" y2="223.32"/><line class="cls-2" x1="248.53" y1="228.84" x2="246.2" y2="228.84"/><line class="cls-2" x1="248.53" y1="234.77" x2="246.2" y2="234.77"/><line class="cls-2" x1="248.53" y1="239.36" x2="246.2" y2="239.36"/><line class="cls-2" x1="254.02" y1="213.94" x2="240.98" y2="213.94"/><rect class="cls-2" x="244.66" y="186.75" width="5.63" height="24.61"/><rect class="cls-2" x="244.66" y="166.74" width="5.63" height="14.58"/><rect class="cls-2" x="244.66" y="146.88" width="5.63" height="14.64"/><line class="cls-2" x1="252.8" y1="164.13" x2="242.4" y2="164.13"/><line class="cls-2" x1="251.17" y1="145.13" x2="244.08" y2="145.13"/><line class="cls-2" x1="249.89" y1="143.1" x2="245.13" y2="143.1"/><line class="cls-2" x1="247.69" y1="137.23" x2="247.69" y2="132.36"/><path class="cls-1" d="M247.69,137.23l1.91,2,1.08,1.8v3.45h1v1.34l-1.36.78V161h3.06v3l-2.17,3.76V182h-1.4v4.13h.86v25h3.23v2.71l-1.37,2.38V237.5h1.39l1.9,9.91,2.05,1.18v5.8m-20.33-5.8,2-1.18,1.9-9.91h1.4V216.24l-1.38-2.38v-2.71h3.23v-25h.86V182h-1.4V167.7L242,163.94v-3h3.06V146.61l-1.36-.78v-1.34h1V141l1.08-1.8,1.92-2"/><rect class="cls-2" x="242.83" y="216.35" width="9.67" height="20.85"/><rect class="cls-2" x="241.21" y="251.49" width="13.12" height="3.19"/><line class="cls-2" x1="255.8" y1="247.41" x2="238.48" y2="247.41"/><rect class="cls-2" x="246.2" y="219.26" width="2.32" height="28.15"/><line class="cls-2" x1="248.53" y1="223.32" x2="246.2" y2="223.32"/><line class="cls-2" x1="248.53" y1="228.84" x2="246.2" y2="228.84"/><line class="cls-2" x1="248.53" y1="234.77" x2="246.2" y2="234.77"/><line class="cls-2" x1="248.53" y1="239.36" x2="246.2" y2="239.36"/><line class="cls-2" x1="254.02" y1="213.94" x2="240.98" y2="213.94"/><rect class="cls-2" x="244.66" y="186.75" width="5.63" height="24.61"/><rect class="cls-2" x="244.66" y="166.74" width="5.63" height="14.58"/><rect class="cls-2" x="244.66" y="146.88" width="5.63" height="14.64"/><line class="cls-2" x1="252.8" y1="164.13" x2="242.4" y2="164.13"/><line class="cls-2" x1="251.17" y1="145.13" x2="244.08" y2="145.13"/><line class="cls-2" x1="249.89" y1="143.1" x2="245.13" y2="143.1"/><line class="cls-2" x1="247.69" y1="137.23" x2="247.69" y2="132.36"/><path class="cls-1" d="M144.37,137.23l-1.89,2-1.06,1.8v3.45h-1v1.34l1.34.78V161h-3v3l2.15,3.76V182h1.37v4.13h-.84v25h-3.19v2.71l1.35,2.38V237.5h-1.37l-1.88,9.91-2,1.18v5.8m20.09-5.8-2-1.18-1.88-9.91h-1.38V216.24l1.36-2.38v-2.71H147.3v-25h-.85V182h1.38V167.7l2.15-3.76v-3h-3V146.61l1.35-.78v-1.34h-1V141l-1.06-1.8-1.9-2"/><rect class="cls-2" x="139.61" y="216.35" width="9.55" height="20.85"/><rect class="cls-2" x="137.81" y="251.49" width="12.96" height="3.19"/><line class="cls-2" x1="136.36" y1="247.41" x2="153.47" y2="247.41"/><rect class="cls-2" x="143.54" y="219.26" width="2.29" height="28.15"/><line class="cls-2" x1="143.54" y1="223.32" x2="145.84" y2="223.32"/><line class="cls-2" x1="143.54" y1="228.84" x2="145.84" y2="228.84"/><line class="cls-2" x1="143.54" y1="234.77" x2="145.84" y2="234.77"/><line class="cls-2" x1="143.54" y1="239.36" x2="145.84" y2="239.36"/><line class="cls-2" x1="138.12" y1="213.94" x2="151" y2="213.94"/><rect class="cls-2" x="141.79" y="186.75" width="5.56" height="24.61"/><rect class="cls-2" x="141.79" y="166.74" width="5.56" height="14.58"/><rect class="cls-2" x="141.79" y="146.88" width="5.56" height="14.64"/><line class="cls-2" x1="139.33" y1="164.13" x2="149.59" y2="164.13"/><line class="cls-2" x1="140.93" y1="145.13" x2="147.93" y2="145.13"/><line class="cls-2" x1="142.19" y1="143.1" x2="146.9" y2="143.1"/><line class="cls-2" x1="144.37" y1="137.23" x2="144.37" y2="132.36"/><path class="cls-1" d="M106,137.23l-1.92,2L103,141v3.45h-1v1.34l1.36.78V161h-3.06v3l2.17,3.76V182h1.4v4.13h-.86v25H99.82v2.71l1.38,2.38V237.5H99.8l-1.9,9.91-2.05,1.18-.12,41.77,20.45-.17m0-31.74v-9.86l-2.05-1.18-1.9-9.91h-1.39V216.24l1.37-2.38v-2.71H109v-25h-.86V182h1.4V167.7l2.17-3.76v-3h-3.06V146.61l1.36-.78v-1.34h-1V141l-1.08-1.8-1.91-2"/><rect class="cls-2" x="101.2" y="216.35" width="9.67" height="20.85"/><polyline class="cls-3" points="112.49 259.31 112.49 251.49 99.37 251.49 99.37 290.19"/><line class="cls-2" x1="97.9" y1="247.41" x2="115.22" y2="247.41"/><rect class="cls-2" x="105.17" y="219.26" width="2.32" height="28.15"/><line class="cls-2" x1="105.17" y1="223.32" x2="107.5" y2="223.32"/><line class="cls-2" x1="105.17" y1="228.84" x2="107.5" y2="228.84"/><line class="cls-2" x1="105.17" y1="234.77" x2="107.5" y2="234.77"/><line class="cls-2" x1="105.17" y1="239.36" x2="107.5" y2="239.36"/><line class="cls-2" x1="99.68" y1="213.94" x2="112.73" y2="213.94"/><rect class="cls-2" x="103.4" y="186.75" width="5.63" height="24.61"/><rect class="cls-2" x="103.4" y="166.74" width="5.63" height="14.58"/><rect class="cls-2" x="103.4" y="146.88" width="5.63" height="14.64"/><line class="cls-2" x1="100.9" y1="164.13" x2="111.3" y2="164.13"/><line class="cls-2" x1="102.53" y1="145.13" x2="109.62" y2="145.13"/><line class="cls-2" x1="103.81" y1="143.1" x2="108.57" y2="143.1"/><line class="cls-2" x1="106.02" y1="137.23" x2="106.02" y2="132.36"/><rect class="cls-2" x="105.26" y="254.13" width="2.15" height="5.29"/><polygon class="cls-5" points="54 229.39 45.78 215.78 37.54 229.46 54 229.39"/><polygon class="cls-6" points="90.3 289.48 1.26 289.73 45.78 215.78 90.3 289.48"/><line class="cls-7" x1="12.7" y1="272.12" x2="22.51" y2="289.12"/><line class="cls-7" x1="20.12" y1="257.16" x2="39.14" y2="290.11"/><line class="cls-7" x1="29.3" y1="243.15" x2="56.54" y2="290.32"/><line class="cls-7" x1="37.72" y1="229.16" x2="72.86" y2="290.02"/><line class="cls-7" x1="79.19" y1="271.41" x2="68.95" y2="289.15"/><line class="cls-7" x1="71.18" y1="257.19" x2="52.15" y2="290.15"/><line class="cls-7" x1="62" y1="243.18" x2="34.76" y2="290.36"/><line class="cls-7" x1="53.58" y1="229.2" x2="18.44" y2="290.05"/><line class="cls-7" x1="38.05" y1="229.39" x2="54.22" y2="229.39"/><line class="cls-7" x1="29.67" y1="243.54" x2="61.38" y2="243.54"/><line class="cls-7" x1="21.01" y1="258.01" x2="70.79" y2="258.01"/><polygon class="cls-5" points="69.36 280.64 70.77 278.26 72.19 280.64 70.77 283.01 69.36 280.64"/><polygon class="cls-5" points="75.67 280.64 77.09 278.26 78.5 280.64 77.09 283.01 75.67 280.64"/><polygon class="cls-5" points="44.36 280.64 45.78 278.26 47.19 280.64 45.78 283.01 44.36 280.64"/><polygon class="cls-5" points="52.96 280.64 54.38 278.26 55.79 280.64 54.38 283.01 52.96 280.64"/><polygon class="cls-5" points="35.81 280.64 37.22 278.26 38.64 280.64 37.22 283.01 35.81 280.64"/><polygon class="cls-5" points="12.98 280.64 14.39 278.26 15.81 280.64 14.39 283.01 12.98 280.64"/><polygon class="cls-5" points="19.3 280.64 20.71 278.26 22.13 280.64 20.71 283.01 19.3 280.64"/><line class="cls-7" x1="12.7" y1="272.12" x2="79.88" y2="272.12"/><path class="cls-5" d="M699.55,106.48q21.9,4.86,20.13,27.42l-5.82,11.58,3.26-19.59-8.92,19.92,1.85-19.48-7.62,19.37,1-19.7-6.63,20-6.2-20,1,19.7-7.62-19.37,1.85,19.48-8.92-19.92,3.26,19.59-5.82-11.58q-1.17-22.05,20.45-27.42l2.4-4.46Z"/><path class="cls-5" d="M680.13,145.48q5.6,24.65,8.16,60.93.35,14.81-.33,44.07-1.89,39.89-1.9,39.88"/><path class="cls-5" d="M685.74,145.26c3,20.1,4,37,5.65,61.15.23,9.87-.2,23.85-.65,43.36-1.27,26.59-1.58,40.59-1.58,40.59"/><path class="cls-5" d="M691.48,145.17c3,20.1,1.55,36.74,3.26,60.93.23,9.87-.21,23.85-.65,43.36-1.27,26.59-1.58,40.59-1.58,40.59"/><path class="cls-5" d="M713.86,145.48q-5.61,24.65-8.17,60.93-.33,14.81.33,44.07,1.9,39.89,1.91,39.88"/><path class="cls-5" d="M708.25,145.26c-3,20.1-4,37-5.66,61.15-.23,9.87.21,23.85.65,43.36,1.27,26.59,1.58,40.59,1.58,40.59"/><path class="cls-5" d="M702.51,145.17c-3,20.1-1.56,36.74-3.27,60.93-.22,9.87.21,23.85.66,43.36,1.27,26.59,1.58,40.59,1.58,40.59"/><line class="cls-7" x1="696.45" y1="150.86" x2="696.45" y2="244"/><polygon class="cls-8" points="692.51 290.05 701.48 290.05 697.21 247.48 692.51 290.05"/><path class="cls-5" d="M691.17,107.46h12.57M720,132.38h-3.74m-40-12.21h42.28m-43.23,4.25h44.36m.35,3.64H674.74m39.39,4.32H709.6m-1.88,0h-4.45m-2,0h-8.43m-1.92,0h-4.45m-2,0H680m-2,0h-3.7m4.49-16.32h36.57m-33.15-4.2h30.21"/><path class="cls-5" d="M714.8,115.77v15.4M697.16,102v44M693,106.74v26.65m-4.72-24.75v28.07m-4.84-25.3V139.8m-3.91-24.09v16m21.68-24.86v26.65m4.78-24.75v28.07m4.9-25.3v28.39"/><polyline class="cls-9" points="719.68 133.9 713.86 145.48 717.12 125.89 708.2 145.81 710.05 126.33 702.43 145.7 703.41 126 696.78 146.02 690.58 126 691.56 145.7 683.94 126.33 685.79 145.81 676.87 125.89 680.13 145.48 674.31 133.9"/><path class="cls-9" d="M697.16,102s.8,1.48,2.39,4.46Q720.13,109.7,720,133.9s1.48-2.76,4.46-8.27q-13.4,51.93-15.89,82-1.12,32.24,2.83,82.69H682.9q4-50.44,2.83-82.69-2.47-30.12-15.88-82l4.46,8.27q-.12-24.2,20.45-27.42Z"/><path class="cls-10" d="M470.35,290.36l-187.45-.77q105.09-34.35,124-87.45,12.72,1.44,11.89,2.38,8.94,58.15,27.35,76.81Q471.51,289.31,470.35,290.36Z"/><line class="cls-11" x1="446.1" y1="280.76" x2="307.79" y2="280.76"/><polygon class="cls-12" points="411.16 202.1 414.81 202.63 422.32 155.44 411.16 202.1"/><path class="cls-12" d="M401,214.15a34.5,34.5,0,0,1,20.19,4.17"/><path class="cls-12" d="M397.88,219.19q14.63,0,24.7,5.86"/><path class="cls-12" d="M394.75,223.55q21.08,3.34,29.57,9.16"/><path class="cls-12" d="M389.66,229.69q17.8,1.08,37,12"/><path class="cls-12" d="M386.13,233.46q21.4,4.77,43.79,18.39"/><path class="cls-12" d="M380.71,238.64q35.54,12,56,28.92"/><path class="cls-12" d="M375,243.51q38,14.22,65.8,37.25"/><path class="cls-12" d="M371.2,246.5q47.79,22,56.76,34.26"/><path class="cls-12" d="M365.43,250.69q46.49,23.3,46.72,30.07"/><path class="cls-12" d="M360.58,254q31.56,18.15,36.23,26.81"/><path class="cls-12" d="M354,258.07q27.64,18,30.24,22.69"/><path class="cls-12" d="M348.12,261.45q20.69,12.26,24.08,19.31"/><path class="cls-12" d="M341.32,265.12q12.69,7.15,19.82,15.64"/><path class="cls-12" d="M335.57,268q10.19,6.6,13.56,12.73"/><path class="cls-12" d="M328.83,271.25q6.76,5.5,9.54,9.51"/><path class="cls-12" d="M321.9,274.69q4.68,2.83,6.19,6.07"/><path class="cls-12" d="M315.5,277.07q2.73,1.9,2.66,3.69"/><line class="cls-11" x1="305.02" y1="285.1" x2="443.07" y2="285.1"/><path class="cls-12" d="M351.06,286.64a1.52,1.52,0,1,0-1.51-1.51A1.52,1.52,0,0,0,351.06,286.64Z"/><path class="cls-12" d="M366.31,286.62a1.52,1.52,0,1,0-1.51-1.52A1.52,1.52,0,0,0,366.31,286.62Z"/><path class="cls-12" d="M381.56,286.62a1.52,1.52,0,1,0-1.51-1.52A1.52,1.52,0,0,0,381.56,286.62Z"/><path class="cls-12" d="M396.84,286.62a1.52,1.52,0,1,0-1.52-1.52A1.52,1.52,0,0,0,396.84,286.62Z"/><path class="cls-12" d="M412.24,286.62a1.52,1.52,0,1,0-1.52-1.52A1.52,1.52,0,0,0,412.24,286.62Z"/><path class="cls-12" d="M427.52,286.62A1.52,1.52,0,1,0,426,285.1,1.52,1.52,0,0,0,427.52,286.62Z"/><path class="cls-12" d="M335.72,286.62a1.52,1.52,0,1,0-1.51-1.52A1.52,1.52,0,0,0,335.72,286.62Z"/><path class="cls-12" d="M320.36,286.62a1.52,1.52,0,1,0-1.52-1.52A1.52,1.52,0,0,0,320.36,286.62Z"/><path class="cls-12" d="M305,286.62a1.52,1.52,0,1,0-1.52-1.52A1.53,1.53,0,0,0,305,286.62Z"/><line class="cls-11" x1="408.91" y1="201.66" x2="407.21" y2="208.85"/><line class="cls-11" x1="411.64" y1="202.16" x2="409.92" y2="209.06"/><line class="cls-11" x1="414.14" y1="202.54" x2="412.95" y2="209.42"/><line class="cls-11" x1="416.83" y1="203.02" x2="416.01" y2="210.13"/><path class="cls-12" d="M405,208.1a53.64,53.64,0,0,1,9.4,1.2,18.57,18.57,0,0,1,4.79,1.55l.33,1.76a17.9,17.9,0,0,0-5.41-1.92,61.71,61.71,0,0,0-9.83-1.06Z"/><rect class="cls-13" x="564.88" y="111.41" width="27.16" height="13.58"/><path class="cls-14" d="M581.39,117.11a1.83,1.83,0,1,0-1.83,1.83A1.84,1.84,0,0,0,581.39,117.11Z"/><path class="cls-14" d="M579.56,115a.14.14,0,0,0,.15-.15,5.41,5.41,0,0,0-.15-.63,5.41,5.41,0,0,0-.15.63.14.14,0,0,0,.15.15Z"/><path class="cls-14" d="M581.63,117.11a.14.14,0,0,0,.16.15,5.7,5.7,0,0,0,.62-.15,5.7,5.7,0,0,0-.62-.15A.14.14,0,0,0,581.63,117.11Z"/><path class="cls-14" d="M579.56,119.19a.14.14,0,0,0-.15.15,5.41,5.41,0,0,0,.15.63,5.41,5.41,0,0,0,.15-.63A.14.14,0,0,0,579.56,119.19Z"/><path class="cls-14" d="M577.48,117.11a.14.14,0,0,0-.15-.15,5.41,5.41,0,0,0-.63.15,5.41,5.41,0,0,0,.63.15.14.14,0,0,0,.15-.15Z"/><path class="cls-14" d="M580.35,115.2a.14.14,0,0,0,.2-.09,5.61,5.61,0,0,0,.1-.63,5.11,5.11,0,0,0-.38.52.14.14,0,0,0,.08.2Z"/><path class="cls-14" d="M581.48,117.91a.13.13,0,0,0,.08.19,4.19,4.19,0,0,0,.63.11,5.11,5.11,0,0,0-.52-.38A.13.13,0,0,0,581.48,117.91Z"/><path class="cls-14" d="M578.76,119a.13.13,0,0,0-.19.08,6.1,6.1,0,0,0-.1.64,5.27,5.27,0,0,0,.37-.52.14.14,0,0,0-.08-.2Z"/><path class="cls-14" d="M577.64,116.32a.15.15,0,0,0-.08-.2,5.73,5.73,0,0,0-.64-.1,5.11,5.11,0,0,0,.52.38A.14.14,0,0,0,577.64,116.32Z"/><path class="cls-14" d="M581,115.65a.14.14,0,0,0,.21,0,5.28,5.28,0,0,0,.34-.55,5.64,5.64,0,0,0-.55.33A.14.14,0,0,0,581,115.65Z"/><path class="cls-14" d="M581,118.58a.13.13,0,0,0,0,.21,4.41,4.41,0,0,0,.55.34,5.28,5.28,0,0,0-.34-.55.14.14,0,0,0-.21,0Z"/><path class="cls-14" d="M578.09,118.58a.14.14,0,0,0-.21,0,5.28,5.28,0,0,0-.34.55,5.28,5.28,0,0,0,.55-.34.13.13,0,0,0,0-.21Z"/><path class="cls-14" d="M578.09,115.65a.14.14,0,0,0,0-.22c-.08-.07-.55-.33-.55-.33a5.28,5.28,0,0,0,.34.55.14.14,0,0,0,.21,0Z"/><path class="cls-14" d="M581.48,116.32a.13.13,0,0,0,.19.08,5.11,5.11,0,0,0,.52-.38,5.61,5.61,0,0,0-.63.1c-.08,0-.13.1-.08.2Z"/><path class="cls-14" d="M580.35,119a.14.14,0,0,0-.08.2,5.11,5.11,0,0,0,.38.52,6.1,6.1,0,0,0-.1-.64.14.14,0,0,0-.2-.08Z"/><path class="cls-14" d="M577.64,117.91a.14.14,0,0,0-.2-.08,5.11,5.11,0,0,0-.52.38,4.29,4.29,0,0,0,.64-.11.13.13,0,0,0,.08-.19Z"/><path class="cls-14" d="M578.76,115.2a.14.14,0,0,0,.08-.2,5.27,5.27,0,0,0-.37-.52,5.61,5.61,0,0,0,.1.63A.13.13,0,0,0,578.76,115.2Z"/><path class="cls-14" d="M580,115.08a.14.14,0,0,0,.18-.12,5.36,5.36,0,0,0,0-.64,5,5,0,0,0-.26.58.14.14,0,0,0,.11.18Z"/><path class="cls-14" d="M581.59,117.52a.14.14,0,0,0,.12.18,5.55,5.55,0,0,0,.65,0,5,5,0,0,0-.59-.27.15.15,0,0,0-.18.12Z"/><path class="cls-14" d="M579.15,119.15a.13.13,0,0,0-.17.12,5.74,5.74,0,0,0,0,.64,5.6,5.6,0,0,0,.27-.58A.14.14,0,0,0,579.15,119.15Z"/><path class="cls-14" d="M577.52,116.71a.14.14,0,0,0-.12-.18,5.48,5.48,0,0,0-.64,0,5.6,5.6,0,0,0,.58.27A.14.14,0,0,0,577.52,116.71Z"/><path class="cls-14" d="M580.71,115.39a.14.14,0,0,0,.21,0,6.12,6.12,0,0,0,.22-.61,5.52,5.52,0,0,0-.47.44A.14.14,0,0,0,580.71,115.39Z"/><path class="cls-14" d="M581.28,118.27a.15.15,0,0,0,.05.21,5.29,5.29,0,0,0,.6.22,5.52,5.52,0,0,0-.44-.47.14.14,0,0,0-.21,0Z"/><path class="cls-14" d="M578.4,118.84a.13.13,0,0,0-.2,0,5.73,5.73,0,0,0-.23.61,5.52,5.52,0,0,0,.47-.44.14.14,0,0,0,0-.21Z"/><path class="cls-14" d="M577.83,116a.14.14,0,0,0,0-.21,5.29,5.29,0,0,0-.6-.22,5.15,5.15,0,0,0,.43.47.14.14,0,0,0,.21,0Z"/><path class="cls-14" d="M581.28,116a.14.14,0,0,0,.21,0,5.52,5.52,0,0,0,.44-.47,5.29,5.29,0,0,0-.6.22A.14.14,0,0,0,581.28,116Z"/><path class="cls-14" d="M580.71,118.84a.14.14,0,0,0,0,.21,5.52,5.52,0,0,0,.47.44,5.34,5.34,0,0,0-.22-.61A.14.14,0,0,0,580.71,118.84Z"/><path class="cls-14" d="M577.83,118.27a.14.14,0,0,0-.21,0,5.15,5.15,0,0,0-.43.47,5.29,5.29,0,0,0,.6-.22A.14.14,0,0,0,577.83,118.27Z"/><path class="cls-14" d="M578.4,115.39a.14.14,0,0,0,0-.21,5.52,5.52,0,0,0-.47-.44s.17.51.23.61a.13.13,0,0,0,.2,0Z"/><path class="cls-14" d="M581.59,116.71a.15.15,0,0,0,.18.12,5,5,0,0,0,.59-.27,5.55,5.55,0,0,0-.65,0A.14.14,0,0,0,581.59,116.71Z"/><path class="cls-14" d="M580,119.15a.14.14,0,0,0-.11.18,5.87,5.87,0,0,0,.26.58,5.36,5.36,0,0,0,0-.64.14.14,0,0,0-.18-.12Z"/><path class="cls-14" d="M577.52,117.52a.14.14,0,0,0-.18-.12,5.6,5.6,0,0,0-.58.27,5.48,5.48,0,0,0,.64,0,.14.14,0,0,0,.12-.18Z"/><path class="cls-14" d="M579.15,115.08a.14.14,0,0,0,.12-.18,4.75,4.75,0,0,0-.27-.58,5.74,5.74,0,0,0,0,.64A.13.13,0,0,0,579.15,115.08Z"/><path class="cls-14" d="M579.23,121.07l-.14,0-.19,0h-.07a0,0,0,0,1,0,0,.06.06,0,0,1,0,0s0,0,0,0,0,0,0,0h-.07l0,0h-.11l0,0a.23.23,0,0,0-.12.1s0,0,0,.07a.29.29,0,0,0,0,.09s0,0,0,0l.09,0s0,0,0,0,0,.06,0,0a1,1,0,0,1,.3-.06l.43,0h.41a1.21,1.21,0,0,0,.19,0l0,0a.16.16,0,0,0-.1,0h-.26a.78.78,0,0,1-.21,0s0,0-.05,0l-.08,0a.32.32,0,0,1-.14,0l.1-.12-.08,0,.14-.11Z"/><path class="cls-14" d="M581.35,121.54c-.1.06-.18,0-.26-.08s-.06.14-.12.19-.14,0-.14-.09-.12.22-.24.2-.11-.16-.15,0-.14.14-.19,0-.06-.16-.1,0a.16.16,0,0,1-.21.11c-.05,0,0-.19,0-.18s-.15.22-.28.2,0-.15,0-.21-.14.21-.25.21,0-.17,0-.18-.24.19-.38.15c0-.22.29-.29.49-.31a3.84,3.84,0,0,0,1-.09c.06,0,.19-.07.14-.15s.11,0,.12-.1.07-.08.14-.09c.33,0,.66.06,1,.07a.22.22,0,0,1-.3.22c-.07,0-.17-.15-.15,0s0,.15-.06.19Zm-2.82-.33c.08.07.13,0,.2,0a2.86,2.86,0,0,0,.66-.37.84.84,0,0,1,.4-.27c.33-.1.68-.09,1-.18a2.74,2.74,0,0,1,1-.67c.08,0,.11-.09.14-.16a1.64,1.64,0,0,1,.54-.54.58.58,0,0,1,.34-.06.54.54,0,0,1-.18.36c.08,0,.15,0,.23,0s-.13.22-.21.31.22,0,.12.07-.26.14-.37.24c.1,0,.11,0,0,.08s-.17,0-.18.13,0,.1-.08.11-.18.06-.06.12a.21.21,0,0,1-.21.07c0,.08.05.16,0,.19a1.49,1.49,0,0,1-.73.31,1.61,1.61,0,0,0,1-.22s.24-.09.13-.13-.17-.05-.17-.09.34-.06.51-.11c0-.06-.13,0-.17-.06s-.11,0,0,0a1,1,0,0,0,.42-.13c-.1,0-.22,0-.32,0a2.67,2.67,0,0,0,.54-.19c.07-.08-.1-.06-.14-.06s-.15,0,0-.07.42-.23.55-.43c0,0,.08-.18,0-.13s-.25.19-.4.15a3.16,3.16,0,0,0,.78-.81c0-.09-.13-.1-.17,0a2.3,2.3,0,0,1-.61.51,3.65,3.65,0,0,0,.6-.76c0-.08.13-.18.08-.27a.16.16,0,0,0-.24.07,2.82,2.82,0,0,1-.45.58,2.39,2.39,0,0,0,.35-1c0-.08,0-.19-.12-.17s-.06.13-.1.19a2.18,2.18,0,0,1-.26.74,1.44,1.44,0,0,0,0-.62c0-.09-.17,0-.15,0a3.18,3.18,0,0,1-1.56,2.13,3.24,3.24,0,0,1-1.17.39,3.26,3.26,0,0,0-.33,0c-.26.2-.41.52-.73.63-.15.07-.34.08-.44.22a.07.07,0,0,0,0,0Z"/><path class="cls-14" d="M579.49,120.31a1.58,1.58,0,0,1-.13.26,1,1,0,0,0-.69-.17.9.9,0,0,1-.55-.17,2.93,2.93,0,0,0-.46-.4,1.09,1.09,0,0,1-.45-.21c-.27-.22-.43-.55-.7-.78l-.16-.14c-.06,0,0,.13-.1.08s-.13,0-.14,0a.68.68,0,0,1,.18.37c-.06,0-.16,0-.18,0a1.24,1.24,0,0,0,.27.29s-.15,0-.17,0a.84.84,0,0,0,.36.19s0,.12,0,.15.15,0,.07.08a.06.06,0,0,0,0,.11s.14,0,.14.07-.15.09-.05.12a.56.56,0,0,0,.31.09,1.13,1.13,0,0,1-.18.12,4.09,4.09,0,0,0,.81.34,1.89,1.89,0,0,0,.34.09,2.84,2.84,0,0,1-1-.25l-.47-.19a2,2,0,0,1,.22-.08,1.43,1.43,0,0,1-.45-.12s.1,0,.14-.06.13,0,0,0a1,1,0,0,1-.34-.09s.11,0,.15,0a.49.49,0,0,0,.16,0c-.18-.08-.41,0-.55-.18s.1,0,.14,0a.71.71,0,0,0,.29,0,2,2,0,0,1-.73-.43s-.09-.12,0-.13.27.18.43.16-.1-.08-.13-.12a3.5,3.5,0,0,1-.63-.7c0-.09.13-.1.16,0a2.74,2.74,0,0,0,.58.5c.08,0,0,0-.07-.08a4.76,4.76,0,0,1-.55-.78c0-.06-.07-.15,0-.18s.15,0,.19.08a3.87,3.87,0,0,0,.46.59,2.47,2.47,0,0,1-.34-1c0-.08,0-.18.11-.18s.06.09.09.14a2.8,2.8,0,0,0,.27.8,2.1,2.1,0,0,1-.05-.61.08.08,0,0,1,.13,0c0,.1.05.22.09.32a3.18,3.18,0,0,0,1.26,1.73,3.35,3.35,0,0,0,1.67.58Z"/><path class="cls-14" d="M578.77,121.2a0,0,0,0,0,0,0s0,0,0,0,0,0,0,0A0,0,0,0,0,578.77,121.2Z"/><path class="cls-15" d="M578.75,121.2a0,0,0,0,0,0,0,0,0,0,0,0,0,0h0Z"/><path class="cls-14" d="M566.51,112.4s-.13-.11-.17-.05.22.53.22.68-.17.32-.38.36a1.25,1.25,0,0,1-.37,0,.16.16,0,0,1,.14-.08.29.29,0,0,1-.16-.27c0-.22.09-.31.09-.56a.71.71,0,0,0-.11-.31.27.27,0,0,1,.24.35.08.08,0,0,0,.08,0s0,.09,0,.13a.14.14,0,0,0,.09,0,.24.24,0,0,1-.09.13.21.21,0,0,1,.28.21.16.16,0,0,1-.13.16s-.06,0-.07,0a.1.1,0,0,0,0,.09.07.07,0,0,1-.06-.1.12.12,0,0,1-.08,0,.09.09,0,0,1,.08,0c0-.06,0-.09,0-.12s0,.12,0,.12a.05.05,0,0,0,.06-.06.11.11,0,0,0-.12-.1c-.09,0-.16.06-.16.2s.1.18.24.19a.18.18,0,0,0,.21-.19c0-.16-.24-.54-.24-.68a.19.19,0,0,1,.2-.18.37.37,0,0,1,.23.13l-.08.09Z"/><path class="cls-14" d="M566.54,115.38a.43.43,0,0,1-.44.41.35.35,0,0,1-.4-.36.66.66,0,0,1,.07-.3s.44-.89.6-1.24a.37.37,0,0,0,0-.17.22.22,0,0,0-.22-.2.23.23,0,0,0-.22.21c0,.13.07.2.15.2s.12,0,.12-.1,0-.07-.05-.07,0,.11,0,.11a.08.08,0,0,1-.06-.1l-.07,0a.18.18,0,0,1,.07,0,.08.08,0,0,1,.06-.1.2.2,0,0,0,0,.07.15.15,0,0,1,.21.15.22.22,0,0,1-.28.23.12.12,0,0,1,.07.11h-.07a.26.26,0,0,1,.05.14s-.06,0-.11,0,0,.32-.23.36a.44.44,0,0,0,.12-.29c0-.32-.09-.37-.09-.59a.31.31,0,0,1,.14-.26h0a.19.19,0,0,1-.12-.09.89.89,0,0,1,.46,0,.33.33,0,0,1,.24.17.46.46,0,0,1,0,.39c-.08.18-.48,1-.61,1.29a.58.58,0,0,0,0,.18.23.23,0,0,0,.24.23.2.2,0,0,0,.2-.18c0-.06,0-.1-.08-.1s-.11.1-.08.16a.14.14,0,0,1-.11-.15.14.14,0,0,1-.11-.06.16.16,0,0,1,.11-.07c0-.09,0-.13.11-.15s0,.15.08.15.15,0,.19.07,0-.37,0-.37-.15-.11-.24-.07a.22.22,0,0,1,.28-.18.14.14,0,0,1-.08-.13.38.38,0,0,1,.13-.26l0,1.08Z"/><path class="cls-14" d="M566.54,116.2a.43.43,0,0,0-.44-.41.35.35,0,0,0-.4.36.66.66,0,0,0,.07.3l.6,1.24a.43.43,0,0,1,0,.17.22.22,0,0,1-.44,0c0-.13.07-.19.15-.19s.12,0,.12.1,0,.06-.05.06,0-.1,0-.1a.07.07,0,0,0-.06.09.12.12,0,0,0-.07,0l.07,0c0,.06,0,.09.06.1a.2.2,0,0,1,0-.07.15.15,0,0,0,.21-.15.22.22,0,0,0-.28-.23.12.12,0,0,0,.07-.11h-.07a.26.26,0,0,0,.05-.14s-.06,0-.11,0,0-.32-.23-.36a.44.44,0,0,1,.12.29c0,.32-.09.37-.09.59a.35.35,0,0,0,.14.27h0a.19.19,0,0,0-.12.09.89.89,0,0,0,.46,0,.33.33,0,0,0,.24-.17.46.46,0,0,0,0-.39c-.08-.18-.48-1-.61-1.29a.58.58,0,0,1,0-.18.22.22,0,0,1,.24-.22.19.19,0,0,1,.2.17c0,.06,0,.1-.08.1s-.11-.1-.08-.16a.14.14,0,0,0-.11.15.14.14,0,0,0-.11.06.14.14,0,0,0,.11.07c0,.09,0,.13.11.15s0-.15.08-.15.15,0,.19-.07,0,.37,0,.37-.15.11-.24.07a.22.22,0,0,0,.28.18.14.14,0,0,0-.08.14.38.38,0,0,0,.13.25l0-1.08Z"/><path class="cls-14" d="M566.51,112.4s.13-.11.18-.05-.22.53-.22.68.17.32.38.36a1.25,1.25,0,0,0,.37,0,.16.16,0,0,0-.14-.08.29.29,0,0,0,.16-.27c0-.22-.09-.31-.09-.56a.71.71,0,0,1,.11-.31.26.26,0,0,0-.24.35.08.08,0,0,1-.08,0,.13.13,0,0,0,0,.13.11.11,0,0,1-.08,0,.24.24,0,0,0,.09.13.21.21,0,0,0-.29.21.16.16,0,0,0,.14.16.1.1,0,0,0,.07,0,.14.14,0,0,1,0,.09s.08,0,.05-.1a.13.13,0,0,0,.09,0,.1.1,0,0,0-.09,0c0-.06,0-.09,0-.12s0,.12,0,.12a.05.05,0,0,1-.06-.06.11.11,0,0,1,.12-.1c.09,0,.15.06.15.2s-.1.18-.23.19a.18.18,0,0,1-.21-.19c0-.16.24-.54.24-.68a.19.19,0,0,0-.2-.18.37.37,0,0,0-.23.13l.07.09Z"/><path class="cls-14" d="M566.49,115.38a.42.42,0,0,0,.44.41.35.35,0,0,0,.4-.36.56.56,0,0,0-.08-.3l-.6-1.24a.39.39,0,0,1,0-.17.21.21,0,0,1,.22-.2.22.22,0,0,1,.21.21c0,.13-.07.2-.14.2s-.13,0-.13-.1,0-.07.06-.07,0,.11,0,.11a.07.07,0,0,0,.05-.1l.08,0-.08,0c0-.05,0-.08-.05-.1a.08.08,0,0,1,0,.07.15.15,0,0,0-.21.15.23.23,0,0,0,.29.23.12.12,0,0,0-.07.11H567a.16.16,0,0,0-.05.14s.06,0,.11,0a.26.26,0,0,0,.22.36.48.48,0,0,1-.11-.29c0-.32.09-.37.09-.59a.3.3,0,0,0-.15-.26h0a.19.19,0,0,0,.13-.09.89.89,0,0,0-.46,0,.38.38,0,0,0-.25.17.56.56,0,0,0,0,.39c.09.18.49,1,.61,1.29a.41.41,0,0,1,0,.18.23.23,0,0,1-.24.23.2.2,0,0,1-.2-.18c0-.06,0-.1.08-.1s.11.1.08.16.12-.09.1-.15a.17.17,0,0,0,.12-.06.16.16,0,0,0-.12-.07c0-.09,0-.13-.1-.15s0,.15-.08.15-.16,0-.19.07,0-.37,0-.37.14-.11.24-.07a.22.22,0,0,0-.28-.18.14.14,0,0,0,.08-.13.35.35,0,0,0-.14-.26l0,1.08Z"/><path class="cls-14" d="M566.49,116.2a.42.42,0,0,1,.44-.41.35.35,0,0,1,.4.36.56.56,0,0,1-.08.3s-.43.9-.6,1.24a.44.44,0,0,0,0,.17.22.22,0,0,0,.43,0c0-.13-.07-.19-.14-.19s-.13,0-.13.1a.06.06,0,0,0,.06.06c.07,0,0-.1,0-.1a.06.06,0,0,1,.05.09.14.14,0,0,1,.08,0l-.08,0c0,.06,0,.09-.05.1a.08.08,0,0,0,0-.07.15.15,0,0,1-.21-.15.23.23,0,0,1,.29-.23.12.12,0,0,1-.07-.11H567a.16.16,0,0,1-.05-.14s.06,0,.11,0a.26.26,0,0,1,.22-.36.48.48,0,0,0-.11.29c0,.32.09.37.09.59a.33.33,0,0,1-.15.27h0a.19.19,0,0,1,.13.09.89.89,0,0,1-.46,0,.38.38,0,0,1-.25-.17.56.56,0,0,1,0-.39c.09-.18.49-1,.61-1.29a.41.41,0,0,0,0-.18.22.22,0,0,0-.24-.22.19.19,0,0,0-.2.17c0,.06,0,.1.08.1s.11-.1.08-.16.12.09.1.15a.17.17,0,0,1,.12.06.14.14,0,0,1-.12.07c0,.09,0,.13-.1.15s0-.15-.08-.15-.16,0-.19-.07,0,.37,0,.37.14.11.24.07a.22.22,0,0,1-.28.18.14.14,0,0,1,.08.14.35.35,0,0,1-.14.25l0-1.08Z"/><path class="cls-14" d="M566.51,124s-.13.11-.17.06.22-.53.22-.69-.17-.32-.38-.36a1.77,1.77,0,0,0-.37,0,.14.14,0,0,0,.14.08.3.3,0,0,0-.16.28c0,.22.09.31.09.55a.71.71,0,0,1-.11.31.27.27,0,0,0,.24-.35.11.11,0,0,1,.08,0s0-.09,0-.13.05,0,.09,0a.24.24,0,0,0-.09-.13.21.21,0,0,0,.28-.2.16.16,0,0,0-.13-.17l-.07,0a.1.1,0,0,1,0-.09.07.07,0,0,0-.06.1.2.2,0,0,0-.08,0,.07.07,0,0,0,.08,0c0,.06,0,.09,0,.12s0-.12,0-.12a.06.06,0,0,1,.06.06.11.11,0,0,1-.12.1c-.09,0-.16-.06-.16-.19s.1-.19.24-.2a.19.19,0,0,1,.21.19c0,.16-.24.54-.24.69a.18.18,0,0,0,.2.17.37.37,0,0,0,.23-.13l-.08-.09Z"/><path class="cls-14" d="M566.54,121a.43.43,0,0,0-.44-.41.35.35,0,0,0-.4.36.66.66,0,0,0,.07.3l.6,1.24a.43.43,0,0,1,0,.17.22.22,0,0,1-.44,0c0-.13.07-.19.15-.19s.12,0,.12.1,0,.06-.05.06,0-.1,0-.1a.07.07,0,0,0-.06.09.12.12,0,0,0-.07.05l.07,0c0,.06,0,.09.06.1a.2.2,0,0,1,0-.07.15.15,0,0,0,.21-.15.22.22,0,0,0-.28-.23.11.11,0,0,0,.07-.11h-.07a.26.26,0,0,0,.05-.14s-.06,0-.11,0,0-.32-.23-.36a.44.44,0,0,1,.12.29c0,.32-.09.37-.09.59a.35.35,0,0,0,.14.27h0a.19.19,0,0,0-.12.09.89.89,0,0,0,.46,0,.33.33,0,0,0,.24-.17.46.46,0,0,0,0-.39c-.08-.18-.48-1-.61-1.29a.58.58,0,0,1,0-.18.22.22,0,0,1,.24-.22.19.19,0,0,1,.2.17c0,.06,0,.1-.08.1s-.11-.1-.08-.16a.14.14,0,0,0-.11.15.14.14,0,0,0-.11.06.14.14,0,0,0,.11.07c0,.09,0,.13.11.15s0-.15.08-.15.15,0,.19-.07,0,.37,0,.37-.15.11-.24.08.11.19.28.17a.14.14,0,0,0-.08.14.38.38,0,0,0,.13.25l0-1.08Z"/><path class="cls-14" d="M566.54,120.2a.43.43,0,0,1-.44.41.35.35,0,0,1-.4-.36.66.66,0,0,1,.07-.3s.44-.89.6-1.24a.37.37,0,0,0,0-.17.22.22,0,0,0-.22-.2.23.23,0,0,0-.22.21c0,.13.07.2.15.2s.12,0,.12-.1,0-.07-.05-.07,0,.11,0,.11a.08.08,0,0,1-.06-.1l-.07,0a.1.1,0,0,1,.07,0,.09.09,0,0,1,.06-.11.2.2,0,0,0,0,.07.15.15,0,0,1,.21.15.22.22,0,0,1-.28.23.12.12,0,0,1,.07.11h-.07a.26.26,0,0,1,.05.14s-.06,0-.11,0,0,.32-.23.36a.44.44,0,0,0,.12-.29c0-.32-.09-.37-.09-.59a.31.31,0,0,1,.14-.26h0a.19.19,0,0,1-.12-.09.89.89,0,0,1,.46,0,.33.33,0,0,1,.24.17.46.46,0,0,1,0,.39c-.08.18-.48,1-.61,1.29a.58.58,0,0,0,0,.19.23.23,0,0,0,.24.22.2.2,0,0,0,.2-.18c0-.06,0-.1-.08-.1s-.11.1-.08.16a.14.14,0,0,1-.11-.15.14.14,0,0,1-.11-.06.16.16,0,0,1,.11-.07c0-.09,0-.13.11-.15s0,.15.08.15.15,0,.19.07,0-.37,0-.37-.15-.11-.24-.07a.22.22,0,0,1,.28-.18.14.14,0,0,1-.08-.13.38.38,0,0,1,.13-.26l0,1.08Z"/><path class="cls-14" d="M566.51,124s.13.11.18.06-.22-.53-.22-.69.17-.32.38-.36a1.77,1.77,0,0,1,.37,0,.14.14,0,0,1-.14.08.3.3,0,0,1,.16.28c0,.22-.09.31-.09.55a.71.71,0,0,0,.11.31.26.26,0,0,1-.24-.35.11.11,0,0,0-.08,0,.13.13,0,0,1,0-.13s0,0-.08,0a.24.24,0,0,1,.09-.13.21.21,0,0,1-.29-.2.16.16,0,0,1,.14-.17l.07,0a.14.14,0,0,0,0-.09s.08,0,.05.1a.19.19,0,0,1,.09,0,.08.08,0,0,1-.09,0c0,.06,0,.09,0,.12s0-.12,0-.12a.06.06,0,0,0-.06.06.11.11,0,0,0,.12.1c.09,0,.15-.06.15-.19s-.1-.19-.23-.2a.19.19,0,0,0-.21.19c0,.16.24.54.24.69a.18.18,0,0,1-.2.17.37.37,0,0,1-.23-.13l.07-.09Z"/><path class="cls-14" d="M566.49,121a.42.42,0,0,1,.44-.41.35.35,0,0,1,.4.36.56.56,0,0,1-.08.3s-.43.9-.6,1.24a.44.44,0,0,0,0,.17.22.22,0,0,0,.43,0c0-.13-.07-.19-.14-.19s-.13,0-.13.1a.06.06,0,0,0,.06.06c.07,0,0-.1,0-.1a.06.06,0,0,1,.05.09.14.14,0,0,1,.08.05.2.2,0,0,1-.08,0c0,.06,0,.09-.05.1a.08.08,0,0,0,0-.07.15.15,0,0,1-.21-.15.23.23,0,0,1,.29-.23.11.11,0,0,1-.07-.11H567a.16.16,0,0,1-.05-.14s.06,0,.11,0a.26.26,0,0,1,.22-.36.48.48,0,0,0-.11.29c0,.32.09.37.09.59a.33.33,0,0,1-.15.27h0a.19.19,0,0,1,.13.09.89.89,0,0,1-.46,0,.38.38,0,0,1-.25-.17.56.56,0,0,1,0-.39c.09-.18.49-1,.61-1.29a.41.41,0,0,0,0-.18.22.22,0,0,0-.24-.22.19.19,0,0,0-.2.17c0,.06,0,.1.08.1s.11-.1.08-.16.12.09.1.15a.17.17,0,0,1,.12.06.14.14,0,0,1-.12.07c0,.09,0,.13-.1.15s0-.15-.08-.15-.16,0-.19-.07,0,.37,0,.37.14.11.24.08a.23.23,0,0,1-.28.17.14.14,0,0,1,.08.14.35.35,0,0,1-.14.25l0-1.08Z"/><path class="cls-14" d="M566.49,120.2a.42.42,0,0,0,.44.41.35.35,0,0,0,.4-.36.56.56,0,0,0-.08-.3l-.6-1.24a.39.39,0,0,1,0-.17.21.21,0,0,1,.22-.2.22.22,0,0,1,.21.21c0,.13-.07.2-.14.2s-.13,0-.13-.1,0-.07.06-.07,0,.11,0,.11a.07.07,0,0,0,.05-.1l.08,0a.12.12,0,0,0-.08,0,.08.08,0,0,0-.05-.11.08.08,0,0,1,0,.07.15.15,0,0,0-.21.15.23.23,0,0,0,.29.23.12.12,0,0,0-.07.11H567a.16.16,0,0,0-.05.14s.06,0,.11,0a.26.26,0,0,0,.22.36.48.48,0,0,1-.11-.29c0-.32.09-.37.09-.59a.3.3,0,0,0-.15-.26h0a.19.19,0,0,0,.13-.09.89.89,0,0,0-.46,0,.38.38,0,0,0-.25.17.56.56,0,0,0,0,.39c.09.18.49,1,.61,1.29a.41.41,0,0,1,0,.19.23.23,0,0,1-.24.22.2.2,0,0,1-.2-.18c0-.06,0-.1.08-.1s.11.1.08.16.12-.09.1-.15a.17.17,0,0,0,.12-.06.16.16,0,0,0-.12-.07c0-.09,0-.13-.1-.15s0,.15-.08.15-.16,0-.19.07,0-.37,0-.37.14-.11.24-.07a.22.22,0,0,0-.28-.18.14.14,0,0,0,.08-.13.35.35,0,0,0-.14-.26l0,1.08Z"/><polyline class="cls-16" points="456.5 290.36 456.5 264.7 454.7 261.58 456.89 261.58 456.89 240.46 454.5 237.3 456.7 237.3 456.76 227.7 454.25 225.44 456.57 225.44 456.57 217.9 505.89 217.9"/><path class="cls-16" d="M484.87,217.9v-3.81l-2.8-2.8H530.9l2.45-4.23h2.78q2.6-24.06,22.43-31.46l-1-4.26v-3.93H570.1"/><path class="cls-16" d="M642.76,217.9v-3.81l2.81-2.8H596.73l-2.45-4.23h-2.77q-2.6-24.06-22.44-31.46l1-4.26v-3.93"/><polyline class="cls-16" points="505.95 290.36 505.95 264.7 507.76 261.58 505.57 261.58 505.57 240.46 507.95 237.3 505.76 237.3 505.69 227.7 508.21 225.44 505.89 225.44 505.89 217.9"/><line class="cls-17" x1="536.13" y1="207.06" x2="591.51" y2="207.06"/><line class="cls-17" x1="530.9" y1="211.29" x2="597.18" y2="211.29"/><line class="cls-17" x1="557.53" y1="171.34" x2="570.1" y2="171.34"/><line class="cls-17" x1="558.56" y1="175.6" x2="569.07" y2="175.6"/><rect class="cls-17" x="531.8" y="213.64" width="63.96" height="11.73"/><line class="cls-17" x1="530.9" y1="211.29" x2="531.8" y2="213.64"/><line class="cls-17" x1="595.76" y1="213.64" x2="597.18" y2="211.29"/><rect class="cls-17" x="571.33" y="217.37" width="18.5" height="5.22"/><line class="cls-17" x1="573.52" y1="217.37" x2="573.52" y2="222.6"/><line class="cls-17" x1="575.9" y1="217.37" x2="575.9" y2="222.6"/><line class="cls-17" x1="578.48" y1="217.37" x2="578.48" y2="222.6"/><line class="cls-17" x1="580.58" y1="217.37" x2="580.58" y2="222.6"/><line class="cls-17" x1="583.06" y1="217.37" x2="583.06" y2="222.6"/><line class="cls-17" x1="585.64" y1="217.37" x2="585.64" y2="222.6"/><line class="cls-17" x1="587.83" y1="217.37" x2="587.83" y2="222.6"/><rect class="cls-17" x="538.38" y="217.37" width="18.5" height="5.22"/><line class="cls-17" x1="540.57" y1="217.37" x2="540.57" y2="222.6"/><line class="cls-17" x1="542.96" y1="217.37" x2="542.96" y2="222.6"/><line class="cls-17" x1="545.54" y1="217.37" x2="545.54" y2="222.6"/><line class="cls-17" x1="547.63" y1="217.37" x2="547.63" y2="222.6"/><line class="cls-17" x1="550.11" y1="217.37" x2="550.11" y2="222.6"/><line class="cls-17" x1="552.69" y1="217.37" x2="552.69" y2="222.6"/><line class="cls-17" x1="554.88" y1="217.37" x2="554.88" y2="222.6"/><path class="cls-16" d="M563.78,222.79a3.29,3.29,0,1,0-3.28-3.29A3.3,3.3,0,0,0,563.78,222.79Z"/><line class="cls-17" x1="456.89" y1="261.58" x2="505.95" y2="261.58"/><line class="cls-17" x1="456.7" y1="237.3" x2="505.57" y2="237.3"/><line class="cls-17" x1="456.76" y1="227.7" x2="505.72" y2="227.7"/><line class="cls-17" x1="456.57" y1="225.44" x2="507.08" y2="225.44"/><line class="cls-17" x1="456.57" y1="222.45" x2="505.72" y2="222.45"/><polygon class="cls-18" points="530.29 237.62 531.71 240 596.05 240 598.43 237.62 530.29 237.62"/><polygon class="cls-18" points="530.29 225.37 531.71 227.75 596.05 227.75 598.43 225.37 530.29 225.37"/><line class="cls-17" x1="531.71" y1="227.75" x2="531.71" y2="237.61"/><line class="cls-17" x1="596.05" y1="227.75" x2="596.05" y2="237.61"/><line class="cls-17" x1="586.77" y1="227.75" x2="586.77" y2="237.61"/><line class="cls-17" x1="577.74" y1="227.75" x2="577.74" y2="237.61"/><line class="cls-17" x1="568.33" y1="227.75" x2="568.33" y2="237.61"/><line class="cls-17" x1="560.14" y1="227.75" x2="560.14" y2="237.61"/><line class="cls-17" x1="550.53" y1="227.75" x2="550.53" y2="237.61"/><line class="cls-17" x1="541.89" y1="227.75" x2="541.89" y2="237.61"/><rect class="cls-17" x="534.29" y="230.39" width="3.48" height="7.22"/><rect class="cls-17" x="544.21" y="230.39" width="3.48" height="7.22"/><rect class="cls-17" x="553.43" y="230.39" width="3.48" height="7.22"/><rect class="cls-17" x="562.4" y="230.39" width="3.48" height="7.22"/><rect class="cls-17" x="571.1" y="230.39" width="3.48" height="7.22"/><rect class="cls-17" x="580.25" y="230.39" width="3.48" height="7.22"/><rect class="cls-17" x="589.92" y="230.39" width="3.48" height="7.22"/><path class="cls-18" d="M562.07,175.6q-12.48,13.13-11.22,31.46"/><path class="cls-18" d="M559.24,175.6q-17.85,8.94-19.35,31.46"/><path class="cls-18" d="M565.81,175.6q12.5,13.13,11.22,31.46"/><path class="cls-18" d="M568.65,175.6q17.83,8.94,19.34,31.46"/><line class="cls-17" x1="564.07" y1="175.6" x2="564.07" y2="207.06"/><rect class="cls-17" x="493.92" y="240.13" width="2.58" height="21.45"/><rect class="cls-17" x="493.92" y="263.92" width="2.58" height="26.45"/><rect class="cls-17" x="493.92" y="227.7" width="2.58" height="7.59"/><rect class="cls-17" x="493.92" y="227.7" width="2.58" height="3.8"/><rect class="cls-17" x="500.63" y="227.7" width="2.58" height="7.59"/><rect class="cls-17" x="500.63" y="227.7" width="2.58" height="3.8"/><rect class="cls-17" x="499.16" y="241.42" width="6.41" height="3.35"/><rect class="cls-17" x="499.16" y="248.57" width="6.41" height="3.35"/><rect class="cls-17" x="499.16" y="255.66" width="6.41" height="3.35"/><rect class="cls-17" x="499.16" y="265.79" width="6.41" height="3.83"/><rect class="cls-17" x="499.16" y="273.96" width="6.41" height="3.83"/><rect class="cls-17" x="499.16" y="282.07" width="6.41" height="3.83"/><rect class="cls-17" x="511.14" y="264.37" width="2" height="21.45"/><rect class="cls-17" x="517.97" y="264.37" width="2" height="21.45"/><rect class="cls-17" x="525.26" y="264.37" width="2" height="21.45"/><rect class="cls-17" x="511.14" y="239.56" width="2" height="21.45"/><rect class="cls-17" x="517.97" y="239.56" width="2" height="21.45"/><rect class="cls-17" x="525.26" y="239.56" width="2" height="21.45"/><rect class="cls-17" x="511.14" y="230.74" width="2.58" height="3.8"/><rect class="cls-17" x="517.68" y="230.74" width="2.58" height="3.8"/><rect class="cls-17" x="524.97" y="230.74" width="2.58" height="3.8"/><rect class="cls-17" x="511.14" y="218.68" width="2.58" height="3.8"/><rect class="cls-17" x="517.68" y="218.68" width="2.58" height="3.8"/><rect class="cls-17" x="524.97" y="218.68" width="2.58" height="3.8"/><line class="cls-17" x1="511.59" y1="225.13" x2="525.51" y2="225.13"/><polyline class="cls-16" points="671.68 290.36 671.68 264.7 673.48 261.58 671.29 261.58 671.29 240.46 673.68 237.3 671.48 237.3 671.42 227.7 673.93 225.44 671.61 225.44 671.61 217.9 622.29 217.9"/><polyline class="cls-16" points="622.23 290.36 622.23 264.7 620.42 261.58 622.61 261.58 622.61 240.46 620.23 237.3 622.42 237.3 622.49 227.7 619.97 225.44 622.29 225.44 622.29 217.9"/><line class="cls-17" x1="671.29" y1="261.58" x2="622.23" y2="261.58"/><line class="cls-17" x1="671.48" y1="237.3" x2="622.61" y2="237.3"/><line class="cls-17" x1="671.42" y1="227.7" x2="622.46" y2="227.7"/><line class="cls-17" x1="671.61" y1="225.44" x2="621.1" y2="225.44"/><line class="cls-17" x1="671.61" y1="222.45" x2="622.46" y2="222.45"/><line class="cls-17" x1="596.47" y1="227.75" x2="596.47" y2="237.61"/><rect class="cls-17" x="664.88" y="241.42" width="6.41" height="3.35"/><rect class="cls-17" x="664.88" y="248.57" width="6.41" height="3.35"/><rect class="cls-17" x="664.88" y="255.66" width="6.41" height="3.35"/><rect class="cls-17" x="665.27" y="265.79" width="6.41" height="3.83"/><rect class="cls-17" x="665.27" y="273.96" width="6.41" height="3.83"/><rect class="cls-17" x="665.27" y="282.07" width="6.41" height="3.83"/><rect class="cls-17" x="658.82" y="240.13" width="2.58" height="21.45"/><rect class="cls-17" x="649.99" y="240.13" width="2.58" height="21.45"/><rect class="cls-17" x="640.57" y="240.13" width="2.58" height="21.45"/><rect class="cls-17" x="631.68" y="240.13" width="2.58" height="21.45"/><rect class="cls-17" x="658.82" y="263.92" width="2.58" height="26.45"/><rect class="cls-17" x="649.99" y="263.92" width="2.58" height="26.45"/><rect class="cls-17" x="640.57" y="263.92" width="2.58" height="26.45"/><rect class="cls-17" x="631.68" y="263.92" width="2.58" height="26.45"/><rect class="cls-17" x="665.91" y="227.7" width="2.58" height="7.59"/><rect class="cls-17" x="665.91" y="227.7" width="2.58" height="3.8"/><rect class="cls-17" x="658.82" y="227.7" width="2.58" height="7.59"/><rect class="cls-17" x="658.82" y="227.7" width="2.58" height="3.8"/><rect class="cls-17" x="631.68" y="227.7" width="2.58" height="7.59"/><rect class="cls-17" x="631.68" y="227.7" width="2.58" height="3.8"/><rect class="cls-17" x="624.97" y="227.7" width="2.58" height="7.59"/><rect class="cls-17" x="624.97" y="227.7" width="2.58" height="3.8"/><rect class="cls-17" x="639.03" y="227.7" width="2.58" height="7.59"/><rect class="cls-17" x="639.03" y="227.7" width="2.58" height="3.8"/><rect class="cls-17" x="645.67" y="227.7" width="2.58" height="7.59"/><rect class="cls-17" x="645.67" y="227.7" width="2.58" height="3.8"/><rect class="cls-17" x="652.12" y="227.7" width="2.58" height="7.59"/><rect class="cls-17" x="652.12" y="227.7" width="2.58" height="3.8"/><rect class="cls-17" x="622.61" y="241.42" width="6.41" height="3.35"/><rect class="cls-17" x="622.61" y="248.57" width="6.41" height="3.35"/><rect class="cls-17" x="622.61" y="255.66" width="6.41" height="3.35"/><rect class="cls-17" x="622.61" y="265.79" width="6.41" height="3.83"/><rect class="cls-17" x="622.61" y="273.96" width="6.41" height="3.83"/><rect class="cls-17" x="622.61" y="282.07" width="6.41" height="3.83"/><rect class="cls-17" x="615.05" y="264.37" width="2" height="21.45"/><rect class="cls-17" x="608.21" y="264.37" width="2" height="21.45"/><rect class="cls-17" x="600.93" y="264.37" width="2" height="21.45"/><rect class="cls-17" x="615.05" y="239.56" width="2" height="21.45"/><rect class="cls-17" x="608.21" y="239.56" width="2" height="21.45"/><rect class="cls-17" x="600.93" y="239.56" width="2" height="21.45"/><rect class="cls-17" x="614.47" y="230.74" width="2.58" height="3.8"/><rect class="cls-17" x="607.92" y="230.74" width="2.58" height="3.8"/><rect class="cls-17" x="600.63" y="230.74" width="2.58" height="3.8"/><rect class="cls-17" x="614.47" y="218.68" width="2.58" height="3.8"/><rect class="cls-17" x="607.92" y="218.68" width="2.58" height="3.8"/><rect class="cls-17" x="600.63" y="218.68" width="2.58" height="3.8"/><line class="cls-17" x1="616.59" y1="225.13" x2="602.67" y2="225.13"/><line class="cls-19" x1="456.5" y1="290.36" x2="671.68" y2="290.36"/><rect class="cls-17" x="531.77" y="287.47" width="64.09" height="2.89"/><polygon class="cls-18" points="533.6 242.25 536.02 242.25 537.05 241.21 537.05 240 532.57 240 532.57 241.48 533.6 242.25"/><line class="cls-17" x1="533.6" y1="242.25" x2="532.82" y2="285.09"/><line class="cls-17" x1="536.02" y1="242.25" x2="536.8" y2="285.09"/><rect class="cls-17" x="532.12" y="285.09" width="5.38" height="2.39"/><polygon class="cls-18" points="544.3 242.25 546.72 242.25 547.75 241.21 547.75 240 543.27 240 543.27 241.48 544.3 242.25"/><line class="cls-17" x1="544.3" y1="242.25" x2="543.52" y2="285.09"/><line class="cls-17" x1="546.72" y1="242.25" x2="547.5" y2="285.09"/><rect class="cls-17" x="542.81" y="285.09" width="5.38" height="2.39"/><polygon class="cls-18" points="555 242.25 557.42 242.25 558.45 241.21 558.45 240 553.97 240 553.97 241.48 555 242.25"/><line class="cls-17" x1="555" y1="242.25" x2="554.22" y2="285.09"/><line class="cls-17" x1="557.42" y1="242.25" x2="558.2" y2="285.09"/><rect class="cls-17" x="553.52" y="285.09" width="5.38" height="2.39"/><polygon class="cls-18" points="570.41 242.25 572.83 242.25 573.86 241.21 573.86 240 569.38 240 569.38 241.48 570.41 242.25"/><line class="cls-17" x1="570.41" y1="242.25" x2="569.63" y2="285.09"/><line class="cls-17" x1="572.83" y1="242.25" x2="573.61" y2="285.09"/><rect class="cls-17" x="568.93" y="285.09" width="5.38" height="2.39"/><polygon class="cls-18" points="581.3 242.25 583.72 242.25 584.75 241.21 584.75 240 580.27 240 580.27 241.48 581.3 242.25"/><line class="cls-17" x1="581.31" y1="242.25" x2="580.52" y2="285.09"/><line class="cls-17" x1="583.72" y1="242.25" x2="584.5" y2="285.09"/><rect class="cls-17" x="579.82" y="285.09" width="5.38" height="2.39"/><polygon class="cls-18" points="591.94 242.25 594.36 242.25 595.39 241.21 595.39 240 590.91 240 590.91 241.48 591.94 242.25"/><line class="cls-17" x1="591.94" y1="242.25" x2="591.16" y2="285.09"/><line class="cls-17" x1="594.36" y1="242.25" x2="595.14" y2="285.09"/><rect class="cls-17" x="590.46" y="285.09" width="5.38" height="2.39"/><line class="cls-17" x1="536.37" y1="260.97" x2="543.95" y2="260.97"/><line class="cls-17" x1="536.44" y1="264.64" x2="543.88" y2="264.64"/><line class="cls-17" x1="547.06" y1="260.97" x2="554.64" y2="260.97"/><line class="cls-17" x1="547.13" y1="264.64" x2="554.57" y2="264.64"/><line class="cls-17" x1="557.76" y1="260.97" x2="570.04" y2="260.97"/><line class="cls-17" x1="557.87" y1="264.64" x2="569.93" y2="264.64"/><line class="cls-17" x1="573.17" y1="260.97" x2="580.75" y2="260.97"/><line class="cls-17" x1="573.24" y1="264.64" x2="580.68" y2="264.64"/><line class="cls-17" x1="584.07" y1="260.97" x2="591.65" y2="260.97"/><line class="cls-17" x1="584.13" y1="264.64" x2="591.58" y2="264.64"/><polygon class="cls-18" points="567.51 167.41 560.16 167.41 560.41 155.88 564.22 161.04 567.51 155.43 567.51 167.41"/><path class="cls-18" d="M561.72,157.65l.63-26.33c.08-3.11.42-5,1.61-4.9,1.13-.23,1.7,1.79,1.78,4.9t.62,26.33"/><line class="cls-17" x1="563.96" y1="126.42" x2="563.96" y2="111.41"/><rect class="cls-17" x="456.89" y="241.42" width="6.41" height="3.35"/><rect class="cls-17" x="456.89" y="248.57" width="6.41" height="3.35"/><rect class="cls-17" x="456.89" y="255.66" width="6.41" height="3.35"/><rect class="cls-17" x="456.5" y="265.79" width="6.41" height="3.83"/><rect class="cls-17" x="456.5" y="273.96" width="6.41" height="3.83"/><rect class="cls-17" x="456.5" y="282.07" width="6.41" height="3.83"/><rect class="cls-17" x="466.78" y="240.13" width="2.58" height="21.45"/><rect class="cls-17" x="475.61" y="240.13" width="2.58" height="21.45"/><rect class="cls-17" x="485.03" y="240.13" width="2.58" height="21.45"/><rect class="cls-17" x="466.78" y="263.92" width="2.58" height="26.45"/><rect class="cls-17" x="475.61" y="263.92" width="2.58" height="26.45"/><rect class="cls-17" x="485.03" y="263.92" width="2.58" height="26.45"/><rect class="cls-17" x="459.69" y="227.7" width="2.58" height="7.59"/><rect class="cls-17" x="459.69" y="227.7" width="2.58" height="3.8"/><rect class="cls-17" x="466.78" y="227.7" width="2.58" height="7.59"/><rect class="cls-17" x="466.78" y="227.7" width="2.58" height="3.8"/><rect class="cls-17" x="486.57" y="227.7" width="2.58" height="7.59"/><rect class="cls-17" x="486.57" y="227.7" width="2.58" height="3.8"/><rect class="cls-17" x="479.93" y="227.7" width="2.58" height="7.59"/><rect class="cls-17" x="479.93" y="227.7" width="2.58" height="3.8"/><rect class="cls-17" x="473.49" y="227.7" width="2.58" height="7.59"/><rect class="cls-17" x="473.49" y="227.7" width="2.58" height="3.8"/><path class="cls-12" d="M442.56,286.86a1.52,1.52,0,1,0-1.52-1.52A1.52,1.52,0,0,0,442.56,286.86Z"/><rect class="cls-20" x="563.96" y="110.61" width="29.02" height="15.15"/><rect class="cls-21" x="795.36" y="286.7" width="45.33" height="3.66"/><rect class="cls-21" x="795.36" y="283.04" width="45.33" height="3.66"/><rect class="cls-21" x="795.36" y="279.38" width="45.33" height="3.66"/><rect class="cls-21" x="795.36" y="275.72" width="45.33" height="3.66"/><rect class="cls-21" x="795.36" y="272.06" width="45.33" height="3.66"/><rect class="cls-21" x="795.36" y="268.4" width="45.33" height="3.66"/><rect class="cls-21" x="849.17" y="286.7" width="22.73" height="3.66"/><rect class="cls-21" x="849.17" y="283.04" width="22.73" height="3.66"/><rect class="cls-21" x="849.17" y="279.38" width="22.73" height="3.66"/><rect class="cls-21" x="849.17" y="275.72" width="22.73" height="3.66"/><rect class="cls-21" x="849.17" y="272.06" width="22.73" height="3.66"/><rect class="cls-21" x="849.17" y="268.4" width="22.73" height="3.66"/><path class="cls-22" d="M837,150.48Q839.91,96.54,853.92,22H831.06v4.75h-4.49V.71H813V26.78H799.47V45.27h-4.11V290.36H871.9v-22H849.17v-2.6H837Z"/><rect class="cls-21" x="829.65" y="26.78" width="1.42" height="241.63"/><rect class="cls-21" x="810.58" y="26.78" width="2.38" height="241.63"/><rect class="cls-21" x="803.06" y="45.94" width="2.38" height="222.47"/><rect class="cls-21" x="818.02" y="26.87" width="2.38" height="241.54"/><line class="cls-21" x1="818.02" y1="26.87" x2="828.81" y2="26.87"/><line class="cls-21" x1="805.44" y1="45.94" x2="797.42" y2="45.94"/><line class="cls-21" x1="801.65" y1="26.78" x2="801.65" y2="45.94"/><path class="cls-23" d="M834.52,268.4V151.5Q836.76,96,851.61,22"/><line class="cls-21" x1="840.69" y1="268.75" x2="840.69" y2="265.8"/><path class="cls-24" d="M720.49,51.25q16,82.37,17,137.66V290.36h41.22v-216h-3.59v-6.8H761.71v-22H747.46v9.76h-4.88V51.25Z"/><rect class="cls-25" x="742.58" y="55.36" width="2.7" height="235.01"/><rect class="cls-25" x="754.01" y="55.36" width="2.7" height="235.01"/><rect class="cls-25" x="769.03" y="74.61" width="2.7" height="215.75"/><rect class="cls-25" x="761.9" y="67.56" width="1.99" height="222.81"/><line class="cls-25" x1="756.7" y1="55.36" x2="747.46" y2="55.36"/><line class="cls-25" x1="769.03" y1="74.61" x2="778.28" y2="74.61"/><rect class="cls-25" x="772.95" y="67.56" width="1.54" height="7.06"/><rect class="cls-25" x="776.48" y="74.36" width="2.18" height="216"/><path class="cls-26" d="M739.88,290.36V182.23a1051.8,1051.8,0,0,0-16.7-131"/></g></g></svg>