<svg xmlns="http://www.w3.org/2000/svg" viewBox="0 0 838.63 182.31"><defs><style>.cls-1,.cls-10,.cls-11,.cls-17,.cls-2,.cls-21,.cls-22,.cls-23,.cls-24,.cls-25,.cls-26,.cls-29,.cls-3,.cls-30,.cls-5,.cls-7,.cls-9{fill:none;}.cls-1,.cls-2,.cls-3{stroke:#c9d300;}.cls-1,.cls-10,.cls-11,.cls-12,.cls-13,.cls-14,.cls-15,.cls-16,.cls-17,.cls-18,.cls-19,.cls-2,.cls-20,.cls-21,.cls-23,.cls-24,.cls-25,.cls-4,.cls-5,.cls-6,.cls-7,.cls-8,.cls-9{stroke-miterlimit:22.93;}.cls-1,.cls-13,.cls-14,.cls-15,.cls-17,.cls-2,.cls-21,.cls-24,.cls-25,.cls-29,.cls-4,.cls-5,.cls-6,.cls-8,.cls-9{stroke-width:0.57px;}.cls-10,.cls-11,.cls-12,.cls-13,.cls-15,.cls-17,.cls-18,.cls-2,.cls-20,.cls-22,.cls-25,.cls-26,.cls-28,.cls-3,.cls-30,.cls-4,.cls-7,.cls-9{fill-rule:evenodd;}.cls-22,.cls-26,.cls-29,.cls-3,.cls-30{stroke-linejoin:round;}.cls-11,.cls-12,.cls-16,.cls-22,.cls-23,.cls-26,.cls-3,.cls-7{stroke-width:1.42px;}.cls-12,.cls-13,.cls-14,.cls-15,.cls-16,.cls-18,.cls-19,.cls-20,.cls-4,.cls-6,.cls-8{fill:#29262f;}.cls-4,.cls-5,.cls-6,.cls-7{stroke:#ffed42;}.cls-10,.cls-11,.cls-12,.cls-13,.cls-8,.cls-9{stroke:#27b2a3;}.cls-10,.cls-19,.cls-20,.cls-30{stroke-width:0.85px;}.cls-14,.cls-15,.cls-16,.cls-17,.cls-18,.cls-19,.cls-20,.cls-21,.cls-22{stroke:#526db3;}.cls-18{stroke-width:1.13px;}.cls-23,.cls-30{stroke:#4370b5;}.cls-24,.cls-25,.cls-26,.cls-29{stroke:#ef7e56;}.cls-26,.cls-29{stroke-linecap:round;}.cls-27{fill:#df260e;}.cls-28{fill:#ffd600;}</style></defs><g id="Шар_2" data-name="Шар 2"><g id="buildings_KG" data-name="buildings KG"><rect class="cls-1" x="216.05" y="116.87" width="73.95" height="64.73"/><rect class="cls-1" x="220.4" y="120.32" width="65.25" height="61.28"/><rect class="cls-1" x="225.81" y="125.7" width="54.44" height="55.91"/><rect class="cls-1" x="230.63" y="130.24" width="44.8" height="51.36"/><polygon class="cls-2" points="215.13 116.87 290.91 116.87 292.13 113.61 214.19 113.61 215.13 116.87"/><polygon class="cls-2" points="214.98 113.61 291.07 113.61 292.29 110.34 214.03 110.34 214.98 113.61"/><path class="cls-2" d="M225.72,121.57a1.46,1.46,0,1,1-1.46,1.45,1.46,1.46,0,0,1,1.46-1.45Zm55,0a1.46,1.46,0,1,1-1.45,1.45,1.45,1.45,0,0,1,1.45-1.45Zm-6.8,0a1.46,1.46,0,1,1-1.46,1.45,1.45,1.45,0,0,1,1.46-1.45Zm-7,0A1.46,1.46,0,1,1,265.4,123a1.45,1.45,0,0,1,1.45-1.45Zm-6.69,0A1.46,1.46,0,1,1,258.7,123a1.46,1.46,0,0,1,1.46-1.45Zm-6.8,0A1.46,1.46,0,1,1,251.9,123a1.46,1.46,0,0,1,1.46-1.45Zm-7,0a1.46,1.46,0,1,1-1.46,1.45,1.45,1.45,0,0,1,1.46-1.45Zm-6.8,0a1.46,1.46,0,1,1-1.46,1.45,1.46,1.46,0,0,1,1.46-1.45Zm-7,0a1.46,1.46,0,1,1-1.46,1.45A1.45,1.45,0,0,1,232.52,121.57Z"/><path class="cls-2" d="M281.59,175.69a1.46,1.46,0,1,1,1.46,1.46,1.46,1.46,0,0,1-1.46-1.46Zm0-45.54a1.46,1.46,0,1,1,1.46,1.46,1.46,1.46,0,0,1-1.46-1.46Zm0,7.62a1.46,1.46,0,1,1,1.46,1.46,1.46,1.46,0,0,1-1.46-1.46Zm0,7.67a1.46,1.46,0,1,1,1.46,1.46,1.46,1.46,0,0,1-1.46-1.46Zm0,7.51a1.46,1.46,0,1,1,1.46,1.46,1.46,1.46,0,0,1-1.46-1.46Zm0,7.62a1.46,1.46,0,1,1,1.46,1.45,1.46,1.46,0,0,1-1.46-1.45Zm0,7.34a1.46,1.46,0,1,1,1.46,1.46A1.46,1.46,0,0,1,281.59,167.91Z"/><path class="cls-2" d="M222.16,130.15a1.46,1.46,0,1,1,1.46,1.46,1.46,1.46,0,0,1-1.46-1.46Zm0,45.54a1.46,1.46,0,1,1,1.46,1.46,1.46,1.46,0,0,1-1.46-1.46Zm0-7.78a1.46,1.46,0,1,1,1.46,1.46,1.46,1.46,0,0,1-1.46-1.46Zm0-7.34a1.46,1.46,0,1,1,1.46,1.45,1.46,1.46,0,0,1-1.46-1.45Zm0-7.62a1.46,1.46,0,1,1,1.46,1.46,1.46,1.46,0,0,1-1.46-1.46Zm0-7.51a1.46,1.46,0,1,1,1.46,1.46,1.46,1.46,0,0,1-1.46-1.46Zm0-7.67a1.46,1.46,0,1,1,1.46,1.46A1.46,1.46,0,0,1,222.16,137.77Z"/><rect class="cls-1" x="290" y="130.21" width="54.58" height="51.4"/><rect class="cls-1" x="294.32" y="133.01" width="45.95" height="48.59"/><rect class="cls-1" x="300.91" y="139.71" width="32.77" height="41.9"/><rect class="cls-1" x="306.41" y="144.56" width="21.76" height="37.04"/><rect class="cls-1" x="313.11" y="163.35" width="8.38" height="18.25"/><path class="cls-2" d="M310.59,149.15a1.78,1.78,0,1,0-1.78-1.78A1.78,1.78,0,0,0,310.59,149.15Z"/><path class="cls-2" d="M324.19,149.15a1.78,1.78,0,1,0-1.78-1.78A1.78,1.78,0,0,0,324.19,149.15Z"/><path class="cls-2" d="M306.41,159.41a6.63,6.63,0,0,1,4.76-6.49c2.7-1.18,5.67-2.58,6.12-4.22m10.89,10.71a6.78,6.78,0,0,0-4.77-6.49c-2.69-1.18-5.66-2.58-6.12-4.22"/><path class="cls-2" d="M315.48,166.59h.86v11.57h-.86V166.59Zm2.77,0h.86v11.57h-.86Z"/><polygon class="cls-2" points="309.03 136.5 311.85 134.01 314.68 136.5 311.85 138.98 309.03 136.5"/><polygon class="cls-2" points="314.68 136.5 317.51 134.01 320.33 136.5 317.51 138.98 314.68 136.5"/><polygon class="cls-2" points="320.33 136.5 323.16 134.01 325.98 136.5 323.16 138.98 320.33 136.5"/><polygon class="cls-2" points="302.89 136.5 305.71 134.01 308.54 136.5 305.71 138.98 302.89 136.5"/><polygon class="cls-2" points="326.43 136.5 329.26 134.01 332.08 136.5 329.26 138.98 326.43 136.5"/><polygon class="cls-2" points="333.86 136.59 336.69 134.1 339.51 136.59 336.69 139.08 333.86 136.59"/><polygon class="cls-2" points="333.86 142.53 336.69 140.04 339.51 142.53 336.69 145.01 333.86 142.53"/><polygon class="cls-2" points="333.86 148.15 336.69 145.67 339.51 148.15 336.69 150.64 333.86 148.15"/><polygon class="cls-2" points="333.86 154.41 336.69 151.92 339.51 154.41 336.69 156.89 333.86 154.41"/><polygon class="cls-2" points="333.86 160.42 336.69 157.94 339.51 160.42 336.69 162.91 333.86 160.42"/><polygon class="cls-2" points="333.86 166.36 336.69 163.87 339.51 166.36 336.69 168.85 333.86 166.36"/><polygon class="cls-2" points="333.86 172.38 336.69 169.89 339.51 172.38 336.69 174.86 333.86 172.38"/><polygon class="cls-2" points="333.86 178.16 336.69 175.67 339.51 178.16 336.69 180.65 333.86 178.16"/><path class="cls-2" d="M295.1,136.59l2.83-2.49,2.82,2.49-2.82,2.49-2.83-2.49Zm0,41.57,2.83-2.49,2.82,2.49-2.82,2.48-2.83-2.48Zm0-5.78,2.83-2.49,2.82,2.49-2.82,2.48-2.83-2.48Zm0-6,2.83-2.49,2.82,2.49-2.82,2.49-2.83-2.49Zm0-5.94,2.83-2.48,2.82,2.48-2.82,2.49-2.83-2.49Zm0-6,2.83-2.49,2.82,2.49-2.82,2.48-2.83-2.48Zm0-6.26,2.83-2.48,2.82,2.48-2.82,2.49-2.83-2.49Zm0-5.62,2.83-2.49,2.82,2.49L297.93,145Z"/><line class="cls-1" x1="295.1" y1="142.53" x2="294.32" y2="142.53"/><line class="cls-1" x1="295.1" y1="136.59" x2="294.32" y2="136.59"/><line class="cls-1" x1="295.1" y1="148.15" x2="294.32" y2="148.15"/><line class="cls-1" x1="295.1" y1="154.41" x2="294.32" y2="154.41"/><line class="cls-1" x1="295.1" y1="160.42" x2="294.32" y2="160.42"/><line class="cls-1" x1="295.1" y1="166.36" x2="294.32" y2="166.36"/><line class="cls-1" x1="295.1" y1="172.38" x2="294.32" y2="172.38"/><line class="cls-1" x1="295.16" y1="178.19" x2="294.38" y2="178.19"/><line class="cls-1" x1="297.93" y1="180.51" x2="297.93" y2="181.6"/><line class="cls-1" x1="297.93" y1="133.02" x2="297.93" y2="134.1"/><line class="cls-1" x1="305.71" y1="132.92" x2="305.71" y2="134.01"/><line class="cls-1" x1="311.85" y1="132.92" x2="311.85" y2="134.01"/><line class="cls-1" x1="317.51" y1="132.92" x2="317.51" y2="134.01"/><line class="cls-1" x1="323.16" y1="132.92" x2="323.16" y2="134.01"/><line class="cls-1" x1="329.26" y1="132.92" x2="329.26" y2="134.01"/><line class="cls-1" x1="336.69" y1="133.02" x2="336.69" y2="134.1"/><line class="cls-1" x1="329.26" y1="138.98" x2="329.26" y2="139.71"/><line class="cls-1" x1="323.16" y1="138.98" x2="323.16" y2="139.71"/><line class="cls-1" x1="317.51" y1="138.98" x2="317.51" y2="139.71"/><line class="cls-1" x1="311.85" y1="138.98" x2="311.85" y2="139.71"/><line class="cls-1" x1="305.71" y1="138.98" x2="305.71" y2="139.71"/><line class="cls-1" x1="340.16" y1="136.59" x2="339.38" y2="136.59"/><line class="cls-1" x1="340.2" y1="142.61" x2="339.42" y2="142.61"/><line class="cls-1" x1="340.29" y1="148.15" x2="339.51" y2="148.15"/><line class="cls-1" x1="340.29" y1="154.41" x2="339.51" y2="154.41"/><line class="cls-1" x1="340.29" y1="160.42" x2="339.51" y2="160.42"/><line class="cls-1" x1="340.29" y1="166.36" x2="339.51" y2="166.36"/><line class="cls-1" x1="340.29" y1="172.38" x2="339.51" y2="172.38"/><line class="cls-1" x1="340.29" y1="178.16" x2="339.51" y2="178.16"/><line class="cls-1" x1="336.69" y1="180.64" x2="336.69" y2="181.6"/><polygon class="cls-2" points="290 130.21 345.45 130.21 346.66 127.87 290 127.87 290 130.21"/><polygon class="cls-2" points="290 127.87 346 127.87 347.22 125.53 290 125.53 290 127.87"/><rect class="cls-1" x="161.47" y="130.21" width="54.58" height="51.4"/><rect class="cls-1" x="165.79" y="133.01" width="45.95" height="48.59"/><rect class="cls-1" x="172.37" y="139.71" width="32.78" height="41.9"/><rect class="cls-1" x="177.88" y="144.56" width="21.76" height="37.04"/><rect class="cls-1" x="184.57" y="163.35" width="8.38" height="18.25"/><path class="cls-2" d="M195.46,149.15a1.78,1.78,0,1,0-1.78-1.78A1.78,1.78,0,0,0,195.46,149.15Z"/><path class="cls-2" d="M181.87,149.15a1.78,1.78,0,1,0-1.78-1.78A1.78,1.78,0,0,0,181.87,149.15Z"/><path class="cls-2" d="M199.64,159.41a6.63,6.63,0,0,0-4.76-6.49c-2.69-1.18-5.66-2.58-6.12-4.22m-10.88,10.71a6.77,6.77,0,0,1,4.76-6.49c2.69-1.18,5.66-2.58,6.12-4.22"/><path class="cls-2" d="M190.58,166.59h-.86v11.57h.86V166.59Zm-2.78,0h-.86v11.57h.86Z"/><polygon class="cls-2" points="197.03 136.5 194.2 134.01 191.37 136.5 194.2 138.98 197.03 136.5"/><polygon class="cls-2" points="191.37 136.5 188.55 134.01 185.72 136.5 188.55 138.98 191.37 136.5"/><polygon class="cls-2" points="185.72 136.5 182.9 134.01 180.07 136.5 182.9 138.98 185.72 136.5"/><polygon class="cls-2" points="203.17 136.5 200.34 134.01 197.51 136.5 200.34 138.98 203.17 136.5"/><polygon class="cls-2" points="179.62 136.5 176.79 134.01 173.97 136.5 176.79 138.98 179.62 136.5"/><polygon class="cls-2" points="172.19 136.59 169.37 134.1 166.54 136.59 169.37 139.08 172.19 136.59"/><polygon class="cls-2" points="172.19 142.53 169.37 140.04 166.54 142.53 169.37 145.01 172.19 142.53"/><polygon class="cls-2" points="172.19 148.15 169.37 145.67 166.54 148.15 169.37 150.64 172.19 148.15"/><polygon class="cls-2" points="172.19 154.41 169.37 151.92 166.54 154.41 169.37 156.89 172.19 154.41"/><polygon class="cls-2" points="172.19 160.42 169.37 157.94 166.54 160.42 169.37 162.91 172.19 160.42"/><polygon class="cls-2" points="172.19 166.36 169.37 163.87 166.54 166.36 169.37 168.85 172.19 166.36"/><polygon class="cls-2" points="172.19 172.38 169.37 169.89 166.54 172.38 169.37 174.86 172.19 172.38"/><polygon class="cls-2" points="172.19 178.16 169.37 175.67 166.54 178.16 169.37 180.65 172.19 178.16"/><path class="cls-2" d="M211,136.59l-2.82-2.49-2.83,2.49,2.83,2.49,2.82-2.49Zm0,41.57-2.82-2.49-2.83,2.49,2.83,2.48,2.82-2.48Zm0-5.78-2.82-2.49-2.83,2.49,2.83,2.48,2.82-2.48Zm0-6-2.82-2.49-2.83,2.49,2.83,2.49,2.82-2.49Zm0-5.94-2.82-2.48-2.83,2.48,2.83,2.49,2.82-2.49Zm0-6-2.82-2.49-2.83,2.49,2.83,2.48,2.82-2.48Zm0-6.26-2.82-2.48-2.83,2.48,2.83,2.49,2.82-2.49Zm0-5.62L208.13,140l-2.83,2.49,2.83,2.48Z"/><line class="cls-1" x1="210.95" y1="142.53" x2="211.73" y2="142.53"/><line class="cls-1" x1="210.95" y1="136.59" x2="211.73" y2="136.59"/><line class="cls-1" x1="210.95" y1="148.15" x2="211.73" y2="148.15"/><line class="cls-1" x1="210.95" y1="154.41" x2="211.73" y2="154.41"/><line class="cls-1" x1="210.95" y1="160.42" x2="211.73" y2="160.42"/><line class="cls-1" x1="210.95" y1="166.36" x2="211.73" y2="166.36"/><line class="cls-1" x1="210.95" y1="172.38" x2="211.73" y2="172.38"/><line class="cls-1" x1="210.9" y1="178.19" x2="211.68" y2="178.19"/><line class="cls-1" x1="208.13" y1="180.51" x2="208.13" y2="181.6"/><line class="cls-1" x1="208.13" y1="133.02" x2="208.13" y2="134.1"/><line class="cls-1" x1="200.34" y1="132.92" x2="200.34" y2="134.01"/><line class="cls-1" x1="194.2" y1="132.92" x2="194.2" y2="134.01"/><line class="cls-1" x1="188.55" y1="132.92" x2="188.55" y2="134.01"/><line class="cls-1" x1="182.9" y1="132.92" x2="182.9" y2="134.01"/><line class="cls-1" x1="176.8" y1="132.92" x2="176.8" y2="134.01"/><line class="cls-1" x1="169.37" y1="133.02" x2="169.37" y2="134.1"/><line class="cls-1" x1="176.8" y1="138.98" x2="176.8" y2="139.71"/><line class="cls-1" x1="182.9" y1="138.98" x2="182.9" y2="139.71"/><line class="cls-1" x1="188.55" y1="138.98" x2="188.55" y2="139.71"/><line class="cls-1" x1="194.2" y1="138.98" x2="194.2" y2="139.71"/><line class="cls-1" x1="200.34" y1="138.98" x2="200.34" y2="139.71"/><line class="cls-1" x1="165.89" y1="136.59" x2="166.67" y2="136.59"/><line class="cls-1" x1="165.86" y1="142.61" x2="166.64" y2="142.61"/><line class="cls-1" x1="165.76" y1="148.15" x2="166.54" y2="148.15"/><line class="cls-1" x1="165.76" y1="154.41" x2="166.54" y2="154.41"/><line class="cls-1" x1="165.76" y1="160.42" x2="166.54" y2="160.42"/><line class="cls-1" x1="165.76" y1="166.36" x2="166.54" y2="166.36"/><line class="cls-1" x1="165.76" y1="172.38" x2="166.54" y2="172.38"/><line class="cls-1" x1="165.76" y1="178.16" x2="166.54" y2="178.16"/><line class="cls-1" x1="169.37" y1="180.64" x2="169.37" y2="181.6"/><polygon class="cls-2" points="216.05 130.21 160.61 130.21 159.4 127.87 216.05 127.87 216.05 130.21"/><polygon class="cls-2" points="216.05 127.87 160.05 127.87 158.83 125.53 216.05 125.53 216.05 127.87"/><polyline class="cls-3" points="161.47 181.6 161.47 130.21 160.61 130.21 159.4 127.87 160.05 127.87 158.83 125.53 216.05 125.53 216.05 116.87 215.13 116.87 214.19 113.61 214.98 113.61 214.03 110.34 292.29 110.34 291.07 113.61 292.13 113.61 290.91 116.87 290 116.87 290 125.53 347.22 125.53 346 127.87 346.66 127.87 345.45 130.21 344.59 130.21 344.59 181.6"/><polygon class="cls-4" points="727.17 181.6 837.92 181.6 837.92 176.62 830.68 176.62 830.68 173.28 823.29 173.28 821.11 132.87 817.39 132.87 810.35 0.71 754.53 0.71 748.51 132.87 744.25 132.87 742.07 173.28 734.14 173.28 734.14 176.62 727.17 176.62 727.17 181.6"/><line class="cls-5" x1="752.73" y1="42.8" x2="812.8" y2="42.8"/><line class="cls-5" x1="752.15" y1="54.07" x2="813.38" y2="54.07"/><line class="cls-5" x1="751.17" y1="70.6" x2="814.28" y2="70.6"/><line class="cls-5" x1="750.92" y1="76.23" x2="814.56" y2="76.23"/><line class="cls-5" x1="750.34" y1="92.8" x2="815.46" y2="92.8"/><line class="cls-5" x1="749.86" y1="98.9" x2="815.74" y2="98.9"/><line class="cls-5" x1="749.59" y1="115.17" x2="816.08" y2="115.17"/><line class="cls-5" x1="742.07" y1="173.28" x2="823.29" y2="173.28"/><line class="cls-5" x1="752.45" y1="46.44" x2="812.52" y2="46.44"/><rect class="cls-6" x="743.12" y="130.34" width="19.66" height="2.53"/><rect class="cls-6" x="762.78" y="130.34" width="38.64" height="2.53"/><rect class="cls-6" x="801.42" y="130.34" width="20.13" height="2.53"/><line class="cls-5" x1="734.14" y1="176.62" x2="830.68" y2="176.62"/><line class="cls-5" x1="765.24" y1="132.87" x2="762.53" y2="173.28"/><line class="cls-5" x1="800.24" y1="132.87" x2="802.36" y2="173.28"/><rect class="cls-6" x="770.07" y="139.58" width="25.08" height="33.7"/><rect class="cls-6" x="774.47" y="143.65" width="16.27" height="29.63"/><path class="cls-4" d="M788.37,173.28H776.85V153.56a5.77,5.77,0,0,1,5.76-5.76h0a5.77,5.77,0,0,1,5.76,5.76Z"/><path class="cls-4" d="M786.34,173.28h-7.46V153.57a3.74,3.74,0,0,1,3.73-3.73h0a3.74,3.74,0,0,1,3.73,3.73Z"/><polygon class="cls-4" points="745.07 139.58 762.95 139.58 761.17 173.28 743.29 173.28 745.07 139.58"/><polygon class="cls-4" points="747.99 143.65 759.59 143.65 758.03 173.28 746.43 173.28 747.99 143.65"/><path class="cls-4" d="M756.34,173.28h-8.22l1-19.72c.17-3.17,2.15-5.76,4.41-5.76h0c2.26,0,4,2.59,3.81,5.76Z"/><path class="cls-4" d="M754.89,173.28h-5.32l1-19.71c.11-2,1.39-3.73,2.86-3.73h0c1.46,0,2.56,1.68,2.46,3.73Z"/><polygon class="cls-4" points="820.12 139.58 802.24 139.58 804.01 173.28 821.9 173.28 820.12 139.58"/><polygon class="cls-4" points="817.19 143.65 805.59 143.65 807.16 173.28 818.75 173.28 817.19 143.65"/><path class="cls-4" d="M808.85,173.28h8.21l-1-19.72c-.16-3.17-2.15-5.76-4.41-5.76h0c-2.26,0-4,2.59-3.8,5.76Z"/><path class="cls-4" d="M810.3,173.28h5.31l-1-19.71c-.1-2-1.39-3.73-2.85-3.73h0c-1.46,0-2.57,1.68-2.46,3.73Z"/><rect class="cls-6" x="758.03" y="15.05" width="8.14" height="8.26"/><rect class="cls-6" x="758.03" y="23.3" width="8.14" height="8.26"/><rect class="cls-6" x="766.17" y="15.05" width="8.14" height="8.26"/><rect class="cls-6" x="766.17" y="23.3" width="8.14" height="8.26"/><rect class="cls-6" x="774.3" y="15.05" width="8.14" height="8.26"/><rect class="cls-6" x="774.3" y="23.3" width="8.14" height="8.26"/><rect class="cls-6" x="782.44" y="15.05" width="8.14" height="8.26"/><rect class="cls-6" x="782.44" y="23.3" width="8.14" height="8.26"/><rect class="cls-6" x="790.58" y="15.05" width="8.14" height="8.26"/><rect class="cls-6" x="790.58" y="23.3" width="8.14" height="8.26"/><rect class="cls-6" x="798.71" y="15.05" width="8.14" height="8.26"/><rect class="cls-6" x="798.71" y="23.3" width="8.14" height="8.26"/><line class="cls-5" x1="754.1" y1="10.16" x2="810.67" y2="10.16"/><rect class="cls-6" x="755.54" y="12.22" width="5.65" height="5.73"/><rect class="cls-6" x="756.7" y="13.4" width="3.32" height="3.37"/><rect class="cls-6" x="763.34" y="12.18" width="5.65" height="5.73"/><rect class="cls-6" x="764.5" y="13.36" width="3.32" height="3.37"/><rect class="cls-6" x="771.48" y="12.18" width="5.65" height="5.73"/><rect class="cls-6" x="772.64" y="13.36" width="3.32" height="3.37"/><rect class="cls-6" x="779.62" y="12.18" width="5.65" height="5.73"/><rect class="cls-6" x="780.78" y="13.36" width="3.32" height="3.37"/><rect class="cls-6" x="787.75" y="12.18" width="5.65" height="5.73"/><rect class="cls-6" x="788.92" y="13.36" width="3.32" height="3.37"/><rect class="cls-6" x="795.89" y="12.18" width="5.65" height="5.73"/><rect class="cls-6" x="797.05" y="13.36" width="3.32" height="3.37"/><rect class="cls-6" x="804.03" y="12.18" width="5.65" height="5.73"/><rect class="cls-6" x="805.19" y="13.36" width="3.32" height="3.37"/><rect class="cls-6" x="763.34" y="20.44" width="5.65" height="5.73"/><rect class="cls-6" x="764.5" y="21.62" width="3.32" height="3.37"/><rect class="cls-6" x="755.21" y="20.44" width="5.65" height="5.73"/><rect class="cls-6" x="756.37" y="21.62" width="3.32" height="3.37"/><rect class="cls-6" x="771.48" y="20.44" width="5.65" height="5.73"/><rect class="cls-6" x="772.64" y="21.62" width="3.32" height="3.37"/><rect class="cls-6" x="779.62" y="20.44" width="5.65" height="5.73"/><rect class="cls-6" x="780.78" y="21.62" width="3.32" height="3.37"/><rect class="cls-6" x="787.75" y="20.44" width="5.65" height="5.73"/><rect class="cls-6" x="788.92" y="21.62" width="3.32" height="3.37"/><rect class="cls-6" x="795.89" y="20.44" width="5.65" height="5.73"/><rect class="cls-6" x="797.05" y="21.62" width="3.32" height="3.37"/><rect class="cls-6" x="804.03" y="20.44" width="5.65" height="5.73"/><rect class="cls-6" x="805.19" y="21.62" width="3.32" height="3.37"/><line class="cls-5" x1="752.82" y1="36.02" x2="812.39" y2="36.02"/><rect class="cls-6" x="763.34" y="28.7" width="5.65" height="5.73"/><rect class="cls-6" x="764.5" y="29.88" width="3.32" height="3.37"/><rect class="cls-6" x="754.93" y="28.7" width="5.65" height="5.73"/><rect class="cls-6" x="756.1" y="29.88" width="3.32" height="3.37"/><rect class="cls-6" x="771.48" y="28.7" width="5.65" height="5.73"/><rect class="cls-6" x="772.64" y="29.88" width="3.32" height="3.37"/><rect class="cls-6" x="779.62" y="28.7" width="5.65" height="5.73"/><rect class="cls-6" x="780.78" y="29.88" width="3.32" height="3.37"/><rect class="cls-6" x="787.75" y="28.7" width="5.65" height="5.73"/><rect class="cls-6" x="788.92" y="29.88" width="3.32" height="3.37"/><rect class="cls-6" x="795.89" y="28.7" width="5.65" height="5.73"/><rect class="cls-6" x="797.05" y="29.88" width="3.32" height="3.37"/><rect class="cls-6" x="804.03" y="28.7" width="5.65" height="5.73"/><rect class="cls-6" x="805.19" y="29.88" width="3.32" height="3.37"/><polyline class="cls-7" points="837.92 181.6 837.92 176.62 830.68 176.62 830.68 173.28 823.29 173.28 821.16 133.78 821.56 132.87 821.56 130.34 817.26 130.34 810.35 0.71 754.53 0.71 748.63 130.34 743.12 130.34 743.12 132.87 744.25 132.87 742.07 173.28 734.14 173.28 734.14 176.62 727.17 176.62 727.17 181.6"/><rect class="cls-8" x="0.71" y="178.57" width="158.73" height="3.03"/><rect class="cls-8" x="5.64" y="175.66" width="148.88" height="2.91"/><rect class="cls-8" x="9.68" y="173.26" width="140.79" height="2.4"/><path class="cls-9" d="M72.11,130.92q-52.32-.82-56.49,42.34"/><path class="cls-9" d="M25.86,173.26q6-37.69,45.62-40.31"/><path class="cls-9" d="M44.94,173.26q.38-33.69,26.42-38.16-32.85,3.42-39.06,38.16"/><path class="cls-9" d="M88.16,130.92q52.32-.82,56.5,42.34"/><path class="cls-9" d="M134.42,173.26q-6-37.69-45.62-40.31"/><path class="cls-9" d="M115.34,173.26Q115,139.57,88.92,135.1q32.83,3.42,39.05,38.16"/><path class="cls-10" d="M71.73,173.26q.4-22.95,6.58-37.79a144,144,0,0,0-4,37.79"/><path class="cls-10" d="M88.34,173.26q-.39-22.95-6.57-37.79a144.4,144.4,0,0,1,4,37.79"/><path class="cls-11" d="M71.66,130.92q-51.88-.63-56,42.34m72.74-42.34q52.13-.73,56.3,42.34m-66.19,0H9.68v2.4h-4v2.91H.71v3H159.44v-3h-4.93v-2.91h-4v-2.4h-72"/><path class="cls-12" d="M72,130H88a2.88,2.88,0,0,1,2.87,2.87h0A2.87,2.87,0,0,1,88,135.75H72a2.87,2.87,0,0,1-2.87-2.86h0A2.88,2.88,0,0,1,72,130Z"/><path class="cls-13" d="M76.85,130h6.32A2.87,2.87,0,0,1,86,132.89h0a2.87,2.87,0,0,1-2.86,2.86H76.85A2.87,2.87,0,0,1,74,132.89h0A2.87,2.87,0,0,1,76.85,130Z"/><rect class="cls-14" x="598.12" y="169.67" width="121.64" height="3.74"/><rect class="cls-14" x="601.04" y="109.07" width="117.45" height="6.01"/><polygon class="cls-15" points="601.04 109.08 718.5 109.08 721.18 105.34 597.98 105.34 601.04 109.08"/><rect class="cls-14" x="711.67" y="98.35" width="6.82" height="6.99"/><rect class="cls-14" x="601.04" y="98.35" width="6.98" height="6.99"/><polygon class="cls-15" points="721.76 98.35 709.41 98.35 659.69 75.9 609.98 98.35 597.63 98.35 597.63 93.8 609.19 93.8 658.5 71.53 660.89 71.53 710.2 93.8 721.76 93.8 721.76 98.35"/><path class="cls-15" d="M659.68,94.94a4.63,4.63,0,1,0-4.63-4.63A4.64,4.64,0,0,0,659.68,94.94Z"/><circle class="cls-16" cx="659.68" cy="90.31" r="8.04" transform="translate(129.36 492.92) rotate(-45)"/><path class="cls-17" d="M641.8,84q1.14,4.78-4,7.44-.48,4.76-7.6,5.87l-2.65,8"/><path class="cls-17" d="M677.75,84.06q-1.12,4.77,4,7.44.48,4.75,7.6,5.86,2.66,8.06,2.66,8"/><polygon class="cls-18" points="619.82 120.31 623.87 120.31 625.6 169.67 618.29 169.67 619.82 120.31"/><polygon class="cls-18" points="605.08 120.31 609.13 120.31 610.85 169.67 603.55 169.67 605.08 120.31"/><polygon class="cls-18" points="695.64 120.31 699.69 120.31 701.41 169.67 694.11 169.67 695.64 120.31"/><polygon class="cls-18" points="711.02 120.31 715.08 120.31 716.8 169.67 709.49 169.67 711.02 120.31"/><rect class="cls-14" x="646.47" y="135" width="13.33" height="5.4"/><rect class="cls-14" x="646.47" y="126.89" width="13.33" height="8.1"/><rect class="cls-14" x="646.47" y="120.99" width="13.33" height="5.91"/><rect class="cls-14" x="659.81" y="135" width="12.83" height="5.4"/><rect class="cls-14" x="659.81" y="126.89" width="12.83" height="8.1"/><rect class="cls-14" x="659.81" y="120.99" width="12.83" height="5.91"/><rect class="cls-14" x="652.38" y="144.45" width="7.43" height="25.22"/><rect class="cls-14" x="659.81" y="144.45" width="7.77" height="25.22"/><rect class="cls-14" x="646.47" y="144.45" width="5.91" height="8.78"/><rect class="cls-14" x="667.57" y="144.45" width="5.06" height="8.78"/><rect class="cls-14" x="630.1" y="135" width="10.8" height="5.4"/><rect class="cls-14" x="630.1" y="126.89" width="10.8" height="8.1"/><rect class="cls-14" x="630.1" y="120.99" width="10.8" height="5.91"/><rect class="cls-14" x="630.1" y="159.16" width="10.8" height="5.4"/><rect class="cls-14" x="630.1" y="151.06" width="10.8" height="8.1"/><rect class="cls-14" x="630.1" y="145.15" width="10.8" height="5.91"/><rect class="cls-14" x="679.03" y="134.49" width="10.8" height="5.4"/><rect class="cls-14" x="679.03" y="126.39" width="10.8" height="8.1"/><rect class="cls-14" x="679.03" y="120.48" width="10.8" height="5.91"/><rect class="cls-14" x="679.03" y="158.65" width="10.8" height="5.4"/><rect class="cls-14" x="679.03" y="150.55" width="10.8" height="8.1"/><rect class="cls-14" x="679.03" y="144.64" width="10.8" height="5.91"/><rect class="cls-19" x="605.08" y="117.58" width="4.03" height="2.73"/><polygon class="cls-20" points="603.76 115.08 610.4 115.08 609.11 117.58 605.08 117.58 603.76 115.08"/><rect class="cls-14" x="619.82" y="117.58" width="4.03" height="2.73"/><polygon class="cls-20" points="618.5 115.08 625.14 115.08 623.85 117.58 619.82 117.58 618.5 115.08"/><rect class="cls-14" x="635" y="117.58" width="4.03" height="2.73"/><polygon class="cls-20" points="633.68 115.08 640.33 115.08 639.03 117.58 635 117.58 633.68 115.08"/><rect class="cls-14" x="650.22" y="117.58" width="4.03" height="2.73"/><polygon class="cls-20" points="648.9 115.08 655.54 115.08 654.25 117.58 650.22 117.58 648.9 115.08"/><rect class="cls-14" x="665.41" y="117.58" width="4.03" height="2.73"/><polygon class="cls-20" points="664.09 115.08 670.73 115.08 669.44 117.58 665.41 117.58 664.09 115.08"/><rect class="cls-19" x="680.82" y="117.58" width="4.03" height="2.73"/><polygon class="cls-20" points="679.49 115.08 686.14 115.08 684.85 117.58 680.82 117.58 679.49 115.08"/><rect class="cls-19" x="695.64" y="117.58" width="4.03" height="2.73"/><polygon class="cls-20" points="694.31 115.08 700.96 115.08 699.67 117.58 695.64 117.58 694.31 115.08"/><rect class="cls-19" x="711.02" y="117.58" width="4.03" height="2.73"/><polygon class="cls-20" points="709.7 115.08 716.35 115.08 715.05 117.58 711.02 117.58 709.7 115.08"/><line class="cls-21" x1="613.79" y1="115.09" x2="613.79" y2="169.67"/><line class="cls-21" x1="705.35" y1="115.09" x2="705.35" y2="169.67"/><polygon class="cls-18" points="635 120.31 639.05 120.31 640.78 169.67 633.47 169.67 635 120.31"/><polygon class="cls-18" points="650.22 120.31 654.27 120.31 655.99 169.67 648.69 169.67 650.22 120.31"/><polygon class="cls-18" points="665.41 120.31 669.46 120.31 671.18 169.67 663.88 169.67 665.41 120.31"/><polygon class="cls-18" points="680.82 120.31 684.87 120.31 686.59 169.67 679.29 169.67 680.82 120.31"/><rect class="cls-14" x="595.06" y="173.41" width="127.77" height="4.15"/><rect class="cls-14" x="591.16" y="177.55" width="135.57" height="4.05"/><path class="cls-22" d="M598.12,169.67h5.43l1.53-49.36v-2.73l-1.32-2.49H601v-6L598,105.34H601v-7h-3.41V93.8h11.56L658.5,71.53h2.39L710.2,93.8h11.56v4.55H718.5v7h2.68l-2.68,3.73v6h-2.15l-1.3,2.49v2.73h0l1.73,49.36h3v3.74h3.07v4.14h3.9v4H591.16v-4h3.9v-4.14h3.06v-3.74ZM711.67,98.35h-2.26L659.69,75.9,610,98.35h-2v7H711.67Z"/><line class="cls-23" x1="603.55" y1="169.67" x2="716.88" y2="169.67"/><rect class="cls-24" x="473.66" y="115.91" width="78.87" height="65.69"/><rect class="cls-24" x="489.78" y="121.04" width="46.64" height="60.56"/><path class="cls-25" d="M522.46,181.6H503.73V162.5a9.4,9.4,0,0,1,9.37-9.37h0a9.39,9.39,0,0,1,9.36,9.37Z"/><rect class="cls-24" x="473.66" y="109.32" width="6.22" height="6.59"/><rect class="cls-24" x="479.88" y="109.32" width="6.22" height="6.59"/><rect class="cls-24" x="486.1" y="109.32" width="6.76" height="6.59"/><rect class="cls-24" x="492.87" y="109.32" width="6.76" height="6.59"/><rect class="cls-24" x="499.63" y="109.32" width="6.76" height="6.59"/><rect class="cls-24" x="506.4" y="109.32" width="6.76" height="6.59"/><rect class="cls-24" x="513.16" y="109.32" width="6.76" height="6.59"/><rect class="cls-24" x="519.93" y="109.32" width="6.76" height="6.59"/><rect class="cls-24" x="526.69" y="109.32" width="6.65" height="6.59"/><rect class="cls-24" x="533.34" y="109.32" width="6.65" height="6.59"/><rect class="cls-24" x="546.21" y="109.32" width="6.22" height="6.59"/><rect class="cls-24" x="539.99" y="109.32" width="6.22" height="6.59"/><rect class="cls-24" x="488.52" y="86.06" width="48.95" height="23.26"/><polyline class="cls-25" points="492.65 91.3 498.69 91.3 498.69 93.81 506.75 93.81"/><polyline class="cls-25" points="523.77 103.78 517.73 103.78 517.73 101.27 509.67 101.27"/><polyline class="cls-25" points="518.03 91.09 526.09 91.09 526.09 93.61 532.13 93.61 532.13 91.09 537.47 91.09"/><polyline class="cls-25" points="488.52 105.09 496.58 105.09 496.58 107.61 502.62 107.61 502.62 105.09 507.96 105.09"/><path class="cls-25" d="M488.52,86.06q.42-27.12,24.68-36.26,25.15,11.51,24.27,36.26"/><line class="cls-24" x1="492.61" y1="67.36" x2="500.91" y2="67.36"/><line class="cls-24" x1="519.34" y1="58.26" x2="526.4" y2="58.26"/><line class="cls-24" x1="527.7" y1="74.37" x2="536.47" y2="74.37"/><line class="cls-24" x1="488.62" y1="83.44" x2="498.39" y2="83.44"/><line class="cls-24" x1="502.24" y1="55.74" x2="510.78" y2="55.74"/><line class="cls-24" x1="509.62" y1="51.31" x2="514.2" y2="51.31"/><rect class="cls-24" x="519.54" y="71.76" width="4.73" height="2.62"/><rect class="cls-24" x="495.02" y="74.48" width="4.18" height="2.62"/><rect class="cls-24" x="492.37" y="77.09" width="4.73" height="2.44"/><rect class="cls-24" x="497.11" y="77.09" width="4" height="2.44"/><rect class="cls-24" x="519.74" y="77.14" width="4.18" height="2.62"/><rect class="cls-24" x="503.05" y="63.72" width="4.18" height="2.62"/><rect class="cls-24" x="505.14" y="61.28" width="4.73" height="2.44"/><rect class="cls-24" x="501.13" y="61.28" width="4" height="2.44"/><rect class="cls-24" x="516.42" y="65.74" width="4.63" height="2.62"/><rect class="cls-24" x="518.51" y="63.3" width="4.73" height="2.44"/><rect class="cls-24" x="514.5" y="63.3" width="4" height="2.44"/><rect class="cls-24" x="521.05" y="65.74" width="4.03" height="2.62"/><circle class="cls-24" cx="513.2" cy="46.79" r="1.86"/><line class="cls-24" x1="513.2" y1="49.8" x2="513.2" y2="48.65"/><path class="cls-25" d="M489.78,150.21c0-5.48,3.85-10.79,11-14,8.63-3.06,10.23-5.61,12.37-8.67m23.32,22.66c0-5.48-3.85-10.79-10.95-14-8.64-3.06-10.23-5.61-12.37-8.67"/><rect class="cls-24" x="477.69" y="120.91" width="7.96" height="1.51"/><rect class="cls-24" x="477.69" y="125.69" width="7.96" height="1.51"/><rect class="cls-24" x="477.69" y="130.53" width="7.96" height="1.51"/><rect class="cls-24" x="477.69" y="135.51" width="7.96" height="1.51"/><rect class="cls-24" x="477.69" y="140.29" width="7.96" height="1.51"/><rect class="cls-24" x="477.69" y="145.13" width="7.96" height="1.51"/><rect class="cls-24" x="477.69" y="149.31" width="7.96" height="1.51"/><rect class="cls-24" x="477.69" y="154.29" width="7.96" height="1.51"/><rect class="cls-24" x="477.69" y="159.08" width="7.96" height="1.51"/><rect class="cls-24" x="477.69" y="163.91" width="7.96" height="1.51"/><rect class="cls-24" x="477.69" y="168.55" width="7.96" height="1.51"/><rect class="cls-24" x="477.69" y="173.38" width="7.96" height="1.51"/><path class="cls-25" d="M540.29,120.91h8v1.51h-8v-1.51Zm0,52.47h8v1.51h-8v-1.51Zm0-4.83h8v1.51h-8v-1.51Zm0-4.64h8v1.51h-8v-1.51Zm0-4.83h8v1.51h-8v-1.51Zm0-4.79h8v1.51h-8v-1.51Zm0-5h8v1.51h-8v-1.51Zm0-4.18h8v1.51h-8v-1.51Zm0-4.84h8v1.52h-8v-1.52Zm0-4.78h8V137h-8v-1.51Zm0-5h8V132h-8v-1.51Zm0-4.84h8v1.51h-8Z"/><rect class="cls-24" x="437.91" y="143.67" width="23.57" height="7.25"/><rect class="cls-24" x="461.48" y="143.67" width="12.18" height="7.25"/><rect class="cls-24" x="437.91" y="150.92" width="23.57" height="30.68"/><rect class="cls-24" x="461.48" y="150.92" width="12.18" height="30.68"/><path class="cls-25" d="M471.17,181.6H464V162.44a3.61,3.61,0,0,1,3.6-3.6h0a3.61,3.61,0,0,1,3.6,3.6Z"/><path class="cls-25" d="M458.66,181.6h-7.2V162.44a3.61,3.61,0,0,1,3.6-3.6h0a3.61,3.61,0,0,1,3.6,3.6Z"/><path class="cls-25" d="M447.78,181.6h-7.2V162.44a3.61,3.61,0,0,1,3.6-3.6h0a3.61,3.61,0,0,1,3.6,3.6Z"/><rect class="cls-24" x="450.5" y="135.36" width="4.33" height="1.03"/><rect class="cls-24" x="459.41" y="127.14" width="4.33" height="1.03"/><rect class="cls-24" x="455.89" y="112.02" width="4.33" height="1.03"/><rect class="cls-24" x="451.76" y="103.47" width="4.33" height="1.03"/><rect class="cls-24" x="449.34" y="121.3" width="4.33" height="1.03"/><polyline class="cls-25" points="439.32 143.67 449.29 95.73 463.69 95.73 467.42 112.65 473.66 112.65"/><path class="cls-25" d="M463.69,95.73q1.24-8.69-6.75-11.38l-.37-2.92m-7.28,14.3Q448,87,456,84.35l.3-2.92"/><rect class="cls-24" x="458.61" y="86.22" width="1.64" height="0.7"/><rect class="cls-24" x="449.98" y="89.48" width="2.86" height="0.7"/><rect class="cls-24" x="461.3" y="91.45" width="2.41" height="0.7"/><rect class="cls-24" x="453.8" y="85.28" width="1.46" height="0.7"/><rect class="cls-24" x="564.72" y="143.67" width="23.57" height="7.25"/><rect class="cls-24" x="552.53" y="143.67" width="12.18" height="7.25"/><rect class="cls-24" x="564.72" y="150.92" width="23.57" height="30.68"/><rect class="cls-24" x="552.53" y="150.92" width="12.18" height="30.68"/><path class="cls-25" d="M555,181.6h7.2V162.44a3.61,3.61,0,0,0-3.6-3.6h0a3.61,3.61,0,0,0-3.6,3.6Z"/><path class="cls-25" d="M567.54,181.6h7.2V162.44a3.61,3.61,0,0,0-3.6-3.6h0a3.61,3.61,0,0,0-3.6,3.6Z"/><path class="cls-25" d="M578.42,181.6h7.2V162.44a3.61,3.61,0,0,0-3.6-3.6h0a3.61,3.61,0,0,0-3.6,3.6Z"/><rect class="cls-24" x="571.37" y="135.36" width="4.33" height="1.03"/><rect class="cls-24" x="562.45" y="127.14" width="4.33" height="1.03"/><rect class="cls-24" x="565.98" y="112.02" width="4.33" height="1.03"/><rect class="cls-24" x="570.11" y="103.47" width="4.33" height="1.03"/><rect class="cls-24" x="572.52" y="121.3" width="4.33" height="1.03"/><polyline class="cls-25" points="586.88 143.67 576.91 95.73 562.5 95.73 558.78 112.65 552.53 112.65"/><path class="cls-25" d="M562.5,95.73q-1.23-8.69,6.75-11.38l.38-2.92m7.28,14.3q1.23-8.69-6.75-11.38l-.3-2.92"/><rect class="cls-24" x="565.95" y="86.22" width="1.64" height="0.7"/><rect class="cls-24" x="573.36" y="89.48" width="2.86" height="0.7"/><rect class="cls-24" x="562.48" y="91.45" width="2.41" height="0.7"/><rect class="cls-24" x="570.94" y="85.28" width="1.46" height="0.7"/><path class="cls-26" d="M488.52,86.06q.42-27.12,24.68-36.26,25.15,11.51,24.27,36.26m25,9.67q-1.23-8.69,6.75-11.38l.38-2.92m7.28,14.3q1.23-8.69-6.75-11.38l-.3-2.92m17,62.24-10-47.94H562.5l-3.72,16.92h-6.25M463.69,95.73q1.24-8.69-6.75-11.38l-.37-2.92m-7.28,14.3Q448,87,456,84.35l.3-2.92m-17,62.24,10-47.94h14.4l3.73,16.92h6.24m0,3.26h78.77v-6.59h-15V86.06h-49v23.26H473.66v6.59ZM588.29,181.6V143.67M437.91,181.6V143.67"/><rect class="cls-27" x="514.1" y="22.41" width="22.11" height="13.27"/><path class="cls-28" d="M524.16,28.14a4.68,4.68,0,0,0-.78-.38A2.13,2.13,0,0,0,523,29a2.31,2.31,0,0,0,.1.64,3.54,3.54,0,0,1,.43-.75,4.21,4.21,0,0,1,.62-.71Zm-.66-.54h0l.13-.14a5.41,5.41,0,0,1,.89.38c-.06.05-.12.09-.18.15a4.56,4.56,0,0,0-.84-.39Zm.26-.26a4.44,4.44,0,0,1,1,.37l.21-.13a5.09,5.09,0,0,0-1-.37l-.16.13Zm.32-.23a5,5,0,0,1,1.07.36,5.1,5.1,0,0,1,1.06-.36,2.1,2.1,0,0,0-1.06-.29,2.14,2.14,0,0,0-1.07.29Zm2.29.11a.61.61,0,0,1,.16.12,4.88,4.88,0,0,0-1,.37l-.21-.13a4.5,4.5,0,0,1,1-.36Zm.3.25h0a.74.74,0,0,1,.12.13A4.56,4.56,0,0,0,526,28l-.18-.15a5,5,0,0,1,.9-.37Zm.24.29a4.59,4.59,0,0,0-.77.38,4.59,4.59,0,0,1,1.05,1.46,2.3,2.3,0,0,0,.09-.64,2.06,2.06,0,0,0-.37-1.2Zm-.18,1.47a6.89,6.89,0,0,1,.34.66,2.54,2.54,0,0,1-.16.28,4.56,4.56,0,0,0-1.18-1.75l.21-.15a4.35,4.35,0,0,1,.79,1Zm-1.19-1,.21-.15-.19-.15-.21.14h0l.19.16Zm-.39-.3.21-.13-.21-.13-.21.13.21.13Zm-.21.14-.21-.14-.19.15.21.14.19-.15Zm.21.15-.2.16.2.16.19-.16-.19-.16Zm0,.7a4.74,4.74,0,0,1,.73,1.06,4.22,4.22,0,0,1,.33.8,2.1,2.1,0,0,1-1.06.28,2.13,2.13,0,0,1-1.07-.28,4.22,4.22,0,0,1,.33-.8,4.47,4.47,0,0,1,.74-1.06Zm-1.24,1.42h0c0,.09-.07.17-.1.26l-.23-.22a4.94,4.94,0,0,1,1.18-1.83l.19.18a4.75,4.75,0,0,0-1,1.61Zm1.43-1.61h0l.19-.18a4.82,4.82,0,0,1,1.18,1.83,2.39,2.39,0,0,1-.23.22l-.09-.26a4.93,4.93,0,0,0-1-1.61Zm-2,1.41a1.56,1.56,0,0,1-.16-.28,5.08,5.08,0,0,1,.33-.66,5,5,0,0,1,.8-1l.2.15a4.43,4.43,0,0,0-1.17,1.75Zm1.77-3.52a2.4,2.4,0,1,1-2.4,2.39,2.39,2.39,0,0,1,2.4-2.39Zm1.05-.52h0a1.58,1.58,0,0,1,.3-.27.08.08,0,0,0,0,0,.67.67,0,0,0,.18-.44.67.67,0,0,1,0,.57.53.53,0,0,1-.11.14,1,1,0,0,0-.22.4.34.34,0,0,0,0,.14,1.8,1.8,0,0,1,.27-.31,1.55,1.55,0,0,1,.33-.21l0,0a.74.74,0,0,0,.25-.41.69.69,0,0,1-.1.57l-.12.12a.9.9,0,0,0-.28.36.22.22,0,0,0,0,.13,1.57,1.57,0,0,1,.31-.26,2.92,2.92,0,0,1,.37-.16l.05,0a.75.75,0,0,0,.31-.36.64.64,0,0,1-.19.54.5.5,0,0,1-.14.1,1,1,0,0,0-.33.31.31.31,0,0,0-.06.13,1.41,1.41,0,0,1,.74-.31h.05a.69.69,0,0,0,.36-.31.64.64,0,0,1-.26.5.48.48,0,0,1-.16.08.86.86,0,0,0-.37.26.21.21,0,0,0-.08.11,1.74,1.74,0,0,1,.38-.15,1.63,1.63,0,0,1,.39,0h.06a.74.74,0,0,0,.41-.25.69.69,0,0,1-.35.46l-.16.05a.86.86,0,0,0-.41.19.24.24,0,0,0-.1.1,1.47,1.47,0,0,1,.4-.08,1.55,1.55,0,0,1,.4,0h0a.68.68,0,0,0,.44-.18.67.67,0,0,1-.41.4.5.5,0,0,1-.17,0,.94.94,0,0,0-.43.13.2.2,0,0,0-.11.09,1.53,1.53,0,0,1,.4,0,1.74,1.74,0,0,1,.39.09h.05a.73.73,0,0,0,.47-.11.67.67,0,0,1-.47.33,1,1,0,0,1-.17,0,1,1,0,0,0-.46.05.47.47,0,0,0-.12.07,2.09,2.09,0,0,1,.41,0,1.38,1.38,0,0,1,.37.15l0,0a.83.83,0,0,0,.48,0,.67.67,0,0,1-.52.25.51.51,0,0,1-.17,0,1,1,0,0,0-.45,0l-.13.05a1.89,1.89,0,0,1,.39.11,1.5,1.5,0,0,1,.34.2l0,0a.74.74,0,0,0,.48,0,.66.66,0,0,1-.55.17l-.17,0a.81.81,0,0,0-.44-.09.32.32,0,0,0-.14,0,1.49,1.49,0,0,1,.37.16,1.29,1.29,0,0,1,.31.26l0,0A.68.68,0,0,0,529,30a.69.69,0,0,1-.57.08L528.3,30a1,1,0,0,0-.42-.17h-.14a2.54,2.54,0,0,1,.34.22,1.85,1.85,0,0,1,.26.3l0,0a.67.67,0,0,0,.44.18.63.63,0,0,1-.57,0,.36.36,0,0,1-.14-.1,1,1,0,0,0-.4-.22.34.34,0,0,0-.14,0,3.49,3.49,0,0,1,.31.27,1.85,1.85,0,0,1,.21.34l0,.05a.74.74,0,0,0,.41.25.69.69,0,0,1-.57-.1,1.36,1.36,0,0,1-.12-.12,1,1,0,0,0-.35-.28.27.27,0,0,0-.14,0,1.57,1.57,0,0,1,.26.31,2.92,2.92,0,0,1,.16.37l0,.05a.75.75,0,0,0,.36.31.67.67,0,0,1-.54-.19.71.71,0,0,1-.1-.14.89.89,0,0,0-.31-.33.31.31,0,0,0-.13-.06,1.39,1.39,0,0,1,.21.35,1.84,1.84,0,0,1,.1.39.09.09,0,0,0,0,.05.69.69,0,0,0,.31.36.62.62,0,0,1-.5-.27.44.44,0,0,1-.08-.15.86.86,0,0,0-.26-.37.21.21,0,0,0-.11-.08,1.74,1.74,0,0,1,.15.38,1.63,1.63,0,0,1,0,.39v.06a.69.69,0,0,0,.25.4.65.65,0,0,1-.46-.34,1,1,0,0,1-.05-.16.86.86,0,0,0-.19-.41.24.24,0,0,0-.1-.1,1.59,1.59,0,0,1,.06.79v.06a.7.7,0,0,0,.18.44.67.67,0,0,1-.4-.41.5.5,0,0,1,0-.17,1,1,0,0,0-.13-.44.44.44,0,0,0-.08-.11,2.08,2.08,0,0,1,0,.41,1.74,1.74,0,0,1-.09.39.09.09,0,0,0,0,0,.75.75,0,0,0,.11.47.67.67,0,0,1-.33-.47,1,1,0,0,1,0-.17.9.9,0,0,0-.05-.46.35.35,0,0,0-.07-.12,1.9,1.9,0,0,1,0,.4,1.25,1.25,0,0,1-.15.37.14.14,0,0,1,0,.06.73.73,0,0,0,0,.47.62.62,0,0,1-.26-.51.51.51,0,0,1,0-.17,1,1,0,0,0,0-.46.43.43,0,0,0-.05-.12,1.89,1.89,0,0,1-.11.39,1.2,1.2,0,0,1-.2.34l0,0a.74.74,0,0,0,0,.48.66.66,0,0,1-.17-.55,1.09,1.09,0,0,1,0-.17.85.85,0,0,0,.09-.44.32.32,0,0,0,0-.14,1.68,1.68,0,0,1-.16.37,1.29,1.29,0,0,1-.26.31l0,0a.71.71,0,0,0-.11.47.69.69,0,0,1-.08-.57.55.55,0,0,1,.08-.15,1.06,1.06,0,0,0,.16-.43.61.61,0,0,0,0-.14,2,2,0,0,1-.22.34,1.58,1.58,0,0,1-.3.27s0,0,0,0a.64.64,0,0,0-.18.44.63.63,0,0,1,0-.57.49.49,0,0,1,.1-.15.94.94,0,0,0,.22-.39.36.36,0,0,0,0-.14,2.23,2.23,0,0,1-.27.3,2,2,0,0,1-.34.22l-.05,0a.65.65,0,0,0-.24.41.65.65,0,0,1,.09-.57,1.36,1.36,0,0,1,.12-.12.9.9,0,0,0,.28-.36.17.17,0,0,0,0-.13,1.57,1.57,0,0,1-.31.26,1.77,1.77,0,0,1-.37.15l0,0a.71.71,0,0,0-.31.36.64.64,0,0,1,.19-.54.45.45,0,0,1,.14-.1,1.09,1.09,0,0,0,.33-.31.38.38,0,0,0,.06-.13,1.78,1.78,0,0,1-.35.21,1.84,1.84,0,0,1-.39.1h0a.69.69,0,0,0-.36.31.65.65,0,0,1,.27-.51l.15-.08a.77.77,0,0,0,.37-.25.21.21,0,0,0,.08-.11,1.28,1.28,0,0,1-.38.14,1.71,1.71,0,0,1-.39,0h-.06a.69.69,0,0,0-.4.25.63.63,0,0,1,.34-.46.49.49,0,0,1,.16-.05.86.86,0,0,0,.41-.19.21.21,0,0,0,.1-.11,1.59,1.59,0,0,1-.39.09,2.07,2.07,0,0,1-.4,0h-.06a.79.79,0,0,0-.44.19.65.65,0,0,1,.41-.4l.17,0a1,1,0,0,0,.44-.12.31.31,0,0,0,.11-.09,1.2,1.2,0,0,1-.41,0,1.37,1.37,0,0,1-.39-.08h0a.65.65,0,0,0-.46.11.66.66,0,0,1,.46-.33,1.08,1.08,0,0,1,.18,0,1,1,0,0,0,.45-.05.35.35,0,0,0,.12-.07,1.9,1.9,0,0,1-.4,0,1.48,1.48,0,0,1-.38-.15l-.05,0a.72.72,0,0,0-.47,0,.63.63,0,0,1,.51-.25.51.51,0,0,1,.17,0,1,1,0,0,0,.46,0,.18.18,0,0,0,.12-.05,1.46,1.46,0,0,1-.39-.1,1.5,1.5,0,0,1-.34-.2l-.05,0a.74.74,0,0,0-.48,0,.66.66,0,0,1,.55-.17.55.55,0,0,1,.17,0,1.12,1.12,0,0,0,.44.09.32.32,0,0,0,.14,0,1.68,1.68,0,0,1-.37-.16,1.29,1.29,0,0,1-.31-.26l0,0a.71.71,0,0,0-.47-.11.63.63,0,0,1,.57-.08.51.51,0,0,1,.15.07.94.94,0,0,0,.43.16h.14a2,2,0,0,1-.34-.22,1.58,1.58,0,0,1-.27-.3l0,0a.69.69,0,0,0-.45-.18.69.69,0,0,1,.58,0l.14.11a.94.94,0,0,0,.39.22.34.34,0,0,0,.14,0,1.39,1.39,0,0,1-.3-.27,1.68,1.68,0,0,1-.22-.33s0,0,0-.05a.71.71,0,0,0-.41-.25.69.69,0,0,1,.57.1l.12.12a.9.9,0,0,0,.36.28.22.22,0,0,0,.13,0,1.57,1.57,0,0,1-.26-.31,1.77,1.77,0,0,1-.15-.37l0-.05a.75.75,0,0,0-.36-.31.64.64,0,0,1,.54.19.36.36,0,0,1,.1.14,1.22,1.22,0,0,0,.31.33.38.38,0,0,0,.13.06,2.12,2.12,0,0,1-.21-.35,1.84,1.84,0,0,1-.1-.39v-.05a.69.69,0,0,0-.31-.36.67.67,0,0,1,.51.26l.08.16a.84.84,0,0,0,.25.37.21.21,0,0,0,.11.08,1.28,1.28,0,0,1-.14-.38,1.77,1.77,0,0,1,0-.39V26a.74.74,0,0,0-.25-.41.67.67,0,0,1,.46.35.43.43,0,0,1,0,.16.86.86,0,0,0,.19.41.21.21,0,0,0,.11.1,1.55,1.55,0,0,1-.09-.4,2.19,2.19,0,0,1,0-.4.07.07,0,0,0,0,0,.7.7,0,0,0-.19-.44.65.65,0,0,1,.4.41.51.51,0,0,1,0,.17,1,1,0,0,0,.12.44.31.31,0,0,0,.09.11,1.2,1.2,0,0,1,0-.41,1.37,1.37,0,0,1,.08-.39v-.05a.69.69,0,0,0-.11-.47.67.67,0,0,1,.33.47,1,1,0,0,1,0,.17,1,1,0,0,0,0,.46.47.47,0,0,0,.07.12,2.09,2.09,0,0,1,0-.41,1.38,1.38,0,0,1,.15-.37.17.17,0,0,1,0-.05.75.75,0,0,0,0-.48.67.67,0,0,1,.25.52.51.51,0,0,1,0,.17,1,1,0,0,0,0,.45.19.19,0,0,0,0,.13,1.46,1.46,0,0,1,.1-.39,1.5,1.5,0,0,1,.2-.34l0-.05a.75.75,0,0,0,0-.48.66.66,0,0,1,.17.55.55.55,0,0,1-.05.17,1.08,1.08,0,0,0-.09.44.32.32,0,0,0,0,.14,1.33,1.33,0,0,1,.16-.37,1.29,1.29,0,0,1,.26-.31l0-.05a.68.68,0,0,0,.11-.46.62.62,0,0,1,.08.57.51.51,0,0,1-.07.15.94.94,0,0,0-.16.42.24.24,0,0,0,0,.15A1.35,1.35,0,0,1,526.21,26.13Z"/><line class="cls-29" x1="513.2" y1="44.93" x2="513.2" y2="22.27"/><rect class="cls-24" x="513.2" y="21.47" width="23.88" height="15.15"/><polyline class="cls-30" points="426.99 180.31 426.8 153.45 424.72 153.28 424.12 145.76 421.66 145.59 421.19 137.31 417.24 137.01 417.24 133.74 411.72 133.27 411.72 131.24 373.85 126.29 372.12 128.06 366.81 128 366.24 129.39 361.62 129.64 361.56 133 358.64 133.38 358.58 138 358.58 181.6"/><path class="cls-30" d="M377.24,126.73l-3.62-.21,2.49-2.89.57-1.9-.06-4.55,1.07-1.9.44-2.79-1.28.16-1.05,1.53-2.58-.06-.24-.92,1.87-.55.34-1.05-.22-1.19-.49-.4-.09-1.54-.83-.43-.83.49-.15,1.39-.77,1.41-4.39,0L365,109.61l-1.63.27-.21,3.2-.28.64.28,1.23.21,1.84,2.27.15.16,3.14-1.11,1.1-1.32-.83-1-2.33-1.51-1.44.16-4,.46-2.61-.34-2,1.26-1.59,6.11.24.89-1.35.06-5.22,1-1.69.19-1.87-.1-3.83.53-1.23.52-1.63,0-1-.59-.77-1.53,1.14-1.2.3v2.61l-1.26,2.12-1.19-.4-.09-1.07.58-.83L366,91.5l-.8,1.16-.06,1.08-.55.12-1.51-1.32L363,91.41l.8-2.31.28-2.76L365.18,84,365,81.92l.33-2.64,2.28-1.87,1.16.18,2-.92,2.54.8L375.4,77l.74,1.63,2.95.46,1.13,1.66,1.87.73,2,3,.06.68-3.38-.1-.58,1.81.31.65.89.31.31,1.41,2.7.27.73-.7,0-2.24.74-1.91.06-2.21,1.57-2,.3-2L387.13,77l-.28-1.44L386,74.09l.4-2,.86-.86.92-.52.15-3.81-.73-1.29.4-1.44,1.72-.34,1.9,1.6.18,1.6-.37,1.68-1.35-1-.89-1-.21,3.87,1.63,1.16.67,1.42-.09,2.14.12,1.14.52,1.1,1.72.53.77,1.53,1.6.15L397,81.22l2.33-.13,1.26,1-.46,2.55.52,1.23,1.75,1.07,1.63.5.28,1.1.67.86-3.16.12-1.07-.67-1.05-.28-.43.8-.4.7-2.54.25-1.6-.37-.95-.52-1.44.55.18,1.23,1.35.28.37.37,2.18.39,4.27,1,3.22.64,4.63.18,2.7,0,2.15-.37,3.53.86-1.23.21-3.92.19-4.45,1.35L404,95.89l-3.59-1-4.45-1.44-1.69-.4-.77,1.51,2.12,1.84,1.87,1,3.26.31,3,1,1.05.58,2.12.24,2.59.28,1.8.91.78,2.28-.25,3-.63,3.35L408.88,114l-2.33,4.83-1.48,3.63-1.08.09.95,7.81-2.62-.34.09-2.48-.69-2.46-.51-1.9-1.29-.12-.91,1.61-.54.41v.5l1.42.38.38,1-1.18,2.6-1.82-.24-.6-1.32-.22-3.5,3-4.2-2.69-2-2.14-2.12-1.33-2-.91-2.43-1.08.22-2.49.63-3.28-.22-3.57-1.07-.88,1.39-.35,1.67-1.07,2.4-.26,2.27-1,3.06-.25,2.84-1.1.64.2,1.09Zm22.9-9.81-.32-3,1,1,.46,2.43-1.1-.46Zm7.12-14.73-1.28.24-.08,4.85-.38,1.16,0,1.39,1.42-1L408,107l.78-1.88-.58-1.93-1-1Zm-25-10.38.29-1.33,1.94.14.17,1.19L384.06,93l-.78.11-.44-1Z"/><polyline class="cls-30" points="403.36 180.72 403.2 157.42 401.44 157.27 400.94 150.75 398.87 150.6 398.47 143.41 395.14 143.15 395.14 140.31 390.49 139.91 390.49 138.15 358.58 133.85"/></g></g></svg>