<svg xmlns="http://www.w3.org/2000/svg" viewBox="0 0 65.34 65.34"><defs><style>.cls-1,.cls-2,.cls-3,.cls-4,.cls-7{fill:none;}.cls-1,.cls-2,.cls-3,.cls-5{stroke:#464545;}.cls-1,.cls-2{stroke-linecap:round;}.cls-1,.cls-2,.cls-5{stroke-linejoin:round;}.cls-1,.cls-3,.cls-4,.cls-5,.cls-6{fill-rule:evenodd;}.cls-3,.cls-4{stroke-miterlimit:10;}.cls-4,.cls-7{stroke:#c9d300;}.cls-5{fill:#c9d300;}.cls-6{fill:#464545;}.cls-7{stroke-miterlimit:22.93;stroke-width:2.13px;stroke-dasharray:2.13 2.13;}</style></defs><g id="Шар_2" data-name="Шар 2"><g id="participants"><path class="cls-1" d="M41.74,52.16H23.6m6.28-2.79h5.58m3.49,0a2.79,2.79,0,0,1,2.79,2.79M26.39,49.37H39M23.6,52.16a2.79,2.79,0,0,1,2.79-2.79"/><line class="cls-2" x1="20.81" y1="15.4" x2="20.81" y2="23.77"/><path class="cls-3" d="M35.46,48.91c-1.25-5.83-1.35-7.9-.34-13.76a11.87,11.87,0,0,0,9.41-11.61m-23.72,0a11.86,11.86,0,0,0,9.41,11.61c1,5.86.91,7.93-.34,13.76"/><polyline class="cls-1" points="44.53 23.77 44.53 15.4 20.81 15.4"/><path class="cls-1" d="M44.53,21A3.49,3.49,0,0,0,48,17.49"/><polyline class="cls-1" points="48.02 17.49 52.91 17.49 52.91 19.58"/><path class="cls-3" d="M52.91,19.58a9.77,9.77,0,0,1-9.77,9.77"/><path class="cls-1" d="M20.81,21a3.49,3.49,0,0,1-3.49-3.49"/><polyline class="cls-1" points="17.32 17.49 12.43 17.49 12.43 19.58"/><path class="cls-3" d="M12.43,19.58a9.77,9.77,0,0,0,9.77,9.77"/><path class="cls-4" d="M47.32,39.82a4.19,4.19,0,0,0-4.18-4.19,4.18,4.18,0,0,0,4.18-4.18,4.19,4.19,0,0,0,4.19,4.18A4.2,4.2,0,0,0,47.32,39.82Z"/><path class="cls-4" d="M18,47.5a4.19,4.19,0,0,0-4.19-4.19A4.19,4.19,0,0,0,18,39.12a4.18,4.18,0,0,0,4.18,4.19A4.18,4.18,0,0,0,18,47.5Z"/><path class="cls-5" d="M32.67,30.6a6.21,6.21,0,1,0-6.21-6.21A6.22,6.22,0,0,0,32.67,30.6Z"/><path class="cls-6" d="M34.84,25.38a1.43,1.43,0,0,1-.43,1,2.11,2.11,0,0,1-1.24.56v.79h-.85V27a4.73,4.73,0,0,1-1-.19,2.58,2.58,0,0,1-.8-.36l.47-1a2.8,2.8,0,0,0,.78.35,2.72,2.72,0,0,0,.87.14c.55,0,.82-.14.82-.41a.35.35,0,0,0-.23-.32,5.06,5.06,0,0,0-.75-.21,7.62,7.62,0,0,1-.95-.27,1.6,1.6,0,0,1-.65-.44,1.22,1.22,0,0,1-.27-.83A1.46,1.46,0,0,1,31,22.35a2.19,2.19,0,0,1,1.29-.54V21h.85v.78a4,4,0,0,1,.79.14,2.7,2.7,0,0,1,.67.28l-.44,1.05a2.91,2.91,0,0,0-1.39-.39,1.18,1.18,0,0,0-.61.13.38.38,0,0,0-.2.33.33.33,0,0,0,.23.3,5.1,5.1,0,0,0,.74.2,7.3,7.3,0,0,1,.95.26,1.73,1.73,0,0,1,.65.45A1.21,1.21,0,0,1,34.84,25.38Z"/><circle class="cls-7" cx="32.67" cy="32.67" r="31.61" transform="translate(-8.04 10.82) rotate(-16.77)"/></g></g></svg>