<svg xmlns="http://www.w3.org/2000/svg" viewBox="0 0 65.34 65.34"><defs><style>.cls-1,.cls-4{fill:#c9d300;}.cls-1,.cls-2,.cls-3,.cls-4{stroke:#464545;stroke-linecap:round;}.cls-1,.cls-2,.cls-3,.cls-4,.cls-5{stroke-miterlimit:10;}.cls-2,.cls-3,.cls-5,.cls-6{fill:none;}.cls-2,.cls-4,.cls-5{fill-rule:evenodd;}.cls-5,.cls-6{stroke:#c9d300;}.cls-6{stroke-miterlimit:22.93;stroke-width:2.13px;stroke-dasharray:2.13 2.13;}</style></defs><g id="Шар_2" data-name="Шар 2"><g id="participants"><circle class="cls-1" cx="32.67" cy="30.97" r="3.41"/><polyline class="cls-2" points="32.67 42.57 34.72 50.76 38.13 50.76 36.08 41.89 36.08 37.11 37.45 37.11"/><path class="cls-2" d="M37.45,37.11A4.09,4.09,0,0,0,41.54,33"/><polyline class="cls-2" points="41.54 33.02 41.54 27.56 38.81 27.56 38.81 33.02"/><path class="cls-2" d="M38.81,33a1.36,1.36,0,0,1-1.36,1.36"/><line class="cls-3" x1="37.45" y1="34.38" x2="27.89" y2="34.38"/><path class="cls-2" d="M27.89,34.38A1.36,1.36,0,0,1,26.53,33"/><polyline class="cls-2" points="26.53 33.02 26.53 27.56 23.8 27.56 23.8 33.02"/><path class="cls-2" d="M23.8,33a4.09,4.09,0,0,0,4.09,4.09"/><polyline class="cls-2" points="27.89 37.11 29.26 37.11 29.26 41.89 27.21 50.76 30.62 50.76 32.67 42.57"/><path class="cls-4" d="M49.73,33.7A2.73,2.73,0,1,1,47,31,2.73,2.73,0,0,1,49.73,33.7Z"/><line class="cls-3" x1="46.32" y1="36.43" x2="42.91" y2="36.43"/><path class="cls-2" d="M42.91,36.43a1.36,1.36,0,0,1-1.37-1.36"/><line class="cls-3" x1="41.54" y1="35.07" x2="41.54" y2="33.02"/><path class="cls-2" d="M41.54,33a4.09,4.09,0,0,1-2.37,3.71,4.1,4.1,0,0,0,3.74,2.43"/><polyline class="cls-2" points="42.91 39.16 44.27 39.16 44.27 43.94 42.91 50.76 45.64 50.76 47 44.62 49.05 43.94 49.05 39.16"/><path class="cls-2" d="M49.05,39.16a2.73,2.73,0,0,0-2.73-2.73"/><polygon class="cls-2" points="49.05 43.94 49.05 43.94 47 44.62 46.9 45.09 49.73 50.76 52.46 50.76 49.05 43.94"/><path class="cls-4" d="M15.61,33.7A2.73,2.73,0,1,0,18.34,31,2.73,2.73,0,0,0,15.61,33.7Z"/><line class="cls-3" x1="19.02" y1="36.43" x2="22.43" y2="36.43"/><path class="cls-2" d="M22.43,36.43a1.36,1.36,0,0,0,1.37-1.36"/><line class="cls-3" x1="23.8" y1="35.07" x2="23.8" y2="33.02"/><path class="cls-2" d="M23.8,33a4.09,4.09,0,0,0,2.37,3.71,4.1,4.1,0,0,1-3.74,2.43"/><polyline class="cls-2" points="22.43 39.16 21.07 39.16 21.07 43.94 22.43 50.76 19.7 50.76 18.34 44.62 16.29 43.94 16.29 39.16"/><path class="cls-2" d="M16.29,39.16A2.73,2.73,0,0,1,19,36.43"/><polygon class="cls-2" points="16.29 43.94 16.29 43.94 18.34 44.62 18.44 45.09 15.61 50.76 12.88 50.76 16.29 43.94"/><path class="cls-2" d="M41.54,11.18a8.87,8.87,0,1,1-17.74,0"/><line class="cls-3" x1="23.8" y1="11.18" x2="41.54" y2="11.18"/><path class="cls-5" d="M36.53,16a6.1,6.1,0,0,1-3.86,1.37"/><path class="cls-5" d="M38.17,13.91a6.3,6.3,0,0,1-.93,1.36"/><line class="cls-3" x1="38.81" y1="27.56" x2="26.53" y2="27.56"/><path class="cls-2" d="M26.53,27.56a2.73,2.73,0,0,1,2.73-2.73"/><line class="cls-3" x1="29.26" y1="24.83" x2="36.08" y2="24.83"/><path class="cls-2" d="M36.08,24.83a2.73,2.73,0,0,1,2.73,2.73"/><line class="cls-3" x1="32.67" y1="20.05" x2="32.67" y2="24.83"/><line class="cls-3" x1="24.04" y1="13.22" x2="21.07" y2="13.22"/><path class="cls-2" d="M21.07,13.22a4.09,4.09,0,0,0,4.09,4.1"/><line class="cls-3" x1="25.16" y1="17.32" x2="26.28" y2="17.32"/><path class="cls-2" d="M26.28,17.32A8.83,8.83,0,0,1,24,13.22"/><path class="cls-2" d="M41.3,13.22a8.83,8.83,0,0,1-2.24,4.1"/><line class="cls-3" x1="39.06" y1="17.32" x2="40.18" y2="17.32"/><path class="cls-2" d="M40.18,17.32a4.09,4.09,0,0,0,4.09-4.1"/><line class="cls-3" x1="44.27" y1="13.22" x2="41.3" y2="13.22"/><circle class="cls-6" cx="32.67" cy="32.67" r="31.61" transform="translate(-8.04 10.82) rotate(-16.77)"/></g></g></svg>