<svg xmlns="http://www.w3.org/2000/svg" viewBox="0 0 65.34 65.34"><defs><style>.cls-1,.cls-2,.cls-3,.cls-4,.cls-5{fill:none;}.cls-1{stroke:#464545;}.cls-1,.cls-2,.cls-3,.cls-4{stroke-miterlimit:10;}.cls-1,.cls-2,.cls-4{fill-rule:evenodd;}.cls-2,.cls-3,.cls-4,.cls-5{stroke:#c9d300;}.cls-4{stroke-width:2.55px;}.cls-5{stroke-miterlimit:22.93;stroke-width:2.13px;stroke-dasharray:2.13 2.13;}</style></defs><g id="Шар_2" data-name="Шар 2"><g id="participants"><path class="cls-1" d="M25.43,23.76a3.62,3.62,0,1,1-3.62-3.62A3.62,3.62,0,0,1,25.43,23.76Z"/><polyline class="cls-1" points="18.19 31 18.19 50.31 21.81 50.31 21.81 38.24"/><polyline class="cls-1" points="18.19 38.85 15.17 38.85 15.17 29.8"/><path class="cls-1" d="M15.17,29.79a2.41,2.41,0,0,1,2.41-2.41"/><path class="cls-1" d="M39.91,23.76a3.62,3.62,0,1,0,3.62-3.62A3.62,3.62,0,0,0,39.91,23.76Z"/><polyline class="cls-1" points="47.15 31 47.15 50.31 43.53 50.31 43.53 38.24"/><polyline class="cls-1" points="47.15 38.85 50.17 38.85 50.17 29.8"/><path class="cls-1" d="M50.17,29.79a2.41,2.41,0,0,0-2.41-2.41"/><path class="cls-1" d="M22.41,24.36a1.81,1.81,0,0,0,1.81,1.81"/><path class="cls-1" d="M42.93,24.36a1.81,1.81,0,0,1-1.81,1.81"/><polyline class="cls-2" points="20 27.38 21.81 31 23.62 27.38"/><line class="cls-3" x1="43.53" y1="27.38" x2="43.53" y2="34.62"/><polyline class="cls-1" points="47.76 27.38 39.91 27.38 32.67 22.55 32.67 26.78 39.91 31.61 39.91 50.31 43.53 50.31 43.53 38.24"/><polyline class="cls-1" points="17.58 27.38 25.43 27.38 32.67 22.55 32.67 26.78 25.43 31.61 25.43 50.31 21.81 50.31 21.81 38.24"/><path class="cls-4" d="M36.29,18.65A3.62,3.62,0,1,1,32.67,15,3.62,3.62,0,0,1,36.29,18.65Z"/><circle class="cls-5" cx="32.67" cy="32.67" r="31.61" transform="translate(-6.51 8.18) rotate(-12.99)"/></g></g></svg>