<svg xmlns="http://www.w3.org/2000/svg" viewBox="0 0 65.34 65.34"><defs><style>.cls-1,.cls-2,.cls-3,.cls-4,.cls-6,.cls-7,.cls-8{fill:none;}.cls-1,.cls-2,.cls-4,.cls-5,.cls-7{stroke:#464545;}.cls-1,.cls-2,.cls-3,.cls-4,.cls-5,.cls-6{stroke-miterlimit:10;}.cls-2,.cls-3,.cls-4,.cls-5{fill-rule:evenodd;}.cls-3,.cls-6,.cls-8{stroke:#c9d300;}.cls-4{stroke-linecap:round;}.cls-5{fill:#c9d300;}.cls-7{stroke-linejoin:round;}.cls-8{stroke-miterlimit:22.93;stroke-width:2.13px;stroke-dasharray:2.13 2.13;}</style></defs><g id="Шар_2" data-name="Шар 2"><g id="participants"><line class="cls-1" x1="46.54" y1="49.69" x2="18.17" y2="49.69"/><path class="cls-2" d="M18.17,49.69a2.52,2.52,0,0,1-2.52-2.52"/><line class="cls-1" x1="15.65" y1="47.17" x2="15.65" y2="18.8"/><path class="cls-2" d="M15.65,18.8a2.52,2.52,0,0,1,2.52-2.52"/><line class="cls-1" x1="18.17" y1="16.28" x2="46.54" y2="16.28"/><path class="cls-2" d="M46.54,16.28a2.52,2.52,0,0,1,2.52,2.52"/><line class="cls-1" x1="49.06" y1="18.8" x2="49.06" y2="47.17"/><path class="cls-2" d="M49.06,47.17a2.52,2.52,0,0,1-2.52,2.52"/><polyline class="cls-2" points="18.8 15.65 18.8 16.28 46.54 16.28"/><path class="cls-2" d="M46.54,16.28a2.52,2.52,0,0,1,2.52,2.52"/><polyline class="cls-2" points="49.06 18.8 49.06 46.54 49.69 46.54"/><line class="cls-1" x1="15.65" y1="21.32" x2="49.06" y2="21.32"/><path class="cls-3" d="M22.58,18.8h1.27m-6.31,0H18.8m1.26,0h1.26"/><path class="cls-2" d="M25.11,26.37A6.93,6.93,0,1,0,32,33.3"/><polyline class="cls-4" points="32.04 33.3 25.11 33.3 25.11 26.37"/><path class="cls-5" d="M34.56,30.78a6.93,6.93,0,0,0-6.93-6.93v6.93Z"/><line class="cls-1" x1="25.11" y1="32.67" x2="20.69" y2="37.71"/><line class="cls-6" x1="18.17" y1="43.39" x2="32.67" y2="43.39"/><line class="cls-6" x1="18.17" y1="46.54" x2="32.67" y2="46.54"/><line class="cls-6" x1="27" y1="42.13" x2="27" y2="44.65"/><line class="cls-6" x1="22.58" y1="45.28" x2="22.58" y2="47.8"/><line class="cls-6" x1="45.28" y1="23.85" x2="45.28" y2="37.71"/><line class="cls-6" x1="42.13" y1="23.85" x2="42.13" y2="37.71"/><line class="cls-6" x1="46.54" y1="32.04" x2="44.02" y2="32.04"/><line class="cls-6" x1="43.39" y1="27.63" x2="40.86" y2="27.63"/><line class="cls-6" x1="38.34" y1="23.85" x2="38.34" y2="37.71"/><line class="cls-6" x1="39.6" y1="30.15" x2="37.08" y2="30.15"/><rect class="cls-7" x="34.56" y="39.6" width="11.35" height="6.93"/><polyline class="cls-2" points="34.56 45.91 37.71 42.76 40.23 44.02 43.39 42.13 45.91 44.02"/><circle class="cls-8" cx="32.67" cy="32.67" r="31.61" transform="translate(-9.97 14.88) rotate(-22.35)"/></g></g></svg>