<svg xmlns="http://www.w3.org/2000/svg" viewBox="0 0 65.34 65.34"><defs><style>.cls-1,.cls-3,.cls-4{fill:none;}.cls-1,.cls-2{stroke:#464545;}.cls-1,.cls-3{stroke-miterlimit:10;}.cls-1,.cls-2,.cls-3{fill-rule:evenodd;}.cls-2{fill:#c9d300;stroke-linejoin:round;}.cls-3,.cls-4{stroke:#c9d300;}.cls-4{stroke-miterlimit:22.93;stroke-width:2.13px;stroke-dasharray:2.13 2.13;}</style></defs><g id="Шар_2" data-name="Шар 2"><g id="participants"><path class="cls-1" d="M47.35,15a2.68,2.68,0,1,1-2.68-2.68A2.68,2.68,0,0,1,47.35,15Z"/><path class="cls-1" d="M44.67,17.68A5.36,5.36,0,0,0,39.31,23H50A5.36,5.36,0,0,0,44.67,17.68Z"/><path class="cls-1" d="M47.35,29.07a2.68,2.68,0,1,1-2.68-2.68A2.68,2.68,0,0,1,47.35,29.07Z"/><path class="cls-1" d="M47.35,43.13a2.68,2.68,0,1,1-2.68-2.68A2.68,2.68,0,0,1,47.35,43.13Z"/><path class="cls-2" d="M31.09,33.56a1.44,1.44,0,0,0,1.45-1.44V29.23a1.44,1.44,0,0,0-1.45-1.44H26a1.44,1.44,0,0,0-1.45,1.44v1.45L21.7,33.56Z"/><path class="cls-3" d="M20.55,23.71v-8H35.29"/><path class="cls-1" d="M44.67,31.75a5.35,5.35,0,0,0-5.36,5.35H50A5.35,5.35,0,0,0,44.67,31.75Z"/><path class="cls-1" d="M44.67,45.81a5.36,5.36,0,0,0-5.36,5.36H50A5.36,5.36,0,0,0,44.67,45.81Z"/><path class="cls-1" d="M26.68,30.68H28m1,0h1.34"/><circle class="cls-4" cx="32.67" cy="32.67" r="31.61" transform="translate(-9.97 14.88) rotate(-22.35)"/><path class="cls-3" d="M20.55,42.57V48.7h15"/></g></g></svg>