<svg xmlns="http://www.w3.org/2000/svg" viewBox="0 0 732.71 403.1">
    <defs>
        <style>
            .cls-1{fill:#7e7e7d;}.cls-1,.cls-6{fill-rule:evenodd;}.cls-1,.cls-2,.cls-3{opacity:0.1;}.cls-2,.cls-3,.cls-4,.cls-5{fill:none;stroke-miterlimit:22.93;}.cls-2,.cls-3{stroke:#7e7e7d;stroke-width:1.42px;}.cls-2{stroke-dasharray:7.09
            4.25;}.cls-4{stroke:#ef8055;}.cls-4,.cls-5{stroke-width:0.57px;}.cls-5{stroke:#27b2a3;}.cls-6{fill:#ef8055;}
        </style>
    </defs>
    <g id="Шар_2" data-name="Шар 2">
        <g id="open_contracting" data-name="open contracting">
            <path class="cls-1" d="M643.21,0A101.46,101.46,0,1,1,537.88,0h2.79a100,100,0,1,0,99.76,0Z"/>
            <circle class="cls-2" cx="606.08" cy="257.71" r="125.92"/>
            <circle class="cls-3" cx="382.55" cy="219.99" r="125.92" transform="translate(-43.51 334.94) rotate(-45)"/>
            <path class="cls-1"
                  d="M467.42,0V.53a62.72,62.72,0,0,1,7,.4l.11-.93ZM459,0h7.12l0,.55a60.23,60.23,0,0,0-7,.55L459,0Zm-4.28.43a56.88,56.88,0,0,0-6.91,1.88l.45,1.34A58.71,58.71,0,0,1,455,1.81l-.3-1.38ZM443.78,3.82A60.73,60.73,0,0,0,437.34,7L438,8.19a59.09,59.09,0,0,1,6.3-3.07l-.55-1.3ZM433.66,9.18a59.94,59.94,0,0,0-5.75,4.28l.91,1.08a60.06,60.06,0,0,1,5.62-4.17l-.78-1.19Zm-9,7.15a60.42,60.42,0,0,0-4.86,5.26l1.09.9a59.36,59.36,0,0,1,4.76-5.14l-1-1ZM417.23,25a60.54,60.54,0,0,0-3.81,6.07l1.24.68a60.81,60.81,0,0,1,3.73-5.93L417.23,25Zm-5.75,9.91a61.5,61.5,0,0,0-2.62,6.67l1.35.44a60.79,60.79,0,0,1,2.56-6.52l-1.29-.59Zm-3.81,10.81a64.5,64.5,0,0,0-1.33,7l1.41.18a60,60,0,0,1,1.3-6.88l-1.38-.33ZM405.94,57a63.34,63.34,0,0,0,0,7.16l1.42-.08a60.54,60.54,0,0,1,0-7L405.94,57Zm.38,11.44a60.31,60.31,0,0,0,1.31,7l1.38-.35a57.08,57.08,0,0,1-1.28-6.88l-1.41.18Zm2.49,11.18a60.75,60.75,0,0,0,2.6,6.68l1.29-.59a58.64,58.64,0,0,1-2.54-6.52l-1.35.43Zm4.53,10.53a62.23,62.23,0,0,0,3.79,6.07l1.16-.82a59.6,59.6,0,0,1-3.71-5.94l-1.24.69Zm6.4,9.49a62.17,62.17,0,0,0,4.85,5.28l1-1a62.58,62.58,0,0,1-4.74-5.16l-1.09.9Zm8,8.16a63,63,0,0,0,5.74,4.29l.78-1.19a61.48,61.48,0,0,1-5.61-4.19l-.91,1.09Zm9.41,6.53a59.9,59.9,0,0,0,6.44,3.15l.54-1.31a59,59,0,0,1-6.29-3.08l-.69,1.24Zm10.46,4.68a63.58,63.58,0,0,0,6.91,1.89l.29-1.38a63,63,0,0,1-6.75-1.86l-.45,1.35Zm11.14,2.64a65.62,65.62,0,0,0,7.15.58l0-1.42a62.55,62.55,0,0,1-7-.56l-.2,1.4Zm11.45.54a62.93,62.93,0,0,0,7.12-.74l-.23-1.4a60.3,60.3,0,0,1-7,.72l.08,1.42Zm11.34-1.58a60.85,60.85,0,0,0,6.87-2l-.49-1.33a60.13,60.13,0,0,1-6.71,2l.33,1.37ZM492.44,117a62.68,62.68,0,0,0,6.36-3.29l-.73-1.22a60,60,0,0,1-6.22,3.22l.59,1.29Zm10-5.61a60,60,0,0,0,5.65-4.42l-.94-1.06a57.24,57.24,0,0,1-5.52,4.31l.81,1.17Zm8.77-7.36a62,62,0,0,0,4.74-5.38l-1.12-.87a60.64,60.64,0,0,1-4.62,5.25l1,1Zm7.27-8.85A59.89,59.89,0,0,0,522.13,89l-1.26-.65a57.7,57.7,0,0,1-3.58,6l1.17.8ZM524,85.13a61.5,61.5,0,0,0,2.46-6.73l-1.36-.4a60.65,60.65,0,0,1-2.4,6.57l1.3.56Zm3.55-10.89c.48-2.4.9-4.62,1.15-7.07L527.26,67c-.25,2.39-.66,4.55-1.13,6.9l1.39.31ZM529,62.88a63.34,63.34,0,0,0-.16-7.16l-1.41.11a65.43,65.43,0,0,1,.16,7l1.41.05Zm-.65-11.43a62.09,62.09,0,0,0-1.48-7l-1.37.38a59.14,59.14,0,0,1,1.45,6.85l1.4-.21Zm-2.76-11.12a61.81,61.81,0,0,0-2.76-6.61l-1.28.62a57.93,57.93,0,0,1,2.7,6.46l1.34-.47Zm-4.78-10.41a64.26,64.26,0,0,0-3.94-6l-1.14.84a60.8,60.8,0,0,1,3.85,5.85l1.23-.71Zm-6.63-9.34a63.86,63.86,0,0,0-5-5.16l-1,1a62.48,62.48,0,0,1,4.86,5l1.08-.93Zm-8.24-8a63,63,0,0,0-5.84-4.15l-.75,1.2A61.51,61.51,0,0,1,505,13.73l.88-1.11Zm-9.56-6.3a60.75,60.75,0,0,0-6.51-3l-.51,1.32a61.8,61.8,0,0,1,6.35,2.93l.67-1.25ZM485.78,1.9A59.3,59.3,0,0,0,478.83.17l-.26,1.39a59.08,59.08,0,0,1,6.79,1.69Z"/>
            <circle class="cls-3" cx="107.79" cy="219.02" r="86"/>
            <circle class="cls-3" cx="179.54" cy="296.99" r="105.4" transform="translate(-0.99 0.6) rotate(-0.19)"/>
            <circle class="cls-2" cx="55.05" cy="83.54" r="54.34" transform="translate(-40 114.77) rotate(-74.81)"/>
            <circle class="cls-3" cx="249.86" cy="137.86" r="125.92" transform="translate(-24.3 217.06) rotate(-45)"/>
            <circle class="cls-4" cx="284.93" cy="301.94" r="2.35"/>
            <circle class="cls-5" cx="669.83" cy="149.1" r="4.95"/>
            <path class="cls-6" d="M513.87,23.15a1.8,1.8,0,1,0-1.8-1.8A1.81,1.81,0,0,0,513.87,23.15Z"/>
        </g>
    </g>
</svg>