<svg xmlns="http://www.w3.org/2000/svg" viewBox="0 0 109.2 106.98">
    <defs>
        <style>.cls-1{isolation:isolate;}.cls-2{fill:#f6f6f6;fill-rule:evenodd;mix-blend-mode:multiply;}</style>
    </defs>
    <g class="cls-1">
        <g id="Шар_2" data-name="Шар 2">
            <g id="objectives">
                <path class="cls-2"
                      d="M109.18,50.07c-.09.33-.07,6-3,4.13-2-1.27,3.4-5.55,3-4.13Zm-52.26,55.3c-.33-.08-5.23-2.85-5.08.62.11,2.39,6.5-.26,5.08-.62Zm46.75-28.66c-.34-.09-5.24-2.86-5.08.61.1,2.4,6.5-.25,5.08-.61ZM82.58,99.9c-.34-.09-5.23-2.86-5.08.61.11,2.4,6.5-.25,5.08-.61Zm2.35-7.43c.09.34.07,6,3,4.13,2-1.26-3.4-5.54-3-4.13Zm-15.18,10c-.09.33-.07,6-3,4.13-2-1.27,3.4-5.55,3-4.13ZM90.06,85.91c-.34-.09-5.24-2.86-5.08.61.1,2.4,6.5-.25,5.08-.61Zm8.34.21c-.19-.29-1.9-5.65-4.15-3-1.54,1.83,5,4.23,4.15,3ZM40.31,23.56c-.09.34-.08,6-3,4.13-2-1.27,3.41-5.54,3-4.13Zm8.24,0c-.19-.3-1.91-5.65-4.15-3-1.55,1.83,5,4.22,4.15,3ZM34.41,17c-.09.33-.07,6-3,4.13-2-1.27,3.4-5.55,3-4.13Zm7.85-1.16c1.41.36-5,3-5.08.61-.16-3.47,4.74-.7,5.08-.61Zm7.12-1.63c-.19-.3-1.91-5.65-4.15-3-1.55,1.83,4.94,4.23,4.15,3ZM31.71,23.26c-.34-.09-5.23-2.86-5.08.61.1,2.4,6.5-.25,5.08-.61Zm9.81,73.3c-.09.34-.08,6-3,4.13-2-1.27,3.41-5.54,3-4.13Zm-7.44,1.72c-.33-.09-5.23-2.86-5.08.61.11,2.4,6.5-.25,5.08-.61Zm.71-67.54c-.34-.08-5.24-2.85-5.08.62.1,2.39,6.5-.25,5.08-.62ZM11.27,85.05c-.19-.3-1.9-5.65-4.15-3-1.54,1.83,5,4.22,4.15,3Zm6.49.47c-.09.34-.08,6-3,4.13-2-1.26,3.4-5.54,3-4.13ZM32.2,48.11c-.33-.09-5.23-2.86-5.08.61.11,2.39,6.5-.25,5.08-.61Zm-7,40.53c-.19-.29-1.9-5.65-4.14-3-1.55,1.83,4.94,4.23,4.14,3Zm-2.33,5c-.34-.09-5.24-2.85-5.08.61.1,2.4,6.5-.25,5.08-.61ZM16.31,77.41c-.09.34-.07,6-3,4.13-2-1.27,3.4-5.54,3-4.13ZM23.65,80c-.19-.29-1.9-5.65-4.14-3C18,78.8,24.45,81.2,23.65,80Zm25,12.14c-.34-.09-5.23-2.85-5.08.61.1,2.4,6.5-.25,5.08-.61ZM41.09,49.42c-.09.34-.07,6-3,4.13-2-1.26,3.4-5.54,3-4.13ZM37.16,11.73c-.34-.08-5.23-2.85-5.08.62.1,2.39,6.5-.26,5.08-.62Zm8,25.35c-.19-.29-1.91-5.64-4.15-3-1.55,1.83,5,4.22,4.15,3ZM62,.28c-.09.34-.07,6-3,4.13-2-1.26,3.4-5.54,3-4.13ZM39.72,41.7c-.1.33-.08,6-3,4.13-2-1.27,3.41-5.55,3-4.13Zm58,30.6c1.41.36-5,3-5.09.61-.15-3.47,4.75-.7,5.09-.61ZM106,42.44c-.19-.29-1.91-5.64-4.15-3-1.55,1.84,5,4.23,4.15,3Zm-23.48,17c-.09.33-.07,6-3,4.13-2-1.27,3.4-5.55,3-4.13Zm5-16.53c-.33-.08-5.23-2.85-5.08.62.11,2.39,6.5-.26,5.08-.62Zm5.76-1.24c-.09.33-.07,6-3,4.13-2-1.27,3.4-5.55,3-4.13Zm-10,7.29c-.34-.08-5.23-2.85-5.08.62.1,2.39,6.5-.26,5.08-.62Zm6.43,9c-.19-.29-1.91-5.65-4.15-3-1.55,1.83,4.94,4.22,4.15,3Zm3.7,6.75c.38-1.42-5.06,2.86-3,4.13,3,1.83,2.94-3.8,3-4.13Zm3.13-5.45c-.34-.08-5.23-2.85-5.08.62.1,2.39,6.5-.26,5.08-.62Zm2.63-2.34c.8,1.23-5.7-1.17-4.15-3,2.25-2.65,4,2.71,4.15,3Zm-90-14.64c-.09.34-.07,6-3,4.13-2-1.27,3.4-5.54,3-4.13Zm88.05,8.12c-.34-.09-5.23-2.86-5.08.61.11,2.4,6.5-.25,5.08-.61Zm3.28-5.55c.8,1.23-5.7-1.17-4.15-3,2.24-2.65,4,2.71,4.15,3Zm2.48,4.3c.38-1.42-5.06,2.86-3,4.13,3,1.83,2.93-3.79,3-4.13Zm-95,9.47c-.34-.08-5.23-2.85-5.08.62.11,2.39,6.5-.26,5.08-.62Zm2.43-4.36c-.19-.29-1.91-5.64-4.15-3-1.55,1.83,5,4.22,4.15,3Zm6.49.48c-.09.34-.08,6-3,4.13-2-1.26,3.41-5.54,3-4.13ZM8.78,68.15c-.34-.09-5.23-2.85-5.08.61.1,2.4,6.5-.25,5.08-.61Zm2.93-2.8c.79,1.23-5.7-1.16-4.15-3,2.24-2.65,4,2.7,4.15,3Zm9.21-1.87c-.34-.08-5.24-2.85-5.09.62.11,2.39,6.5-.26,5.09-.62Zm5.71-4.84c-.19-.3-1.91-5.65-4.15-3-1.55,1.83,4.95,4.22,4.15,3Zm0,3.59c-.09.34-.07,6-3,4.13-2-1.26,3.4-5.54,3-4.13Zm3.9-25.71c1.42.36-5,3-5.08.61-.15-3.47,4.74-.7,5.08-.61Zm-7.34-7.66c-.19-.3-1.91-5.65-4.15-3-1.55,1.83,4.94,4.23,4.15,3Zm-2.05,3.35c-.09.33-.07,6-3,4.12-2-1.26,3.41-5.54,3-4.12Zm-3.5,41.12c-.34-.09-5.24-2.86-5.09.61.11,2.39,6.5-.25,5.09-.61ZM15.91,42.84c-.19-.3-1.91-5.65-4.15-3-1.55,1.83,4.94,4.22,4.15,3Zm-.37,3.77c-.09.34-.08,6-3,4.13-2-1.27,3.4-5.54,3-4.13Zm7.34,2.56c-.19-.29-1.91-5.65-4.15-3-1.55,1.83,4.95,4.23,4.15,3ZM25.12,41c-.34-.09-5.24-2.86-5.09.61.11,2.39,6.5-.25,5.09-.61Zm2.7,29.31c-.09.34-.07,6-3,4.13-2-1.26,3.4-5.54,3-4.13ZM56.31,44.15c-.09.34-.07,6-3,4.13-2-1.27,3.4-5.54,3-4.13Zm8,.52c-.19-.3-1.91-5.65-4.15-3-1.55,1.83,4.94,4.22,4.15,3ZM32.53,80c-.34-.09-5.23-2.86-5.08.61.11,2.39,6.5-.25,5.08-.61Zm6.78-3.26c.8,1.22-5.7-1.17-4.15-3,2.24-2.65,4,2.7,4.15,3Zm6.49.48c-.09.33-.08,6-3,4.13-2-1.27,3.41-5.55,3-4.13ZM33.37,90.26c-.34-.08-5.24-2.85-5.08.62.1,2.4,6.5-.25,5.08-.62Zm7.15-2.46c-.19-.3-1.91-5.65-4.15-3-1.55,1.83,4.94,4.22,4.15,3Zm9.21-1.87c-.34-.09-5.24-2.86-5.08.61.1,2.39,6.5-.25,5.08-.61Zm5.71-4.85c-.19-.29-1.9-5.65-4.15-3-1.55,1.83,5,4.23,4.15,3Zm0,3.6c-.09.33-.07,6-3,4.13-2-1.27,3.4-5.55,3-4.13ZM38.31,57.18c-.34-.09-5.24-2.85-5.09.61.11,2.4,6.5-.25,5.09-.61ZM49.8,49.71c-.19-.29-1.91-5.65-4.15-3-1.55,1.83,4.94,4.23,4.15,3Zm.2,4.94c-.1.34-.08,6-3,4.13-2-1.27,3.41-5.54,3-4.13ZM36.9,66.94c-.34-.09-5.23-2.85-5.08.61.1,2.4,6.5-.25,5.08-.61Zm7.82-1.66c.79,1.23-5.7-1.17-4.15-3,2.24-2.65,4,2.71,4.15,3Zm-.37,3.77c.38-1.41-5.06,2.87-3,4.13,3,1.83,2.93-3.79,3-4.13ZM60,73.9c1.42.36-5,3-5.08.61-.16-3.47,4.74-.7,5.08-.61Zm-8.34-2.29c-.19-.29-1.9-5.65-4.15-3-1.55,1.83,5,4.23,4.15,3Zm9.87,14.15c-.09.34-.08,6-3,4.13-2-1.26,3.41-5.54,3-4.13ZM53.93,63.41c-.34-.09-5.24-2.86-5.08.61.1,2.4,6.49-.25,5.08-.61Zm2-5.91c-.19-.29-1.91-5.65-4.15-3-1.55,1.83,5,4.23,4.15,3Zm3.71,4.66c-.09.34-.07,6-3,4.13-2-1.26,3.4-5.54,3-4.13Zm6.91,7.08c-.34-.09-5.24-2.85-5.08.61.1,2.4,6.5-.25,5.08-.61Zm35.65-2.1c.79,1.23-5.7-1.17-4.15-3,2.24-2.65,4,2.71,4.15,3ZM70.76,61.8c-.09.34-.08,6-3,4.13-2-1.26,3.41-5.54,3-4.13ZM64.43,81c-.34-.09-5.23-2.86-5.08.61.11,2.4,6.5-.25,5.08-.61Zm4.32-2c.8,1.23-5.69-1.16-4.15-3,2.25-2.65,4,2.7,4.15,3Zm-2.3,11.43c.38-1.41-5.06,2.86-3,4.13,3,1.83,2.94-3.79,3-4.13Zm9.15-4.75c-.34-.09-5.23-2.86-5.08.61.1,2.4,6.5-.25,5.08-.61Zm8.81-3c.8,1.23-5.7-1.17-4.15-3,2.24-2.65,4,2.7,4.15,3ZM56.63,92.73c.38-1.42-5.06,2.86-3,4.13,3,1.83,2.93-3.8,3-4.13Zm19.65-16c-.34-.08-5.24-2.85-5.09.61.11,2.4,6.5-.25,5.09-.61ZM79,72.35c-.19-.29-1.91-5.65-4.15-3-1.55,1.83,4.94,4.23,4.15,3ZM93.57,88.64c-.1.34-.08,6-3,4.13-2-1.26,3.41-5.54,3-4.13ZM63.2,49.72c-.34-.08-5.23-2.85-5.08.62.11,2.39,6.5-.26,5.08-.62Zm8.4-4.59c-.19-.29-1.9-5.65-4.15-3-1.54,1.83,5,4.23,4.15,3Zm3.13,1.1c-.09.33-.08,6-3,4.12-2-1.26,3.41-5.54,3-4.12Zm-7.92,13c-.33-.09-5.23-2.85-5.08.61.11,2.4,6.5-.25,5.08-.61Zm2.64-2.34c.79,1.22-5.7-1.17-4.15-3,2.24-2.65,4,2.7,4.15,3ZM80.34,88.45c-.09.33-.07,6-3,4.13-2-1.27,3.4-5.55,3-4.13ZM78,63.85c-.33-.08-5.23-2.85-5.08.62.11,2.39,6.5-.26,5.08-.62ZM27.77,13.09c-.19-.29-1.91-5.65-4.15-3-1.55,1.84,4.95,4.23,4.15,3Zm21.9,84.56c-.09.34-.07,6-3,4.13-2-1.27,3.4-5.54,3-4.13Zm27.91-41.3c-.34-.09-5.23-2.85-5.08.61.11,2.4,6.5-.25,5.08-.61Zm9.24,17.32c-.19-.29-1.9-5.65-4.15-3-1.54,1.83,5,4.22,4.15,3ZM38.17,3.16c-.09.33-.07,6-3,4.13-2-1.27,3.41-5.55,3-4.13ZM52,30.07c-.34-.08-5.24-2.85-5.08.62.1,2.39,6.49-.26,5.08-.62Zm6.77-3.25c.8,1.22-5.69-1.17-4.15-3,2.25-2.65,4,2.7,4.15,3Zm6.49.47c-.09.34-.07,6-3,4.13-2-1.26,3.4-5.54,3-4.13ZM52.8,40.39c-.34-.08-5.23-2.85-5.08.62.11,2.39,6.5-.26,5.08-.62ZM60,37.92c.8,1.23-5.7-1.16-4.15-3,2.24-2.65,4,2.7,4.15,3Zm9.21-1.87c1.42.36-5,3-5.08.62-.15-3.47,4.74-.7,5.08-.62Zm5.72-4.84c-.2-.29-1.91-5.65-4.15-3-1.55,1.83,4.94,4.22,4.15,3Zm0,3.6c-.09.33-.08,6-3,4.12-2-1.26,3.41-5.54,3-4.12ZM57.74,7.31c-.34-.09-5.23-2.86-5.08.61.1,2.4,6.5-.25,5.08-.61ZM9.09,35.9c-.19-.29-1.91-5.65-4.15-3-1.55,1.84,4.94,4.23,4.15,3ZM69.43,4.78c-.09.33-.07,6-3,4.13-2-1.27,3.4-5.55,3-4.13ZM56.33,17.07c-.34-.09-5.23-2.85-5.08.61.1,2.4,6.5-.25,5.08-.61Zm7.82-1.66c.8,1.23-5.7-1.17-4.15-3,2.24-2.65,4,2.71,4.15,3Zm-.37,3.77c.38-1.41-5.06,2.86-3,4.13,3,1.83,2.93-3.79,3-4.13ZM79.46,24c1.42.36-5,3-5.08.61-.15-3.47,4.74-.7,5.08-.61Zm-8.33-2.29c-.19-.29-1.91-5.65-4.15-3-1.55,1.83,4.94,4.23,4.15,3ZM81,35.89c-.09.34-.07,6-3,4.13-2-1.26,3.4-5.54,3-4.13ZM73.36,13.54c-.34-.09-5.23-2.86-5.08.61.1,2.4,6.5-.25,5.08-.61Zm2-5.91c-.19-.3-1.9-5.65-4.14-3-1.55,1.83,4.94,4.23,4.14,3Zm3.72,4.66c-.09.34-.08,6-3,4.13-2-1.27,3.41-5.54,3-4.13ZM86,19.37c-.34-.09-5.23-2.86-5.08.61.1,2.4,6.5-.25,5.08-.61ZM88.65,17c.8,1.23-5.69-1.16-4.14-3,2.24-2.65,3.95,2.7,4.14,3Zm3.13,1.1c-.09.34-.08,6-3,4.13-2-1.27,3.41-5.54,3-4.13ZM87,27.26c-.34-.08-5.23-2.85-5.08.62.1,2.39,6.5-.26,5.08-.62Zm.72,9.22c-.19-.3-1.91-5.65-4.15-3-1.55,1.83,5,4.22,4.15,3ZM3.48,47.62c-.09.34-.07,6-3,4.13-2-1.26,3.4-5.54,3-4.13ZM95,35.75c-.34-.09-5.24-2.86-5.09.61.11,2.4,6.5-.25,5.09-.61Zm2.63-2.35c.79,1.23-5.7-1.16-4.15-3,2.24-2.65,4,2.71,4.15,3Zm4.85-1c-.09.34-.07,6-3,4.13-2-1.26,3.4-5.54,3-4.13Zm-3.84-8.2c-.33-.09-5.23-2.86-5.08.61.11,2.4,6.5-.25,5.08-.61ZM106.74,62c-.19-.29-1.91-5.64-4.15-3-1.55,1.83,5,4.22,4.15,3Zm0,6.69c-.09.34-.08,6-3,4.13-2-1.27,3.41-5.54,3-4.13Zm-92-44.08c-.34-.08-5.23-2.85-5.08.62.11,2.39,6.5-.25,5.08-.62ZM50.16,5.06C50,4.77,48.25-.59,46,2.06c-1.55,1.83,5,4.23,4.15,3Zm-34,24.55c.38-1.42-5.06,2.86-3,4.13,2.95,1.83,2.93-3.79,3-4.13ZM86.25,9.33c-.34-.09-5.24-2.86-5.08.61.1,2.4,6.5-.25,5.08-.61ZM73.78,95.51c-.19-.3-1.91-5.65-4.15-3-1.55,1.83,5,4.22,4.15,3ZM90.5,74.08c-.09.33-.07,6-3,4.12-2-1.26,3.4-5.54,3-4.12ZM25.86,16c.59-1.34,2.18,5.39-.2,5.11-3.45-.4.07-4.79.2-5.11Zm-6.23,3.19c-.19-.3-1.91-5.65-4.15-3-1.55,1.83,4.94,4.22,4.15,3ZM57.52,98.42c-.38-1.41,5.06,2.86,3,4.13-2.95,1.83-2.94-3.79-3-4.13Zm-14.24,6.13c-.34-.09-5.23-2.86-5.08.61.1,2.4,6.5-.25,5.08-.61ZM43.1,11c.8,1.23-5.69-1.16-4.14-3C41.2,5.34,42.91,10.69,43.1,11Z"/>
            </g>
        </g>
    </g>
</svg>