<svg xmlns="http://www.w3.org/2000/svg" viewBox="0 0 125.24 190.31">
    <defs>
        <style>.cls-1{isolation:isolate;}.cls-2{fill:#f6f6f6;fill-rule:evenodd;mix-blend-mode:multiply;}</style>
    </defs>
    <g class="cls-1">
        <g id="Шар_2" data-name="Шар 2">
            <g id="participants">
                <path class="cls-2"
                      d="M125.2,89.07c-.16.6-.13,10.6-5.38,7.34-3.62-2.25,6.06-9.86,5.38-7.34ZM0,188.6v-4.23c2.3-1.41,7.51,1.5,8,1.62,2.07.53-5.15,3.77-8,2.61Zm0-9.18v-4.61c1.94-2.42,5.24-4.54,4.83-3-.15.57-.13,9.89-4.83,7.64Zm0-23.33v-5.43c1.71,1.81,2.85,5.22,3.05,5.53.6.92-1.09.7-3-.1ZM0,137v-2.64c.49,1.06.81,1.94.9,2.09.35.53-.08.68-.9.55ZM0,95.85V90.09c1.93-2,4.42-3.48,4.07-2.16-.15.54-.14,8.85-4.07,7.92ZM0,81.11V74.28c1.06-.69,1.83-.87,1.62-.1-.1.39-.13,4.85-1.62,6.93ZM0,49.75v-7c1.54-1.26,3-1.89,2.68-.88-.13.48-.14,6.74-2.68,7.84ZM0,31V26.15c2.51.1,5.78,1.91,6.14,2,1.7.43-2.9,2.71-6.14,2.85ZM0,16V14.63a2.47,2.47,0,0,1,.27-.42c4-4.72,7,4.81,7.38,5.33C8.82,21.34,1.18,18.76,0,16ZM32.24,187.46c-.6-.16-9.31-5.08-9,1.09.19,4.26,11.56-.45,9-1.09Zm83.15-51c-.6-.15-9.31-5.08-9,1.09.19,4.26,11.57-.45,9-1.09ZM77.88,177.72c-.6-.15-9.31-5.08-9,1.09.19,4.26,11.57-.45,9-1.09Zm4.18-13.21c.16.6.13,10.6,5.38,7.34,3.62-2.25-6.06-9.86-5.38-7.34Zm-27,17.78c-.16.6-.13,10.6-5.38,7.34-3.62-2.25,6-9.86,5.38-7.34Zm36.12-29.46c-.6-.16-9.31-5.08-9,1.09.19,4.26,11.56-.45,9-1.09Zm14.85.37c-.34-.52-3.39-10-7.38-5.33-2.76,3.26,8.8,7.52,7.38,5.33ZM17.34,41.83C17,41.31,14,31.79,10,36.5c-2.75,3.26,8.8,7.52,7.38,5.33Zm1.47-16.57c-.34-.52-3.39-10-7.38-5.34-2.75,3.26,8.8,7.52,7.38,5.34Zm-1.24,138.6c-.6-.15-9.31-5.07-9,1.09.19,4.27,11.57-.44,9-1.09ZM11.36,66C11,65.45,8,55.93,4,60.64c-2.75,3.25,8.8,7.51,7.38,5.33ZM41.23.5c-.16.6-.13,10.61-5.38,7.35C32.23,5.6,41.91-2,41.23.5Zm63.59,128.12c2.53.64-8.85,5.35-9,1.09-.27-6.17,8.44-1.25,9-1.09ZM119.61,75.5c-.33-.52-3.39-10-7.37-5.33-2.76,3.26,8.79,7.52,7.37,5.33ZM77.85,105.65c-.16.6-.13,10.6-5.38,7.34-3.62-2.24,6.06-9.86,5.38-7.34Zm9-29.4c-.6-.15-9.31-5.07-9,1.1.19,4.26,11.56-.45,9-1.1ZM97,74c-.16.6-.13,10.61-5.38,7.35C88,79.13,97.72,71.52,97,74ZM79.25,87c-.6-.16-9.31-5.08-9,1.09.19,4.26,11.56-.45,9-1.09Zm11.43,16.06c-.33-.52-3.39-10-7.38-5.33-2.75,3.25,8.8,7.51,7.38,5.33Zm6.59,12c.67-2.52-9,5.09-5.38,7.34,5.25,3.26,5.21-6.74,5.38-7.34Zm5.57-9.69c-.61-.15-9.31-5.08-9,1.09.19,4.27,11.57-.45,9-1.09Zm4.68-4.17c1.42,2.18-10.14-2.07-7.38-5.33,4-4.72,7,4.81,7.38,5.33ZM104,89.62c-.6-.16-9.31-5.08-9,1.09.19,4.26,11.57-.45,9-1.09Zm5.84-9.87c1.41,2.18-10.14-2.08-7.38-5.34,4-4.71,7,4.82,7.38,5.34Zm4.41,7.65c.67-2.52-9,5.09-5.38,7.34,5.24,3.26,5.22-6.74,5.38-7.34ZM31.15,78.54c-.16.6-.13,10.6-5.38,7.35-3.63-2.25,6.06-9.86,5.38-7.35Zm14.27.92c-.33-.52-3.39-10-7.38-5.33-2.75,3.25,8.8,7.51,7.38,5.33Zm-33,57.82c-.16.6-.13,10.6-5.38,7.34-3.62-2.25,6.06-9.86,5.38-7.34Zm7,15.58c-.61-.15-9.31-5.08-9,1.09.18,4.26,11.56-.45,9-1.09Zm10.16-8.62c-.34-.52-3.39-10.05-7.38-5.33-2.75,3.25,8.8,7.51,7.38,5.33Zm.08,6.4c-.16.6-.13,10.6-5.38,7.35-3.63-2.25,6.05-9.86,5.38-7.35ZM19.56,88.43c-.34-.52-3.39-10.05-7.38-5.33-2.76,3.26,8.79,7.51,7.38,5.33Zm.35,8.79c-.16.6-.13,10.61-5.37,7.35-3.63-2.25,6.05-9.86,5.37-7.35Zm-9.39,18.91c-.34-.52-3.39-10-7.38-5.33-2.76,3.26,8.8,7.52,7.38,5.33Zm-.65,6.71c-.16.6-.13,10.61-5.38,7.35-3.62-2.25,6-9.86,5.38-7.35Zm27.89,8.62c2.52.64-8.85,5.36-9,1.09-.27-6.16,8.44-1.24,9-1.09ZM22.93,127.4c-.34-.52-3.39-10.05-7.38-5.34-2.76,3.26,8.8,7.52,7.38,5.34Zm17.55,25.17c-.16.6-.13,10.61-5.38,7.35-3.62-2.25,6.06-9.86,5.38-7.35ZM26.9,112.8c-.6-.15-9.3-5.08-9,1.09.18,4.27,11.56-.45,9-1.09Zm3.64-10.51c-.33-.52-3.39-10-7.38-5.33-2.75,3.26,8.8,7.51,7.38,5.33Zm6.61,8.29c-.16.6-.13,10.61-5.38,7.35-3.62-2.25,6.05-9.86,5.38-7.35Zm12.28,12.6c-.6-.16-9.31-5.08-9,1.09.19,4.26,11.56-.45,9-1.09Zm63.42-3.74c1.41,2.19-10.14-2.07-7.38-5.33,4-4.71,7,4.81,7.38,5.33Zm-56-9.49c-.16.6-.14,10.6-5.38,7.34-3.63-2.25,6.05-9.86,5.38-7.34ZM45.59,144c-.6-.15-9.31-5.08-9,1.09.19,4.26,11.57-.45,9-1.09Zm7.69-3.6c1.42,2.18-10.13-2.07-7.38-5.33,4-4.72,7,4.81,7.38,5.33Zm-4.1,20.32c.68-2.51-9,5.1-5.38,7.35,5.25,3.26,5.22-6.75,5.38-7.35Zm16.28-8.45c-.6-.15-9.3-5.08-9,1.1.18,4.26,11.56-.46,9-1.1Zm15.68-5.24c1.41,2.18-10.14-2.08-7.38-5.34,4-4.71,7,4.81,7.38,5.34ZM31.72,165c.67-2.51-9,5.09-5.38,7.35,5.25,3.25,5.22-6.75,5.38-7.35Zm34.94-28.42c-.6-.15-9.31-5.08-9,1.09.19,4.26,11.57-.45,9-1.09Zm4.82-7.83c-.33-.52-3.39-10.05-7.38-5.33-2.75,3.25,8.8,7.51,7.38,5.33Zm25.94,29c-.16.6-.13,10.6-5.38,7.35-3.62-2.25,6.06-9.87,5.38-7.35Zm-54-69.23c-.61-.16-9.31-5.08-9,1.09.18,4.26,11.56-.45,9-1.09Zm14.94-8.18C58,79.76,55,70.24,51,75c-2.75,3.26,8.8,7.52,7.38,5.33Zm5.56,2c-.16.6-.13,10.61-5.38,7.35-3.62-2.25,6.06-9.86,5.38-7.35ZM49.83,105.32c-.6-.16-9.31-5.08-9,1.09.19,4.26,11.57-.45,9-1.09Zm4.69-4.17c1.41,2.18-10.14-2.08-7.38-5.34,4-4.71,7,4.81,7.38,5.34Zm19.37,56.2c-.16.59-.13,10.6-5.37,7.34-3.63-2.25,6-9.86,5.37-7.34ZM69.7,113.59c-.6-.15-9.31-5.08-9,1.09.19,4.27,11.56-.45,9-1.09ZM19.34,173.72c-.16.59-.13,10.6-5.38,7.34-3.63-2.25,6.05-9.86,5.38-7.34ZM69,100.25c-.6-.16-9.31-5.08-9,1.09.18,4.26,11.56-.45,9-1.09Zm16.44,30.81c-.34-.52-3.39-10-7.38-5.33-2.76,3.26,8.8,7.52,7.38,5.33Zm-62-77.56c-.61-.15-9.31-5.08-9,1.09.19,4.26,11.56-.45,9-1.09Zm12.06-5.8c1.41,2.19-10.14-2.07-7.39-5.33,4-4.71,7.05,4.81,7.39,5.33ZM47,48.56c-.16.6-.13,10.6-5.37,7.34C38,53.65,47.69,46,47,48.56ZM24.9,71.86c-.6-.16-9.31-5.08-9,1.09.19,4.26,11.57-.45,9-1.09Zm12.72-4.39c1.42,2.18-10.13-2.08-7.38-5.33,4-4.72,7,4.81,7.38,5.33ZM54,64.14c2.52.64-8.86,5.35-9,1.09-.27-6.17,8.43-1.25,9-1.09Zm10.16-8.62c-.34-.52-3.39-10.05-7.38-5.34-2.75,3.26,8.8,7.52,7.38,5.34Zm.08,6.4c-.16.6-.13,10.6-5.38,7.34-3.62-2.25,6.05-9.86,5.38-7.34ZM33.69,13c-.6-.15-9.31-5.08-9,1.09.19,4.26,11.56-.45,9-1.09Zm20.8-4.5c-.17.6-.14,10.6-5.38,7.34-3.63-2.25,6-9.86,5.38-7.34ZM31.18,30.36c-.6-.15-9.31-5.07-9,1.1.19,4.26,11.57-.45,9-1.1Zm13.91-2.95c1.42,2.18-10.13-2.07-7.38-5.33,4-4.72,7,4.81,7.38,5.33Zm-.65,6.71c.68-2.51-9,5.1-5.38,7.35,5.25,3.25,5.22-6.75,5.38-7.35Zm27.89,8.62c2.52.64-8.85,5.35-9,1.09-.27-6.17,8.44-1.24,9-1.09ZM57.5,38.67c-.34-.52-3.39-10-7.38-5.33-2.75,3.26,8.8,7.52,7.38,5.33ZM75.05,63.85c-.16.6-.13,10.6-5.38,7.34-3.62-2.25,6.06-9.86,5.38-7.34ZM61.48,24.08c-.6-.15-9.31-5.08-9,1.09.19,4.26,11.56-.45,9-1.09Zm3.63-10.51c-.33-.52-3.39-10-7.38-5.33-2.75,3.26,8.8,7.51,7.38,5.33Zm6.61,8.29c-.16.6-.13,10.6-5.38,7.35-3.62-2.25,6.06-9.86,5.38-7.35ZM84,34.45c-.6-.15-9.31-5.07-9,1.09.19,4.27,11.56-.44,9-1.09Zm4.69-4.17c1.41,2.19-10.14-2.07-7.38-5.33,4-4.71,7,4.81,7.38,5.33Zm5.55,1.95c-.16.6-.13,10.61-5.38,7.35-3.62-2.25,6.06-9.86,5.38-7.35ZM85.65,48.5c-.6-.15-9.31-5.08-9,1.09.19,4.26,11.57-.45,9-1.09Zm1.28,16.39c-.34-.52-3.39-10-7.38-5.33-2.75,3.25,8.8,7.51,7.38,5.33ZM100,63.59c-.61-.15-9.31-5.07-9,1.09.18,4.26,11.56-.45,9-1.09Zm4.68-4.17c1.42,2.19-10.14-2.07-7.38-5.33,4-4.72,7,4.81,7.38,5.33Zm8.64-1.8c-.16.6-.14,10.61-5.38,7.35-3.63-2.25,6.06-9.86,5.38-7.35ZM106.53,43c-.6-.15-9.31-5.08-9,1.09.19,4.26,11.56-.45,9-1.09Zm14.33,67.2c-.34-.52-3.4-10-7.38-5.33-2.76,3.26,8.79,7.52,7.38,5.33Zm-.08,11.9c-.16.6-.13,10.6-5.38,7.34-3.62-2.25,6.06-9.86,5.38-7.34ZM20.21,9c-.34-.52-3.4-10-7.38-5.33-2.76,3.25,8.8,7.51,7.38,5.33ZM84.4,16.59c-.6-.15-9.31-5.07-9,1.1.19,4.26,11.57-.45,9-1.1ZM62.22,169.91c-.33-.53-3.39-10-7.38-5.34-2.75,3.26,8.8,7.52,7.38,5.34ZM92,131.78c-.16.6-.13,10.6-5.38,7.34-3.62-2.25,6.06-9.86,5.38-7.34ZM33.3,175.08c-.68-2.51,9,5.1,5.38,7.35C33.43,185.69,33.46,175.68,33.3,175.08Z"/>
            </g>
        </g>
    </g>
</svg>