<svg xmlns="http://www.w3.org/2000/svg" viewBox="0 0 828.1 462.39"><defs><style>.cls-1{fill:#7e7e7d;}.cls-1,.cls-4,.cls-8,.cls-9{fill-rule:evenodd;}.cls-1,.cls-2,.cls-3{opacity:0.1;}.cls-2,.cls-3,.cls-7,.cls-8{fill:none;}.cls-2,.cls-3{stroke:#7e7e7d;stroke-miterlimit:22.93;stroke-width:1.42px;}.cls-2{stroke-dasharray:7.09 4.25;}.cls-4{fill:#ef8055;}.cls-4,.cls-5,.cls-6{opacity:0.3;}.cls-5{fill:#c9d300;}.cls-6{fill:#27b2a3;}.cls-7,.cls-8{stroke:#403e46;stroke-miterlimit:10;stroke-width:2px;}.cls-9{fill:#323038;}</style></defs><g id="Шар_2" data-name="Шар 2"><g id="what_a_good_proposal" data-name="what a good proposal"><path class="cls-1" d="M684,0A101.46,101.46,0,1,1,578.67,0h2.79a100,100,0,1,0,99.76,0Z"/><circle class="cls-2" cx="646.87" cy="257.71" r="125.92"/><circle class="cls-3" cx="423.34" cy="219.99" r="125.92" transform="translate(-31.56 363.78) rotate(-45)"/><path class="cls-1" d="M508.21,0V.53a62.59,62.59,0,0,1,7,.4l.11-.93Zm-8.42,0h7.12l0,.55a60.23,60.23,0,0,0-7,.55L499.79,0Zm-4.28.43a56.88,56.88,0,0,0-6.91,1.88l.45,1.34a58.71,58.71,0,0,1,6.76-1.84l-.3-1.38ZM484.57,3.82A60.73,60.73,0,0,0,478.13,7l.7,1.24a58.94,58.94,0,0,1,6.29-3.07l-.55-1.3ZM474.45,9.18a59.94,59.94,0,0,0-5.75,4.28l.92,1.08a58.64,58.64,0,0,1,5.61-4.17l-.78-1.19Zm-8.95,7.15a60.42,60.42,0,0,0-4.86,5.26l1.09.9a59.36,59.36,0,0,1,4.76-5.14l-1-1ZM458,25a60.54,60.54,0,0,0-3.81,6.07l1.24.68a59.49,59.49,0,0,1,3.73-5.92L458,25Zm-5.75,9.91a61.5,61.5,0,0,0-2.62,6.67L451,42a60.79,60.79,0,0,1,2.56-6.52l-1.29-.59Zm-3.81,10.81a64.5,64.5,0,0,0-1.33,7l1.41.18a62.21,62.21,0,0,1,1.3-6.88l-1.38-.33ZM446.73,57a63.34,63.34,0,0,0,0,7.16l1.42-.08a60.54,60.54,0,0,1,0-7L446.73,57Zm.38,11.44a60.31,60.31,0,0,0,1.31,7l1.38-.35a57.08,57.08,0,0,1-1.28-6.88l-1.41.18Zm2.49,11.18a60.75,60.75,0,0,0,2.6,6.68l1.29-.59A58.64,58.64,0,0,1,451,79.23l-1.35.43Zm4.53,10.53a62.23,62.23,0,0,0,3.79,6.07l1.16-.82a59.6,59.6,0,0,1-3.71-5.94l-1.24.69Zm6.4,9.49a62.17,62.17,0,0,0,4.85,5.28l1-1a62.58,62.58,0,0,1-4.74-5.16l-1.09.9Zm8,8.16a63,63,0,0,0,5.74,4.29l.78-1.19a61.48,61.48,0,0,1-5.61-4.19l-.91,1.09Zm9.41,6.53a59.9,59.9,0,0,0,6.44,3.15l.54-1.31a60,60,0,0,1-6.29-3.08l-.69,1.24Zm10.46,4.68a63.58,63.58,0,0,0,6.91,1.89l.29-1.38a63,63,0,0,1-6.75-1.86l-.45,1.35Zm11.14,2.64a65.62,65.62,0,0,0,7.15.58l0-1.42a62.55,62.55,0,0,1-7-.56l-.2,1.4Zm11.45.54a62.93,62.93,0,0,0,7.12-.74l-.23-1.4a60.3,60.3,0,0,1-7,.72l.08,1.42Zm11.34-1.58a60.85,60.85,0,0,0,6.87-2l-.49-1.33a60.13,60.13,0,0,1-6.71,2l.33,1.37ZM533.23,117a62.68,62.68,0,0,0,6.36-3.29l-.73-1.22a60,60,0,0,1-6.22,3.22l.59,1.29Zm10-5.61a60,60,0,0,0,5.65-4.42l-.94-1.06a57.24,57.24,0,0,1-5.52,4.31l.81,1.17ZM552,104a62,62,0,0,0,4.74-5.38l-1.12-.87A60.64,60.64,0,0,1,551,103l1,1Zm7.27-8.85A59.89,59.89,0,0,0,562.92,89l-1.26-.65a57.7,57.7,0,0,1-3.58,6l1.17.8Zm5.51-10.05a61.5,61.5,0,0,0,2.46-6.73l-1.36-.4a58.6,58.6,0,0,1-2.4,6.57l1.3.56Zm3.55-10.89c.48-2.4.9-4.62,1.15-7.07L568.05,67c-.25,2.39-.66,4.55-1.13,6.9l1.39.31Zm1.45-11.36a63.34,63.34,0,0,0-.16-7.16l-1.41.11a62.92,62.92,0,0,1,.16,7l1.41.05Zm-.65-11.43a60,60,0,0,0-1.48-7l-1.37.38a59.14,59.14,0,0,1,1.45,6.85l1.4-.21Zm-2.76-11.12a61.81,61.81,0,0,0-2.76-6.61l-1.28.62A57.93,57.93,0,0,1,565,40.8l1.34-.47Zm-4.78-10.41a64.26,64.26,0,0,0-3.94-6l-1.14.84a60.8,60.8,0,0,1,3.85,5.85l1.23-.71Zm-6.63-9.34a63.86,63.86,0,0,0-5-5.16l-1,1a64.38,64.38,0,0,1,4.87,5l1.07-.93Zm-8.24-8a63,63,0,0,0-5.84-4.15l-.75,1.2a61.51,61.51,0,0,1,5.71,4.06l.88-1.11Zm-9.56-6.3a60.75,60.75,0,0,0-6.51-3l-.51,1.32a61.8,61.8,0,0,1,6.35,2.93l.67-1.25ZM526.57,1.9a59.3,59.3,0,0,0-7-1.73l-.26,1.39a59.08,59.08,0,0,1,6.79,1.69Z"/><circle class="cls-3" cx="148.58" cy="219.02" r="86"/><circle class="cls-3" cx="220.33" cy="296.99" r="105.4"/><circle class="cls-2" cx="95.84" cy="83.54" r="54.34" transform="translate(-7.34 157.83) rotate(-76.83)"/><circle class="cls-3" cx="290.65" cy="137.86" r="125.92"/><path class="cls-4" d="M230.76,189.58a2.48,2.48,0,1,1-2.48,2.48A2.48,2.48,0,0,1,230.76,189.58Z"/><circle class="cls-5" cx="408.64" cy="93.75" r="2.47"/><circle class="cls-2" cx="358.1" cy="381.73" r="79.95" transform="translate(-55.05 703.08) rotate(-84.71)"/><circle class="cls-6" cx="278.22" cy="385.08" r="2.47"/><line class="cls-7" x1="716.01" y1="92.34" x2="651.46" y2="92.34"/><path class="cls-8" d="M651.46,92.34a5.16,5.16,0,0,1-5.16-5.16"/><polyline class="cls-8" points="646.3 87.18 646.3 83.31 673.41 83.31 674.7 84.6 692.77 84.6 694.06 83.31 721.17 83.31 721.17 87.18"/><path class="cls-8" d="M721.17,87.18A5.16,5.16,0,0,1,716,92.34"/><polyline class="cls-8" points="717.3 83.31 717.3 69.11 710.84 69.11 710.84 78.14 656.62 78.14 656.62 41.99 679.86 41.99 679.86 35.54 655.33 35.54"/><path class="cls-8" d="M655.33,35.54a5.16,5.16,0,0,0-5.16,5.16"/><line class="cls-7" x1="650.17" y1="40.7" x2="650.17" y2="83.31"/><polygon class="cls-8" points="717.3 69.11 717.3 26.5 708.26 17.47 679.86 17.47 679.86 69.11 717.3 69.11"/><polyline class="cls-8" points="717.3 26.5 708.26 26.5 708.26 17.47"/><line class="cls-7" x1="660.5" y1="48.45" x2="666.95" y2="48.45"/><line class="cls-7" x1="669.53" y1="48.45" x2="675.99" y2="48.45"/><line class="cls-7" x1="660.5" y1="53.61" x2="675.99" y2="53.61"/><line class="cls-7" x1="660.5" y1="58.78" x2="664.37" y2="58.78"/><line class="cls-7" x1="666.95" y1="58.78" x2="675.99" y2="58.78"/><line class="cls-7" x1="660.5" y1="63.94" x2="668.24" y2="63.94"/><line class="cls-7" x1="670.82" y1="63.94" x2="675.99" y2="63.94"/><line class="cls-7" x1="660.5" y1="69.1" x2="663.08" y2="69.1"/><line class="cls-7" x1="665.66" y1="69.1" x2="675.99" y2="69.1"/><rect class="cls-7" x="685.02" y="27.79" width="7.75" height="7.75"/><rect class="cls-7" x="685.02" y="40.7" width="7.75" height="7.75"/><rect class="cls-7" x="685.02" y="53.61" width="7.75" height="7.75"/><polyline class="cls-8" points="696.64 31.67 699.23 34.25 704.39 29.09"/><polyline class="cls-8" points="696.64 44.58 699.23 47.16 704.39 41.99"/><polyline class="cls-8" points="696.64 57.49 699.23 60.07 704.39 54.91"/><line class="cls-7" x1="659.21" y1="31.67" x2="659.21" y2="29.09"/><line class="cls-7" x1="659.21" y1="26.5" x2="659.21" y2="23.92"/><line class="cls-7" x1="659.21" y1="21.34" x2="659.21" y2="18.76"/><line class="cls-7" x1="664.37" y1="21.34" x2="664.37" y2="18.76"/><line class="cls-7" x1="669.53" y1="21.34" x2="669.53" y2="18.76"/><line class="cls-7" x1="674.7" y1="21.34" x2="674.7" y2="18.76"/><path class="cls-9" d="M828.1,319.87v2.94c-1.06.09-1.94-.15-2-1.06-.07-1.62.86-2,2-1.88Zm0,7.39v3.54c-1.49-.73-2.94-1.92-2.07-2.94s1.46-1,2.07-.6Zm0,21.52v2.28c-1.59.47-3.45.58-3.51-.76-.1-2.33,1.88-2.08,3.51-1.52Zm0,4.33v2.17c-.59-.58-.85-1.22-.36-1.81a3.05,3.05,0,0,1,.36-.36Zm0,5.62v1.74c-1.68.66-4.18,1-4.25-.5-.11-2.7,2.57-1.94,4.25-1.24Zm0,13.8v2.56c-1.46.35-3,.31-3-.89-.09-2.1,1.52-2.1,3-1.67Zm0,12v3.3c-1.14-.72-2-1.66-1.27-2.5a1.94,1.94,0,0,1,1.27-.8Zm-42,25.06c-.37-.1-5.71-3.11-5.54.67.12,2.61,7.09-.28,5.54-.67Zm28-6c-.37-.09-5.7-3.11-5.54.67.12,2.61,7.09-.28,5.54-.67Zm2.56-8.1c.1.37.08,6.5,3.3,4.51,2.22-1.38-3.71-6-3.3-4.51Zm-16.54,10.9c-.1.37-.09,6.5-3.3,4.5-2.22-1.38,3.71-6,3.3-4.5Zm22.13-18.05c-.37-.1-5.7-3.12-5.54.66.12,2.62,7.09-.27,5.54-.66ZM768,320.4c-.1.36-.08,6.49-3.29,4.5-2.22-1.38,3.71-6,3.29-4.5Zm9,0c-.21-.32-2.08-6.16-4.52-3.27-1.69,2,5.39,4.6,4.52,3.27Zm-15.41-7.12c-.1.36-.08,6.49-3.3,4.5-2.22-1.38,3.71-6,3.3-4.5Zm8.55-1.27c1.55.4-5.43,3.28-5.54.67-.17-3.78,5.17-.76,5.54-.67Zm7.76-1.77c-.21-.32-2.08-6.16-4.52-3.27-1.69,2,5.39,4.61,4.52,3.27Zm-19.26,9.88c-.37-.1-5.7-3.12-5.54.66.11,2.62,7.09-.27,5.54-.66ZM769.34,400c-.1.37-.09,6.5-3.3,4.5-2.22-1.38,3.71-6,3.3-4.5Zm-8.11,1.87c-.37-.09-5.7-3.11-5.54.67.12,2.61,7.09-.27,5.54-.67Zm.77-73.62c-.37-.1-5.71-3.11-5.54.67.11,2.61,7.08-.28,5.54-.67Zm-25.64,59.2c-.21-.32-2.08-6.16-4.52-3.27-1.69,2,5.39,4.6,4.52,3.27Zm7.07.52c-.1.37-.08,6.5-3.29,4.5-2.23-1.38,3.71-6,3.29-4.5Zm15.75-40.8c-.37-.09-5.7-3.11-5.54.67.11,2.61,7.09-.27,5.54-.67Zm-7.63,44.19c-.21-.31-2.08-6.15-4.52-3.26-1.69,2,5.39,4.6,4.52,3.26ZM749,396.79c-.37-.1-5.7-3.12-5.54.67.12,2.61,7.09-.28,5.54-.67Zm-7.15-17.69c-.09.37-.08,6.5-3.29,4.5-2.22-1.37,3.71-6,3.29-4.5Zm8,2.79c-.21-.32-2.08-6.16-4.52-3.27-1.69,2,5.39,4.61,4.52,3.27Zm27.28,13.24c-.37-.09-5.7-3.11-5.54.67.12,2.61,7.09-.28,5.54-.67Zm-8.27-46.54c-.1.37-.08,6.5-3.3,4.51-2.22-1.38,3.71-6.05,3.3-4.51Zm-4.29-41.09c-.37-.09-5.7-3.11-5.54.67.12,2.61,7.09-.28,5.54-.67Zm8.76,27.64c-.21-.32-2.08-6.16-4.52-3.27-1.69,2,5.39,4.61,4.52,3.27ZM791.64,295c-.1.37-.08,6.5-3.29,4.5-2.22-1.38,3.71-6,3.29-4.5Zm-24.27,45.15c-.1.37-.08,6.5-3.3,4.5-2.22-1.38,3.71-6,3.3-4.5Zm46.71,19.28c-.1.37-.08,6.5-3.29,4.51-2.23-1.38,3.71-6,3.29-4.51Zm5.49-18c-.37-.09-5.71-3.11-5.54.67.11,2.61,7.08-.28,5.54-.67Zm6.27-1.36c-.09.37-.08,6.5-3.29,4.5-2.22-1.38,3.71-6,3.29-4.5Zm-10.9,8c-.37-.1-5.71-3.12-5.54.66.11,2.62,7.09-.27,5.54-.66Zm7,9.84c-.21-.32-2.08-6.16-4.53-3.27-1.68,2,5.4,4.61,4.53,3.27Zm4,7.35c-.1.37-.08,6.5-3.3,4.5-2.22-1.38,3.72-6,3.3-4.5Zm-91.84-24.45c-.1.37-.09,6.5-3.3,4.5-2.22-1.38,3.71-6,3.3-4.5Zm-1.27,17.82c-.37-.1-5.71-3.11-5.54.67.12,2.61,7.09-.28,5.54-.67Zm2.65-4.75c-.21-.32-2.08-6.16-4.53-3.27-1.68,2,5.4,4.61,4.53,3.27Zm7.07.52c-.1.37-.08,6.5-3.3,4.5-2.22-1.38,3.71-6,3.3-4.5Zm-9,14.64c-.37-.1-5.7-3.11-5.54.67.12,2.61,7.09-.28,5.54-.67Zm3.19-3.05c.87,1.34-6.21-1.27-4.52-3.27,2.44-2.89,4.32,2.95,4.52,3.27Zm10-2c-.37-.1-5.7-3.11-5.54.67.12,2.61,7.09-.28,5.54-.67Zm6.23-5.29c-.2-.31-2.07-6.15-4.52-3.26-1.69,2,5.39,4.6,4.52,3.26Zm0,3.93c-.1.37-.08,6.5-3.3,4.5-2.22-1.38,3.72-6,3.3-4.5Zm4.25-28c1.55.4-5.43,3.28-5.54.67-.17-3.78,5.17-.76,5.54-.67Zm-8-8.35c-.2-.32-2.08-6.16-4.52-3.27-1.69,2,5.39,4.61,4.52,3.27Zm-2.22,3.65c-.1.37-.08,6.5-3.3,4.5-2.22-1.38,3.71-6,3.3-4.5Zm-3.83,44.83c-.37-.09-5.7-3.11-5.54.67.12,2.61,7.09-.28,5.54-.67Zm-1.93-33.24c-.21-.32-2.08-6.16-4.52-3.27-1.69,2,5.39,4.61,4.52,3.27Zm-.4,4.11c-.1.37-.08,6.5-3.3,4.51-2.22-1.38,3.72-6,3.3-4.51Zm8,2.79c-.21-.32-2.08-6.15-4.53-3.26-1.69,2,5.4,4.6,4.53,3.26Zm2.43-8.94c-.37-.09-5.7-3.11-5.54.67.12,2.61,7.09-.28,5.54-.67Zm2.95,32c-.1.37-.08,6.5-3.29,4.51-2.22-1.38,3.71-6,3.29-4.51Zm31.06-28.49c-.1.37-.08,6.5-3.29,4.5-2.23-1.38,3.71-6,3.29-4.5Zm8.75.57c-.21-.32-2.08-6.16-4.52-3.27-1.69,2,5.39,4.6,4.52,3.27Zm-34.67,38.46c-.37-.1-5.71-3.12-5.54.67.11,2.61,7.08-.28,5.54-.67Zm7.39-3.56c.87,1.34-6.21-1.27-4.52-3.26,2.44-2.89,4.31,2.95,4.52,3.26Zm7.07.53c-.1.36-.08,6.49-3.3,4.5-2.22-1.38,3.71-6,3.3-4.5Zm-13.55,14.28c-.37-.1-5.71-3.11-5.54.67.11,2.61,7.08-.28,5.54-.67Zm7.79-2.69c-.21-.32-2.08-6.16-4.52-3.27-1.69,2,5.39,4.61,4.52,3.27Zm10-2c-.36-.1-5.7-3.12-5.54.67.12,2.61,7.09-.28,5.54-.67Zm6.23-5.29c-.2-.32-2.07-6.15-4.52-3.26-1.69,2,5.39,4.6,4.52,3.26Zm0,3.93c-.1.36-.08,6.49-3.3,4.5-2.22-1.38,3.72-6,3.3-4.5Zm-18.73-30c-.37-.1-5.7-3.11-5.54.67.12,2.61,7.09-.28,5.54-.67Zm12.53-8.15c-.21-.32-2.08-6.16-4.52-3.27-1.69,2,5.39,4.61,4.52,3.27Zm.22,5.39c-.1.37-.08,6.5-3.3,4.5-2.22-1.38,3.71-6,3.3-4.5Zm-14.28,13.4c-.37-.09-5.71-3.11-5.54.67.11,2.61,7.08-.28,5.54-.67Zm8.52-1.81c.87,1.34-6.21-1.27-4.52-3.27,2.44-2.89,4.31,2.95,4.52,3.27Zm-.4,4.11c.42-1.54-5.52,3.12-3.29,4.5,3.21,2,3.19-4.13,3.29-4.5Zm17.09,5.28c1.55.4-5.42,3.29-5.54.67-.16-3.78,5.17-.76,5.54-.67Zm-9.08-2.49c-.21-.32-2.08-6.16-4.53-3.27-1.69,2,5.4,4.61,4.53,3.27Zm10.75,15.43c-.1.37-.08,6.5-3.29,4.5-2.23-1.38,3.71-6,3.29-4.5Zm-8.32-24.37c-.37-.09-5.7-3.11-5.54.67.12,2.61,7.09-.28,5.54-.67Zm2.23-6.44c-.21-.32-2.08-6.16-4.52-3.27-1.69,2,5.39,4.6,4.52,3.27Zm4,5.08c-.1.37-.08,6.5-3.3,4.5-2.22-1.38,3.71-6,3.3-4.5Zm7.53,7.72c-.37-.1-5.71-3.12-5.54.66.11,2.62,7.08-.27,5.54-.66Zm4.54-8.11c-.1.37-.08,6.5-3.29,4.5-2.23-1.38,3.71-6,3.29-4.5ZM794.31,383c-.36-.09-5.7-3.11-5.53.67.11,2.61,7.08-.28,5.53-.67Zm4.72-2.2c.86,1.33-6.21-1.28-4.53-3.27,2.45-2.89,4.32,2.95,4.53,3.27Zm-2.52,12.45c.42-1.54-5.52,3.12-3.29,4.5,3.21,2,3.19-4.13,3.29-4.5Zm10-5.18c-.37-.09-5.7-3.11-5.54.67.12,2.61,7.09-.28,5.54-.67Zm9.61-3.21c.87,1.33-6.21-1.28-4.53-3.27,2.45-2.89,4.32,2.95,4.53,3.27Zm-30.29,11c.42-1.54-5.52,3.12-3.29,4.5,3.21,2,3.19-4.13,3.29-4.5Zm21.42-17.42c-.37-.09-5.71-3.11-5.54.67.11,2.61,7.08-.27,5.54-.67Zm2.95-4.79c-.21-.32-2.08-6.16-4.52-3.27-1.69,2,5.39,4.6,4.52,3.27Zm15.9,17.76c-.1.36-.08,6.49-3.3,4.5-2.22-1.38,3.71-6,3.3-4.5ZM793,348.92c-.36-.1-5.7-3.11-5.54.67.12,2.61,7.09-.28,5.54-.67Zm9.16-5c-.21-.32-2.08-6.16-4.52-3.27-1.69,2,5.39,4.61,4.52,3.27Zm3.41,1.2c-.1.36-.08,6.49-3.3,4.5-2.22-1.38,3.71-6.05,3.3-4.5Zm-8.63,14.14c-.37-.09-5.7-3.11-5.54.67.12,2.61,7.09-.28,5.54-.67Zm2.87-2.55c.87,1.33-6.21-1.28-4.52-3.27,2.44-2.89,4.32,2.95,4.52,3.27Zm11.88,34.44c-.1.36-.08,6.49-3.3,4.5-2.22-1.38,3.71-6.05,3.3-4.5Zm-2.57-26.82c-.37-.09-5.71-3.11-5.54.67.11,2.61,7.08-.28,5.54-.67ZM754.35,309c-.21-.32-2.08-6.15-4.53-3.27-1.68,2,5.4,4.61,4.53,3.27Zm23.87,92.19c-.09.36-.08,6.5-3.29,4.5-2.22-1.38,3.71-6,3.29-4.5Zm30.43-45c-.37-.09-5.7-3.11-5.54.67.12,2.61,7.09-.27,5.54-.67ZM818.73,375c-.21-.32-2.08-6.16-4.53-3.27-1.68,2,5.4,4.61,4.53,3.27Zm-53-76.88c-.1.37-.08,6.5-3.3,4.5-2.22-1.38,3.71-6,3.3-4.5Zm15,29.34c-.36-.09-5.7-3.11-5.53.67.11,2.62,7.08-.27,5.53-.67Zm7.39-3.55c.87,1.34-6.21-1.27-4.52-3.26,2.45-2.89,4.32,2.95,4.52,3.26Zm7.08.53c-.1.36-.09,6.49-3.3,4.5-2.22-1.38,3.71-6,3.3-4.5Zm-13.55,14.28c-.37-.1-5.71-3.12-5.54.66.11,2.62,7.08-.27,5.54-.66Zm7.79-2.7c.87,1.34-6.21-1.27-4.52-3.26,2.44-2.89,4.31,2.95,4.52,3.26Zm10-2c1.55.39-5.42,3.28-5.54.66-.16-3.78,5.17-.76,5.54-.66Zm6.23-5.29c-.21-.32-2.08-6.16-4.52-3.27-1.69,2,5.39,4.61,4.52,3.27Zm0,3.92c-.1.37-.08,6.5-3.3,4.51-2.22-1.38,3.71-6.05,3.3-4.51Zm-18.73-30c-.37-.1-5.71-3.12-5.54.66.11,2.62,7.09-.27,5.54-.66Zm-53,31.17c-.21-.32-2.08-6.16-4.53-3.27-1.69,2,5.4,4.61,4.53,3.27Zm65.79-33.93c-.1.37-.09,6.5-3.3,4.5-2.22-1.38,3.71-6,3.3-4.5Zm-14.29,13.4c-.37-.1-5.7-3.11-5.54.67.12,2.61,7.09-.28,5.54-.67Zm8.53-1.81c.87,1.34-6.21-1.27-4.52-3.27,2.44-2.89,4.31,2.95,4.52,3.27Zm-.4,4.11c.41-1.54-5.52,3.12-3.3,4.5,3.22,2,3.2-4.13,3.3-4.5Zm17.09,5.28c1.55.4-5.43,3.28-5.54.67-.17-3.78,5.17-.76,5.54-.67Zm-9.09-2.49c-.2-.32-2.08-6.16-4.52-3.27-1.69,2,5.39,4.61,4.52,3.27Zm10.76,15.43c-.1.37-.08,6.5-3.3,4.5-2.22-1.38,3.71-6,3.3-4.5Zm-8.32-24.37c-.37-.1-5.71-3.11-5.54.67.11,2.61,7.09-.28,5.54-.67Zm2.23-6.44c-.21-.32-2.08-6.16-4.52-3.27-1.69,2,5.39,4.6,4.52,3.27Zm4.05,5.08c-.1.36-.09,6.49-3.3,4.5-2.22-1.38,3.71-6,3.3-4.5Zm7.52,7.71c-.37-.09-5.7-3.11-5.54.67.12,2.61,7.09-.27,5.54-.67Zm2.87-2.55c.87,1.34-6.21-1.27-4.52-3.27,2.44-2.89,4.32,2.95,4.52,3.27Zm3.41,1.19c-.1.37-.08,6.5-3.3,4.51-2.22-1.38,3.71-6.05,3.3-4.51Zm-5.27,10c-.36-.09-5.7-3.11-5.54.67.12,2.61,7.09-.28,5.54-.67Zm.79,10.05c-.21-.32-2.08-6.16-4.52-3.27-1.69,2,5.39,4.6,4.52,3.27Zm-91.78,12.15c-.1.37-.08,6.5-3.3,4.5-2.22-1.38,3.71-6,3.3-4.5Zm99.81-12.95c-.37-.09-5.71-3.11-5.54.67.11,2.61,7.09-.28,5.54-.67ZM740.13,321.5c-.37-.09-5.7-3.11-5.54.67.12,2.61,7.09-.28,5.54-.67Zm38.63-21.27c-.21-.32-2.08-6.16-4.53-3.27-1.68,2,5.4,4.6,4.53,3.27ZM741.66,327c.41-1.54-5.52,3.12-3.3,4.5,3.22,2,3.2-4.13,3.3-4.5Zm76.44-22.11c-.37-.09-5.71-3.11-5.54.67.11,2.61,7.08-.28,5.54-.67Zm-13.59,93.95c-.21-.32-2.08-6.15-4.53-3.27-1.68,2,5.4,4.61,4.53,3.27Zm18.23-23.36c-.1.36-.08,6.49-3.3,4.5-2.22-1.38,3.71-6,3.3-4.5ZM752.27,312.2c.63-1.47,2.37,5.88-.23,5.57-3.75-.44.08-5.22.23-5.57Zm-6.8,3.47c-.21-.32-2.08-6.16-4.52-3.27-1.69,2,5.39,4.61,4.52,3.27ZM786.78,402c-.41-1.54,5.52,3.12,3.3,4.5-3.22,2-3.2-4.14-3.3-4.5Zm-15.53,6.68c-.36-.09-5.7-3.11-5.54.67.12,2.61,7.09-.28,5.54-.67Zm-.19-102c.87,1.33-6.21-1.28-4.52-3.27C769,300.53,770.86,306.37,771.06,306.69Z"/><path class="cls-9" d="M83.77,410.59c-.07.26-.06,4.57-2.32,3.17-1.56-1,2.61-4.26,2.32-3.17ZM43.68,453c-.26-.06-4-2.19-3.9.47.08,1.84,5-.19,3.9-.47Zm35.86-22c-.26-.07-4-2.19-3.9.47.08,1.84,5-.2,3.9-.47ZM63.36,448.82c-.26-.06-4-2.19-3.9.47.09,1.84,5-.19,3.9-.47Zm1.8-5.69c.07.25.06,4.57,2.32,3.16,1.56-1-2.61-4.25-2.32-3.16Zm-11.64,7.66c-.07.26-.06,4.58-2.32,3.17-1.56-1,2.61-4.25,2.32-3.17Zm15.58-12.7c-.26-.07-4-2.19-3.9.47.08,1.84,5-.2,3.9-.47Zm6.4.16c-.15-.22-1.46-4.33-3.18-2.3-1.19,1.4,3.79,3.24,3.18,2.3Zm-44.57-48c-.07.26-.06,4.57-2.32,3.17-1.57-1,2.61-4.25,2.32-3.17Zm6.32,0c-.14-.23-1.46-4.34-3.18-2.3-1.19,1.4,3.79,3.24,3.18,2.3Zm-10.85-5c-.07.25,0,4.57-2.32,3.16-1.56-1,2.61-4.25,2.32-3.16Zm6-.89c1.09.27-3.82,2.3-3.9.47-.11-2.66,3.64-.54,3.9-.47Zm5.46-1.25c-.14-.23-1.46-4.34-3.18-2.3-1.19,1.4,3.8,3.24,3.18,2.3ZM24.33,390c-.26-.07-4-2.19-3.9.47.08,1.84,5-.19,3.9-.47Zm7.53,56.24c-.07.26-.06,4.57-2.32,3.17-1.57-1,2.61-4.25,2.32-3.17Zm-5.71,1.32c-.26-.07-4-2.19-3.9.47.08,1.84,5-.19,3.9-.47Zm.54-51.82c-.26-.06-4-2.19-3.9.47.08,1.84,5-.19,3.9-.47Zm-18,41.67c-.15-.23-1.46-4.34-3.18-2.3-1.19,1.4,3.79,3.24,3.18,2.3Zm5,.36c-.07.26-.06,4.58-2.32,3.17-1.57-1,2.61-4.25,2.32-3.17Zm11.08-28.71c-.26-.06-4-2.19-3.9.47.08,1.84,5-.19,3.9-.47Zm-5.37,31.1c-.15-.22-1.46-4.33-3.18-2.3-1.19,1.41,3.79,3.25,3.18,2.3ZM17.55,444c-.26-.06-4-2.19-3.9.47.08,1.84,5-.19,3.9-.47Zm-5-12.44c-.07.26-.06,4.57-2.32,3.17-1.57-1,2.61-4.26,2.32-3.17Zm5.63,2c-.15-.22-1.46-4.33-3.18-2.3-1.19,1.41,3.79,3.24,3.18,2.3Zm19.2,9.32c-.26-.07-4-2.19-3.9.47.08,1.84,5-.2,3.9-.47ZM31.53,410.1c-.07.25-.06,4.57-2.32,3.16-1.57-1,2.61-4.25,2.32-3.16Zm-3-28.92c-.26-.07-4-2.19-3.9.47.08,1.83,5-.2,3.9-.47Zm6.16,19.45c-.14-.23-1.46-4.34-3.18-2.3-1.19,1.4,3.79,3.24,3.18,2.3Zm12.89-28.24c-.07.26-.06,4.57-2.32,3.17-1.57-1,2.61-4.25,2.32-3.17ZM30.47,404.17c-.07.26-.06,4.57-2.32,3.17-1.56-1,2.61-4.26,2.32-3.17ZM75,427.65c1.09.27-3.82,2.3-3.9.47-.11-2.66,3.64-.54,3.9-.47Zm6.38-22.91c-.14-.23-1.46-4.33-3.18-2.3-1.19,1.4,3.79,3.24,3.18,2.3Zm-18,13c-.07.26-.06,4.57-2.32,3.17-1.56-1,2.61-4.25,2.32-3.17Zm3.86-12.68c-.26-.06-4-2.19-3.9.47.08,1.84,5-.19,3.9-.47Zm4.42-1c-.07.26-.06,4.58-2.32,3.17-1.57-1,2.61-4.25,2.32-3.17ZM64,409.7c-.26-.06-4-2.19-3.9.47.08,1.84,5-.19,3.9-.47Zm4.93,6.93c-.14-.22-1.46-4.33-3.18-2.3-1.19,1.41,3.8,3.24,3.18,2.3Zm2.84,5.18C72,420.72,67.84,424,69.4,425c2.27,1.41,2.25-2.91,2.32-3.16Zm2.4-4.18c-.26-.07-4-2.19-3.89.47.08,1.84,5-.19,3.89-.47Zm2-1.8c.62.94-4.37-.89-3.18-2.3,1.72-2,3,2.08,3.18,2.3ZM7.08,404.6c-.07.26,0,4.57-2.32,3.17-1.56-1,2.62-4.26,2.32-3.17Zm67.56,6.23c-.26-.07-4-2.19-3.9.47.08,1.83,5-.2,3.9-.47Zm2.52-4.26c.61.94-4.37-.9-3.19-2.3,1.72-2,3,2.07,3.19,2.3Zm1.9,3.3c.29-1.09-3.88,2.2-2.32,3.17,2.26,1.4,2.25-2.91,2.32-3.17ZM6.19,417.14c-.26-.07-4-2.19-3.9.47.08,1.84,5-.2,3.9-.47Zm1.87-3.35c-.15-.22-1.47-4.33-3.19-2.3-1.19,1.41,3.8,3.25,3.19,2.3Zm5,.37c-.07.26,0,4.57-2.32,3.17-1.56-1,2.62-4.25,2.32-3.17Zm-6.29,10.3c-.26-.06-4-2.19-3.9.47.08,1.84,5-.19,3.9-.47ZM9,422.32c.61.94-4.37-.9-3.18-2.3,1.72-2,3,2.07,3.18,2.3Zm7.07-1.44c-.26-.06-4-2.19-3.9.47.08,1.84,5-.19,3.9-.47Zm4.38-3.72c-.14-.22-1.46-4.33-3.18-2.3-1.19,1.41,3.79,3.24,3.18,2.3Zm0,2.76c-.07.26-.06,4.58-2.32,3.17-1.57-1,2.61-4.25,2.32-3.17Zm3-19.73c1.08.28-3.82,2.31-3.9.47-.12-2.66,3.64-.53,3.9-.47Zm-5.64-5.87c-.15-.23-1.46-4.34-3.18-2.3-1.19,1.4,3.79,3.24,3.18,2.3Zm-1.57,2.56c-.06.26-.05,4.58-2.31,3.17-1.57-1,2.61-4.25,2.31-3.17Zm-2.69,31.55c-.26-.06-4-2.19-3.9.47.08,1.84,5-.19,3.9-.47ZM12.2,405c-.14-.22-1.46-4.33-3.18-2.3-1.19,1.41,3.8,3.24,3.18,2.3Zm-.28,2.9c-.07.25-.05,4.57-2.32,3.16-1.56-1,2.61-4.25,2.32-3.16Zm5.64,2c-.15-.23-1.47-4.33-3.19-2.3-1.19,1.4,3.8,3.24,3.19,2.3Zm1.71-6.29c-.26-.07-4-2.2-3.9.47.08,1.83,5-.2,3.9-.47Zm2.08,22.49c-.07.26-.06,4.57-2.32,3.17-1.57-1,2.61-4.26,2.32-3.17Zm21.86-20.05c-.07.26-.06,4.57-2.32,3.17-1.57-1,2.61-4.26,2.32-3.17Zm6.15.39c-.14-.22-1.46-4.33-3.18-2.3-1.19,1.41,3.8,3.25,3.18,2.3ZM25,433.51c-.26-.06-4-2.19-3.9.47.08,1.84,5-.19,3.9-.47Zm5.2-2.5c.61.95-4.37-.89-3.18-2.3,1.72-2,3,2.08,3.18,2.3Zm5,.37c-.07.26-.06,4.57-2.32,3.17-1.57-1,2.61-4.25,2.32-3.17ZM25.6,441.43c-.26-.06-4-2.19-3.9.47.08,1.84,5-.19,3.9-.47Zm5.49-1.89c-.15-.23-1.47-4.34-3.19-2.3-1.18,1.4,3.8,3.24,3.19,2.3Zm7.06-1.44c-.26-.06-4-2.19-3.89.47.08,1.84,5-.19,3.89-.47Zm4.39-3.72c-.15-.22-1.46-4.33-3.18-2.3-1.19,1.41,3.79,3.25,3.18,2.3Zm0,2.76c-.07.26-.06,4.58-2.32,3.17-1.56-1,2.61-4.25,2.32-3.17ZM29.39,416.05c-.26-.07-4-2.19-3.9.47.08,1.83,5-.2,3.9-.47Zm8.82-5.74c-.15-.22-1.47-4.33-3.19-2.3-1.18,1.41,3.8,3.25,3.19,2.3Zm.15,3.79c-.07.26-.06,4.58-2.32,3.17-1.56-1,2.61-4.25,2.32-3.17Zm-10,9.44c-.26-.07-4-2.2-3.9.47.08,1.83,5-.2,3.9-.47Zm6-1.28c.61.94-4.37-.89-3.18-2.3,1.72-2,3,2.08,3.18,2.3Zm-.28,2.9c.29-1.09-3.88,2.19-2.32,3.16C34,429.73,34,425.41,34,425.16Zm12,3.71c1.09.28-3.82,2.31-3.9.47-.12-2.66,3.64-.53,3.9-.47Zm-6.4-1.75c-.14-.23-1.46-4.33-3.18-2.3-1.19,1.4,3.79,3.24,3.18,2.3ZM47.23,438c-.07.26-.06,4.57-2.32,3.17-1.56-1,2.61-4.26,2.32-3.17Zm-5.85-17.15c-.26-.07-4-2.2-3.9.47.08,1.83,5-.2,3.9-.47Zm1.56-4.54c-.14-.22-1.46-4.33-3.18-2.3-1.19,1.41,3.8,3.24,3.18,2.3Zm2.85,3.58c-.07.26,0,4.57-2.32,3.17-1.56-1,2.62-4.26,2.32-3.17Zm5.3,5.43c-.26-.07-4-2.19-3.9.47.08,1.84,5-.19,3.9-.47Zm27.35-1.61c.61.94-4.37-.9-3.18-2.3,1.72-2,3,2.07,3.18,2.3Zm-24.15-4.1c-.07.26-.06,4.58-2.32,3.17-1.56-1,2.61-4.25,2.32-3.17ZM49.44,434.3c-.26-.07-4-2.19-3.9.47.08,1.84,5-.2,3.9-.47Zm3.31-1.56c.61.95-4.37-.89-3.18-2.29,1.72-2,3,2.07,3.18,2.29ZM51,441.51c.29-1.08-3.88,2.2-2.32,3.17,2.27,1.4,2.25-2.91,2.32-3.17Zm7-3.64c-.26-.07-4-2.19-3.9.47.08,1.84,5-.2,3.9-.47Zm6.76-2.27c.61.94-4.38-.89-3.19-2.3,1.72-2,3,2.08,3.19,2.3Zm-21.32,7.72c.29-1.08-3.88,2.2-2.32,3.17,2.27,1.4,2.25-2.91,2.32-3.17Zm15.07-12.26c-.26-.06-4-2.19-3.9.47.08,1.84,5-.19,3.9-.47Zm2.08-3.38c-.14-.22-1.46-4.33-3.18-2.29-1.19,1.4,3.79,3.24,3.18,2.29Zm11.19,12.5c-.07.26-.06,4.58-2.32,3.17-1.56-1,2.61-4.25,2.32-3.17Zm-23.3-29.86c-.26-.06-4-2.19-3.9.48.08,1.83,5-.2,3.9-.48Zm6.45-3.52c-.15-.23-1.46-4.33-3.18-2.3-1.19,1.4,3.79,3.24,3.18,2.3Zm2.4.84c-.07.26-.06,4.57-2.32,3.17-1.57-1,2.61-4.25,2.32-3.17Zm-6.08,10c-.26-.07-4-2.19-3.89.47.08,1.84,5-.2,3.89-.47Zm2-1.8c.62.94-4.37-.9-3.18-2.3,1.72-2,3,2.07,3.18,2.3ZM61.64,440c-.07.25,0,4.57-2.32,3.16-1.56-1,2.61-4.25,2.32-3.16Zm-1.81-18.87c-.26-.07-4-2.2-3.89.47.08,1.83,5-.2,3.89-.47ZM21.31,382.22c-.15-.23-1.47-4.33-3.19-2.3-1.18,1.4,3.8,3.24,3.19,2.3Zm16.8,64.88c-.07.25,0,4.57-2.32,3.16-1.56-1,2.61-4.25,2.32-3.16Zm21.42-31.69c-.26-.07-4-2.19-3.9.47.08,1.84,5-.19,3.9-.47Zm7.09,13.29c-.15-.22-1.47-4.33-3.19-2.3-1.18,1.41,3.8,3.24,3.19,2.3ZM29.29,374.6c-.07.25-.06,4.57-2.32,3.16-1.56-1,2.61-4.25,2.32-3.16Zm10.58,20.65c-.26-.07-4-2.19-3.9.47.08,1.84,5-.2,3.9-.47Zm5.2-2.5c.61.94-4.37-.9-3.18-2.3,1.72-2,3,2.07,3.18,2.3Zm5,.37c-.07.25-.06,4.57-2.32,3.16-1.56-1,2.61-4.25,2.32-3.16Zm-9.54,10.05c-.26-.07-4-2.19-3.9.47.08,1.83,5-.2,3.9-.47Zm5.49-1.9c.61.94-4.37-.89-3.19-2.3,1.73-2,3,2.08,3.19,2.3Zm7.06-1.43c1.09.27-3.81,2.3-3.89.47-.12-2.66,3.64-.54,3.89-.47Zm4.39-3.72c-.15-.23-1.46-4.34-3.18-2.3-1.19,1.4,3.79,3.24,3.18,2.3Zm0,2.76c-.07.26,0,4.57-2.32,3.17-1.56-1,2.61-4.26,2.32-3.17ZM44.3,377.78c-.26-.07-4-2.19-3.9.47.08,1.84,5-.19,3.9-.47ZM7,399.72c-.14-.22-1.46-4.33-3.18-2.3-1.19,1.41,3.79,3.24,3.18,2.3Zm46.3-23.88c-.07.26-.06,4.57-2.32,3.17-1.56-1,2.61-4.26,2.32-3.17Zm-10.05,9.43c-.26-.07-4-2.19-3.9.47.08,1.84,5-.19,3.9-.47Zm6-1.27c.61.94-4.37-.9-3.18-2.3,1.72-2,3,2.07,3.18,2.3Zm-.28,2.89c.29-1.08-3.88,2.2-2.32,3.17,2.26,1.4,2.25-2.91,2.32-3.17Zm12,3.72c1.09.28-3.82,2.31-3.9.47-.12-2.66,3.64-.54,3.9-.47Zm-6.4-1.76c-.14-.22-1.46-4.33-3.18-2.3-1.19,1.41,3.79,3.25,3.18,2.3Zm7.57,10.86c-.07.26-.06,4.57-2.32,3.17-1.56-1,2.61-4.25,2.32-3.17Zm-5.85-17.15c-.26-.07-4-2.19-3.9.47.08,1.84,5-.19,3.9-.47ZM57.86,378c-.15-.23-1.47-4.34-3.19-2.3-1.19,1.4,3.8,3.24,3.19,2.3Zm2.84,3.57c-.07.26-.05,4.58-2.32,3.17-1.56-1,2.62-4.25,2.32-3.17ZM66,387c-.26-.06-4-2.19-3.9.47.08,1.84,5-.19,3.9-.47Zm2-1.79c.61.94-4.37-.9-3.18-2.3,1.72-2,3,2.07,3.18,2.3Zm2.4.84c-.07.25-.06,4.57-2.32,3.16-1.56-1,2.61-4.25,2.32-3.16Zm-3.71,7c-.26-.06-4-2.19-3.9.47.09,1.84,5-.19,3.9-.47Zm.56,7.07c-.15-.23-1.47-4.33-3.19-2.3-1.19,1.4,3.8,3.24,3.19,2.3Zm-64.6,8.55c-.07.26-.06,4.58-2.32,3.17-1.56-1,2.61-4.25,2.32-3.17Zm70.25-9.11c-.26-.07-4-2.19-3.9.47.08,1.84,5-.19,3.9-.47Zm2-1.8c.61.94-4.37-.89-3.19-2.3,1.72-2,3,2.08,3.19,2.3Zm3.72-.77c-.07.26,0,4.57-2.32,3.17-1.56-1,2.61-4.26,2.32-3.17Zm-2.94-6.3c-.26-.06-4-2.19-3.9.47.08,1.84,5-.19,3.9-.47Zm6.18,29c-.15-.23-1.47-4.34-3.19-2.3-1.18,1.4,3.8,3.24,3.19,2.3Zm0,5.13c-.07.26,0,4.57-2.32,3.17-1.56-1,2.62-4.26,2.32-3.17ZM11.3,391c-.26-.07-4-2.19-3.89.47.07,1.84,5-.19,3.89-.47Zm27.19-15c-.15-.23-1.47-4.34-3.19-2.31-1.18,1.41,3.8,3.25,3.19,2.31ZM12.38,394.89c.29-1.08-3.89,2.2-2.32,3.17,2.26,1.4,2.25-2.91,2.32-3.17Zm53.8-15.56c-.27-.06-4-2.19-3.9.47.08,1.84,5-.19,3.9-.47Zm-9.57,66.12c-.15-.22-1.46-4.33-3.18-2.3-1.19,1.41,3.79,3.25,3.18,2.3ZM69.44,429c-.07.26-.06,4.57-2.32,3.17-1.56-1,2.61-4.26,2.32-3.17Zm-49.6-44.53c.45-1,1.67,4.14-.15,3.92-2.65-.3,0-3.67.15-3.92Zm-4.78,2.45c-.15-.23-1.46-4.34-3.18-2.3-1.19,1.4,3.79,3.24,3.18,2.3Zm29.07,60.76c-.29-1.09,3.89,2.19,2.32,3.17-2.26,1.4-2.25-2.91-2.32-3.17Zm-10.92,4.7c-.26-.06-4-2.19-3.9.47.08,1.84,5-.19,3.9-.47Zm-.14-71.79c.61.94-4.37-.89-3.18-2.3C31.61,376.27,32.93,380.38,33.07,380.6Z"/></g></g></svg>