<svg xmlns="http://www.w3.org/2000/svg" viewBox="0 0 47.3 154.27"><defs><style>.cls-1{fill:#edeeee;fill-rule:evenodd;}</style></defs><g id="Шар_2" data-name="Шар 2"><g id="challenge_schedule" data-name="challenge schedule"><path class="cls-1" d="M47.27,69.44c-.15.55-.12,9.88-5,6.84-3.37-2.09,5.65-9.19,5-6.84ZM0,154.27v-3.51c1.57.54,2.94,1.27,3.16,1.32,1.15.3-.83,1.51-3.16,2.19Zm0-32.86v-3.56c3.37-2.63,5.89,5.2,6.19,5.65.91,1.41-3.95,0-6.19-2.09ZM0,92.34V86.26c1.65-1.52,3.42-2.45,3.13-1.37C3,85.37,3,92.17,0,92.34ZM0,70V65.84a26.6,26.6,0,0,1,4.43,1.68c1.36.35-1.64,2-4.43,2.5ZM0,49.89V45.51c.41-.13.63,0,.52.41a34,34,0,0,1-.52,4Zm38.12,63.73c-.56-.15-8.68-4.74-8.42,1,.17,4,10.78-.43,8.42-1ZM7.05,139.77c.15.56.12,9.88,5,6.85,3.38-2.1-5.65-9.2-5-6.85Zm8.5-10.89c-.56-.15-8.68-4.74-8.42,1,.17,4,10.77-.42,8.42-1Zm13.84.35c-.31-.49-3.16-9.37-6.88-5-2.57,3,8.21,7,6.88,5Zm-1.12-22.92c2.35.59-8.25,5-8.43,1-.25-5.75,7.87-1.16,8.43-1ZM42.06,56.79c-.31-.49-3.16-9.37-6.88-5-2.57,3,8.2,7,6.88,5Zm-30.59.7c-.56-.14-8.68-4.73-8.43,1,.18,4,10.78-.42,8.43-1ZM21,55.42c-.15.56-.13,9.89-5,6.85-3.38-2.1,5.65-9.19,5-6.85ZM15.09,82.5c-.32-.49-3.16-9.37-6.88-5-2.57,3,8.2,7,6.88,5Zm6.14,11.18c.63-2.34-8.4,4.75-5,6.85,4.89,3,4.86-6.29,5-6.85Zm5.19-9c-.56-.14-8.68-4.73-8.43,1,.18,4,10.78-.42,8.43-1Zm4.36-3.88c1.33,2-9.44-1.94-6.88-5,3.72-4.39,6.57,4.49,6.88,5ZM27.54,70c-.57-.15-8.68-4.74-8.43,1,.17,4,10.78-.42,8.43-1ZM33,60.75c1.32,2-9.45-1.94-6.88-5,3.72-4.39,6.57,4.49,6.88,5Zm4.11,7.13c.63-2.35-8.39,4.75-5,6.85,4.89,3,4.86-6.29,5-6.85ZM35.75,97.75c1.32,2-9.45-1.93-6.88-5,3.72-4.39,6.57,4.49,6.88,5ZM21.37,133.41c-.15.56-.12,9.88-5,6.85-3.38-2.1,5.64-9.19,5-6.85ZM10.19,108.58c-.32-.48-3.16-9.36-6.88-5-2.57,3,8.2,7,6.88,5ZM8.86,18.52c-.56-.14-8.68-4.73-8.43,1,.18,4,10.78-.42,8.43-1Zm4.37-3.89c1.32,2-9.45-1.93-6.88-5,3.71-4.39,6.56,4.49,6.88,5Zm5.18,1.82c-.15.56-.13,9.88-5,6.85-3.38-2.1,5.65-9.19,5-6.85Zm-8,15.17c-.56-.15-8.68-4.74-8.43,1,.18,4,10.78-.42,8.43-1Zm1.19,15.27c-.31-.48-3.16-9.36-6.88-5-2.57,3,8.2,7,6.88,5Zm12.22-1.21c-.56-.14-8.68-4.73-8.43,1,.18,4,10.78-.42,8.43-1Zm4.36-3.88c1.33,2-9.44-1.94-6.87-5,3.71-4.39,6.56,4.49,6.87,5Zm8.06-1.68c-.15.56-.13,9.89-5,6.85-3.38-2.1,5.65-9.19,5-6.85Zm-6.37-13.6c-.56-.15-8.68-4.74-8.43,1,.18,4,10.78-.42,8.43-1ZM43.22,89.17c-.32-.49-3.16-9.37-6.88-5-2.57,3,8.2,7,6.88,5Zm-.07,11.09c-.15.56-.13,9.88-5,6.85-3.38-2.1,5.65-9.2,5-6.85ZM9.24,1.87C8.67,1.73.56-2.86.81,2.89c.17,4,10.78-.42,8.43-1Zm7,107.38c-.15.56-.12,9.89-5,6.85C7.9,114,16.92,106.91,16.29,109.25Z"/></g></g></svg>