<svg xmlns="http://www.w3.org/2000/svg" viewBox="0 0 75 71.75"><defs><style>.cls-1{isolation:isolate;}.cls-2{fill:#fff;}.cls-3{fill:#ececec;mix-blend-mode:multiply;}.cls-3,.cls-4,.cls-7{fill-rule:evenodd;}.cls-4,.cls-5,.cls-7{fill:none;stroke-miterlimit:10;stroke-width:1.42px;}.cls-4,.cls-5{stroke:#464545;}.cls-6{fill:#4a66ae;}.cls-7{stroke:#4a66ae;}</style></defs><g class="cls-1"><g id="Шар_2" data-name="Шар 2"><g id="what_will_the_challenge_fund" data-name="what will the challenge fund"><circle class="cls-2" cx="41.44" cy="38.2" r="33.55" transform="translate(-7.95 11.05) rotate(-13.87)"/><path class="cls-3" d="M68.51,31.42c-.06.21-.05,3.74-1.9,2.59-1.28-.8,2.14-3.48,1.9-2.59ZM35.72,66.12c-.21-.05-3.28-1.79-3.19.39.07,1.5,4.08-.16,3.19-.39Zm29.33-18c-.21-.05-3.28-1.79-3.19.39.07,1.5,4.08-.16,3.19-.39ZM51.82,62.69c-.21-.06-3.28-1.8-3.19.38.07,1.5,4.08-.16,3.19-.38ZM53.29,58c.06.21.05,3.74,1.9,2.59,1.28-.8-2.14-3.48-1.9-2.59ZM43.77,64.3c-.06.21-.05,3.74-1.9,2.59-1.28-.8,2.14-3.48,1.9-2.59ZM56.51,53.91c-.21-.06-3.28-1.8-3.19.38.07,1.5,4.08-.16,3.19-.38Zm5.24.13c-.12-.18-1.2-3.55-2.61-1.88-1,1.15,3.11,2.65,2.61,1.88ZM25.29,14.78c-.05.22,0,3.74-1.9,2.6-1.27-.8,2.14-3.48,1.9-2.6Zm5.18,0c-.12-.19-1.2-3.55-2.61-1.89-1,1.15,3.11,2.66,2.61,1.89Zm-8.88-4.1c-.05.21,0,3.74-1.89,2.59-1.28-.79,2.13-3.48,1.89-2.59Zm4.92-.73c.9.23-3.12,1.89-3.18.38-.1-2.17,3-.43,3.18-.38Zm4.47-1c-.12-.19-1.19-3.55-2.6-1.88-1,1.15,3.1,2.65,2.6,1.88ZM19.9,14.59c-.22-.05-3.29-1.79-3.19.39.06,1.5,4.08-.16,3.19-.39Zm6.15,46c-.05.21,0,3.74-1.9,2.59-1.27-.79,2.14-3.48,1.9-2.59Zm-4.66,1.08c-.21-.06-3.29-1.79-3.19.38.07,1.51,4.08-.16,3.19-.38Zm.44-42.38c-.21-.05-3.28-1.79-3.19.39.07,1.5,4.08-.16,3.19-.39ZM7.07,53.37c-.12-.19-1.19-3.55-2.6-1.89-1,1.15,3.1,2.65,2.6,1.89Zm4.07.29c-.05.22,0,3.75-1.89,2.6-1.28-.8,2.13-3.48,1.89-2.6Zm9.07-23.47c-.21-.06-3.29-1.8-3.19.38.06,1.5,4.08-.16,3.19-.38Zm-4.4,25.43c-.11-.18-1.19-3.54-2.6-1.88-1,1.15,3.11,2.65,2.6,1.88Zm-1.46,3.13c-.21,0-3.29-1.79-3.19.39.07,1.5,4.08-.16,3.19-.39ZM10.24,48.57c-.06.22-.05,3.74-1.9,2.6-1.28-.8,2.13-3.48,1.9-2.6Zm4.6,1.61c-.12-.18-1.19-3.54-2.6-1.88-1,1.15,3.1,2.65,2.6,1.88ZM30.55,57.8c-.22-.06-3.29-1.79-3.19.38.06,1.51,4.08-.16,3.19-.38ZM25.78,31c-.05.22,0,3.74-1.89,2.59C22.61,32.81,26,30.13,25.78,31ZM23.32,7.36c-.22-.05-3.29-1.79-3.19.39.06,1.5,4.08-.16,3.19-.39Zm5,15.91c-.12-.18-1.2-3.54-2.61-1.88-1,1.15,3.11,2.65,2.61,1.88ZM38.89.18c-.06.21,0,3.74-1.9,2.59C35.72,2,39.13-.71,38.89.18Zm-14,26c-.06.22-.05,3.74-1.9,2.6-1.27-.8,2.14-3.48,1.9-2.6Zm36.4,19.21c.89.22-3.12,1.88-3.19.38-.09-2.17,3-.44,3.19-.38Zm5.22-18.74c-.12-.18-1.2-3.54-2.6-1.88-1,1.15,3.1,2.65,2.6,1.88ZM51.81,37.27c-.06.21-.05,3.74-1.9,2.59-1.28-.8,2.14-3.48,1.9-2.59ZM55,26.9c-.21-.06-3.28-1.79-3.18.38.06,1.5,4.07-.16,3.18-.38Zm3.62-.79c-.06.22,0,3.74-1.9,2.6-1.28-.8,2.14-3.48,1.9-2.6ZM52.3,30.69c-.21-.05-3.28-1.79-3.19.39.07,1.5,4.08-.16,3.19-.39Zm4,5.67c-.12-.19-1.19-3.55-2.6-1.88-1,1.15,3.1,2.65,2.6,1.88Zm2.33,4.23c.24-.89-3.18,1.8-1.9,2.59,1.85,1.15,1.84-2.38,1.9-2.59Zm2-3.42c-.21-.05-3.28-1.79-3.19.39.07,1.5,4.08-.16,3.19-.39Zm1.65-1.47c.5.77-3.57-.73-2.6-1.88,1.41-1.66,2.48,1.7,2.6,1.88ZM5.79,26.52c0,.21,0,3.74-1.89,2.59-1.28-.8,2.13-3.48,1.89-2.59ZM61,31.61c-.21-.05-3.28-1.79-3.18.39.06,1.5,4.07-.16,3.18-.39Zm2.06-3.48c.5.77-3.57-.73-2.6-1.88,1.4-1.67,2.48,1.7,2.6,1.88Zm1.56,2.7c.23-.89-3.18,1.79-1.9,2.59,1.85,1.15,1.84-2.38,1.9-2.59ZM5.06,36.77c-.21-.05-3.28-1.79-3.18.39.06,1.5,4.07-.16,3.18-.39ZM6.59,34c-.12-.19-1.2-3.55-2.6-1.88-1,1.15,3.1,2.65,2.6,1.88Zm4.07.3c-.06.21-.05,3.74-1.9,2.59-1.28-.79,2.14-3.48,1.9-2.59ZM5.51,42.76c-.21,0-3.28-1.79-3.19.39.07,1.5,4.08-.16,3.19-.39ZM7.35,41c.49.77-3.58-.73-2.61-1.88,1.41-1.67,2.49,1.7,2.61,1.88Zm5.77-1.18c-.21,0-3.28-1.79-3.18.39.06,1.5,4.07-.16,3.18-.39Zm3.59-3c-.12-.18-1.2-3.54-2.6-1.88-1,1.15,3.1,2.65,2.6,1.88Zm0,2.26c-.06.21,0,3.74-1.9,2.59-1.28-.79,2.14-3.48,1.9-2.59Zm2.44-16.14c.89.23-3.12,1.89-3.19.39-.09-2.18,3-.44,3.19-.39Zm-4.61-4.8c-.12-.19-1.19-3.55-2.6-1.88-1,1.15,3.1,2.65,2.6,1.88Zm-1.28,2.1c0,.21,0,3.74-1.89,2.59-1.28-.79,2.13-3.48,1.89-2.59ZM11.09,46c-.21,0-3.28-1.79-3.19.39C8,47.9,12,46.24,11.09,46ZM10,26.88c-.12-.18-1.2-3.54-2.6-1.88-1,1.15,3.1,2.65,2.6,1.88Zm-.23,2.37c-.06.21-.05,3.74-1.9,2.59C6.57,31,10,28.36,9.75,29.25Zm4.61,1.6c-.12-.18-1.2-3.54-2.61-1.88-1,1.15,3.11,2.65,2.61,1.88Zm1.4-5.14c-.21-.06-3.28-1.8-3.19.38.07,1.5,4.08-.16,3.19-.38Zm1.7,18.39c-.06.21-.05,3.74-1.9,2.59-1.28-.79,2.14-3.48,1.9-2.59ZM35.34,27.7c-.06.22-.05,3.74-1.9,2.59-1.28-.79,2.13-3.47,1.9-2.59Zm5,.33c-.12-.19-1.2-3.55-2.6-1.88-1,1.15,3.1,2.65,2.6,1.88Zm-20,22.14c-.21-.06-3.28-1.8-3.18.38.06,1.5,4.07-.16,3.18-.38Zm4.26-2.05c.5.77-3.58-.73-2.61-1.88,1.41-1.66,2.49,1.7,2.61,1.88Zm4.07.3c-.06.21,0,3.74-1.9,2.59-1.28-.79,2.14-3.48,1.9-2.59Zm-7.8,8.22c-.22,0-3.29-1.79-3.19.38.06,1.51,4.08-.15,3.19-.38Zm4.48-1.55c-.12-.18-1.19-3.54-2.6-1.88-1,1.15,3.1,2.65,2.6,1.88Zm5.78-1.17c-.21-.06-3.28-1.79-3.19.38.07,1.51,4.08-.16,3.19-.38Zm3.59-3c-.12-.19-1.2-3.55-2.6-1.88-1,1.14,3.1,2.65,2.6,1.88Zm0,2.25c-.06.22,0,3.74-1.9,2.6-1.28-.8,2.13-3.48,1.9-2.6ZM24,35.88c-.22-.05-3.29-1.79-3.19.38.06,1.51,4.08-.15,3.19-.38Zm7.21-4.69c-.12-.18-1.2-3.54-2.61-1.88-1,1.15,3.11,2.65,2.61,1.88Zm.12,3.1c-.06.21-.05,3.74-1.89,2.59-1.28-.79,2.13-3.47,1.89-2.59ZM23.15,42c-.21-.06-3.28-1.8-3.19.38.07,1.5,4.08-.16,3.19-.38Zm4.91-1c.5.77-3.58-.73-2.6-1.88,1.4-1.66,2.48,1.7,2.6,1.88Zm-.23,2.37c.24-.89-3.18,1.8-1.9,2.59,1.85,1.15,1.84-2.38,1.9-2.59Zm9.84,3c.89.23-3.13,1.89-3.19.39-.1-2.18,3-.44,3.19-.39Zm-5.23-1.43c-.12-.19-1.2-3.55-2.61-1.89-1,1.15,3.11,2.66,2.61,1.89Zm6.19,8.88c-.06.21-.05,3.74-1.9,2.59-1.28-.8,2.13-3.48,1.9-2.59Zm-4.79-14c-.21-.06-3.29-1.79-3.19.38.07,1.51,4.08-.16,3.19-.38Zm1.28-3.71c-.12-.18-1.2-3.54-2.6-1.88-1,1.15,3.1,2.65,2.6,1.88ZM37.45,39c-.06.21-.05,3.74-1.9,2.59-1.27-.8,2.14-3.48,1.9-2.59Zm4.33,4.44c-.21-.06-3.28-1.79-3.19.38.07,1.51,4.08-.16,3.19-.38Zm22.37-1.32c.5.77-3.57-.73-2.6-1.88C63,38.59,64,42,64.15,42.13ZM44.4,38.78c-.06.21,0,3.74-1.9,2.59-1.28-.79,2.14-3.48,1.9-2.59Zm-4,12c-.21-.06-3.28-1.8-3.19.38.07,1.5,4.08-.16,3.19-.38Zm2.71-1.27c.5.77-3.57-.74-2.6-1.88C42,46,43,49.35,43.14,49.54ZM41.69,56.7c.24-.88-3.17,1.8-1.89,2.6,1.85,1.14,1.84-2.38,1.89-2.6Zm5.75-3c-.21-.06-3.28-1.8-3.19.38.07,1.5,4.08-.16,3.19-.38ZM53,51.87c.5.77-3.58-.73-2.61-1.88,1.41-1.66,2.49,1.7,2.61,1.88ZM35.54,58.19c.23-.89-3.18,1.79-1.9,2.59,1.85,1.14,1.84-2.38,1.9-2.59Zm12.32-10c-.21,0-3.28-1.79-3.19.39.07,1.5,4.08-.16,3.19-.39Zm1.7-2.76c-.12-.19-1.19-3.55-2.6-1.88-1,1.15,3.1,2.65,2.6,1.88Zm9.15,10.22c-.06.21-.05,3.74-1.9,2.59-1.27-.79,2.14-3.48,1.9-2.59ZM39.66,31.2c-.21-.05-3.28-1.79-3.19.39.07,1.5,4.08-.16,3.19-.39Zm5.27-2.88c-.12-.19-1.2-3.55-2.6-1.88-1,1.15,3.1,2.65,2.6,1.88Zm2,.69c-.06.21,0,3.74-1.9,2.59-1.28-.8,2.14-3.48,1.9-2.59Zm-5,8.14c-.21-.06-3.28-1.79-3.18.38.06,1.51,4.08-.16,3.18-.38Zm1.66-1.47c.5.77-3.58-.74-2.61-1.88,1.41-1.67,2.49,1.69,2.61,1.88ZM50.41,55.5c0,.21,0,3.74-1.89,2.59-1.28-.79,2.13-3.48,1.89-2.59ZM48.93,40.07c-.21-.06-3.28-1.8-3.18.38.06,1.51,4.07-.16,3.18-.38ZM17.43,8.22c-.12-.19-1.2-3.55-2.61-1.89-1,1.15,3.11,2.66,2.61,1.89ZM31.17,61.27c-.06.21-.05,3.74-1.9,2.59-1.28-.79,2.14-3.47,1.9-2.59ZM48.68,35.36c-.21,0-3.28-1.79-3.19.38.07,1.51,4.08-.15,3.19-.38Zm5.8,10.87c-.12-.19-1.2-3.55-2.6-1.88-1,1.15,3.1,2.65,2.6,1.88ZM24,2c-.05.21,0,3.74-1.89,2.59C20.78,3.78,24.19,1.09,24,2Zm8.66,16.89c-.21-.05-3.29-1.79-3.19.38.07,1.51,4.08-.15,3.19-.38Zm4.25-2c.5.77-3.57-.74-2.6-1.88,1.4-1.67,2.48,1.69,2.6,1.88Zm4.07.3c-.06.21,0,3.74-1.9,2.59-1.27-.8,2.14-3.48,1.9-2.59Zm-7.8,8.22c-.21-.06-3.28-1.8-3.19.38.07,1.5,4.08-.16,3.19-.38Zm4.49-1.55c.5.77-3.58-.73-2.61-1.88,1.41-1.67,2.49,1.69,2.61,1.88Zm5.78-1.18c.89.23-3.12,1.89-3.19.39-.1-2.18,3-.44,3.19-.39Zm3.58-3c-.12-.18-1.19-3.54-2.6-1.88-1,1.15,3.1,2.65,2.6,1.88Zm0,2.26c-.06.21,0,3.74-1.9,2.59-1.28-.79,2.14-3.48,1.9-2.59ZM36.23,4.59C36,4.53,33,2.79,33,5c.07,1.5,4.08-.16,3.19-.38ZM5.7,22.53c-.12-.19-1.2-3.55-2.6-1.88-1,1.15,3.1,2.65,2.6,1.88ZM43.57,3c-.06.21,0,3.74-1.9,2.59C40.39,4.8,43.81,2.11,43.57,3Zm-8.22,7.71c-.22-.05-3.29-1.79-3.19.39.06,1.5,4.08-.16,3.19-.39Zm4.9-1c.5.77-3.57-.73-2.6-1.88,1.41-1.67,2.48,1.69,2.6,1.88ZM40,12c.24-.89-3.17,1.79-1.89,2.59C40,15.78,40,12.25,40,12Zm9.84,3c.89.22-3.12,1.88-3.19.38-.09-2.17,3-.44,3.19-.38Zm-5.23-1.44c-.12-.18-1.2-3.54-2.6-1.88-1,1.15,3.1,2.65,2.6,1.88Zm6.19,8.88c-.06.21,0,3.74-1.9,2.59-1.27-.79,2.14-3.48,1.9-2.59ZM46,8.49c-.21-.05-3.28-1.79-3.19.39.07,1.5,4.08-.16,3.19-.39Zm1.29-3.7c-.12-.19-1.2-3.55-2.61-1.88-1,1.14,3.11,2.65,2.61,1.88Zm2.33,2.92c-.06.21,0,3.74-1.9,2.59-1.28-.79,2.13-3.48,1.9-2.59ZM54,12.15c-.22-.05-3.29-1.79-3.19.39.06,1.5,4.08-.16,3.19-.39Zm1.65-1.47c.5.77-3.58-.73-2.6-1.88,1.4-1.66,2.48,1.7,2.6,1.88Zm2,.69c-.06.21-.05,3.74-1.9,2.59-1.28-.79,2.14-3.48,1.9-2.59Zm-3,5.74c-.21-.06-3.28-1.79-3.19.38.07,1.51,4.08-.16,3.19-.38ZM55,22.89c-.12-.19-1.2-3.55-2.6-1.88-1,1.15,3.1,2.65,2.6,1.88Zm-52.83,7c-.05.22,0,3.74-1.89,2.6C-1,31.68,2.42,29,2.18,29.88Zm57.45-7.45c-.21-.05-3.28-1.79-3.19.38.07,1.51,4.08-.15,3.19-.38ZM61.29,21c.5.77-3.58-.73-2.61-1.88,1.41-1.66,2.49,1.7,2.61,1.88Zm3-.63c0,.21,0,3.74-1.9,2.59-1.27-.8,2.14-3.48,1.9-2.59Zm-2.41-5.15c-.21-.06-3.28-1.79-3.19.38.07,1.51,4.08-.16,3.19-.38ZM67,38.88c-.12-.18-1.2-3.54-2.61-1.88-1,1.15,3.11,2.65,2.61,1.88Zm0,4.2c-.06.21,0,3.74-1.9,2.59-1.28-.8,2.14-3.48,1.9-2.59ZM9.24,15.42C9,15.37,6,13.63,6.06,15.8c.06,1.51,4.07-.15,3.18-.38ZM31.48,3.17c-.12-.18-1.2-3.54-2.61-1.88-1,1.15,3.11,2.65,2.61,1.88ZM10.12,18.58c.24-.89-3.17,1.8-1.89,2.59,1.85,1.15,1.84-2.38,1.89-2.59Zm44-12.73c-.21,0-3.28-1.79-3.19.39.07,1.5,4.08-.16,3.19-.39ZM46.3,59.93c-.12-.18-1.2-3.54-2.61-1.88-1,1.15,3.11,2.65,2.61,1.88ZM56.79,46.48c-.06.21,0,3.74-1.9,2.59-1.28-.79,2.14-3.48,1.9-2.59ZM16.23,10.07c.36-.85,1.36,3.38-.13,3.2-2.16-.25,0-3,.13-3.2Zm-3.91,2c-.12-.18-1.2-3.54-2.61-1.88-1,1.15,3.11,2.65,2.61,1.88Zm23.77,49.7c-.23-.89,3.18,1.79,1.9,2.59-1.85,1.15-1.84-2.38-1.9-2.59ZM27.16,65.6c-.21,0-3.29-1.79-3.19.39.06,1.5,4.08-.16,3.19-.39ZM27.05,6.89c.5.77-3.58-.73-2.61-1.88C25.85,3.35,26.93,6.71,27.05,6.89Z"/><polyline class="cls-4" points="56.26 40.68 56.26 25.38 22.89 25.38 22.89 49.02 45.14 49.02"/><polyline class="cls-4" points="32.62 21.21 32.62 25.38 35.4 25.38 35.4 21.21 43.75 21.21 43.75 25.38 46.53 25.38 46.53 21.21"/><path class="cls-4" d="M46.53,21.21a2.78,2.78,0,0,0-2.78-2.78"/><line class="cls-5" x1="43.75" y1="18.43" x2="35.4" y2="18.43"/><path class="cls-4" d="M35.4,18.43a2.78,2.78,0,0,0-2.78,2.78"/><polygon class="cls-4" points="54.18 37.2 24.97 37.2 22.89 35.11 22.89 25.38 56.26 25.38 56.26 35.11 54.18 37.2"/><rect class="cls-6" x="37.49" y="34.42" width="4.17" height="5.56"/><path class="cls-7" d="M25,46.24h1.39m4.18,0h1.39m-4.17,0h1.39"/><path class="cls-4" d="M59.37,44.08l1.31-1.3-2.31-2.32-1.31,1.31a6.62,6.62,0,0,0-1.69-.7V39.22H52.1v1.85a6.62,6.62,0,0,0-1.69.7l-1.3-1.31-2.32,2.32,1.31,1.3a6.62,6.62,0,0,0-.7,1.69H45.55V49H47.4a6.62,6.62,0,0,0,.7,1.69L46.79,52l2.32,2.31L50.41,53a6.28,6.28,0,0,0,1.69.7v1.85h3.27V53.74a6.28,6.28,0,0,0,1.69-.7l1.31,1.31L60.68,52l-1.31-1.31a6.28,6.28,0,0,0,.7-1.69h1.85V45.77H60.07a6.28,6.28,0,0,0-.7-1.69Zm-3.18,3.33A2.46,2.46,0,1,1,53.74,45,2.45,2.45,0,0,1,56.19,47.41Z"/><path class="cls-4" d="M56.19,47.41A2.46,2.46,0,1,1,53.74,45,2.45,2.45,0,0,1,56.19,47.41Z"/></g></g></g></svg>