<svg xmlns="http://www.w3.org/2000/svg" viewBox="0 0 76.13 71.75"><defs><style>.cls-1{isolation:isolate;}.cls-2{fill:#fff;}.cls-3,.cls-4{fill:none;stroke:#464545;stroke-miterlimit:10;stroke-width:1.42px;}.cls-4,.cls-5,.cls-6{fill-rule:evenodd;}.cls-5{fill:#4a66ae;}.cls-6{fill:#ececec;mix-blend-mode:multiply;}</style></defs><g class="cls-1"><g id="Шар_2" data-name="Шар 2"><g id="what_will_the_challenge_fund" data-name="what will the challenge fund"><circle class="cls-2" cx="42.58" cy="38.2" r="33.55" transform="translate(-13.69 27.9) rotate(-31.52)"/><line class="cls-3" x1="24.67" y1="43.75" x2="60.48" y2="43.75"/><polygon class="cls-4" points="49.37 53.63 35.79 53.63 38.26 48.08 46.9 48.08 49.37 53.63"/><line class="cls-3" x1="53.69" y1="56.1" x2="31.46" y2="56.1"/><path class="cls-4" d="M31.46,56.1A2.47,2.47,0,0,1,29,53.63"/><line class="cls-3" x1="28.99" y1="53.63" x2="56.16" y2="53.63"/><path class="cls-4" d="M56.16,53.63a2.47,2.47,0,0,1-2.47,2.47"/><line class="cls-3" x1="58.01" y1="48.08" x2="27.14" y2="48.08"/><path class="cls-4" d="M27.14,48.08a2.48,2.48,0,0,1-2.47-2.47"/><line class="cls-3" x1="24.67" y1="45.61" x2="24.67" y2="22.76"/><path class="cls-4" d="M24.67,22.76a2.48,2.48,0,0,1,2.47-2.47"/><line class="cls-3" x1="27.14" y1="20.29" x2="58.01" y2="20.29"/><path class="cls-4" d="M58,20.29a2.47,2.47,0,0,1,2.47,2.47"/><line class="cls-3" x1="60.48" y1="22.76" x2="60.48" y2="45.61"/><path class="cls-4" d="M60.48,45.61A2.47,2.47,0,0,1,58,48.08"/><path class="cls-5" d="M46.83,26.43l1-1L46.07,23.7l-1,1a5.06,5.06,0,0,0-1.27-.52v-1.4H41.34v1.4a5.06,5.06,0,0,0-1.27.52l-1-1-1.74,1.74,1,1a4.74,4.74,0,0,0-.53,1.27H36.4v2.47h1.4a4.74,4.74,0,0,0,.53,1.27l-1,1,1.74,1.75,1-1a4.72,4.72,0,0,0,1.27.52v1.4h2.47v-1.4a4.72,4.72,0,0,0,1.27-.52l1,1,1.75-1.75-1-1a4.72,4.72,0,0,0,.52-1.27h1.4V27.7h-1.4a4.72,4.72,0,0,0-.52-1.27Zm-2.4,2.51a1.85,1.85,0,1,1-1.85-1.86A1.85,1.85,0,0,1,44.43,28.94Z"/><path class="cls-4" d="M26.52,31.41h4.33l2.47,2.47h2.47m-9.27-4.94h8m-8-2.47h4.33L33.32,24h2.47"/><path class="cls-4" d="M58.63,31.41H54.31l-2.47,2.47H49.37m9.26-4.94h-8m8-2.47H54.31L51.84,24H49.37"/><path class="cls-4" d="M48.44,41.28l1.85-1.85-1.85-1.85m-11.73,0-1.85,1.85,1.85,1.85m2.83,0,1.8-3.7m1.24,3.09h1.23m1.24,0h1.23"/><line class="cls-3" x1="42" y1="45.79" x2="43.15" y2="45.79"/><path class="cls-6" d="M68.51,31.42c-.06.21-.05,3.74-1.9,2.59-1.28-.8,2.14-3.48,1.9-2.59ZM35.72,66.12c-.21-.05-3.28-1.79-3.19.39.07,1.5,4.08-.16,3.19-.39Zm29.33-18c-.21-.05-3.28-1.79-3.19.39.07,1.5,4.08-.16,3.19-.39ZM51.82,62.69c-.21-.06-3.28-1.8-3.19.38.07,1.5,4.08-.16,3.19-.38ZM53.29,58c.06.21.05,3.74,1.9,2.59,1.28-.8-2.14-3.48-1.9-2.59ZM43.77,64.3c-.06.21-.05,3.74-1.9,2.59-1.28-.8,2.14-3.48,1.9-2.59ZM56.51,53.91c-.21-.06-3.28-1.8-3.19.38.07,1.5,4.08-.16,3.19-.38Zm5.24.13c-.12-.18-1.2-3.55-2.61-1.88-1,1.15,3.11,2.65,2.61,1.88ZM25.29,14.78c-.05.22,0,3.74-1.9,2.6-1.27-.8,2.14-3.48,1.9-2.6Zm5.18,0c-.12-.19-1.2-3.55-2.61-1.89-1,1.15,3.11,2.66,2.61,1.89Zm-8.88-4.1c-.05.21,0,3.74-1.89,2.59-1.28-.79,2.13-3.48,1.89-2.59Zm4.92-.73c.9.23-3.12,1.89-3.18.38-.1-2.17,3-.43,3.18-.38Zm4.47-1c-.12-.19-1.19-3.55-2.6-1.88-1,1.15,3.1,2.65,2.6,1.88ZM19.9,14.59c-.22-.05-3.29-1.79-3.19.39.06,1.5,4.08-.16,3.19-.39Zm6.15,46c-.05.21,0,3.74-1.9,2.59-1.27-.79,2.14-3.48,1.9-2.59Zm-4.66,1.08c-.21-.06-3.29-1.79-3.19.38.07,1.51,4.08-.16,3.19-.38Zm.44-42.38c-.21-.05-3.28-1.79-3.19.39.07,1.5,4.08-.16,3.19-.39ZM7.07,53.37c-.12-.19-1.19-3.55-2.6-1.89-1,1.15,3.1,2.65,2.6,1.89Zm4.07.29c-.05.22,0,3.75-1.89,2.6-1.28-.8,2.13-3.48,1.89-2.6Zm9.07-23.47c-.21-.06-3.29-1.8-3.19.38.06,1.5,4.08-.16,3.19-.38Zm-4.4,25.43c-.11-.18-1.19-3.54-2.6-1.88-1,1.15,3.11,2.65,2.6,1.88Zm-1.46,3.13c-.21,0-3.29-1.79-3.19.39.07,1.5,4.08-.16,3.19-.39ZM10.24,48.57c-.06.22-.05,3.74-1.9,2.6-1.28-.8,2.13-3.48,1.9-2.6Zm4.6,1.61c-.12-.18-1.19-3.54-2.6-1.88-1,1.15,3.1,2.65,2.6,1.88ZM30.55,57.8c-.22-.06-3.29-1.79-3.19.38.06,1.51,4.08-.16,3.19-.38ZM25.78,31c-.05.22,0,3.74-1.89,2.59C22.61,32.81,26,30.13,25.78,31ZM23.32,7.36c-.22-.05-3.29-1.79-3.19.39.06,1.5,4.08-.16,3.19-.39Zm5,15.91c-.12-.18-1.2-3.54-2.61-1.88-1,1.15,3.11,2.65,2.61,1.88ZM38.89.18c-.06.21,0,3.74-1.9,2.59C35.72,2,39.13-.71,38.89.18Zm-14,26c-.06.22-.05,3.74-1.9,2.6-1.27-.8,2.14-3.48,1.9-2.6Zm36.4,19.21c.89.22-3.12,1.88-3.19.38-.09-2.17,3-.44,3.19-.38Zm5.22-18.74c-.12-.18-1.2-3.54-2.6-1.88-1,1.15,3.1,2.65,2.6,1.88ZM51.81,37.27c-.06.21-.05,3.74-1.9,2.59-1.28-.8,2.14-3.48,1.9-2.59ZM55,26.9c-.21-.06-3.28-1.79-3.18.38.06,1.5,4.07-.16,3.18-.38Zm3.62-.79c-.06.22,0,3.74-1.9,2.6-1.28-.8,2.14-3.48,1.9-2.6ZM52.3,30.69c-.21-.05-3.28-1.79-3.19.39.07,1.5,4.08-.16,3.19-.39Zm4,5.67c-.12-.19-1.19-3.55-2.6-1.88-1,1.15,3.1,2.65,2.6,1.88Zm2.33,4.23c.24-.89-3.18,1.8-1.9,2.59,1.85,1.15,1.84-2.38,1.9-2.59Zm2-3.42c-.21-.05-3.28-1.79-3.19.39.07,1.5,4.08-.16,3.19-.39Zm1.65-1.47c.5.77-3.57-.73-2.6-1.88,1.41-1.66,2.48,1.7,2.6,1.88ZM5.79,26.52c0,.21,0,3.74-1.89,2.59-1.28-.8,2.13-3.48,1.89-2.59ZM61,31.61c-.21-.05-3.28-1.79-3.18.39.06,1.5,4.07-.16,3.18-.39Zm2.06-3.48c.5.77-3.57-.73-2.6-1.88,1.4-1.67,2.48,1.7,2.6,1.88Zm1.56,2.7c.23-.89-3.18,1.79-1.9,2.59,1.85,1.15,1.84-2.38,1.9-2.59ZM5.06,36.77c-.21-.05-3.28-1.79-3.18.39.06,1.5,4.07-.16,3.18-.39ZM6.59,34c-.12-.19-1.2-3.55-2.6-1.88-1,1.15,3.1,2.65,2.6,1.88Zm4.07.3c-.06.21-.05,3.74-1.9,2.59-1.28-.79,2.14-3.48,1.9-2.59ZM5.51,42.76c-.21,0-3.28-1.79-3.19.39.07,1.5,4.08-.16,3.19-.39ZM7.35,41c.49.77-3.58-.73-2.61-1.88,1.41-1.67,2.49,1.7,2.61,1.88Zm5.77-1.18c-.21,0-3.28-1.79-3.18.39.06,1.5,4.07-.16,3.18-.39Zm3.59-3c-.12-.18-1.2-3.54-2.6-1.88-1,1.15,3.1,2.65,2.6,1.88Zm0,2.26c-.06.21,0,3.74-1.9,2.59-1.28-.79,2.14-3.48,1.9-2.59Zm2.44-16.14c.89.23-3.12,1.89-3.19.39-.09-2.18,3-.44,3.19-.39Zm-4.61-4.8c-.12-.19-1.19-3.55-2.6-1.88-1,1.15,3.1,2.65,2.6,1.88Zm-1.28,2.1c0,.21,0,3.74-1.89,2.59-1.28-.79,2.13-3.48,1.89-2.59ZM11.09,46c-.21,0-3.28-1.79-3.19.39C8,47.9,12,46.24,11.09,46ZM10,26.88c-.12-.18-1.2-3.54-2.6-1.88-1,1.15,3.1,2.65,2.6,1.88Zm-.23,2.37c-.06.21-.05,3.74-1.9,2.59C6.57,31,10,28.36,9.75,29.25Zm4.61,1.6c-.12-.18-1.2-3.54-2.61-1.88-1,1.15,3.11,2.65,2.61,1.88Zm1.4-5.14c-.21-.06-3.28-1.8-3.19.38.07,1.5,4.08-.16,3.19-.38Zm1.7,18.39c-.06.21-.05,3.74-1.9,2.59-1.28-.79,2.14-3.48,1.9-2.59ZM35.34,27.7c-.06.22-.05,3.74-1.9,2.59-1.28-.79,2.13-3.47,1.9-2.59Zm5,.33c-.12-.19-1.2-3.55-2.6-1.88-1,1.15,3.1,2.65,2.6,1.88Zm-20,22.14c-.21-.06-3.28-1.8-3.18.38.06,1.5,4.07-.16,3.18-.38Zm4.26-2.05c.5.77-3.58-.73-2.61-1.88,1.41-1.66,2.49,1.7,2.61,1.88Zm4.07.3c-.06.21,0,3.74-1.9,2.59-1.28-.79,2.14-3.48,1.9-2.59Zm-7.8,8.22c-.22,0-3.29-1.79-3.19.38.06,1.51,4.08-.15,3.19-.38Zm4.48-1.55c-.12-.18-1.19-3.54-2.6-1.88-1,1.15,3.1,2.65,2.6,1.88Zm5.78-1.17c-.21-.06-3.28-1.79-3.19.38.07,1.51,4.08-.16,3.19-.38Zm3.59-3c-.12-.19-1.2-3.55-2.6-1.88-1,1.14,3.1,2.65,2.6,1.88Zm0,2.25c-.06.22,0,3.74-1.9,2.6-1.28-.8,2.13-3.48,1.9-2.6ZM24,35.88c-.22-.05-3.29-1.79-3.19.38.06,1.51,4.08-.15,3.19-.38Zm7.21-4.69c-.12-.18-1.2-3.54-2.61-1.88-1,1.15,3.11,2.65,2.61,1.88Zm.12,3.1c-.06.21-.05,3.74-1.89,2.59-1.28-.79,2.13-3.47,1.89-2.59ZM23.15,42c-.21-.06-3.28-1.8-3.19.38.07,1.5,4.08-.16,3.19-.38Zm4.91-1c.5.77-3.58-.73-2.6-1.88,1.4-1.66,2.48,1.7,2.6,1.88Zm-.23,2.37c.24-.89-3.18,1.8-1.9,2.59,1.85,1.15,1.84-2.38,1.9-2.59Zm9.84,3c.89.23-3.13,1.89-3.19.39-.1-2.18,3-.44,3.19-.39Zm-5.23-1.43c-.12-.19-1.2-3.55-2.61-1.89-1,1.15,3.11,2.66,2.61,1.89Zm6.19,8.88c-.06.21-.05,3.74-1.9,2.59-1.28-.8,2.13-3.48,1.9-2.59Zm-4.79-14c-.21-.06-3.29-1.79-3.19.38.07,1.51,4.08-.16,3.19-.38Zm1.28-3.71c-.12-.18-1.2-3.54-2.6-1.88-1,1.15,3.1,2.65,2.6,1.88ZM37.45,39c-.06.21-.05,3.74-1.9,2.59-1.27-.8,2.14-3.48,1.9-2.59Zm4.33,4.44c-.21-.06-3.28-1.79-3.19.38.07,1.51,4.08-.16,3.19-.38Zm22.37-1.32c.5.77-3.57-.73-2.6-1.88C63,38.59,64,42,64.15,42.13ZM44.4,38.78c-.06.21,0,3.74-1.9,2.59-1.28-.79,2.14-3.48,1.9-2.59Zm-4,12c-.21-.06-3.28-1.8-3.19.38.07,1.5,4.08-.16,3.19-.38Zm2.71-1.27c.5.77-3.57-.74-2.6-1.88C42,46,43,49.35,43.14,49.54ZM41.69,56.7c.24-.88-3.17,1.8-1.89,2.6,1.85,1.14,1.84-2.38,1.89-2.6Zm5.75-3c-.21-.06-3.28-1.8-3.19.38.07,1.5,4.08-.16,3.19-.38ZM53,51.87c.5.77-3.58-.73-2.61-1.88,1.41-1.66,2.49,1.7,2.61,1.88ZM35.54,58.19c.23-.89-3.18,1.79-1.9,2.59,1.85,1.14,1.84-2.38,1.9-2.59Zm12.32-10c-.21,0-3.28-1.79-3.19.39.07,1.5,4.08-.16,3.19-.39Zm1.7-2.76c-.12-.19-1.19-3.55-2.6-1.88-1,1.15,3.1,2.65,2.6,1.88Zm9.15,10.22c-.06.21-.05,3.74-1.9,2.59-1.27-.79,2.14-3.48,1.9-2.59ZM39.66,31.2c-.21-.05-3.28-1.79-3.19.39.07,1.5,4.08-.16,3.19-.39Zm5.27-2.88c-.12-.19-1.2-3.55-2.6-1.88-1,1.15,3.1,2.65,2.6,1.88Zm2,.69c-.06.21,0,3.74-1.9,2.59-1.28-.8,2.14-3.48,1.9-2.59Zm-5,8.14c-.21-.06-3.28-1.79-3.18.38.06,1.51,4.08-.16,3.18-.38Zm1.66-1.47c.5.77-3.58-.74-2.61-1.88,1.41-1.67,2.49,1.69,2.61,1.88ZM50.41,55.5c0,.21,0,3.74-1.89,2.59-1.28-.79,2.13-3.48,1.89-2.59ZM48.93,40.07c-.21-.06-3.28-1.8-3.18.38.06,1.51,4.07-.16,3.18-.38ZM17.43,8.22c-.12-.19-1.2-3.55-2.61-1.89-1,1.15,3.11,2.66,2.61,1.89ZM31.17,61.27c-.06.21-.05,3.74-1.9,2.59-1.28-.79,2.14-3.47,1.9-2.59ZM48.68,35.36c-.21,0-3.28-1.79-3.19.38.07,1.51,4.08-.15,3.19-.38Zm5.8,10.87c-.12-.19-1.2-3.55-2.6-1.88-1,1.15,3.1,2.65,2.6,1.88ZM24,2c-.05.21,0,3.74-1.89,2.59C20.78,3.78,24.19,1.09,24,2Zm8.66,16.89c-.21-.05-3.29-1.79-3.19.38.07,1.51,4.08-.15,3.19-.38Zm4.25-2c.5.77-3.57-.74-2.6-1.88,1.4-1.67,2.48,1.69,2.6,1.88Zm4.07.3c-.06.21,0,3.74-1.9,2.59-1.27-.8,2.14-3.48,1.9-2.59Zm-7.8,8.22c-.21-.06-3.28-1.8-3.19.38.07,1.5,4.08-.16,3.19-.38Zm4.49-1.55c.5.77-3.58-.73-2.61-1.88,1.41-1.67,2.49,1.69,2.61,1.88Zm5.78-1.18c.89.23-3.12,1.89-3.19.39-.1-2.18,3-.44,3.19-.39Zm3.58-3c-.12-.18-1.19-3.54-2.6-1.88-1,1.15,3.1,2.65,2.6,1.88Zm0,2.26c-.06.21,0,3.74-1.9,2.59-1.28-.79,2.14-3.48,1.9-2.59ZM36.23,4.59C36,4.53,33,2.79,33,5c.07,1.5,4.08-.16,3.19-.38ZM5.7,22.53c-.12-.19-1.2-3.55-2.6-1.88-1,1.15,3.1,2.65,2.6,1.88ZM43.57,3c-.06.21,0,3.74-1.9,2.59C40.39,4.8,43.81,2.11,43.57,3Zm-8.22,7.71c-.22-.05-3.29-1.79-3.19.39.06,1.5,4.08-.16,3.19-.39Zm4.9-1c.5.77-3.57-.73-2.6-1.88,1.41-1.67,2.48,1.69,2.6,1.88ZM40,12c.24-.89-3.17,1.79-1.89,2.59C40,15.78,40,12.25,40,12Zm9.84,3c.89.22-3.12,1.88-3.19.38-.09-2.17,3-.44,3.19-.38Zm-5.23-1.44c-.12-.18-1.2-3.54-2.6-1.88-1,1.15,3.1,2.65,2.6,1.88Zm6.19,8.88c-.06.21,0,3.74-1.9,2.59-1.27-.79,2.14-3.48,1.9-2.59ZM46,8.49c-.21-.05-3.28-1.79-3.19.39.07,1.5,4.08-.16,3.19-.39Zm1.29-3.7c-.12-.19-1.2-3.55-2.61-1.88-1,1.14,3.11,2.65,2.61,1.88Zm2.33,2.92c-.06.21,0,3.74-1.9,2.59-1.28-.79,2.13-3.48,1.9-2.59ZM54,12.15c-.22-.05-3.29-1.79-3.19.39.06,1.5,4.08-.16,3.19-.39Zm1.65-1.47c.5.77-3.58-.73-2.6-1.88,1.4-1.66,2.48,1.7,2.6,1.88Zm2,.69c-.06.21-.05,3.74-1.9,2.59-1.28-.79,2.14-3.48,1.9-2.59Zm-3,5.74c-.21-.06-3.28-1.79-3.19.38.07,1.51,4.08-.16,3.19-.38ZM55,22.89c-.12-.19-1.2-3.55-2.6-1.88-1,1.15,3.1,2.65,2.6,1.88Zm-52.83,7c-.05.22,0,3.74-1.89,2.6C-1,31.68,2.42,29,2.18,29.88Zm57.45-7.45c-.21-.05-3.28-1.79-3.19.38.07,1.51,4.08-.15,3.19-.38ZM61.29,21c.5.77-3.58-.73-2.61-1.88,1.41-1.66,2.49,1.7,2.61,1.88Zm3-.63c0,.21,0,3.74-1.9,2.59-1.27-.8,2.14-3.48,1.9-2.59Zm-2.41-5.15c-.21-.06-3.28-1.79-3.19.38.07,1.51,4.08-.16,3.19-.38ZM67,38.88c-.12-.18-1.2-3.54-2.61-1.88-1,1.15,3.11,2.65,2.61,1.88Zm0,4.2c-.06.21,0,3.74-1.9,2.59-1.28-.8,2.14-3.48,1.9-2.59ZM9.24,15.42C9,15.37,6,13.63,6.06,15.8c.06,1.51,4.07-.15,3.18-.38ZM31.48,3.17c-.12-.18-1.2-3.54-2.61-1.88-1,1.15,3.11,2.65,2.61,1.88ZM10.12,18.58c.24-.89-3.17,1.8-1.89,2.59,1.85,1.15,1.84-2.38,1.89-2.59Zm44-12.73c-.21,0-3.28-1.79-3.19.39.07,1.5,4.08-.16,3.19-.39ZM46.3,59.93c-.12-.18-1.2-3.54-2.61-1.88-1,1.15,3.11,2.65,2.61,1.88ZM56.79,46.48c-.06.21,0,3.74-1.9,2.59-1.28-.79,2.14-3.48,1.9-2.59ZM16.23,10.07c.36-.85,1.36,3.38-.13,3.2-2.16-.25,0-3,.13-3.2Zm-3.91,2c-.12-.18-1.2-3.54-2.61-1.88-1,1.15,3.11,2.65,2.61,1.88Zm23.77,49.7c-.23-.89,3.18,1.79,1.9,2.59-1.85,1.15-1.84-2.38-1.9-2.59ZM27.16,65.6c-.21,0-3.29-1.79-3.19.39.06,1.5,4.08-.16,3.19-.39ZM27.05,6.89c.5.77-3.58-.73-2.61-1.88C25.85,3.35,26.93,6.71,27.05,6.89Z"/></g></g></g></svg>