<svg xmlns="http://www.w3.org/2000/svg" viewBox="0 0 65.34 65.34"><defs><style>.cls-1,.cls-2,.cls-3,.cls-5{fill:none;}.cls-1,.cls-2,.cls-3,.cls-4{stroke:#464545;}.cls-1,.cls-2{stroke-miterlimit:10;}.cls-1,.cls-3,.cls-4{fill-rule:evenodd;}.cls-3,.cls-4{stroke-linejoin:round;}.cls-4{fill:#c9d300;}.cls-5{stroke:#c9d300;stroke-miterlimit:22.93;stroke-width:2.13px;stroke-dasharray:2.13 2.13;}</style></defs><g id="Шар_2" data-name="Шар 2"><g id="participants"><path class="cls-1" d="M22.83,32.67a3.28,3.28,0,1,1-3.27-3.28A3.27,3.27,0,0,1,22.83,32.67Z"/><polyline class="cls-1" points="16.28 38.57 16.28 51.68 19.56 51.68 19.56 43.82"/><polyline class="cls-1" points="16.28 43.16 13.66 43.16 13.66 38.57"/><path class="cls-1" d="M13.66,38.57A2.62,2.62,0,0,1,16.28,36"/><polyline class="cls-1" points="16.28 35.95 29.39 35.95 29.39 38.57 22.84 38.57 22.84 51.68 19.56 51.68 19.56 43.82"/><path class="cls-1" d="M49.06,32.67a3.28,3.28,0,1,1-3.28-3.28A3.28,3.28,0,0,1,49.06,32.67Z"/><polyline class="cls-1" points="42.51 43.16 39.88 43.16 39.88 38.57"/><path class="cls-1" d="M39.88,38.57A2.62,2.62,0,0,1,42.5,36"/><line class="cls-2" x1="42.5" y1="35.95" x2="49.06" y2="35.95"/><path class="cls-1" d="M49.06,36a2.62,2.62,0,0,1,2.62,2.62"/><polyline class="cls-1" points="51.68 38.57 51.68 43.16 49.06 43.16"/><polyline class="cls-1" points="42.51 38.57 42.51 51.68 45.78 51.68 45.78 43.82"/><polyline class="cls-1" points="49.06 38.57 49.06 51.68 45.78 51.68 45.78 43.82"/><line class="cls-2" x1="32.67" y1="13.66" x2="32.67" y2="17.84"/><path class="cls-1" d="M32.67,17.84a2.62,2.62,0,1,1,0,3.44"/><polyline class="cls-3" points="32.67 21.27 32.67 25.46 36.6 25.46 40.54 29.39 40.54 25.46 48.41 25.46 48.41 13.66 32.67 13.66"/><path class="cls-4" d="M34.64,16.93a2.61,2.61,0,0,0-2,.91V13.66H16.93v11.8H24.8v3.93l3.94-3.93h3.93V21.28a2.62,2.62,0,1,0,2-4.35Z"/><line class="cls-2" x1="19.56" y1="16.93" x2="30.05" y2="16.93"/><line class="cls-2" x1="19.56" y1="19.56" x2="30.05" y2="19.56"/><line class="cls-2" x1="19.56" y1="22.18" x2="30.05" y2="22.18"/><line class="cls-2" x1="39.88" y1="16.93" x2="45.78" y2="16.93"/><line class="cls-2" x1="39.88" y1="19.56" x2="45.78" y2="19.56"/><line class="cls-2" x1="39.88" y1="22.18" x2="45.78" y2="22.18"/><circle class="cls-5" cx="32.67" cy="32.67" r="31.61" transform="translate(-12.33 22.2) rotate(-31.9)"/></g></g></svg>