<svg xmlns="http://www.w3.org/2000/svg" viewBox="0 0 65.34 65.34"><defs><style>.cls-1,.cls-2,.cls-3,.cls-4,.cls-5,.cls-6{fill:none;}.cls-1,.cls-5,.cls-6{stroke:#c9d300;}.cls-1{stroke-miterlimit:22.93;stroke-width:2.13px;stroke-dasharray:2.13 2.13;}.cls-2,.cls-3,.cls-4,.cls-7{stroke:#464545;}.cls-2,.cls-3,.cls-4,.cls-5,.cls-6,.cls-7{stroke-linejoin:round;}.cls-3,.cls-4,.cls-5,.cls-6,.cls-7{fill-rule:evenodd;}.cls-4{stroke-linecap:round;}.cls-6{stroke-dasharray:2 2;}.cls-7{fill:#c9d300;}</style></defs><g id="Шар_2" data-name="Шар 2"><g id="participants"><circle class="cls-1" cx="32.67" cy="32.67" r="31.61" transform="translate(-12.33 22.2) rotate(-31.9)"/><line class="cls-2" x1="40.82" y1="45.84" x2="40.82" y2="37.06"/><path class="cls-3" d="M40.82,37.06a4.4,4.4,0,0,1,4.39-4.39"/><line class="cls-2" x1="45.21" y1="32.67" x2="45.21" y2="25.77"/><path class="cls-4" d="M45.21,25.77a5.65,5.65,0,0,1,5.64-5.64"/><polyline class="cls-4" points="50.85 20.13 50.85 21.38 50.85 50.85 22.01 50.85 22.01 42.08"/><path class="cls-3" d="M32.67,19.5a13.76,13.76,0,0,0-11.32,5.92c0,.12,0,.23,0,.35a2.49,2.49,0,0,1-1.47,2.28,14.31,14.31,0,0,0-.59,1.82,2.32,2.32,0,0,1,.18.92,2.48,2.48,0,0,1-.58,1.59c0,.3,0,.61,0,.92s0,.6,0,.9a2.52,2.52,0,0,1,.59,1.6,2.57,2.57,0,0,1-.19,1,13.8,13.8,0,0,0,21.51,7.66"/><line class="cls-2" x1="40.82" y1="44.42" x2="40.82" y2="37.06"/><path class="cls-4" d="M40.82,37.06a4.4,4.4,0,0,1,4.39-4.39"/><line class="cls-2" x1="45.21" y1="32.67" x2="45.21" y2="27.55"/><path class="cls-3" d="M45.21,27.55a13.79,13.79,0,0,0-12.54-8"/><path class="cls-5" d="M34.55,22.17a11.34,11.34,0,0,1,8.15,6"/><path class="cls-6" d="M30.79,44.27a11.36,11.36,0,0,1-7.53-4.89"/><path class="cls-3" d="M21.38,25.77a2.51,2.51,0,1,1-2.5-2.5A2.5,2.5,0,0,1,21.38,25.77Z"/><path class="cls-3" d="M19.5,30.79A2.51,2.51,0,1,1,17,28.28,2.51,2.51,0,0,1,19.5,30.79Z"/><path class="cls-3" d="M19.5,35.8A2.51,2.51,0,1,1,17,33.3,2.5,2.5,0,0,1,19.5,35.8Z"/><line class="cls-2" x1="22.01" y1="24.52" x2="16.52" y2="19.03"/><path class="cls-3" d="M16.52,19a2.67,2.67,0,0,1-.78-1.88"/><path class="cls-3" d="M15.74,17.15a2.66,2.66,0,0,1,2.66-2.66"/><path class="cls-3" d="M18.4,14.49a2.65,2.65,0,0,1,1.88.78"/><line class="cls-2" x1="20.28" y1="15.27" x2="26.4" y2="21.38"/><rect class="cls-2" x="28.91" y="14.49" width="7.52" height="2.51"/><path class="cls-3" d="M32.67,19.5a12.9,12.9,0,0,1,1.88.14"/><polyline class="cls-3" points="34.55 19.64 34.55 17 30.79 17 30.79 19.63"/><path class="cls-3" d="M30.79,19.63a14.47,14.47,0,0,1,1.88-.13"/><polyline class="cls-3" points="42.1 23.24 45.21 20.13 42.7 17.62 39.18 21.14"/><path class="cls-3" d="M39.18,21.14a13.8,13.8,0,0,1,2.92,2.1"/><line class="cls-2" x1="34.28" y1="34.19" x2="34.28" y2="34.19"/><path class="cls-7" d="M31.06,34.19a2.28,2.28,0,0,0,3.83-2.13l-2.22-9.42-2.22,9.42A2.26,2.26,0,0,0,31.06,34.19Z"/><line class="cls-2" x1="32.67" y1="33.3" x2="32.67" y2="32.04"/></g></g></svg>